<svg id="Layer_1" data-name="Layer 1" xmlns="http://www.w3.org/2000/svg" viewBox="0 0 288 288"><defs><style>.cls-1{fill:#8347ad;}.cls-2{fill:#56bbe8;}.cls-3{fill:#000b63;}</style></defs><polygon class="cls-1" points="15.2 226.62 2.12 226.62 7.45 219.83 58.44 155.52 106.49 214.79 97.01 226.62 15.2 226.62"/><polygon class="cls-2" points="168.29 199.6 129.79 177.6 134.9 168.67 167.53 187.32 187.94 172.01 208.03 182.06 226.33 163.76 233.6 171.03 210.06 194.57 189.02 184.05 168.29 199.6"/><polygon class="cls-3" points="168.29 235.17 112.24 203.14 119.1 195.22 167.53 222.89 187.94 207.58 208.03 217.63 241.29 184.37 247.59 192.62 210.06 230.15 189.02 219.63 168.29 235.17"/><path class="cls-3" d="M119.46,171h-9.61V94.23h4.8c11.3,0,17.72,10.37,21,18.47,3.82-5.68,7.82-13,7.82-18.47,0-7.6-1.84-14.42-24-14.42V70.2c15.66,0,33.63,2.73,33.63,24,0,13.48-14,30.11-15.58,32l-6.4,7.44-2-9.62c-.84-4.16-4.13-14.42-9.7-18.48Z"/><path class="cls-3" d="M95.43,171H85.82V99.86c-9.48,3.6-9.61,17.71-9.61,18.39V124L70.52,123c-8-1.49-23.14-8.43-23.14-23.94,0-21.28,15.53-28.83,28.83-28.83v9.61C70.43,79.81,57,81.68,57,99c0,7.08,5.75,10.93,10.2,12.85,1.79-10,8-22.46,23.43-22.46h4.81Z"/><path class="cls-3" d="M57,79.23c-.36-7.39-9.31-9-16.75-9-4.64,0-7.2,0-7.2,0l-6.22.06,1.5-6c2-7.9,10.52-22.86,28.69-22.86,16.39,0,25.08,8.68,30.26,13.87L80.47,62h0C75.79,57.37,69.41,51,57,51c-8.93,0-14,5.21-16.7,9.61,16.14.1,25.72,6.71,26.29,18.16Z"/><path class="cls-3" d="M137.92,79l-8.1-5.18c5.68-8.88,14.77-13.63,20.85-16C148,54.68,142.87,51,133.87,51c-7.27,0-17.17,4.35-17.27,4.39l-6.75,3V51c0-11.06,6.57-21.24,11.28-27.11a27,27,0,0,0-8.66-1.72c-15.31,0-21.85,5.75-21.85,19.22H81c0-13.15,5.46-28.83,31.46-28.83,9.27,0,18.6,5.2,19,5.42l5.63,3.18-4.66,4.48c-.11.1-8.47,8.23-11.72,18.05a47.45,47.45,0,0,1,13.15-2.3c22.43,0,28.34,17,28.58,17.7l1.72,5.13-5.3,1.1C158.75,65.32,144.65,68.43,137.92,79Z"/><polygon class="cls-3" points="269.67 228.14 264.47 221.29 183.33 114.6 95.59 229.99 90.81 236.29 77.77 235.99 86.79 224.17 183.61 97.23 183.61 97.23 279.01 223.43 282.37 227.86 269.67 228.14"/><rect class="cls-3" y="238.02" width="288" height="10.28"/><rect class="cls-3" x="79.79" y="259.7" width="128.42" height="10.28"/></svg>