<svg id="Layer_1" data-name="Layer 1" xmlns="http://www.w3.org/2000/svg" viewBox="0 0 288 288"><defs><style>.cls-1{fill:#8347ad;}.cls-2{fill:#000b63;}.cls-3{fill:#56bbe8;}</style></defs><circle class="cls-1" cx="183.28" cy="126.15" r="47.19"/><path class="cls-2" d="M181.42,215.14v-5A85.7,85.7,0,1,1,202.78,41.41l3.74-9.29A128.08,128.08,0,1,0,271.6,156.23L261.83,154a86,86,0,0,1-30.93,40.31,85.11,85.11,0,0,1-49.48,15.78v10.1a95.31,95.31,0,0,0,55.33-17.64,96.29,96.29,0,0,0,34.56-45.05l-4.74-1.75-5-.48a118.14,118.14,0,1,1-60-114.35l2.47-4.4,1.27-4.89a95.79,95.79,0,1,0-23.9,188.56Z"/><polygon class="cls-3" points="257.21 130 207.46 130 199.02 92.2 182.96 120.76 171.5 102.08 158.75 130 123.57 130 123.57 140.1 165.25 140.1 172.81 123.53 183.35 140.69 194.91 120.13 199.37 140.1 257.21 140.1 257.21 130 257.21 130"/></svg>