<svg id="Layer_1" data-name="Layer 1" xmlns="http://www.w3.org/2000/svg" viewBox="0 0 288 288"><defs><style>.cls-1{fill:#8347ad;}.cls-2{fill:#000b63;}.cls-3{fill:#56bbe8;}</style></defs><path class="cls-1" d="M32.51,131.69c-4.17-14.6-21.6,115.5,90.66,140.09,21.12,1.49,20.83-9.69,20.83-9.69l1.53-38.5s-16.4-29.81-38.75-39.49S34,136.9,32.51,131.69Z"/><rect class="cls-2" x="139.19" y="47.85" width="9.62" height="9.62"/><rect class="cls-2" x="139.19" y="67.08" width="9.62" height="38.46"/><rect class="cls-2" x="14.19" y="269" width="259.62" height="9.62"/><path class="cls-2" d="M148.81,273.81h-9.62c0-31.27,17.89-45.14,38.59-61.21,16.72-13,35.68-27.7,50.46-55.13l8.47,4.55c-15.74,29.24-35.55,44.61-53,58.18C163.43,235.9,148.81,247.25,148.81,273.81Z"/><path class="cls-3" d="M108.26,110.35h0l0,14.42h71.49V110.35Z"/><rect class="cls-2" x="124.77" y="129.58" width="9.62" height="72.81"/><rect class="cls-2" x="153.62" y="129.58" width="9.62" height="63.63"/><rect class="cls-2" x="129.58" y="144" width="28.85" height="9.62"/><path class="cls-2" d="M168,105.54h-9.62v-4A38.33,38.33,0,0,1,168.7,75.47a33.65,33.65,0,1,0-49.4,0,38.33,38.33,0,0,1,10.28,26.12v4H120v-4A28.78,28.78,0,0,0,112.25,82a43.27,43.27,0,1,1,63.5,0A28.78,28.78,0,0,0,168,101.59Z"/><rect class="cls-2" x="71.76" y="11.83" width="9.62" height="19.02" transform="translate(23.23 80.28) rotate(-63.43)"/><rect class="cls-2" x="67.06" y="50.31" width="19.02" height="9.62" transform="translate(-16.57 40.06) rotate(-26.56)"/><rect class="cls-2" x="201.92" y="16.53" width="19.02" height="9.62" transform="translate(12.78 96.81) rotate(-26.56)"/><rect class="cls-2" x="206.62" y="45.61" width="9.62" height="19.02" transform="translate(67.56 219.56) rotate(-63.43)"/><path class="cls-2" d="M264.15,153.51c-.54-25.08-5.41-46.22-14.92-64.6l-7.12-13.77-1.92,15.38c-3.64,29.15-19.87,39.7-38.65,51.9-21.55,14-45.21,29.39-56.16,72.93C132.59,193.09,112,182,92.07,171.24,71.82,160.32,50.88,149,36.65,125.89l-5.81-9.46-2.92,10.71a117.69,117.69,0,0,0-4.11,31.28c0,1.68,0,3.35.1,5a120.19,120.19,0,0,0,240.28-5C264.19,156.82,264.18,155.19,264.15,153.51ZM33.52,163c-.06-1.53-.1-3.06-.1-4.61a111,111,0,0,1,1.47-18.22c14.92,19.17,34,29.48,52.61,39.5,10,5.38,19.71,10.63,28.37,17.14A61.6,61.6,0,0,1,140,250.68v.21c-7.17-8.88-18-16.74-29.71-25.25-17.67-12.83-37.7-27.37-50.84-49.27l-8.24,4.95c14.15,23.58,35,38.73,53.43,52.11,17.18,12.46,31.13,22.61,34,35.44A110.23,110.23,0,0,1,33.52,163ZM148.85,268.89c1.16-81.5,31.29-101.09,57.93-118.41,16.64-10.81,32.51-21.13,39.74-43.79,5,13.84,7.64,29.36,8,47,0,1.61.05,3.18.05,4.71A110.72,110.72,0,0,1,148.85,268.89Z"/></svg>