<svg id="Layer_1" data-name="Layer 1" xmlns="http://www.w3.org/2000/svg" viewBox="0 0 288 288"><defs><style>.cls-1{fill:#000b63;}.cls-2{fill:#8347ad;}.cls-3{fill:#56bbe8;}</style></defs><polygon class="cls-1" points="278.88 221.07 9.12 221.07 9.12 33.21 42.83 33.21 42.83 42.84 18.75 42.84 18.75 211.44 269.25 211.44 269.25 42.84 245.16 42.84 245.16 33.21 278.88 33.21 278.88 221.07"/><rect class="cls-1" x="86.19" y="249.98" width="115.61" height="9.63"/><rect class="cls-1" x="89.53" y="230.71" width="41.43" height="9.63" transform="translate(-149.31 251.54) rotate(-68.45)"/><rect class="cls-1" x="172.94" y="214.81" width="9.63" height="41.43" transform="translate(-74.1 81.78) rotate(-21.56)"/><polygon class="cls-2" points="105.46 75.92 83.79 61.48 62.11 75.92 62.11 17.44 71.74 17.44 95.83 14.03 105.46 14.03 105.46 75.92"/><rect class="cls-1" x="28.39" y="269.25" width="202.32" height="9.63"/><rect class="cls-1" x="240.34" y="269.25" width="19.27" height="9.63"/><rect class="cls-1" x="139.18" y="23.57" width="9.63" height="163.78"/><path class="cls-1" d="M238.08,192.17h0a11.8,11.8,0,0,1-5.74-1.52c-9.28-5.08-24.29-8.11-40.15-8.11-15.29,0-29.48,2.74-38.94,7.51a21.24,21.24,0,0,1-18.45,0c-9.47-4.77-23.66-7.51-38.95-7.51-15.87,0-30.88,3-40.17,8.13A11.87,11.87,0,0,1,38,180.28V35.61C38,18.41,67.81,9.12,95.83,9.12c16.75,0,32.52,3.11,43.28,8.55a11.6,11.6,0,0,0,9.79,0c10.75-5.43,26.52-8.54,43.27-8.54,28,0,57.81,9.29,57.81,26.49V160h-9.64V35.61c0-7-18.33-16.86-48.17-16.86-15.29,0-29.48,2.74-38.94,7.52a21.24,21.24,0,0,1-18.45,0c-9.47-4.78-23.66-7.52-38.95-7.52-29.84,0-48.17,9.82-48.17,16.86V180.28A2.2,2.2,0,0,0,51,182.21c10.79-5.91,27.12-9.31,44.79-9.31,16.75,0,32.52,3.12,43.28,8.55a11.63,11.63,0,0,0,9.79,0c10.75-5.43,26.52-8.55,43.27-8.55,17.66,0,34,3.39,44.79,9.31a2.33,2.33,0,0,0,1.11.33h0a2.27,2.27,0,0,0,1.61-.67,2.3,2.3,0,0,0,.66-1.6V158.45H250v21.82a11.9,11.9,0,0,1-11.9,11.9Z"/><rect class="cls-1" x="163.27" y="52.47" width="62.62" height="9.63"/><rect class="cls-1" x="163.27" y="76.56" width="62.62" height="9.63"/><rect class="cls-3" x="163.27" y="100.65" width="62.62" height="9.63"/><rect class="cls-3" x="163.27" y="124.73" width="43.35" height="9.63"/></svg>