<svg id="Layer_1" data-name="Layer 1" xmlns="http://www.w3.org/2000/svg" viewBox="0 0 288 288"><defs><style>.cls-1{fill:#000b63;}.cls-2{fill:#56bbe8;}.cls-3{fill:#8347ad;}.cls-4{fill:#fff;}</style></defs><path class="cls-1" d="M249.77,245h-5.23v-9.61h5.23a4.82,4.82,0,0,0,4.81-4.81V71.88a4.81,4.81,0,0,0-4.81-4.8H38.23a4.81,4.81,0,0,0-4.81,4.8V230.54a4.82,4.82,0,0,0,4.81,4.81H158.84V245H38.23a14.44,14.44,0,0,1-14.42-14.42V71.88A14.44,14.44,0,0,1,38.23,57.46H249.77a14.44,14.44,0,0,1,14.42,14.42V230.54A14.44,14.44,0,0,1,249.77,245Z"/><polygon class="cls-1" points="230.54 115.15 57.46 115.15 57.46 76.69 168.04 76.69 168.04 86.31 67.08 86.31 67.08 105.54 220.92 105.54 220.92 86.31 196.88 86.31 196.88 76.69 230.54 76.69 230.54 115.15"/><rect class="cls-1" x="187.27" y="76.69" width="9.62" height="9.62"/><rect class="cls-1" x="57.46" y="138.15" width="86.54" height="9.62"/><rect class="cls-1" x="57.46" y="157.38" width="43.27" height="9.62"/><path class="cls-1" d="M70.57,66.49,66,58l66.67-36.19a24.37,24.37,0,0,1,22.66,0l66.56,36.22-4.6,8.44-66.51-36.2a14.73,14.73,0,0,0-13.55,0Z"/><path class="cls-1" d="M183.88,275.73,147.24,251.3l2.19-3.89a223.52,223.52,0,0,0,17.5-38l9.07,3.21a224.47,224.47,0,0,1-16,35.57l21,14a195.63,195.63,0,0,0,16.13-37.84l9.22,2.72c-3.65,12.41-11.19,31-19.78,44.49Z"/><path class="cls-2" d="M129.58,225.73H57.46v-9.61H71.88v-4.34c0-10.42,8.09-19.3,18.5-19.69a19.25,19.25,0,0,1,20,19.22v4.81h19.23Z"/><path class="cls-1" d="M219.5,275.73l-2.63-4.15c-8.6-13.52-16.13-32.08-19.79-44.49l9.22-2.72a195.1,195.1,0,0,0,16.14,37.84l21-14a226.29,226.29,0,0,1-16-35.57l9.07-3.21a222.83,222.83,0,0,0,17.51,38l2.19,3.89Z"/><path class="cls-3" d="M201.69,230.54A43.27,43.27,0,1,1,245,187.27,43.32,43.32,0,0,1,201.69,230.54Z"/><path class="cls-4" d="M180.42,198.48A24,24,0,0,1,188.77,167l5.18,8.1a14.43,14.43,0,0,0-5,18.89Z"/></svg>