<svg id="Layer_1" data-name="Layer 1" xmlns="http://www.w3.org/2000/svg" viewBox="0 0 288 288"><defs><style>.cls-1{fill:#8347ad;}.cls-2{fill:#fff;}.cls-3{fill:#000b63;}.cls-4{fill:#56bbe8;}</style></defs><path class="cls-1" d="M144,95.92A48.08,48.08,0,1,0,192.08,144,48.14,48.14,0,0,0,144,95.92Z"/><path class="cls-2" d="M144,126.72A17.28,17.28,0,1,0,161.28,144,17.3,17.3,0,0,0,144,126.72Z"/><path class="cls-3" d="M168,273.81H120v-17a113.41,113.41,0,0,1-38.75-16.06l-12,12-34-34,12-12A113.61,113.61,0,0,1,31.16,168h-17V120h17A113.61,113.61,0,0,1,47.22,81.21l-12-12,34-34,12,12A113.61,113.61,0,0,1,120,31.16v-17H168v17a113.61,113.61,0,0,1,38.75,16.06l12-12,34,34-12,12A113.81,113.81,0,0,1,256.84,120h17V168h-17a113.81,113.81,0,0,1-16.06,38.75l12,12-34,34-12-12A113.41,113.41,0,0,1,168,256.84Zm-38.46-9.62h28.84V248.84l4-.7a104.48,104.48,0,0,0,42.22-17.49l3.31-2.32,10.86,10.86,20.4-20.4-10.86-10.86,2.32-3.3a104.58,104.58,0,0,0,17.49-42.23l.7-4h15.35V129.58H248.84l-.7-4a104.58,104.58,0,0,0-17.49-42.23l-2.32-3.3,10.86-10.86-20.4-20.4L207.93,59.67l-3.31-2.32A104.48,104.48,0,0,0,162.4,39.86l-4-.7V23.81H129.58V39.16l-4,.7A104.48,104.48,0,0,0,83.38,57.35l-3.31,2.32L69.21,48.81l-20.4,20.4L59.67,80.07l-2.32,3.3A104.58,104.58,0,0,0,39.86,125.6l-.7,4H23.81v28.84H39.16l.7,4a104.58,104.58,0,0,0,17.49,42.23l2.32,3.3L48.81,218.79l20.4,20.4,10.86-10.86,3.31,2.32a104.48,104.48,0,0,0,42.22,17.49l4,.7Z"/><path class="cls-4" d="M190.38,222.71l-4.89-8.27a70.13,70.13,0,0,0,7.33-4.94l5.82,7.67A82.62,82.62,0,0,1,190.38,222.71Z"/><path class="cls-4" d="M207.69,209.48l-6.7-6.89A81.13,81.13,0,0,0,225.73,144h9.62A90.66,90.66,0,0,1,207.69,209.48Z"/><path class="cls-4" d="M95.18,78.49l-5.8-7.68a81.08,81.08,0,0,1,8-5.38l4.9,8.28A67.35,67.35,0,0,0,95.18,78.49Z"/><path class="cls-4" d="M64.47,125.07l-9.35-2.22A91,91,0,0,1,80.31,78.52L87,85.41A81.41,81.41,0,0,0,64.47,125.07Z"/></svg>