<?xml version="1.0" encoding="UTF-8"?>
<svg width="288px" height="288px" viewBox="0 0 288 288" version="1.1" xmlns="http://www.w3.org/2000/svg" xmlns:xlink="http://www.w3.org/1999/xlink">
    <title>Artboard 7@1.5x</title>
    <g id="Artboard-7" stroke="none" stroke-width="1" fill="none" fill-rule="evenodd">
        <polygon id="Fill-114" fill="#FFFFFF" points="251.8743 47.7374 244.8883 40.7514 270.7883 14.8494 277.7753 21.8364"></polygon>
        <polygon id="Fill-108" fill="#FFFFFF" points="49.0227 190.7745 10.2247 154.7885 24.4627 140.5495 30.9357 134.0775 69.3537 140.3535 67.7617 150.1095 34.4457 144.6675 24.4627 154.5245 52.5247 180.5455"></polygon>
        <polygon id="Fill-118" fill="#FFFFFF" points="62.638 127.4073 22.351 59.8183 33.202 46.2553 52.522 22.1053 121.402 76.5373 115.274 84.2863 54.151 35.9833 34.344 60.6533 71.13 122.3513"></polygon>
        <polygon id="Fill-124" fill="#FFFFFF" points="95.5882 236.8487 102.5392 229.8147 138.2072 268.2687 147.9832 258.2817 142.5162 224.8637 152.2722 223.2707 158.5482 261.6897 152.4902 267.7467 137.8352 282.4037"></polygon>
        <polygon id="Fill-128" fill="#FFFFFF" points="232.8074 270.2735 165.2174 229.9875 170.2734 221.4955 231.9564 258.2615 256.6754 238.5175 208.3384 177.3505 216.0874 171.2235 270.5194 240.1025 254.7394 252.7275"></polygon>
        <path d="M189.9793,109.6329 L166.7233,86.3759 L173.7093,79.3899 C173.7093,79.3899 213.5883,50.0629 208.0733,47.3999 L212.3673,38.5019 C221.2793,42.7959 227.0353,51.9589 227.0353,61.8459 C227.0353,68.7649 224.3433,75.2689 219.4503,80.1599 L205.0733,94.5389 L189.9793,109.6329 Z" id="Fill-104" fill="#01A2FD"></path>
        <polygon id="Fill-106" fill="#4E4BEC" points="68.4807 161.6075 57.7187 127.0575 79.5287 105.2465 104.3417 135.4545 97.3217 142.4745 78.8207 119.9485 68.9297 129.8205 77.9177 158.6645"></polygon>
        <polygon id="Fill-110" fill="#01A2FD" points="175.968 163.17 168.982 156.184 177.015 148.15 184.001 155.137"></polygon>
        <path d="M193.0623,146.0753 L186.0763,139.0903 L244.9983,80.1663 C249.3463,75.8183 251.7393,70.0383 251.7393,63.8953 C251.7393,51.2063 241.4183,40.8863 228.7293,40.8863 C222.5863,40.8863 216.8063,43.2783 212.4593,47.6263 L128.8313,131.2543 L121.8453,124.2663 L205.4723,40.6393 C211.6873,34.4253 219.9423,31.0043 228.7293,31.0043 C246.8663,31.0043 261.6213,45.7593 261.6213,63.8953 C261.6213,72.6823 258.2003,80.9373 251.9853,87.1523 L193.0623,146.0753 Z" id="Fill-112" fill="#4E4BEC"></path>
        <path d="M109.0159,96.7208 L102.0289,89.7338 L133.1599,58.6028 C134.9989,56.7648 137.5459,55.7078 140.1469,55.7078 L192.4499,55.7078 L192.4499,65.5898 L140.1469,65.5898 L109.0159,96.7208 Z" id="Fill-116" fill="#4E4BEC"></path>
        <polygon id="Fill-120" fill="#4E4BEC" points="165.5691 234.9054 123.8941 221.9264 131.7891 214.0314 162.8961 223.7194 172.6861 213.8134 142.6971 189.1804 149.6711 182.1244 187.3791 213.0944 178.5401 221.9334"></polygon>
        <polygon id="Fill-122" fill="#4E4BEC" points="102.0276 243.7931 157.3716 188.4481 149.6716 182.1241 95.5876 236.8491"></polygon>
        <polygon id="Fill-126" fill="#4E4BEC" points="202.8914 190.5958 195.9044 183.6098 227.0354 152.4778 227.0354 100.1748 236.9174 100.1748 236.9174 156.5708"></polygon>
        <polygon id="Fill-130" fill="#4E4BEC" points="49.0227 190.7745 104.3427 135.4545 98.0077 127.7435 42.1857 184.2285"></polygon>
        <polygon id="Fill-132" fill="#01A2FD" points="40.9768 212.962 109.9858 143.953 141.5928 176.073 73.2268 245.25"></polygon>
    </g>
</svg>