<?xml version="1.0" encoding="UTF-8"?>
<svg width="288px" height="288px" viewBox="0 0 288 288" version="1.1" xmlns="http://www.w3.org/2000/svg" xmlns:xlink="http://www.w3.org/1999/xlink">
    <title>Artboard 12@1.5x</title>
    <g id="Artboard-12" stroke="none" stroke-width="1" fill="none" fill-rule="evenodd">
        <path d="M33.1506,103.0966 L137.3856,148.3376 L241.5046,105.1346 L137.2736,59.8946 L33.1506,103.0966 Z M137.3276,162.2716 C136.4216,162.2716 135.5166,162.0886 134.6686,161.7196 L13.3946,109.0846 C10.9356,108.0186 9.3526,105.5856 9.37535269,102.9046 C9.3956,100.2226 11.0186,97.8166 13.4956,96.7886 L134.7726,46.4696 C136.4466,45.7766 138.3326,45.7926 139.9916,46.5126 L261.2586,99.1466 C263.7176,100.2136 265.2996,102.6486 265.278807,105.3266 C265.2566,108.0066 263.6346,110.4156 261.1586,111.4426 L139.8866,161.7616 C139.0676,162.1026 138.1966,162.2716 137.3276,162.2716 L137.3276,162.2716 Z" id="Fill-198" fill="#4E4BEC"></path>
        <path d="M137.3274,162.2861 C136.4214,162.2861 135.5164,162.1021 134.6684,161.7331 L36.9324,119.3181 L42.2514,107.0641 L137.3864,148.3511 L241.5134,105.1481 L180.3174,78.5731 L185.6394,66.3191 L261.2654,99.1631 C263.7234,100.2291 265.3064,102.6651 265.283647,105.3441 C265.2614,108.0251 263.6394,110.4321 261.1634,111.4591 L139.8874,161.7761 C139.0674,162.1171 138.1964,162.2861 137.3274,162.2861" id="Fill-200" fill="#01A2FD"></path>
        <path d="M183.8508,215.3242 L90.8008,215.3242 C67.6998,215.3242 48.9038,193.8202 48.9038,167.3862 L48.9038,144.0512 L62.2618,144.0512 L62.2618,167.3862 C62.2618,186.4532 75.0648,201.9662 90.8008,201.9662 L183.8508,201.9662 C199.5878,201.9662 212.3918,186.4532 212.3918,167.3862 L212.3918,144.0512 L225.7498,144.0512 L225.7498,167.3862 C225.7498,193.8202 206.9548,215.3242 183.8508,215.3242" id="Fill-202" fill="#FFFFFF"></path>
        <path d="M258.1331,132.8164 C255.4251,132.5494 253.4471,130.1404 253.7141,127.4324 C253.9791,124.7254 256.3901,122.7474 259.0981,123.0144 C261.8031,123.2794 263.7801,125.6884 263.5161,128.3954 C263.2511,131.1004 260.8431,133.0814 258.1351,132.8164 L258.1331,132.8164 Z" id="Fill-204" fill="#FFFFFF"></path>
        <path d="M258.1331,162.4775 C255.4251,162.2105 253.4471,159.8015 253.7141,157.0945 C253.9791,154.3865 256.3901,152.4095 259.0981,152.6755 C261.8031,152.9405 263.7801,155.3495 263.5161,158.0575 C263.2511,160.7615 260.8431,162.7435 258.1351,162.4775 L258.1331,162.4775" id="Fill-206" fill="#FFFFFF"></path>
        <path d="M258.1331,192.1347 C255.4251,191.8677 253.4471,189.4587 253.7141,186.7517 C253.9791,184.0437 256.3901,182.0657 259.0981,182.3327 C261.8031,182.5977 263.7801,185.0067 263.5161,187.7137 C263.2491,190.4187 260.8401,192.3997 258.1331,192.1347" id="Fill-208" fill="#FFFFFF"></path>
        <path d="M258.6008,215.3222 C254.9038,215.3222 251.9078,218.3182 251.9078,222.0012 C251.9078,225.6842 254.9038,228.6802 258.5878,228.6802 C262.2708,228.6802 265.2668,225.6842 265.2668,222.0012 C265.2668,218.3262 262.2768,215.3292 258.6008,215.3222 M258.5878,242.0392 C247.5378,242.0392 238.5488,233.0502 238.5488,222.0012 C238.5488,210.9532 247.5378,201.9642 258.5878,201.9642 C269.6538,201.9852 278.6248,210.9742 278.6248,222.0012 C278.6248,233.0502 269.6368,242.0392 258.5878,242.0392" id="Fill-210" fill="#FFFFFF"></path>
    </g>
</svg>