<?xml version="1.0" encoding="UTF-8"?>
<svg width="288px" height="288px" viewBox="0 0 288 288" version="1.1" xmlns="http://www.w3.org/2000/svg" xmlns:xlink="http://www.w3.org/1999/xlink">
    <title>Artboard 17@1.5x</title>
    <g id="Artboard-17" stroke="none" stroke-width="1" fill="none" fill-rule="evenodd">
        <path d="M249.7691,244.9619 L244.5441,244.9619 L244.5441,235.3469 L249.7691,235.3469 C252.4221,235.3469 254.5771,233.1909 254.5771,230.5379 L254.5771,71.8849 C254.5771,69.2319 252.4221,67.0759 249.7691,67.0759 L38.2311,67.0759 C35.5781,67.0759 33.4231,69.2319 33.4231,71.8849 L33.4231,230.5379 C33.4231,233.1909 35.5781,235.3469 38.2311,235.3469 L158.8411,235.3469 L158.8411,244.9619 L38.2311,244.9619 C30.2771,244.9619 23.8071,238.4909 23.8071,230.5379 L23.8071,71.8849 C23.8071,63.9319 30.2771,57.4619 38.2311,57.4619 L249.7691,57.4619 C257.7221,57.4619 264.1921,63.9319 264.1921,71.8849 L264.1921,230.5379 C264.1921,238.4909 257.7221,244.9619 249.7691,244.9619" id="Fill-292" fill="#4E4BEC"></path>
        <polygon id="Fill-294" fill="#FFFFFF" points="230.5387 115.1543 57.4617 115.1543 57.4617 76.6923 168.0387 76.6923 168.0387 86.3073 67.0767 86.3073 67.0767 105.5393 220.9237 105.5393 220.9237 86.3073 196.8847 86.3073 196.8847 76.6923 230.5387 76.6923"></polygon>
        <polygon id="Fill-296" fill="#01A2FD" points="187.27 86.308 196.885 86.308 196.885 76.694 187.27 76.694"></polygon>
        <polygon id="Fill-298" fill="#01A2FD" points="57.462 147.765 144 147.765 144 138.151 57.462 138.151"></polygon>
        <polygon id="Fill-299" fill="#01A2FD" points="57.462 166.996 100.731 166.996 100.731 157.381 57.462 157.381"></polygon>
        <path d="M70.5743,66.4951 L65.9833,58.0441 L132.6513,21.8451 C139.6573,18.1071 148.3753,18.1221 155.3143,21.8311 L221.8663,58.0491 L217.2743,66.4901 L150.7563,30.2921 C146.6613,28.1131 141.3703,28.0941 137.2113,30.3091 L70.5743,66.4951 Z" id="Fill-300" fill="#4E4BEC"></path>
        <path d="M183.8839,275.7275 L147.2349,251.2945 L149.4269,247.4085 C157.3239,233.4075 162.2309,222.7635 166.9299,209.4535 L176.0009,212.6565 C171.5459,225.2655 166.9259,235.5565 159.9729,248.2295 L180.9449,262.2105 C187.9549,249.9995 194.0819,234.5395 197.0819,224.3695 L206.3029,227.0925 C202.6449,239.4975 195.1099,258.0605 186.5179,271.5785 L183.8839,275.7275 Z" id="Fill-301" fill="#4E4BEC"></path>
        <path d="M129.5768,225.7304 L57.4618,225.7304 L57.4618,216.1164 L71.8848,216.1164 L71.8848,211.7784 C71.8848,201.3624 79.9708,192.4804 90.3788,192.0904 C101.3198,191.6804 110.3458,200.4574 110.3458,211.3074 L110.3458,216.1164 L129.5768,216.1164 L129.5768,225.7304 Z" id="Fill-302" fill="#FFFFFF"></path>
        <path d="M219.5006,275.7275 L216.8666,271.5785 C208.2746,258.0605 200.7396,239.4975 197.0816,227.0925 L206.3026,224.3695 C209.3026,234.5395 215.4296,249.9995 222.4396,262.2105 L243.4116,248.2295 C236.4586,235.5565 231.8396,225.2655 227.3836,212.6565 L236.4546,209.4535 C241.1536,222.7635 246.0606,233.4075 253.9576,247.4085 L256.1496,251.2945 L219.5006,275.7275 Z" id="Fill-303" fill="#4E4BEC"></path>
        <path d="M201.6925,230.538 C177.8325,230.538 158.4235,211.13 158.4235,187.269 C158.4235,163.409 177.8325,144.001 201.6925,144.001 C225.5525,144.001 244.9615,163.409 244.9615,187.269 C244.9615,211.13 225.5525,230.538 201.6925,230.538" id="Fill-304" fill="#01A2FD"></path>
        <path d="M180.419,198.4765 C178.611,195.0495 177.654,191.1705 177.654,187.2695 C177.654,179.0205 181.809,171.4425 188.771,166.9965 L193.945,175.1005 C189.767,177.7715 187.269,182.3205 187.269,187.2695 C187.269,189.6445 187.828,191.9075 188.926,193.9885 L180.419,198.4765 Z" id="Fill-305" fill="#FFFFFF"></path>
    </g>
</svg>