<?xml version="1.0" encoding="UTF-8"?>
<svg width="288px" height="288px" viewBox="0 0 288 288" version="1.1" xmlns="http://www.w3.org/2000/svg" xmlns:xlink="http://www.w3.org/1999/xlink">
    <title>Artboard 14@1.5x</title>
    <g id="Artboard-14" stroke="none" stroke-width="1" fill="none" fill-rule="evenodd">
        <polygon id="Fill-224" fill="#4E4BEC" points="278.3998 192.0001 259.2058 192.0001 259.2058 182.4001 268.7998 182.4001 268.7998 24.0001 19.1998 24.0001 19.1998 182.4001 28.7958 182.4001 28.7958 192.0001 9.5998 192.0001 9.5998 14.4001 278.3998 14.4001"></polygon>
        <polygon id="Fill-225" fill="#4E4BEC" points="86.41 192 115.186 192 115.186 182.4 86.41 182.4"></polygon>
        <polygon id="Fill-226" fill="#4E4BEC" points="172.8 192 201.595 192 201.595 182.4 172.8 182.4"></polygon>
        <polygon id="Fill-227" fill="#01A2FD" points="28.8 81.6 38.4 81.6 38.4 33.6 28.8 33.6"></polygon>
        <polygon id="Fill-228" fill="#01A2FD" points="249.6 134.4 259.2 134.4 259.2 86.4 249.6 86.4"></polygon>
        <g id="Group-249" transform="translate(19.199400, 65.409900)">
            <path d="M124.801,140.9906 C114.211,140.9906 105.601,132.3796 105.601,121.7906 L105.601,112.1896 C105.601,101.6006 114.211,92.9906 124.801,92.9906 C135.39,92.9906 144,101.6006 144,112.1896 L144,121.7906 C144,132.3796 135.39,140.9906 124.801,140.9906" id="Fill-229" fill="#FFFFFF"></path>
            <path d="M211.2004,102.5902 C205.9084,102.5902 201.6004,106.8982 201.6004,112.1902 L201.6004,121.7902 C201.6004,127.0822 205.9084,131.3902 211.2004,131.3902 C216.4924,131.3902 220.8014,127.0822 220.8014,121.7902 L220.8014,112.1902 C220.8014,106.8982 216.4924,102.5902 211.2004,102.5902 M211.2004,140.9902 C200.6114,140.9902 192.0004,132.3792 192.0004,121.7902 L192.0004,112.1902 C192.0004,101.6012 200.6114,92.9902 211.2004,92.9902 C221.7894,92.9902 230.4004,101.6012 230.4004,112.1902 L230.4004,121.7902 C230.4004,132.3792 221.7894,140.9902 211.2004,140.9902" id="Fill-231" fill="#FFFFFF"></path>
            <polygon id="Fill-233" fill="#01A2FD" points="240.0002 174.5902 230.4002 174.5902 192.0002 174.5902 182.4002 174.5902 182.4002 150.5902 240.0002 150.5902"></polygon>
            <polygon id="Fill-235" fill="#01A2FD" points="249.6008 212.9906 239.9998 212.9906 182.4008 212.9906 172.8008 212.9906 172.8008 169.7906 249.6008 169.7906"></polygon>
            <path d="M38.4006,102.5902 C33.1086,102.5902 28.8006,106.8982 28.8006,112.1902 L28.8006,121.7902 C28.8006,127.0822 33.1086,131.3902 38.4006,131.3902 C43.6926,131.3902 48.0006,127.0822 48.0006,121.7902 L48.0006,112.1902 C48.0006,106.8982 43.6926,102.5902 38.4006,102.5902 M38.4006,140.9902 C27.8116,140.9902 19.2006,132.3792 19.2006,121.7902 L19.2006,112.1902 C19.2006,101.6012 27.8116,92.9902 38.4006,92.9902 C48.9896,92.9902 57.6006,101.6012 57.6006,112.1902 L57.6006,121.7902 C57.6006,132.3792 48.9896,140.9902 38.4006,140.9902" id="Fill-237" fill="#FFFFFF"></path>
            <path d="M105.6008,16.18 L148.6308,40.19 L105.6008,64.18 L105.6008,16.18 Z M96.1008,0 L96.1008,80.35 L168.1308,40.19 L96.1008,0 Z" id="Fill-239" fill="#FFFFFF"></path>
            <polygon id="Fill-241" fill="#01A2FD" points="153.6008 174.5902 143.9998 174.5902 143.9998 160.1902 105.6008 160.1902 105.6008 174.5902 95.9998 174.5902 95.9998 150.5902 153.6008 150.5902"></polygon>
            <polygon id="Fill-243" fill="#01A2FD" points="163.2004 212.9906 153.6004 212.9906 153.6004 179.3896 96.0004 179.3896 96.0004 212.9906 86.4004 212.9906 86.4004 169.7906 163.2004 169.7906"></polygon>
            <polygon id="Fill-245" fill="#01A2FD" points="67.2004 174.5902 57.6004 174.5902 19.2004 174.5902 9.6004 174.5902 9.6004 150.5902 67.2004 150.5902"></polygon>
            <polygon id="Fill-247" fill="#01A2FD" points="76.801 212.9906 67.2 212.9906 9.601 212.9906 0 212.9906 0 169.7906 76.801 169.7906"></polygon>
        </g>
    </g>
</svg>