<?xml version="1.0" encoding="UTF-8"?>
<svg width="288px" height="288px" viewBox="0 0 288 288" version="1.1" xmlns="http://www.w3.org/2000/svg" xmlns:xlink="http://www.w3.org/1999/xlink">
    <title>Artboard 16@1.5x</title>
    <g id="Artboard-16" stroke="none" stroke-width="1" fill="none" fill-rule="evenodd">
        <path d="M153.761,117.4101 C174.787,118.7951 191.258,136.3961 191.258,157.4921 C191.258,178.5871 174.787,196.1891 153.761,197.5741 L153.761,117.4101 Z" id="Fill-277" fill="#FFFFFF"></path>
        <polygon id="Fill-286" fill="#01A2FD" points="54.209 192.936 63.661 192.936 63.661 155.128 54.209 155.128"></polygon>
        <path d="M262.1458,150.4033 L204.6258,150.4033 L204.6258,140.9513 L262.1458,140.9513 C267.3558,140.9513 271.5978,136.7103 271.5978,131.5003 L271.5978,27.5313 C271.5978,22.3213 267.3558,18.0803 262.1458,18.0803 L120.3708,18.0803 C115.1608,18.0803 110.9188,22.3213 110.9188,27.5313 L110.9188,103.1453 L101.4678,103.1453 L101.4678,27.5313 C101.4678,17.1063 109.9458,8.6293 120.3708,8.6293 L262.1458,8.6293 C272.5718,8.6293 281.0488,17.1063 281.0488,27.5313 L281.0488,131.5003 C281.0488,141.9253 272.5718,150.4033 262.1458,150.4033" id="Fill-279" fill="#4E4BEC"></path>
        <polygon id="Fill-281" fill="#01A2FD" points="120.37 55.887 129.822 55.887 129.822 46.435 120.37 46.435"></polygon>
        <polygon id="Fill-283" fill="#01A2FD" points="120.37 74.79 129.822 74.79 129.822 65.338 120.37 65.338"></polygon>
        <polygon id="Fill-284" fill="#01A2FD" points="120.37 36.984 129.822 36.984 129.822 27.532 120.37 27.532"></polygon>
        <path d="M47.1204,126.7744 C30.1834,126.7744 16.4024,140.5554 16.4024,157.4924 C16.4024,174.4294 30.1834,188.2104 47.1204,188.2104 L82.5644,188.2104 C107.9514,188.2104 131.8674,195.7744 148.7254,208.8114 L148.7254,106.1714 C131.8674,119.2104 107.9514,126.7744 82.5644,126.7744 L47.1204,126.7744 Z M158.1774,231.1584 L150.0364,222.6474 C135.0694,207.0024 109.8484,197.6614 82.5644,197.6614 L47.1204,197.6614 C24.9724,197.6614 6.9504,179.6404 6.9504,157.4924 C6.9504,135.3444 24.9724,117.3224 47.1204,117.3224 L82.5644,117.3224 C109.8484,117.3224 135.0694,107.9814 150.0364,92.3364 L158.1774,83.8264 L158.1774,231.1584 Z" id="Fill-285" fill="#4E4BEC"></path>
        <path d="M96.7415,273.2753 C90.2065,273.2753 84.2255,269.9433 80.7365,264.3593 L37.2995,194.9663 L45.3115,189.9553 L88.7485,259.3463 C90.5015,262.1533 93.4875,263.8233 96.7415,263.8233 C101.9515,263.8233 106.1935,259.5823 106.1935,254.3723 C106.1935,252.6463 105.6855,250.9233 104.7305,249.3913 L71.0405,195.4373 L79.0615,190.4343 L112.7515,244.3883 C114.6435,247.4213 115.6445,250.8733 115.6445,254.3723 C115.6445,264.7963 107.1665,273.2753 96.7415,273.2753" id="Fill-287" fill="#4E4BEC"></path>
        <path d="M188.3738,241.0068 L184.9128,232.2108 C203.1238,225.0478 214.8878,207.7778 214.8878,188.2108 L224.3388,188.2108 C224.3388,211.6918 210.2218,232.4128 188.3738,241.0068" id="Fill-288" fill="#FFFFFF"></path>
        <path d="M192.6843,279.371 L190.1833,270.253 C226.9883,260.163 252.6943,226.423 252.6943,188.211 C252.6943,185.117 252.5513,182.34 252.2513,179.46 L261.6473,178.473 C261.9893,181.684 262.1453,184.776 262.1453,188.211 C262.1453,230.669 233.5833,268.156 192.6843,279.371" id="Fill-289" fill="#FFFFFF"></path>
        <polygon id="Fill-290" fill="#01A2FD" points="183.7996 51.1611 217.6206 79.6751 183.7996 107.8891"></polygon>
    </g>
</svg>