<?xml version="1.0" encoding="UTF-8"?>
<svg width="288px" height="288px" viewBox="0 0 288 288" version="1.1" xmlns="http://www.w3.org/2000/svg" xmlns:xlink="http://www.w3.org/1999/xlink">
    <title>Artboard 5@1.5x</title>
    <g id="Artboard-5" stroke="none" stroke-width="1" fill="none" fill-rule="evenodd">
        <path d="M257.4349,103.7038 L257.4329,103.7038 C253.9859,103.7038 251.1819,106.5098 251.1819,109.9528 C251.1819,113.3998 253.9879,116.2048 257.4349,116.2048 C260.8809,116.2048 263.6849,113.4018 263.6849,109.9558 C263.6849,108.2838 263.0339,106.7118 261.8529,105.5318 C260.6729,104.3528 259.1039,103.7038 257.4349,103.7038 M257.4349,130.1488 C246.2979,130.1488 237.2389,121.0888 237.2389,109.9528 C237.2389,98.8228 246.2949,89.7648 257.4279,89.7598 L257.4349,89.7598 C268.5679,89.7598 277.6249,98.8128 277.6289,109.9458 L277.6289,109.9528 C277.6289,121.0888 268.5699,130.1488 257.4349,130.1488" id="Fill-64" fill="#4E4BEC"></path>
        <path d="M226.9232,190.5622 C226.7542,190.5622 226.5852,190.5552 226.4142,190.5422 C223.3772,190.3212 220.8352,188.1552 220.1352,185.1912 L217.6902,174.8282 L223.4292,173.4722 L232.8072,149.7912 C233.8602,147.1302 236.4292,145.3842 239.2882,145.3842 L265.5542,145.3842 L265.5542,159.3302 L244.0272,159.3302 L233.4022,186.1562 C232.3452,188.8312 229.7652,190.5622 226.9232,190.5622" id="Fill-66" fill="#01A2FD"></path>
        <path d="M152.5902,187.7018 C152.3932,187.7018 152.1962,187.6918 151.9992,187.6758 C149.1462,187.4338 146.7312,185.4728 145.9092,182.7308 L126.3362,117.3928 L111.7982,155.9118 L98.7522,150.9868 L120.5742,93.1718 C121.6292,90.3748 124.2882,88.5728 127.3412,88.6668 C130.3292,88.7698 132.9182,90.7698 133.7762,93.6328 L154.1912,161.7848 L159.0402,151.9958 C160.2172,149.6198 162.6372,148.1168 165.2872,148.1168 L174.1172,148.1168 L176.7362,138.5178 L190.1902,142.1888 L186.1682,156.9258 C185.3392,159.9598 182.5852,162.0618 179.4422,162.0618 L169.6142,162.0618 L158.8352,183.8238 C157.6522,186.2118 155.2212,187.7018 152.5902,187.7018" id="Fill-68" fill="#01A2FD"></path>
        <path d="M59.9769,143.5563 C57.0169,137.8383 54.6139,131.7913 52.8329,125.5833 C51.9389,122.3983 51.3749,119.2753 50.8309,116.2573 C50.6009,114.9893 50.3729,113.7203 50.1199,112.4563 C50.0289,112.0053 49.9829,111.5473 49.9829,111.0863 L49.9829,100.9043 C49.9829,100.4703 50.0239,100.0383 50.1049,99.6113 L50.2469,98.8973 C50.2959,98.6593 50.3569,98.4193 50.3819,98.1833 C51.0819,90.0993 53.1139,82.1893 56.4119,74.7173 C68.6899,47.0173 100.5239,33.6443 128.8969,44.2633 C140.2739,48.9733 149.9519,56.4283 157.2429,66.0033 C159.7959,62.7643 162.5879,59.7103 165.5929,56.8693 C184.4899,38.3543 213.4779,35.2213 235.9999,49.3373 C249.6249,57.8393 259.1869,71.7603 262.2399,87.5453 C262.9249,90.4613 263.3439,93.3303 263.7479,96.1093 C263.9259,97.3323 264.1039,98.5523 264.3049,99.7703 L250.5479,102.0473 C250.3319,100.7403 250.1409,99.4303 249.9499,98.1183 C249.5659,95.4803 249.2029,92.9863 248.6389,90.6223 C248.6149,90.5193 248.5919,90.4153 248.5729,90.3113 C246.2779,78.2693 238.9999,67.6453 228.6069,61.1603 C211.5579,50.4713 189.6249,52.8423 175.2619,66.9173 C170.5349,71.3863 166.5119,76.3683 163.2119,81.8173 C161.9849,83.8433 159.8119,85.1073 157.4439,85.1743 C155.0409,85.1693 152.8329,84.0963 151.4969,82.1433 L150.1669,80.1723 C149.4169,79.0533 148.6979,77.9733 147.9309,76.9263 C141.8499,68.0243 133.5439,61.2793 123.7839,57.2343 C102.5419,49.2823 78.4509,59.4053 69.1629,80.3613 C66.4889,86.4133 64.8419,92.8343 64.2699,99.4333 C64.2029,100.1683 64.0729,100.8823 63.9259,101.5983 L63.9259,110.4073 C64.1449,111.5283 64.3489,112.6543 64.5519,113.7813 C65.0609,116.6023 65.5429,119.2673 66.2479,121.7783 C67.7619,127.0623 69.8239,132.2453 72.3599,137.1463 L59.9769,143.5563 Z" id="Fill-70" fill="#FFFFFF"></path>
        <path d="M157.1475,247.459 C155.0525,247.459 152.9615,246.745 151.2935,245.329 C137.5535,235.615 124.2425,224.971 111.7255,213.694 C100.1075,203.422 89.1705,192.087 79.2645,180.05 L90.0305,171.188 C99.4715,182.662 109.8935,193.462 121.0115,203.29 C132.5045,213.648 144.6415,223.416 157.1635,232.392 C173.1785,220.948 188.4655,208.253 202.6415,194.619 L212.3065,204.672 C196.9075,219.477 180.2435,233.217 162.7705,245.51 C161.1355,246.812 159.1405,247.459 157.1475,247.459" id="Fill-72" fill="#FFFFFF"></path>
        <path d="M69.1888,154.4528 C69.4648,151.7708 71.8638,149.8218 74.5458,150.1008 C77.2248,150.3778 79.1738,152.7758 78.8968,155.4578 C78.6208,158.1278 76.2398,160.0738 73.5678,159.8118 C70.8848,159.5508 68.9218,157.1618 69.1868,154.4768 C69.1868,154.4708 69.1888,154.4628 69.1888,154.4528" id="Fill-74" fill="#FFFFFF"></path>
        <path d="M39.7914,154.4528 C40.0674,151.7708 42.4654,149.8218 45.1474,150.1008 C47.8294,150.3778 49.7754,152.7758 49.4994,155.4578 C49.2234,158.1278 46.8424,160.0738 44.1694,159.8118 C41.4844,159.5458 39.5234,157.1548 39.7884,154.4708 C39.7914,154.4648 39.7914,154.4578 39.7914,154.4528" id="Fill-76" fill="#FFFFFF"></path>
        <path d="M10.3978,154.4528 C10.6738,151.7708 13.0718,149.8218 15.7538,150.1008 C18.4338,150.3778 20.3818,152.7758 20.1058,155.4578 C19.8298,158.1278 17.4488,160.0738 14.7768,159.8118 C12.0918,159.5458 10.1308,157.1548 10.3948,154.4708 C10.3978,154.4648 10.3978,154.4578 10.3978,154.4528" id="Fill-78" fill="#FFFFFF"></path>
        <path d="M217.6976,174.8278 L200.8016,103.3588 L190.1876,142.1888 L176.7376,138.5138 L194.5656,73.2888 C195.3956,70.2528 198.1536,68.1548 201.2896,68.1548 C201.3306,68.1548 201.3706,68.1548 201.4116,68.1568 C204.5986,68.2128 207.3426,70.4218 208.0756,73.5228 L231.2656,171.6198 L217.6976,174.8278 Z" id="Fill-80" fill="#4E4BEC"></path>
    </g>
</svg>