<?xml version="1.0" encoding="UTF-8"?>
<svg width="288px" height="288px" viewBox="0 0 288 288" version="1.1" xmlns="http://www.w3.org/2000/svg" xmlns:xlink="http://www.w3.org/1999/xlink">
    <title>Artboard 8@1.5x</title>
    <g id="Artboard-8" stroke="none" stroke-width="1" fill="none" fill-rule="evenodd">
        <path d="M195.7395,208.1632 L185.3915,208.1632 C185.3915,138.8502 207.0895,95.9122 225.2825,72.0992 L233.5095,78.3852 C216.2785,100.9302 195.7395,141.7452 195.7395,208.1632" id="Fill-135" fill="#FFFFFF"></path>
        <path d="M252.6536,135.7276 L237.1326,135.7276 C237.1536,135.7066 257.0366,119.1626 257.9246,118.2176 C261.0836,114.8506 268.1756,105.9926 268.1756,94.3346 C268.1756,86.0136 262.1336,78.1256 262.0716,78.0456 L270.1966,71.6386 C270.5356,72.0686 278.5236,82.3306 278.5236,94.3346 C278.5236,110.0856 269.1886,121.4706 265.0756,125.7216 C264.0256,126.8066 252.7806,135.6176 252.6536,135.7276" id="Fill-137" fill="#FFFFFF"></path>
        <path d="M252.9769,83.9776 L252.3309,73.6506 L252.6549,78.8136 L252.3209,73.6506 C252.4769,73.6386 268.1759,72.4716 268.1759,63.2906 L268.1759,32.2526 C268.1559,32.2836 267.8319,32.3686 267.5649,32.4346 L266.9439,32.5816 C256.7659,34.7286 232.1099,38.8456 229.0069,39.3626 C224.6409,40.6556 221.6109,44.7026 221.6109,49.2756 L221.6109,61.2096 L214.3879,59.0516 C212.5339,58.4976 211.2619,56.7906 211.2619,54.8556 L211.2619,49.2756 C211.2619,39.9676 217.5329,31.7566 226.5159,29.3126 L227.0269,29.2006 C227.2989,29.1556 264.7809,22.4596 264.7809,22.4596 L278.5249,19.7036 L278.5249,63.2906 C278.5249,78.3886 261.8149,83.4256 252.9769,83.9776" id="Fill-139" fill="#FFFFFF"></path>
        <polygon id="Fill-141" fill="#4E4BEC" points="40.52 32.248 195.74 32.248 195.74 21.9 40.52 21.9"></polygon>
        <polygon id="Fill-143" fill="#01A2FD" points="81.912 63.292 154.348 63.292 154.348 52.944 81.912 52.944"></polygon>
        <polygon id="Fill-144" fill="#01A2FD" points="164.695 63.292 175.044 63.292 175.044 52.944 164.695 52.944"></polygon>
        <polygon id="Fill-145" fill="#01A2FD" points="81.912 89.162 144 89.162 144 78.813 81.912 78.813"></polygon>
        <polygon id="Fill-146" fill="#01A2FD" points="81.912 115.031 143.924 115.031 143.924 104.682 81.912 104.682"></polygon>
        <polygon id="Fill-147" fill="#01A2FD" points="81.912 138.168 143.924 138.168 143.924 127.82 81.912 127.82"></polygon>
        <polygon id="Fill-148" fill="#4E4BEC" points="118.1302 259.9034 61.2162 259.9034 61.2162 218.5104 71.5642 218.5104 71.5642 249.5554 118.1302 249.5554"></polygon>
        <path d="M40.5203,21.8995 C59.7563,21.8995 71.5633,45.3895 71.5633,62.2305 L71.5633,220.9935 L61.2163,220.9935 L61.2163,62.2305 C61.2163,50.1545 52.5243,32.2475 40.5203,32.2475" id="Fill-149" fill="#4E4BEC"></path>
        <path d="M40.5203,21.8995 C21.2843,21.8995 9.4763,45.3895 9.4763,62.2305 L9.4763,89.1615 L19.8243,89.1615 L19.8243,62.2305 C19.8243,50.1545 28.5153,32.2475 40.5203,32.2475" id="Fill-150" fill="#4E4BEC"></path>
        <polyline id="Fill-151" fill="#4E4BEC" points="19.824 78.9044 50.868 78.8134 50.868 89.1614 19.824 89.1614 9.476 89.1614"></polyline>
        <path d="M252.6536,135.7276 L237.1326,135.7276 L237.1326,146.0756 L252.6536,146.0756 C252.6536,149.8336 250.6476,153.8016 248.7836,155.8976 C234.7166,171.7486 202.3796,179.7726 192.9356,181.8326 C184.9976,173.6676 177.5836,164.6816 171.7086,154.9096 C164.7646,143.3586 163.2576,128.8316 167.4876,116.0566 C172.0906,102.1586 184.0766,92.0946 196.1996,84.6316 C200.3346,82.0856 204.3766,79.3776 208.4126,76.6746 C217.0296,70.9006 221.6806,65.4886 231.3116,49.7496 L229.1746,47.4456 C219.8406,56.1026 210.7536,62.6016 202.2236,68.3016 C195.8276,72.5786 189.7436,76.3996 184.1186,80.3716 C179.9016,83.3516 175.9406,86.4186 172.3426,89.8516 C166.9476,94.9876 162.3796,101.0016 159.2486,108.4946 C154.4246,120.0326 152.9566,133.0796 156.1396,145.2516 C159.5046,158.1176 168.2256,169.3286 176.6756,179.3036 C180.1506,183.4066 183.7786,187.4056 187.6256,191.1656 L189.5416,193.0406 L192.1776,192.5556 C194.0266,192.2176 237.6686,184.0116 256.5186,162.7696 C259.5106,159.4046 263.0026,153.0126 263.0026,146.0756 C263.0026,140.3716 258.3576,135.7276 252.6536,135.7276" id="Fill-152" fill="#FFFFFF"></path>
        <path d="M241.0979,234.0333 L228.5609,202.9893 L157.7319,202.9893 C157.7319,202.9893 148.7129,225.4133 145.2519,234.0333 L128.4779,234.0333 L128.4779,270.2513 L200.9289,270.2513 L206.0879,270.2513 L257.8279,270.2513 L257.8279,234.0333 L241.0979,234.0333 Z" id="Fill-153" fill="#4E4BEC"></path>
        <polygon id="Fill-154" fill="#FFFFFF" points="180.218 244.381 190.566 244.381 190.566 234.033 180.218 234.033"></polygon>
        <polygon id="Fill-155" fill="#01A2FD" points="81.912 207.577 143.924 207.577 143.924 150.956 81.912 150.956"></polygon>
    </g>
</svg>