<?xml version="1.0" encoding="UTF-8"?>
<svg width="288px" height="288px" viewBox="0 0 288 288" version="1.1" xmlns="http://www.w3.org/2000/svg" xmlns:xlink="http://www.w3.org/1999/xlink">
    <title>Artboard 6@1.5x</title>
    <g id="Artboard-6" stroke="none" stroke-width="1" fill="none" fill-rule="evenodd">
        <polygon id="Fill-83" fill="#01A2FD" points="213.4015 274.087 213.4015 254.768 72.4345 254.768 72.4345 274.087 51.1655 274.087 51.1655 283.702 72.4345 283.702 213.4015 283.702 234.6705 283.702 234.6705 274.087"></polygon>
        <g id="Group-102" transform="translate(30.256298, 3.169000)">
            <path d="M181.753102,89.5743 L181.753102,115.9053 C181.746102,117.4133 181.405102,118.7393 180.672102,120.1343 C180.029102,121.3463 179.058102,122.5993 177.712102,123.8573 C175.366102,126.0563 171.868102,128.2223 167.480102,130.1143 C160.901102,132.9653 152.371102,135.2123 142.913102,136.7013 C133.453102,138.1963 123.056102,138.9523 112.662102,138.9523 C103.611102,138.9523 94.5591018,138.3793 86.1231018,137.2433 C79.7971018,136.3913 73.8181018,135.2233 68.4591018,133.7603 C64.4401018,132.6633 60.7711018,131.3993 57.5761018,129.9983 C52.7781018,127.9043 49.0781018,125.4733 46.7971018,123.0503 C45.6501018,121.8393 44.8501018,120.6483 44.3361018,119.4853 C43.8231018,118.3183 43.5741018,117.1783 43.5711018,115.9053 L43.5711018,89.5743 L33.5710571,89.5743 L33.5710571,115.9053 C33.5641018,119.0713 34.3801018,122.1273 35.8181018,124.8223 C37.0741018,127.1883 38.7791018,129.2903 40.7861018,131.1653 C44.3081018,134.4453 48.7571018,137.0743 53.8751018,139.2933 C61.5541018,142.6083 70.7891018,144.9853 80.8501018,146.5783 C90.9081018,148.1663 101.784102,148.9513 112.662102,148.9523 C122.134102,148.9513 131.604102,148.3553 140.534102,147.1543 C147.232102,146.2523 153.625102,145.0103 159.499102,143.4073 C163.905102,142.2033 168.020102,140.7963 171.762102,139.1573 C177.368102,136.6903 182.168102,133.7293 185.785102,129.9283 C187.587102,128.0273 189.085102,125.8983 190.132102,123.5323 C191.181102,121.1713 191.757102,118.5753 191.753122,115.9053 L191.753122,89.5743 L181.753102,89.5743 Z" id="Fill-84" fill="#01A2FD"></path>
            <path d="M222.487002,54.7803 L217.487002,54.7803 L217.487002,218.4463 C217.484002,224.9083 214.882002,230.7133 210.650002,234.9533 C206.410002,239.1853 200.605002,241.7873 194.143002,241.7913 L33.3440018,241.7913 C26.8820018,241.7873 21.0770018,239.1853 16.8370018,234.9533 C12.6050018,230.7133 10.0020018,224.9083 10,218.4463 L10,54.7803 C10.0020018,48.3183 12.6050018,42.5143 16.8370018,38.2733 C21.0770018,34.0423 26.8820018,31.4393 33.3440018,31.4362992 L194.143002,31.4362992 C200.605002,31.4393 206.410002,34.0423 210.650002,38.2733 C214.882002,42.5143 217.484002,48.3183 217.487002,54.7803 L222.487002,54.7803 L227.487003,54.7803 C227.487003,45.5893 223.747002,37.2213 217.721002,31.2023 C211.703002,25.1763 203.335002,21.4362992 194.143002,21.4362992 L33.3440018,21.4362992 C24.1520018,21.4362992 15.7840018,25.1763 9.7660018,31.2023 C3.7400018,37.2213 -0.00299819798,45.5893 0,54.7803 L0,218.4463 C-0.00299819798,227.6383 3.7400018,236.0063 9.7660018,242.0243 C15.7840018,248.0513 24.1520018,251.791301 33.3440018,251.791301 L194.143002,251.791301 C203.335002,251.791301 211.703002,248.0513 217.721002,242.0243 C223.747002,236.0063 227.487003,227.6383 227.487003,218.4463 L227.487003,54.7803 L222.487002,54.7803 Z" id="Fill-86" fill="#4E4BEC"></path>
            <polyline id="Fill-88" fill="#FFFFFF" points="222.487002 59.6065 5.0000018 59.6065 5.0000018 69.6065 222.487002 69.6065"></polyline>
            <polyline id="Fill-90" fill="#01A2FD" points="138.487002 40.5215 89.0000018 40.5215 89.0000018 50.5215 138.487002 50.5215"></polyline>
            <polyline id="Fill-92" fill="#FFFFFF" points="146.752102 0 146.752102 22.329 156.752102 22.329 156.752102 0"></polyline>
            <polyline id="Fill-94" fill="#FFFFFF" points="70.7350018 0 70.7350018 22.329 80.7350018 22.329 80.7350018 0"></polyline>
            <path d="M194.026502,212.3262 C194.026502,222.9072 185.448502,231.4852 174.867502,231.4852 C164.286502,231.4852 155.708502,222.9072 155.708502,212.3262 C155.708502,201.7452 164.286502,193.1672 174.867502,193.1672 C185.448502,193.1672 194.026502,201.7452 194.026502,212.3262" id="Fill-96" fill="#01A2FD"></path>
            <path d="M71.0915018,212.3262 C71.0915018,222.9072 62.5135018,231.4852 51.9325018,231.4852 C41.3515018,231.4852 32.7735018,222.9072 32.7735018,212.3262 C32.7735018,201.7452 41.3515018,193.1672 51.9325018,193.1672 C62.5135018,193.1672 71.0915018,201.7452 71.0915018,212.3262" id="Fill-98" fill="#01A2FD"></path>
            <polygon id="Fill-100" fill="#4E4BEC" points="221.142702 154.7266 113.753702 184.7116 7.9197018 154.7326 5.1947018 164.3536 113.733702 195.0996 223.831702 164.3596"></polygon>
        </g>
    </g>
</svg>