<?xml version="1.0" encoding="UTF-8"?>
<svg width="288px" height="288px" viewBox="0 0 288 288" version="1.1" xmlns="http://www.w3.org/2000/svg" xmlns:xlink="http://www.w3.org/1999/xlink">
    <title>Artboard 13@1.5x</title>
    <defs>
        <polygon id="path-1" points="0 288 288 288 288 0 0 0"></polygon>
    </defs>
    <g id="Artboard-13" stroke="none" stroke-width="1" fill="none" fill-rule="evenodd">
        <path d="M262.9135,265.6855 L245.6475,265.6855 L245.6475,139.6825 L202.1345,162.7895 C199.4615,164.2095 196.2325,164.1245 193.6375,162.5635 C191.0405,161.0045 189.4525,158.1965 189.4525,155.1655 L189.4525,139.6795 L145.9355,162.7915 C143.2625,164.2065 140.0335,164.1245 137.4385,162.5635 C134.8425,161.0045 133.2545,158.1965 133.2545,155.1655 L133.2545,139.6795 L89.7385,162.7895 C87.0645,164.2095 83.8365,164.1245 81.2425,162.5635 C78.6445,161.0045 77.0575,158.1965 77.0575,155.1655 L77.0575,86.9705 L34.0665,86.9705 L34.0665,69.7055 L85.6895,69.7055 C90.4575,69.7055 94.3225,73.5705 94.3225,78.3375 L94.3225,140.8095 L137.8385,117.7005 C140.5125,116.2785 143.7375,116.3615 146.3345,117.9245 C148.9325,119.4845 150.5195,122.2915 150.5195,125.3225 L150.5195,140.8095 L194.0365,117.7005 C196.7115,116.2785 199.9355,116.3615 202.5325,117.9245 C205.1305,119.4845 206.7185,122.2915 206.7185,125.3225 L206.7185,140.8065 L250.2315,117.7005 C252.9055,116.2785 256.1335,116.3615 258.7275,117.9245 C261.3255,119.4845 262.9135,122.2915 262.9135,125.3225 L262.9135,265.6855 Z" id="Fill-213" fill="#4E4BEC"></path>
        <mask id="mask-2" fill="white">
            <use xlink:href="#path-1"></use>
        </mask>
        <g id="Clip-216"></g>
        <path d="M42.352,44.79 L73.99,44.79 L73.99,30.944 L42.352,30.944 L42.352,44.79 Z M82.622,62.056 L33.719,62.056 C28.953,62.056 25.086,58.19 25.086,53.423 L25.086,22.311 C25.086,17.545 28.953,13.679 33.719,13.679 L82.622,13.679 C87.389,13.679 91.255,17.545 91.255,22.311 L91.255,53.423 C91.255,58.19 87.389,62.056 82.622,62.056 L82.622,62.056 Z" id="Fill-215" fill="#01A2FD" mask="url(#mask-2)"></path>
        <path d="M100.4584,185.2285 C103.8384,184.9875 106.7754,187.5315 107.0174,190.9115 C107.2624,194.2915 104.7184,197.2285 101.3374,197.4705 C97.9714,197.7115 95.0414,195.1925 94.7784,191.8295 C94.5184,188.4465 97.0484,185.4925 100.4284,185.2315 C100.4384,185.2285 100.4464,185.2285 100.4584,185.2285" id="Fill-217" fill="#4E4BEC" mask="url(#mask-2)"></path>
        <path d="M156.0023,185.2285 C159.3823,184.9875 162.3203,187.5315 162.5623,190.9115 C162.8063,194.2915 160.2623,197.2285 156.8823,197.4705 C153.5163,197.7115 150.5863,195.1925 150.3223,191.8295 C150.0653,188.4435 152.5983,185.4895 155.9833,185.2285 L156.0023,185.2285" id="Fill-218" fill="#4E4BEC" mask="url(#mask-2)"></path>
        <path d="M211.5521,185.2285 C214.9321,184.9875 217.8691,187.5315 218.1121,190.9115 C218.3561,194.2915 215.8121,197.2285 212.4321,197.4705 C209.0651,197.7115 206.1351,195.1925 205.8721,191.8295 C205.6121,188.4465 208.1421,185.4925 211.5221,185.2315 C211.5321,185.2285 211.5411,185.2285 211.5521,185.2285" id="Fill-219" fill="#4E4BEC" mask="url(#mask-2)"></path>
        <path d="M162.6068,274.3212 L34.0678,274.3212 C29.3008,274.3212 25.4348,270.4382 25.4348,265.6492 L25.4348,69.7052 L42.7008,69.7052 L42.7008,256.9782 L162.6068,256.9782 L162.6068,274.3212 Z" id="Fill-220" fill="#FFFFFF" mask="url(#mask-2)"></path>
        <polygon id="Fill-221" fill="#01A2FD" mask="url(#mask-2)" points="162.605 274.315 262.913 274.315 262.913 257.049 162.605 257.049"></polygon>
        <polygon id="Fill-222" fill="#01A2FD" mask="url(#mask-2)" points="88.701 236.293 224.222 236.293 224.222 219.027 88.701 219.027"></polygon>
    </g>
</svg>