<?xml version="1.0" encoding="UTF-8"?>
<svg width="288px" height="288px" viewBox="0 0 288 288" version="1.1" xmlns="http://www.w3.org/2000/svg" xmlns:xlink="http://www.w3.org/1999/xlink">
    <title>Artboard 15@1.5x</title>
    <g id="Artboard-15" stroke="none" stroke-width="1" fill="none" fill-rule="evenodd">
        <polygon id="Fill-251" fill="#01A2FD" points="125.58 90.572 162.42 90.572 162.42 80.957 125.58 80.957"></polygon>
        <polygon id="Fill-252" fill="#01A2FD" points="58.5648 259.5698 49.7488 255.7388 125.5808 80.9568 136.1358 80.9418"></polygon>
        <polygon id="Fill-253" fill="#01A2FD" points="229.4349 259.5649 156.0459 90.5729 162.4199 80.9569 238.2519 255.7339"></polygon>
        <polygon id="Fill-254" fill="#01A2FD" points="110.8109 136.8374 106.0689 128.4714 163.1369 96.1124 167.8789 104.4804"></polygon>
        <polygon id="Fill-255" fill="#01A2FD" points="66.5931 237.5503 63.0621 228.6113 198.2181 175.2053 201.7481 184.1443"></polygon>
        <polygon id="Fill-256" fill="#01A2FD" points="90.2142 183.9516 85.8182 175.3976 177.3622 128.3776 181.7572 136.9316"></polygon>
        <g id="Group-275" transform="translate(33.423000, 6.306800)">
            <path d="M110.5773,61.9124 C99.9713,61.9124 91.3463,53.2874 91.3463,42.6814 C91.3463,32.0754 99.9713,23.4504 110.5773,23.4504 C121.1823,23.4504 129.8073,32.0754 129.8073,42.6814 C129.8073,53.2874 121.1823,61.9124 110.5773,61.9124" id="Fill-257" fill="#FFFFFF"></path>
            <polygon id="Fill-259" fill="#01A2FD" points="143.7658 130.5306 86.6988 98.1736 91.4398 89.8056 148.5078 122.1646"></polygon>
            <polygon id="Fill-261" fill="#01A2FD" points="187.9836 231.2435 52.8286 177.8375 56.3586 168.8985 191.5146 222.3045"></polygon>
            <polygon id="Fill-263" fill="#01A2FD" points="164.3634 177.6448 72.8204 130.6248 77.2144 122.0708 168.7584 169.0908"></polygon>
            <path d="M75.965,66.2464 C70.304,58.7114 67.308,49.7344 67.308,40.2784 C67.308,30.8224 70.304,21.8464 75.965,14.3104 L83.655,20.0864 C79.251,25.9444 76.923,32.9264 76.923,40.2784 C76.923,47.6314 79.251,54.6124 83.655,60.4724 L75.965,66.2464 Z" id="Fill-265" fill="#FFFFFF"></path>
            <path d="M62.6925,80.557 C53.4055,69.303 48.0765,54.622 48.0765,40.279 C48.0765,25.935 53.4055,11.254 62.6925,0 L70.1105,6.122 C62.2185,15.681 57.6925,28.133 57.6925,40.279 C57.6925,52.425 62.2185,64.876 70.1105,74.435 L62.6925,80.557 Z" id="Fill-267" fill="#FFFFFF"></path>
            <path d="M145.1886,66.2611 L137.4986,60.4861 C141.9026,54.6271 144.2306,47.6411 144.2306,40.2791 C144.2306,32.9361 141.9026,25.9591 137.4986,20.1001 L145.1886,14.3241 C150.8506,21.8601 153.8466,30.8331 153.8466,40.2791 C153.8466,49.7391 150.8506,58.7251 145.1886,66.2611" id="Fill-269" fill="#FFFFFF"></path>
            <path d="M158.4611,80.5716 L151.0431,74.4496 C158.9361,64.8896 163.4611,52.4336 163.4611,40.2786 C163.4611,28.1416 158.9361,15.6956 151.0431,6.1356 L158.4611,0.0136 C167.7481,11.2676 173.0771,25.9456 173.0771,40.2786 C173.0771,54.6316 167.7481,69.3176 158.4611,80.5716" id="Fill-271" fill="#FFFFFF"></path>
            <polygon id="Fill-273" fill="#4E4BEC" points="0 275.3862 221.154 275.3862 221.154 246.5402 0 246.5402"></polygon>
        </g>
    </g>
</svg>