<?xml version="1.0" encoding="UTF-8"?>
<svg width="288px" height="288px" viewBox="0 0 288 288" version="1.1" xmlns="http://www.w3.org/2000/svg" xmlns:xlink="http://www.w3.org/1999/xlink">
    <title>Artboard 3@1.5x</title>
    <g id="Artboard-3" stroke="none" stroke-width="1" fill="none" fill-rule="evenodd">
        <polygon id="Fill-32" fill="#FFFFFF" points="103.535 193.193 149.058 193.193 149.058 183.077 103.535 183.077"></polygon>
        <polygon id="Fill-33" fill="#FFFFFF" points="164.9192 155.2761 142.1572 116.2141 150.9012 111.1151 173.6632 150.1781"></polygon>
        <polygon id="Fill-34" fill="#FFFFFF" points="214.1282 155.2761 205.3842 150.1781 228.1472 111.1151 236.8902 116.2141"></polygon>
        <polygon id="Fill-35" fill="#FFFFFF" points="150.9007 265.154 142.1567 260.056 164.9197 220.993 173.6627 226.091"></polygon>
        <polygon id="Fill-36" fill="#FFFFFF" points="228.1468 265.154 205.3848 226.091 214.1278 220.993 236.8908 260.056"></polygon>
        <polygon id="Fill-37" fill="#FFFFFF" points="229.99 193.193 275.514 193.193 275.514 183.077 229.99 183.077"></polygon>
        <polygon id="Fill-38" fill="#4E4BEC" points="32.7195 172.9606 22.6035 172.9606 22.6035 16.1556 275.5135 16.1556 275.5135 122.3786 265.3965 122.3786 265.3965 26.2726 32.7195 26.2726"></polygon>
        <polygon id="Fill-39" fill="#4E4BEC" points="81.6946 172.9606 71.5786 172.9606 71.5786 60.3816 224.1656 60.3816 224.1656 105.9646 214.0486 105.9646 214.0486 70.4976 81.6946 70.4976"></polygon>
        <polygon id="Fill-40" fill="#4E4BEC" points="74.8597 70.4977 24.2777 24.9737 31.0447 17.4557 81.6277 62.9777"></polygon>
        <polygon id="Fill-41" fill="#4E4BEC" points="223.2561 70.4977 216.4891 62.9777 267.0711 17.4557 273.8381 24.9737"></polygon>
        <polygon id="Fill-42" fill="#4E4BEC" points="7.429 178.018 88.36 178.018 88.36 167.902 7.429 167.902"></polygon>
        <polygon id="Fill-43" fill="#01A2FD" points="7.428 198.251 52.952 198.251 52.952 188.136 7.428 188.136"></polygon>
        <path d="M189.5237,107.2038 C144.8987,107.2038 108.5927,143.5098 108.5927,188.1348 C108.5927,232.7598 144.8987,269.0648 189.5237,269.0648 C234.1487,269.0648 270.4547,232.7598 270.4547,188.1348 C270.4547,143.5098 234.1487,107.2038 189.5237,107.2038 M189.5237,279.1828 C139.3217,279.1828 98.4757,238.3368 98.4757,188.1348 C98.4757,137.9328 139.3217,97.0878 189.5237,97.0878 C239.7257,97.0878 280.5717,137.9328 280.5717,188.1348 C280.5717,238.3368 239.7257,279.1828 189.5237,279.1828" id="Fill-47" fill="#FFFFFF"></path>
        <polygon id="Fill-44" fill="#01A2FD" points="63.069 198.251 88.36 198.251 88.36 188.136 63.069 188.136"></polygon>
        <polygon id="Fill-45" fill="#01A2FD" points="7.429 218.484 88.36 218.484 88.36 208.368 7.429 208.368"></polygon>
        <path d="M212.6907,147.6696 L166.3567,147.6696 L143.2337,188.1346 L166.3567,228.6006 L212.6907,228.6006 L235.8137,188.1346 L212.6907,147.6696 Z M206.3067,158.6696 L223.1447,188.1346 L206.3067,217.6006 L172.7407,217.6006 L155.9037,188.1346 L172.7407,158.6696 L206.3067,158.6696 Z" id="Fill-46" fill="#FFFFFF"></path>
    </g>
</svg>