<?xml version="1.0" encoding="UTF-8"?>
<svg width="288px" height="288px" viewBox="0 0 288 288" version="1.1" xmlns="http://www.w3.org/2000/svg" xmlns:xlink="http://www.w3.org/1999/xlink">
    <title>Artboard 2@1.5x</title>
    <g id="Artboard-2" stroke="none" stroke-width="1" fill="none" fill-rule="evenodd">
        <path d="M210.8025,149.3132 L200.5335,147.5842 C201.0615,144.4622 201.2655,141.9972 201.2655,138.7932 L211.6775,138.7932 C211.6775,142.5722 211.4235,145.6222 210.8025,149.3132" id="Fill-19" fill="#01A2FD"></path>
        <path d="M143.9998,143.9997 C132.5148,143.9997 123.1758,134.6607 123.1758,123.1767 L123.1758,112.7647 C123.1758,101.2797 132.5148,91.9407 143.9998,91.9407 C155.4848,91.9407 164.8238,101.2797 164.8238,112.7647 L164.8238,123.1767 C164.8238,134.6607 155.4848,143.9997 143.9998,143.9997" id="Fill-21" fill="#4E4BEC"></path>
        <path d="M117.9959,192.9528 L107.5839,192.8918 C107.5889,191.9208 107.5889,191.5238 107.5839,191.3468 L107.5989,191.3468 L107.558753,190.8528 C107.5329,180.2738 110.9649,171.2198 117.4829,164.6858 C124.0919,158.0618 133.5069,154.4118 143.9999,154.4118 C165.7949,154.4118 180.4419,169.0588 180.4419,190.8528 L180.4419,192.9068 L170.0299,192.9068 L170.0299,190.8528 C170.0299,171.6408 156.0079,164.8238 143.9999,164.8238 C136.2929,164.8238 129.4959,167.3868 124.8539,172.0428 C120.2789,176.6238 117.9649,182.9228 117.9709,190.7668 C117.9909,191.1738 118.0009,191.8458 117.9959,192.9528" id="Fill-23" fill="#4E4BEC"></path>
        <g id="Group" transform="translate(143.999600, 143.999600) rotate(-90.000000) translate(-143.999600, -143.999600) translate(8.645100, 8.645100)">
            <path d="M119.737,260.298 L150.973,260.298 L150.973,243.627 L155.238,242.845 C170.434,240.049 184.587,234.187 197.302,225.422 L200.872,222.961 L212.661,234.745 L234.746,212.661 L222.961,200.871 L225.422,197.303 C234.186,184.593 240.048,170.44 242.844,155.237 L243.627,150.973 L260.297,150.973 L260.297,119.737 L243.627,119.737 L242.844,115.472 C240.048,100.271 234.186,86.117 225.422,73.407 L222.961,69.839 L234.746,58.049 L212.661,35.965 L200.872,47.748 L197.302,45.287 C184.587,36.524 170.434,30.661 155.238,27.865 L150.973,27.082 L150.973,10.412 L119.737,10.412 L119.737,27.082 L115.472,27.865 C100.276,30.661 86.122,36.524 73.407,45.287 L69.838,47.748 L58.049,35.965 L35.964,58.049 L47.749,69.839 L45.288,73.407 C36.523,86.117 30.661,100.271 27.865,115.472 L27.082,119.737 L10.412,119.737 L10.412,150.973 L27.082,150.973 L27.865,155.237 C30.661,170.44 36.523,184.593 45.288,197.303 L47.749,200.871 L35.964,212.661 L58.049,234.745 L69.838,222.961 L73.407,225.422 C86.122,234.187 100.276,240.049 115.472,242.845 L119.737,243.627 L119.737,260.298 Z M161.385,270.709 L109.325,270.709 L109.325,252.219 C95.7,249.204 82.884,243.897 71.124,236.399 L58.049,249.469 L21.241,212.661 L34.312,199.585 C26.813,187.831 21.506,175.015 18.491,161.385 L0,161.385 L0,109.325 L18.491,109.325 C21.506,95.695 26.813,82.878 34.312,71.124 L21.241,58.049 L58.049,21.241 L71.124,34.312 C82.884,26.814 95.7,21.506 109.325,18.49 L109.325,0 L161.385,0 L161.385,18.49 C175.01,21.506 187.826,26.814 199.585,34.312 L212.661,21.241 L249.469,58.049 L236.398,71.124 C243.897,82.878 249.204,95.695 252.219,109.325 L270.709,109.325 L270.709,161.385 L252.219,161.385 C249.204,175.015 243.897,187.831 236.398,199.585 L249.469,212.661 L212.661,249.469 L199.585,236.399 C187.826,243.897 175.01,249.204 161.385,252.219 L161.385,270.709 Z" id="Fill-25" fill="#4E4BEC"></path>
            <path d="M108.3549,29.0972491 C95.3550909,32.2189449 84.4847905,37.6523419 73.407,45.287 L69.838,47.748 L58.049,35.965 L35.964,58.049 L47.749,69.839 L45.288,73.407 C36.523,86.117 30.661,100.271 27.865,115.472 L27.082,119.737 L10.412,119.737 L10.412,150.973 L27.082,150.973 L27.865,155.237 C30.661,170.44 36.523,184.593 45.288,197.303 L47.749,200.871 L35.964,212.661 L58.049,234.745 L69.838,222.961 L73.407,225.422 C84.467688,233.046611 95.3777193,238.474483 108.3549,241.598318 M108.3549,270.709 L108.3549,252.219 C94.7299,249.204 82.884,243.897 71.124,236.399 L58.049,249.469 L21.241,212.661 L34.312,199.585 C26.813,187.831 21.506,175.015 18.491,161.385 L0,161.385 L0,109.325 L18.491,109.325 C21.506,95.695 26.813,82.878 34.312,71.124 L21.241,58.049 L58.049,21.241 L71.124,34.312 C82.884,26.814 94.7299,21.506 108.3549,18.49 L108.3549,0" id="Fill-25" fill="#FFFFFF"></path>
        </g>
        <path d="M143.9998,206.4714 C106.6838,206.4714 76.3228,176.1104 76.3228,138.7944 C76.3228,101.4784 106.6838,71.1174 143.9998,71.1174 L143.9998,81.5284 C112.4238,81.5284 86.7348,107.2184 86.7348,138.7944 C86.7348,170.3694 112.4238,196.0594 143.9998,196.0594 C167.7668,196.0594 189.3328,181.1074 197.6558,158.8504 L207.4068,162.5004 C197.5688,188.7994 172.0888,206.4714 143.9998,206.4714" id="Fill-27" fill="#01A2FD"></path>
        <path d="M199.3386,124.0046 C192.6686,98.9966 169.9176,81.5286 143.9996,81.5286 L143.9996,71.1166 C174.6256,71.1166 201.5196,91.7636 209.3946,121.3206 L199.3386,124.0046 Z" id="Fill-29" fill="#01A2FD"></path>
    </g>
</svg>