<?xml version="1.0" encoding="UTF-8"?>
<svg width="288px" height="288px" viewBox="0 0 288 288" version="1.1" xmlns="http://www.w3.org/2000/svg" xmlns:xlink="http://www.w3.org/1999/xlink">
    <title>Artboard 10@1.5x</title>
    <g id="Artboard-10" stroke="none" stroke-width="1" fill="none" fill-rule="evenodd">
        <path d="M195.0834,137.7862 C199.5414,138.2072 202.8124,142.1632 202.3924,146.6182 C201.9714,151.0762 198.0154,154.3482 193.5604,153.9272 C189.1024,153.5062 185.8304,149.5532 186.2514,145.0952 C186.2514,145.0842 186.2544,145.0702 186.2544,145.0592 C186.6934,140.6182 190.6394,137.3652 195.0834,137.7862" id="Fill-170" fill="#FFFFFF"></path>
        <path d="M195.0834,88.9825 C199.5414,89.4035 202.8124,93.3595 202.3924,97.8145 C201.9714,102.2725 198.0154,105.5445 193.5604,105.1235 C189.1024,104.7025 185.8304,100.7475 186.2514,96.2915 C186.2514,96.2805 186.2544,96.2675 186.2544,96.2555 C186.6934,91.8145 190.6394,88.5615 195.0834,88.9825" id="Fill-172" fill="#FFFFFF"></path>
        <path d="M235.8949,212.6583 C228.0059,212.9693 221.6359,215.3683 216.8989,219.8193 C210.0259,226.2783 207.3629,235.9903 206.3379,243.0373 C216.7129,241.3043 224.4349,237.3633 229.3609,231.2783 C234.2989,225.1803 235.6479,217.8393 235.8949,212.6583 M197.4389,260.5173 C193.0329,260.5173 189.3699,257.0453 189.1759,252.6003 C189.1249,251.4503 188.1469,224.2183 205.4699,207.8413 C215.2029,198.6373 228.3809,194.7933 244.6219,196.4213 C248.3009,196.7903 251.2909,199.5533 251.9459,203.1933 C252.1029,204.0733 255.6659,224.9133 242.3789,241.5113 C232.9799,253.2533 217.9799,259.6453 197.7989,260.5103 C197.6789,260.5153 197.5579,260.5173 197.4389,260.5173" id="Fill-174" fill="#4E4BEC"></path>
        <polygon id="Fill-176" fill="#01A2FD" points="186.017 275.506 202.572 275.506 202.572 170.456 186.017 170.456"></polygon>
        <polygon id="Fill-178" fill="#FFFFFF" points="115.48 272.108 132.036 272.108 132.036 219.542 115.48 219.542"></polygon>
        <path d="M133.0502,225.7159 C79.2552,225.7079 35.4962,181.9319 35.5051986,128.1329 C35.5132,74.3559 79.2732,30.5979 133.0502,30.5869 L133.0532,47.1419 C88.4022,47.1529 52.0692,83.4849 52.0612,128.1359 C52.0542,172.8059 88.3872,209.1539 133.0532,209.1609 L133.0502,225.7159 Z" id="Fill-179" fill="#FFFFFF"></path>
        <path d="M194.3011,29.0489 C186.7511,29.0489 180.6091,35.1869 180.6091,42.7329 C180.6091,50.2779 186.7491,56.4189 194.2951,56.4189 C201.8401,56.4189 207.9791,50.2779 207.9791,42.7329 C207.9791,35.1869 201.8421,29.0489 194.3011,29.0489 M194.2951,72.9739 C177.6191,72.9739 164.0541,59.4069 164.0541,42.7329 C164.0541,26.0579 177.6191,12.4939 194.2951,12.4939 C210.9701,12.4939 224.5341,26.0559 224.5341,42.7279 L224.5341,42.7329 C224.5341,59.4069 210.9701,72.9739 194.2951,72.9739" id="Fill-180" fill="#FFFFFF"></path>
        <path d="M112.6615,182.4015 L98.5585,173.7255 L120.8425,137.4955 L105.6095,137.4955 C102.6395,137.4955 99.8965,135.9045 98.4225,133.3245 C96.9495,130.7445 96.9715,127.5735 98.4775,125.0145 L128.5185,74.0375 L142.7835,82.4425 L120.0975,120.9395 L135.6515,120.9395 C138.6495,120.9395 141.4145,122.5595 142.8775,125.1795 C144.3405,127.7965 144.2735,130.9995 142.7025,133.5545 L112.6615,182.4015 Z" id="Fill-181" fill="#01A2FD"></path>
    </g>
</svg>