<?xml version="1.0" encoding="UTF-8"?>
<svg width="288px" height="288px" viewBox="0 0 288 288" version="1.1" xmlns="http://www.w3.org/2000/svg" xmlns:xlink="http://www.w3.org/1999/xlink">
    <title>Artboard 4@1.5x</title>
    <g id="Artboard-4" stroke="none" stroke-width="1" fill="none" fill-rule="evenodd">
        <path d="M48.4012,21.9792 C43.8702,76.7592 66.7822,96.2952 81.0782,103.0992 C98.7212,111.5022 118.3192,108.0052 126.3712,99.9492 C134.4222,91.8972 137.9162,72.2942 129.5202,54.6562 C122.7172,40.3602 103.1812,17.4302 48.4012,21.9792 M102.3282,117.5272 C94.1392,117.5272 85.3792,115.7942 76.9472,111.7852 C60.0262,103.7292 32.6162,80.7172 39.1992,17.0682 L39.6012,13.1812 L43.4902,12.7772 C107.1172,6.2172 130.1552,33.5992 138.2072,50.5252 C148.5362,72.2342 143.7562,96.1602 133.1692,106.7472 C126.6952,113.2272 115.2242,117.5272 102.3282,117.5272" id="Fill-56" fill="#01A2FD"></path>
        <path d="M144.0379,143.2888 C143.9579,142.7628 135.5489,90.2068 90.0879,67.0938 L94.4449,58.5188 C144.4179,83.9298 153.1979,139.5178 153.5499,141.8758 L144.0379,143.2888 Z" id="Fill-57" fill="#4E4BEC"></path>
        <path d="M153.5877,142.946 L144.0007,142.214 C144.0287,141.838 147.3807,104.381 190.1757,92.498 L192.7487,101.765 C156.3817,111.865 153.6107,142.635 153.5877,142.946" id="Fill-58" fill="#4E4BEC"></path>
        <path d="M202.2801,127.1891 C199.5711,127.1891 196.8671,126.9731 194.1761,126.5371 C182.0071,124.5551 171.9921,118.0951 166.7151,108.8131 C158.7751,94.8541 164.6121,75.0851 181.2371,59.6141 C199.6701,42.4541 233.1391,30.3871 266.8501,52.8861 L271.2301,55.8111 L267.9161,59.9101 C256.3941,74.1541 253.0001,83.8021 250.0001,92.3141 C247.2351,100.1691 244.8441,106.9541 237.0551,113.9301 C227.5101,122.4851 214.9411,127.1891 202.2801,127.1891" id="Fill-61" fill="#01A2FD"></path>
        <path d="M162.3904,146.3825 C146.7184,146.3825 120.8594,151.6095 89.8004,163.7255 C36.0294,184.7035 12.0564,207.9625 14.2864,214.5495 C14.5964,215.4605 15.7424,216.1555 16.6534,216.5775 C27.0564,221.4365 59.7194,217.7135 102.0184,201.2105 C155.7894,180.2345 179.7614,156.9745 177.5324,150.3875 C177.2214,149.4765 176.0774,148.7815 175.1654,148.3605 C172.4014,147.0695 168.0624,146.3825 162.3904,146.3825 M29.4554,228.0945 C22.3894,228.0945 16.6384,227.1835 12.5864,225.2915 C7.8594,223.0895 5.9484,219.9065 5.1774,217.6295 C-0.9446,199.5305 41.3584,172.3035 86.3074,154.7675 C127.1354,138.8375 164.4854,132.7525 179.2324,139.6455 C183.9594,141.8475 185.8704,145.0265 186.6404,147.3075 C192.7624,165.4065 150.4604,192.6335 105.5104,210.1685 C75.8994,221.7235 48.1144,228.0945 29.4554,228.0945" id="Fill-50" fill="#FFFFFF"></path>
        <polygon id="Fill-52" fill="#01A2FD" points="264.1785 276.2184 100.7165 276.2184 100.7165 253.6214 110.3325 253.6214 161.7705 232.9484 161.7705 223.3334 264.1785 223.3334"></polygon>
        <polygon id="Fill-54" fill="#4E4BEC" points="192.84 247.372 202.455 247.372 202.455 223.334 192.84 223.334"></polygon>
        <path d="M43.8797,271.364 C36.8137,271.364 31.0627,270.453 27.0107,268.561 C22.2817,266.359 20.3717,263.176 19.6017,260.899 L5.1647,217.583 L14.2817,214.54 L28.7147,257.838 C29.0197,258.73 30.1657,259.425 31.0757,259.846 C41.4757,264.706 74.1437,260.983 116.4407,244.48 C170.2127,223.503 194.1907,200.262 191.9647,193.685 L177.5367,150.397 L186.6537,147.355 L201.0767,190.624 C207.1907,208.686 164.8847,235.903 119.9347,253.438 C90.3217,264.993 62.5367,271.364 43.8797,271.364" id="Fill-59" fill="#FFFFFF"></path>
        <polygon id="Fill-60" fill="#FFFFFF" points="93.1063 238.5641 80.1633 212.3141 109.4353 148.3591 118.1773 152.3591 90.8103 212.1651 101.7263 234.3101"></polygon>
        <path d="M262.4139,86.4196 C261.0239,89.5896 259.9939,92.5396 258.9649,95.4496 C258.8449,95.7796 258.7339,96.1096 258.6139,96.4496 C268.0639,107.4096 273.7949,121.6696 273.7949,137.2396 C273.7949,171.7096 245.7549,199.7396 211.2949,199.7396 C211.0549,199.7396 210.8049,199.7396 210.5639,199.7296 C209.7949,202.9196 208.3449,206.0796 206.3739,209.1896 C207.9939,209.2996 209.6439,209.3596 211.2949,209.3596 C251.0639,209.3596 283.4139,177.0096 283.4139,137.2396 C283.4139,117.4396 275.3849,99.4696 262.4139,86.4196" id="Fill-62" fill="#4E4BEC"></path>
    </g>
</svg>