<?xml version="1.0" encoding="UTF-8"?>
<svg width="288px" height="288px" viewBox="0 0 288 288" version="1.1" xmlns="http://www.w3.org/2000/svg" xmlns:xlink="http://www.w3.org/1999/xlink">
    <title>Artboard 11@1.5x</title>
    <g id="Artboard-11" stroke="none" stroke-width="1" fill="none" fill-rule="evenodd">
        <path d="M186.9983,89.3917 C187.0243,89.4287 187.0523,89.4657 187.0783,89.5027 C187.0523,89.4657 187.0253,89.4287 186.9983,89.3917 L186.9983,89.3917 Z M207.1463,139.3027 L206.9513,138.9147 C205.7383,136.4957 203.6213,132.2787 205.4343,127.0947 C203.5073,123.8277 201.1243,120.8787 198.3373,118.3107 C192.4683,114.1307 187.4243,109.0237 183.3213,103.1197 C183.1183,103.0387 182.9083,102.9667 182.7033,102.8897 C182.2783,102.7287 181.8573,102.5667 181.4513,102.4007 L181.3283,102.3777 C179.9073,102.1387 176.5803,101.5777 174.3943,98.4567 C173.1313,96.6817 171.6053,96.4127 166.2333,96.3137 C165.2623,96.2957 164.2883,96.2767 163.3243,96.2317 C153.2643,96.4757 143.3113,93.1937 135.3063,87.0517 C135.2383,86.9997 135.1723,86.9477 135.1053,86.8927 C124.5973,78.2647 113.2533,70.4957 101.3903,63.8067 L109.0153,50.2817 C121.6223,57.3927 133.6803,65.6417 144.8523,74.8067 C150.1023,78.7997 156.5953,80.8827 163.1953,80.7037 C163.4053,80.6967 163.6153,80.6997 163.8273,80.7117 C164.7183,80.7587 165.6193,80.7737 166.5193,80.7907 C171.7733,80.8877 179.4613,81.0307 185.3273,87.3477 C185.9133,87.4897 186.5683,87.6937 187.2533,87.9967 C187.5443,88.1257 187.8753,88.2457 188.2083,88.3717 C190.2583,89.1507 193.3543,90.3247 195.4493,93.3427 C198.7783,98.3477 202.8573,102.5247 207.6613,105.8857 C207.9213,106.0677 208.1703,106.2667 208.4053,106.4807 C212.8943,110.5237 216.6533,115.2597 219.5793,120.5607 C221.4853,123.7357 221.8733,127.5417 220.6393,131.0477 C220.6023,131.1477 220.5653,131.2467 220.5263,131.3467 C220.6263,131.5497 220.7333,131.7617 220.8263,131.9487 L221.0403,132.3757 L207.1463,139.3027 Z" id="Fill-183" fill="#4E4BEC"></path>
        <path d="M122.1682,240.8126 C122.1182,240.8746 122.0682,240.9376 122.0172,240.9996 C122.0682,240.9376 122.1192,240.8746 122.1682,240.8126 M136.8422,261.3106 C135.4022,261.3106 133.8522,261.0886 132.1812,260.5826 C132.1742,260.5826 131.9432,260.5096 131.9372,260.5076 C124.2372,258.1606 113.6942,254.9426 109.0872,243.5006 C108.4292,241.8526 106.6772,236.5666 109.2262,232.2746 C109.1602,232.1676 109.0962,232.0606 109.0372,231.9616 C108.7412,231.4686 108.4452,230.9716 108.1652,230.4616 C107.1442,228.6046 106.3272,226.7946 105.5382,225.0446 C104.6332,223.0386 103.7782,221.1436 102.7892,219.5866 C102.6662,219.3956 102.5532,219.1996 102.4482,218.9956 C101.2282,216.6436 99.4782,214.5566 97.3702,212.9436 C81.9672,204.1316 79.5732,189.4276 79.1652,178.9926 C78.5912,173.2446 75.4932,168.1496 70.6442,164.9896 C70.3822,164.8176 70.1302,164.6306 69.8912,164.4326 C65.1322,160.4366 61.3252,155.5956 58.5732,150.0336 C57.1632,147.6416 56.2652,145.1976 55.4692,143.0296 C54.8972,141.4736 54.3572,140.0056 53.7342,138.8556 C51.6142,135.1476 49.1652,131.3666 46.5452,127.7686 C46.0892,127.1176 45.7452,126.5946 45.4042,126.0756 C43.7372,123.5366 43.5582,123.5036 42.8062,123.3656 L45.6332,108.0986 C53.0782,109.4786 56.2702,114.3366 58.3822,117.5546 C58.6472,117.9576 58.9112,118.3626 59.1912,118.7626 C62.0492,122.6836 64.8112,126.9506 67.3022,131.3066 C68.5452,133.6016 69.3402,135.7646 70.0412,137.6736 C70.6862,139.4266 71.2932,141.0806 72.0212,142.2686 C72.1522,142.4856 72.2722,142.7066 72.3842,142.9326 C74.1272,146.5256 76.5392,149.6666 79.5572,152.2716 C88.2162,158.0966 93.7052,167.3666 94.6462,177.7816 C94.6572,177.9206 94.6662,178.0576 94.6712,178.1966 C95.0842,189.4346 98.1862,195.6456 105.3792,199.6336 C105.6602,199.7916 105.9312,199.9646 106.1912,200.1536 C110.2842,203.1426 113.6942,207.0756 116.0712,211.5456 C117.5622,213.9406 118.6442,216.3366 119.6902,218.6596 C120.3882,220.2066 121.0452,221.6656 121.7632,222.9706 C121.9452,223.3016 122.1512,223.6426 122.3552,223.9806 C123.7392,226.2926 127.1452,231.9716 123.7842,238.3646 C125.6722,242.1726 129.8642,243.6426 136.3612,245.6266 C137.0902,244.8876 138.1762,243.2196 138.8672,242.1606 C139.2622,241.5566 139.6502,240.9596 140.0422,240.3856 C140.1772,240.1936 140.2722,240.0326 140.3732,239.8706 C141.2722,238.4336 142.9432,235.7576 146.2542,234.5646 C157.2932,230.6666 167.6712,233.5606 176.5302,236.5836 C179.4762,237.5836 181.2962,237.5476 181.9602,237.2196 C182.4062,236.9966 182.8972,236.1936 183.2892,235.0516 C185.1402,228.2476 190.1522,222.6896 196.7502,220.1566 C196.8692,220.1096 196.9892,220.0666 197.1112,220.0276 C201.3902,218.6206 205.8182,217.6076 210.2752,217.0136 L212.3242,232.4046 C208.8902,232.8616 205.4732,233.6346 202.1692,234.7066 C200.2312,235.5066 198.7722,237.1806 198.2482,239.2116 C198.2082,239.3686 198.1632,239.5256 198.1122,239.6766 C195.9262,246.4046 191.9042,249.6026 188.9152,251.0986 C184.1152,253.5076 178.2672,253.5686 171.5292,251.2806 C165.4262,249.2026 159.0232,247.3196 153.1642,248.6926 C153.0502,248.8666 152.9372,249.0386 152.8232,249.1996 C152.5282,249.6296 152.2042,250.1316 151.8752,250.6366 C149.4892,254.2966 144.9172,261.3106 136.8422,261.3106" id="Fill-185" fill="#4E4BEC"></path>
        <path d="M42.9231,122.6739 C39.2611,121.9919 36.0581,119.8719 33.9031,116.7009 C31.2931,112.8619 30.3551,107.8079 31.3251,102.8349 L31.5121,101.9079 C32.0241,99.3549 32.5091,96.9429 32.7841,94.5799 C33.5651,88.1679 35.7781,83.7529 39.5571,81.0499 C43.2061,78.4419 47.8441,77.7359 53.7371,78.8999 C54.5741,78.0119 55.4431,77.1529 56.3421,76.3259 C55.9081,75.8059 55.4761,75.2809 55.0501,74.7469 C51.0891,69.8089 51.1521,65.5029 51.9041,62.7599 C52.6471,60.0529 54.7441,56.3729 60.5171,54.2019 C62.3851,53.5039 64.2391,52.7369 66.0981,51.9719 C71.9381,49.5629 77.9771,47.0709 84.6211,46.3129 C92.9031,45.4029 101.1361,46.9569 108.4761,50.7929 L101.9271,63.3199 C97.0801,60.7829 91.6451,59.7669 86.1941,60.3589 C81.5411,60.8909 76.6571,62.9039 71.4871,65.0379 C69.9521,65.6689 68.4181,66.3009 66.8841,66.9009 C67.9351,68.1709 69.0071,69.3919 70.0331,70.5599 C70.6721,71.2859 71.2951,71.9939 71.8871,72.6859 C73.2041,74.2199 73.8011,76.2459 73.5251,78.2499 C73.2491,80.2539 72.1281,82.0439 70.4441,83.1679 C68.2531,84.6279 66.2161,86.3229 64.3851,88.2129 C61.3471,92.5019 55.8891,94.3319 50.8571,92.7379 C48.6661,92.3189 47.8421,92.5419 47.7201,92.5839 C47.7421,92.6189 47.1581,93.4589 46.8191,96.2559 C46.4791,99.1599 45.9141,101.9729 45.3681,104.6909 L45.1911,105.5749 C44.8601,107.2659 45.4031,108.6159 45.6751,108.8619 L42.9231,122.6739 Z" id="Fill-187" fill="#FFFFFF"></path>
        <path d="M260.7913,168.3038 C260.7193,168.3458 260.6473,168.3858 260.5753,168.4248 C260.6473,168.3878 260.7193,168.3488 260.7913,168.3038 M211.9103,231.7478 L210.6453,217.6698 C217.7843,217.0288 224.9543,215.9248 231.9623,214.3878 C236.3793,213.0478 240.7083,211.1008 245.2873,209.0448 C248.7793,207.4758 252.3903,205.8548 256.1433,204.4728 C258.6393,203.6418 260.2133,201.6198 260.3823,199.2408 C260.3953,199.0568 260.4153,198.8708 260.4443,198.6868 C261.1853,193.7828 262.0223,189.4118 263.0043,185.3268 C263.9993,179.5518 262.0633,173.7058 257.8963,169.6758 C252.1043,171.8618 246.6903,170.7128 242.5833,169.8448 C240.7283,169.4498 238.9753,169.0788 237.5063,169.0518 C237.3963,169.0488 237.2873,169.0438 237.1783,169.0368 C233.8543,168.8188 230.7523,167.2068 228.6653,164.6138 C228.5003,164.4098 228.3493,164.1988 228.2083,163.9798 C226.7673,161.7168 225.4443,159.4218 224.1653,157.2018 C222.8353,154.8948 221.5803,152.7138 220.2253,150.6158 C220.1183,150.4498 220.0173,150.2778 219.9233,150.1038 C219.7723,149.8178 219.5463,149.5808 219.2703,149.4118 C213.7133,147.8458 209.2113,143.5548 207.4073,138.0338 L220.8413,133.6438 C221.2003,134.7448 222.1233,135.5878 223.2473,135.8438 C223.6233,135.9308 223.9913,136.0458 224.3503,136.1928 C227.6923,137.5598 230.4833,140.0318 232.2403,143.1708 C233.7313,145.4988 235.0933,147.8608 236.4113,150.1488 C237.3473,151.7718 238.2823,153.3958 239.2593,154.9938 C241.5113,155.1708 243.6163,155.6158 245.5143,156.0188 C249.4963,156.8638 251.6663,157.2488 253.6673,156.0978 C258.4383,153.2688 263.8833,156.4758 264.9273,157.1478 C265.1323,157.2798 265.3293,157.4228 265.5203,157.5748 C274.6243,164.8868 278.9753,176.5638 276.8743,188.0478 C276.8503,188.1798 276.8223,188.3088 276.7923,188.4408 C275.9023,192.1128 275.1373,196.0778 274.4543,200.5538 C273.7653,208.5398 268.4353,215.2898 260.8033,217.8118 C257.7363,218.9488 254.5033,220.4008 251.0783,221.9368 C246.2023,224.1268 241.1603,226.3918 235.7653,228.0028 C235.5993,228.0528 235.4343,228.0958 235.2663,228.1328 C227.5923,229.8278 219.7333,231.0438 211.9103,231.7478" id="Fill-189" fill="#01A2FD"></path>
        <path d="M60.9651,242.0343 L56.5671,228.6023 C85.5901,219.0973 112.6601,204.9473 137.0261,186.5513 C145.9421,179.7563 154.4001,172.1493 162.1431,163.9673 C170.2191,155.4243 177.4091,145.9933 183.5131,135.9433 C197.0031,113.6783 204.0541,88.1433 203.8961,62.1013 L203.8961,27.9733 L218.0281,27.9733 L218.0281,62.0583 C218.2021,90.6703 210.4441,118.7673 195.5961,143.2733 C188.9741,154.1803 181.1741,164.4103 172.4111,173.6793 C164.1431,182.4163 155.1121,190.5343 145.5681,197.8083 C119.9291,217.1683 91.4741,232.0413 60.9651,242.0343" id="Fill-191" fill="#01A2FD"></path>
        <path d="M38.5735,227.3868 L38.5695,227.3868 C31.7125,227.3868 26.1335,232.9658 26.1305,239.8238 C26.1305,246.6788 31.7085,252.2578 38.5645,252.2598 L38.5685,252.2598 C45.4235,252.2598 51.0015,246.6838 51.0035,239.8258 L51.0035,239.8108 C51.0005,232.9608 45.4245,227.3868 38.5735,227.3868 M38.5685,267.7848 L38.5615,267.7848 C23.1465,267.7828 10.6055,255.2368 10.6055,239.8218 C10.6075,224.4038 23.1525,211.8628 38.5685,211.8628 L38.5745,211.8628 C53.9825,211.8628 66.5225,224.3958 66.5285,239.8088 L66.5285,239.8308 C66.5255,255.2458 53.9825,267.7848 38.5685,267.7848" id="Fill-193" fill="#FFFFFF"></path>
        <path d="M187.8938,62.0313 L176.9158,51.0523 L205.4908,22.4863 C208.5218,19.4583 213.4358,19.4583 216.4688,22.4863 L245.0298,51.0523 L234.0498,62.0313 L210.9778,38.9533 L187.8938,62.0313 Z" id="Fill-195" fill="#4E4BEC"></path>
    </g>
</svg>