<?xml version="1.0" encoding="UTF-8"?>
<svg width="288px" height="288px" viewBox="0 0 288 288" version="1.1" xmlns="http://www.w3.org/2000/svg" xmlns:xlink="http://www.w3.org/1999/xlink">
    <title>Artboard 9@1.5x</title>
    <g id="Artboard-9" stroke="none" stroke-width="1" fill="none" fill-rule="evenodd">
        <path d="M144.658,269.0001 C81.036,269.0001 29.273,217.2371 29.273,153.6151 C29.273,108.4391 55.016,67.0491 94.853,48.1611 C95.291,47.9781 95.929,47.8461 96.582,47.8461 C99.234,47.8461 101.389,50.0011 101.389,52.6541 C101.389,54.5461 100.276,56.2641 98.554,57.0391 C62.262,74.5561 38.889,112.4451 38.889,153.6151 C38.889,211.9371 86.337,259.3851 144.658,259.3851 C202.98,259.3851 250.428,211.9371 250.428,153.6151 C250.428,112.4451 227.055,74.5561 190.763,57.0391 C189.041,56.2641 187.928,54.5461 187.928,52.6541 C187.928,50.0011 190.083,47.8461 192.735,47.8461 C193.387,47.8461 194.026,47.9781 194.464,48.1611 C234.301,67.0491 260.044,108.4391 260.044,153.6151 C260.044,217.2371 208.28,269.0001 144.658,269.0001 M198.422,39.4001 C196.613,38.6251 194.698,38.2301 192.735,38.2301 C184.782,38.2301 178.312,44.7011 178.312,52.6541 C178.312,58.3211 181.65,63.4851 186.702,65.7531 C219.572,81.6221 240.812,116.1121 240.812,153.6151 C240.812,206.6361 197.679,249.7691 144.658,249.7691 C91.638,249.7691 48.505,206.6361 48.505,153.6151 C48.505,116.1121 69.744,81.6221 102.614,65.7531 C107.667,63.4851 111.005,58.3211 111.005,52.6541 C111.005,44.7011 104.534,38.2301 96.582,38.2301 C94.619,38.2301 92.703,38.6251 90.895,39.4001 C47.556,59.9391 19.658,104.7451 19.658,153.6151 C19.658,222.5431 75.731,278.6151 144.658,278.6151 C213.586,278.6151 269.658,222.5431 269.658,153.6151 C269.658,104.7451 241.761,59.9391 198.422,39.4001" id="Fill-163" fill="#4E4BEC"></path>
        <path d="M140.3582,235.8438 C135.4522,226.5388 135.0432,215.8198 135.0432,206.4998 C135.0432,185.9918 140.2542,176.8748 145.2922,168.0568 C149.9122,159.9728 154.2742,152.3388 154.2742,134.3848 C154.2742,116.7738 145.4002,100.3598 130.5312,90.4768 L135.8552,82.4668 C153.4102,94.1388 163.8882,113.5478 163.8882,134.3848 C163.8882,154.8928 158.6772,164.0098 153.6392,172.8278 C149.0202,180.9118 144.6592,188.5458 144.6592,206.4998 C144.6592,216.9228 145.3632,224.7168 148.8652,231.3558 L140.3582,235.8438 Z" id="Fill-157" fill="#FFFFFF"></path>
        <path d="M139.8602,195.5274 C122.8692,190.6164 111.0062,173.3814 111.0062,153.6154 C111.0062,150.5354 111.2972,147.4564 111.8642,144.4644 L121.3102,146.2674 C120.8502,148.6674 120.6202,151.1364 120.6202,153.6154 C120.6202,169.1234 129.6312,182.5594 142.5272,186.2884 L139.8602,195.5274 Z" id="Fill-159" fill="#FFFFFF"></path>
        <path d="M149.9549,179.6261 L141.5789,174.9111 C145.8129,167.3861 151.5739,163.2541 157.1419,159.2641 C163.4899,154.7101 170.0449,150.0091 175.4829,139.4731 C175.6969,139.0581 182.6399,123.5781 182.8509,123.1461 L188.5079,127.5361 L188.2349,134.7601 C188.0209,135.2001 184.3389,143.2711 184.1219,143.6941 C177.6169,156.4111 169.7309,162.0641 162.7439,167.0751 C157.5939,170.7661 153.1469,173.9591 149.9549,179.6261" id="Fill-161" fill="#FFFFFF"></path>
        <path d="M143.9998,71.8849 C131.7078,71.8849 121.7058,61.8829 121.7058,49.5909 C121.7058,30.8229 139.2718,16.5539 140.0198,15.9499 L143.9998,12.7719 L147.9808,15.9499 C148.7288,16.5539 166.2938,30.8229 166.2938,49.5909 C166.2938,61.8829 156.2918,71.8849 143.9998,71.8849" id="Fill-165" fill="#01A2FD"></path>
        <path d="M139.1893,91.9181 C139.6293,94.8851 139.8503,97.8341 139.8503,100.7311 C139.8503,124.7311 129.9343,136.7511 121.1833,147.3611 C113.1403,157.1081 106.1973,165.5221 106.1973,182.4611 C106.1973,203.9461 121.9293,222.7871 144.6013,228.6471 C172.5603,221.2941 192.7363,192.9791 192.7363,160.8271 C192.7363,125.7921 169.6773,96.7591 139.1893,91.9181 L139.1893,91.9181 Z M144.6213,238.5431 L143.5033,238.2761 C115.8773,231.7271 96.5823,208.7721 96.5823,182.4611 C96.5823,162.0711 105.3193,151.4801 113.7653,141.2391 C122.2353,130.9711 130.2363,121.2761 130.2363,100.7311 C130.2363,96.4861 129.6633,92.0871 128.5363,87.6601 L126.9293,81.3551 L133.4233,81.6691 C172.0783,83.5371 202.3503,118.3041 202.3503,160.8271 C202.3503,197.7901 178.5433,230.3651 145.7393,238.2721 L144.6213,238.5431 Z" id="Fill-167" fill="#FFFFFF"></path>
    </g>
</svg>