<svg xmlns="http://www.w3.org/2000/svg" width="86.564" height="83.011" viewBox="0 0 86.564 83.011">
  <g id="Group_7133" data-name="Group 7133" transform="translate(-1733.702 -2033.311)">
    <g id="Logo" transform="translate(1733.702 2033.311)">
      <path id="Path_62" data-name="Path 62" d="M2862.5,3437.716l0-.009a1.911,1.911,0,0,1,.708-2.609c1.535-.869,3.154-1.607,4.775-2.347,1.616-.709,3.267-1.366,4.952-1.928a63.787,63.787,0,0,1,6.425-1.865c-.1-.177-.213-.338-.313-.513l-2.336-3.875c-1.553-2.586-3.137-5.2-4.562-7.9l-.016-.016a1.915,1.915,0,0,1,.407-2.3,1.968,1.968,0,0,1,2.749.134,75.746,75.746,0,0,1,5.9,7.2,71.045,71.045,0,0,1,5.182,7.922,2.829,2.829,0,0,1,.31.852l.009.051a2.806,2.806,0,0,1-2.329,3.212l-.034.015c-3.3.58-6.557,1.317-9.827,2.137-1.617.419-3.253.849-4.87,1.315-1.65.42-3.252.95-4.906,1.416a2,2,0,0,1-2.222-.882" transform="translate(-2849.704 -3387.301)" fill="#fff"/>
      <path id="Path_63" data-name="Path 63" d="M2900.746,3433.422l-.048-.025a2.8,2.8,0,0,1-1.1-3.8,72.962,72.962,0,0,1,5.182-7.921,81.18,81.18,0,0,1,5.9-7.2,1.983,1.983,0,0,1,2.333-.415l.035.017a1.9,1.9,0,0,1,.781,2.568v.015c-1.437,2.7-3.007,5.318-4.575,7.905l-2.337,3.873c-.1.175-.208.337-.307.514a63.41,63.41,0,0,1,6.423,1.863c1.684.564,3.335,1.22,4.97,1.929,1.6.738,3.218,1.476,4.754,2.349a1.914,1.914,0,0,1,.9,2.183,1.956,1.956,0,0,1-2.4,1.318h-.019c-1.651-.467-3.253-1-4.888-1.415-1.635-.467-3.252-.9-4.887-1.316-3.253-.819-6.522-1.558-9.825-2.136l-.034-.016a2.849,2.849,0,0,1-.864-.289" transform="translate(-2849.704 -3387.301)" fill="#fff"/>
      <path id="Path_64" data-name="Path 64" d="M2880.556,3469.137l-.03-.011a1.906,1.906,0,0,1-1.1-2.462c.752-1.929,1.606-3.808,2.438-5.688s1.729-3.726,2.628-5.592,1.849-3.681,2.847-5.528,2.027-3.631,3.252-5.495a3.178,3.178,0,0,1,.8-.8,2.876,2.876,0,0,1,3.96.756l.029.047a60.634,60.634,0,0,1,3.3,5.463c1.017,1.832,1.949,3.679,2.89,5.52.9,1.848,1.783,3.714,2.617,5.592.816,1.916,1.65,3.782,2.371,5.726a1.881,1.881,0,0,1-.77,2.263,1.951,1.951,0,0,1-2.681-.56l-.015-.016c-1.106-1.719-2.158-3.493-3.237-5.224l-3.106-5.286-3.063-5.268c-.23-.4-.474-.807-.72-1.207-.225.4-.474.791-.7,1.191l-3.089,5.255-3.09,5.283c-1.085,1.751-2.1,3.525-3.2,5.256v.016a1.976,1.976,0,0,1-2.336.771" transform="translate(-2849.704 -3387.301)" fill="#fff"/>
      <path id="Path_65" data-name="Path 65" d="M2894.949,3406.095a2.025,2.025,0,0,1-3.861.016,22.763,22.763,0,0,1-.812-4.329,44.679,44.679,0,0,1,.741-12.987,2,2,0,0,1,3.861-.016,39.571,39.571,0,0,1,.986,8.655,40.375,40.375,0,0,1-.133,4.331,22.552,22.552,0,0,1-.782,4.331" transform="translate(-2849.704 -3387.301)" fill="#fff"/>
      <path id="Path_66" data-name="Path 66" d="M2855.522,3450.581l-.024-.04a2.164,2.164,0,0,1,.76-2.964c1.992-1.189,4.068-2.2,6.162-3.213,2.108-.964,4.268-1.848,6.476-2.619a80.046,80.046,0,0,1,13.569-3.518,3.335,3.335,0,0,1,2.025.289l.071.035a3.205,3.205,0,0,1,1.415,4.306l-.015.013a134.777,134.777,0,0,1-8.023,13.551l-8.517,12.814a2.244,2.244,0,0,1-2.7.82l-.079-.032a2.13,2.13,0,0,1-1.119-2.8c1-2.426,2.2-4.755,3.369-7.1,1.207-2.314,2.483-4.6,3.757-6.829,1.423-2.488,2.845-4.932,4.2-7.378-2.043.46-4.073.98-6.1,1.525-2.109.595-4.221,1.222-6.31,1.913-2.111.642-4.187,1.413-6.279,2.137h-.016a2.252,2.252,0,0,1-2.632-.912" transform="translate(-2849.704 -3387.301)" fill="#fff"/>
      <path id="Path_67" data-name="Path 67" d="M2900.054,3442.876a3.168,3.168,0,0,1-.277-2,3.286,3.286,0,0,1,3.808-2.634,81.57,81.57,0,0,1,13.569,3.563c2.193.772,4.348,1.672,6.454,2.636,2.094,1.011,4.17,2.024,6.149,3.231a2.148,2.148,0,0,1,.932,2.587,2.229,2.229,0,0,1-2.826,1.317h-.009c-2.093-.722-4.149-1.51-6.279-2.155-2.093-.687-4.2-1.315-6.31-1.909q-3.034-.844-6.1-1.543c1.355,2.447,2.78,4.885,4.182,7.373,1.292,2.236,2.554,4.516,3.76,6.83,1.164,2.344,2.356,4.689,3.353,7.115a2.156,2.156,0,0,1-.851,2.652,2.263,2.263,0,0,1-3.062-.64l-8.468-12.856a133.606,133.606,0,0,1-8.011-13.558l-.016-.016" transform="translate(-2849.704 -3387.301)" fill="#fff"/>
      <path id="Path_68" data-name="Path 68" d="M2863.013,3454.645a2.055,2.055,0,0,1,1.939.088l.038.023a1.953,1.953,0,0,1,.622,2.692l-.006.009a27.064,27.064,0,0,1-2.773,3.58c-1,1.1-2.037,2.171-3.125,3.179a59.994,59.994,0,0,1-6.863,5.725l-.027.016a2.006,2.006,0,0,1-2.088.115l-.03-.017a1.931,1.931,0,0,1-.754-2.624,33.629,33.629,0,0,1,5.712-7.242,36.371,36.371,0,0,1,3.434-3.046,22.781,22.781,0,0,1,3.921-2.5" transform="translate(-2849.704 -3387.301)" fill="#fff"/>
      <path id="Path_69" data-name="Path 69" d="M2920.385,3457.4a1.937,1.937,0,0,1-.08-1.9,2.027,2.027,0,0,1,2.691-.892,23.119,23.119,0,0,1,3.915,2.511,36.052,36.052,0,0,1,3.423,3.052,33.684,33.684,0,0,1,5.7,7.256,1.932,1.932,0,0,1-.125,2.054,2,2,0,0,1-2.757.466l-.024-.016a60.294,60.294,0,0,1-6.852-5.74c-1.082-1.014-2.121-2.08-3.116-3.188a27.36,27.36,0,0,1-2.763-3.586Z" transform="translate(-2849.704 -3387.301)" fill="#fff"/>
      <path id="Path_70" data-name="Path 70" d="M2877.167,3404.086a2.17,2.17,0,0,1,.638-2.652,2.236,2.236,0,0,1,3.106.373c2.763,3.436,5.282,6.984,7.749,10.607q2.235,3.259,4.365,6.587,2.133-3.3,4.364-6.555c1.231-1.8,2.486-3.581,3.761-5.367,1.291-1.757,2.552-3.555,3.907-5.272a2.22,2.22,0,0,1,2.715-.629l.052.025a2.152,2.152,0,0,1,.979,2.883c-.973,1.96-2.028,3.856-3.057,5.8-1.047,1.915-2.11,3.807-3.222,5.685-2.176,3.775-4.431,7.5-6.736,11.214a3.26,3.26,0,0,1-2.778,1.527h-.019a3.373,3.373,0,0,1-2.795-1.508l-.017-.016c-2.352-3.679-4.608-7.407-6.815-11.167-2.175-3.774-4.3-7.583-6.2-11.535" transform="translate(-2849.704 -3387.301)" fill="#fff"/>
    </g>
  </g>
</svg>
