<svg id="Icon" xmlns="http://www.w3.org/2000/svg" width="79.703" height="76.638" viewBox="0 0 79.703 76.638">
  <path id="Path_5944" data-name="Path 5944" d="M49.048,70.507H12.262V68.974a4.6,4.6,0,0,0-4.6-4.6H6.131V49.048H7.664a4.6,4.6,0,0,0,4.6-4.6V42.917H49.048V44.45a4.6,4.6,0,0,0,4.6,4.6h1.533V64.376H53.646a4.6,4.6,0,0,0-4.6,4.6Z" fill="#8347ad"/>
  <path id="Path_5945" data-name="Path 5945" d="M30.655,64.376a7.664,7.664,0,1,1,7.664-7.664,7.673,7.673,0,0,1-7.664,7.664m0-12.262a4.6,4.6,0,1,0,4.6,4.6,4.6,4.6,0,0,0-4.6-4.6" fill="#f6f6f6"/>
  <path id="Path_5946" data-name="Path 5946" d="M70.507,76.638H64.376V73.572h3.065V39.852H64.376V36.786h6.131Z" fill="#f6f6f6"/>
  <path id="Path_5947" data-name="Path 5947" d="M79.7,76.638H73.572V36.786H79.7Z" fill="#1c96d4"/>
  <path id="Path_5948" data-name="Path 5948" d="M9.2,26.057a6.131,6.131,0,1,1,6.131-6.132A6.138,6.138,0,0,1,9.2,26.057m0-9.2a3.065,3.065,0,1,0,3.066,3.065A3.07,3.07,0,0,0,9.2,16.86" fill="#f6f6f6"/>
  <path id="Path_5949" data-name="Path 5949" d="M27.59,16.861a6.132,6.132,0,1,1,6.131-6.131,6.137,6.137,0,0,1-6.131,6.131m0-9.2a3.066,3.066,0,1,0,3.066,3.066A3.07,3.07,0,0,0,27.59,7.664" fill="#f6f6f6"/>
  <path id="Path_5950" data-name="Path 5950" d="M49.048,24.525a6.131,6.131,0,1,1,6.131-6.132,6.138,6.138,0,0,1-6.131,6.132m0-9.2a3.065,3.065,0,1,0,3.066,3.065,3.07,3.07,0,0,0-3.066-3.065" fill="#f6f6f6"/>
  <path id="Path_5951" data-name="Path 5951" d="M68.974,12.263a6.131,6.131,0,1,1,6.131-6.131,6.137,6.137,0,0,1-6.131,6.131m0-9.2A3.065,3.065,0,1,0,72.04,6.132a3.07,3.07,0,0,0-3.066-3.066" fill="#f6f6f6"/>
  <rect id="Rectangle_5692" data-name="Rectangle 5692" width="14.205" height="3.066" transform="translate(52.16 14.683) rotate(-31.637)" fill="#f6f6f6"/>
  <rect id="Rectangle_5693" data-name="Rectangle 5693" width="3.064" height="13.593" transform="translate(31.403 13.719) rotate(-70.349)" fill="#f6f6f6"/>
  <rect id="Rectangle_5694" data-name="Rectangle 5694" width="11.37" height="3.066" transform="matrix(0.894, -0.447, 0.447, 0.894, 12.623, 16.498)" fill="#f6f6f6"/>
  <rect id="Rectangle_5695" data-name="Rectangle 5695" width="3.066" height="4.598" transform="translate(4.598 29.123)" fill="#f6f6f6"/>
  <rect id="Rectangle_5696" data-name="Rectangle 5696" width="3.065" height="4.598" transform="translate(12.263 29.123)" fill="#f6f6f6"/>
  <rect id="Rectangle_5697" data-name="Rectangle 5697" width="3.066" height="10.729" transform="translate(19.925 22.992)" fill="#f6f6f6"/>
  <rect id="Rectangle_5698" data-name="Rectangle 5698" width="3.066" height="13.795" transform="translate(27.589 19.926)" fill="#f6f6f6"/>
  <rect id="Rectangle_5699" data-name="Rectangle 5699" width="3.066" height="13.795" transform="translate(35.253 19.926)" fill="#f6f6f6"/>
  <rect id="Rectangle_5700" data-name="Rectangle 5700" width="3.066" height="6.131" transform="translate(42.917 27.59)" fill="#f6f6f6"/>
  <rect id="Rectangle_5701" data-name="Rectangle 5701" width="3.065" height="6.131" transform="translate(50.581 27.59)" fill="#f6f6f6"/>
  <rect id="Rectangle_5702" data-name="Rectangle 5702" width="3.066" height="15.328" transform="translate(58.244 18.393)" fill="#f6f6f6"/>
  <rect id="Rectangle_5703" data-name="Rectangle 5703" width="3.066" height="18.393" transform="translate(65.908 15.328)" fill="#f6f6f6"/>
  <rect id="Rectangle_5704" data-name="Rectangle 5704" width="3.066" height="18.393" transform="translate(73.572 15.328)" fill="#f6f6f6"/>
  <path id="Path_5943" data-name="Path 5943" d="M3.065,39.852H58.244v33.72H3.065ZM0,76.638H61.31V36.786H0Z" fill="#f6f6f6"/>
</svg>
