<svg id="Icon" xmlns="http://www.w3.org/2000/svg" width="58.727" height="65.204" viewBox="0 0 58.727 65.204">
  <path id="Path_2550" data-name="Path 2550" d="M109.777,71.31V92.665H103.33V95.03h8.675V71.31Z" transform="translate(-53.278 -34.562)" fill="#fff"/>
  <path id="Path_2551" data-name="Path 2551" d="M103.238,24.27l1.114-1.185,1.11,1.185V72.406h-2.223ZM101,23.291V74.771h6.69l-.015-51.481-3.337-3.551Z" transform="translate(-52.077 -9.568)" fill="#fff"/>
  <rect id="Rectangle_2618" data-name="Rectangle 2618" width="4.447" height="2.365" transform="translate(50.052 35.568)" fill="#fff"/>
  <rect id="Rectangle_2619" data-name="Rectangle 2619" width="2.223" height="2.37" transform="translate(51.161 9.477)" fill="#fff"/>
  <path id="Path_2552" data-name="Path 2552" d="M0,13.78v58.1H38.925V65.967H5.561V13.78Z" transform="translate(0 -6.679)" fill="#459ef3"/>
  <path id="Path_2553" data-name="Path 2553" d="M11.442,2.391H40.99l8.235,8.761V58.1H11.408ZM9.18,0V60.468H51.448v-50.3L41.891,0Z" transform="translate(-4.733)" fill="#fff"/>
  <path id="Path_2554" data-name="Path 2554" d="M83.477,12.957H73.46V2.3h2.223v8.292h7.794Z" transform="translate(-37.877 -1.115)" fill="#fff"/>
  <rect id="Rectangle_2620" data-name="Rectangle 2620" width="28.918" height="2.365" transform="translate(11.122 41.777)" fill="#fff"/>
  <rect id="Rectangle_2621" data-name="Rectangle 2621" width="28.918" height="2.365" transform="translate(11.122 46.389)" fill="#fff"/>
  <rect id="Rectangle_2622" data-name="Rectangle 2622" width="28.918" height="2.365" transform="translate(11.122 51.002)" fill="#fff"/>
  <rect id="Rectangle_2623" data-name="Rectangle 2623" width="14.459" height="2.365" transform="translate(11.122 9.477)" fill="#fff"/>
  <rect id="Rectangle_2624" data-name="Rectangle 2624" width="28.918" height="23.071" transform="translate(11.122 15.274)" fill="#9d6bbd"/>
</svg>
