<svg xmlns="http://www.w3.org/2000/svg" width="78.796" height="86.373" viewBox="0 0 78.796 86.373">
  <g id="Icon" transform="translate(-0.001)">
    <path id="Path_5956" data-name="Path 5956" d="M39.4,30.306A15.153,15.153,0,1,1,54.551,15.153,15.171,15.171,0,0,1,39.4,30.306" fill="#8347ad"/>
    <path id="Path_5957" data-name="Path 5957" d="M39.4,22.73c-3.4,0-6.061-2-6.061-4.546h3.03c0,.619,1.181,1.515,3.031,1.515s3.031-.9,3.031-1.515-1.181-1.515-3.031-1.515c-3.4,0-6.061-2-6.061-4.546S36,7.577,39.4,7.577s6.061,2,6.061,4.546h-3.03c0-.619-1.181-1.516-3.031-1.516s-3.031.9-3.031,1.516,1.181,1.515,3.031,1.515c3.4,0,6.061,2,6.061,4.546S42.8,22.73,39.4,22.73" fill="#f6f6f6"/>
    <rect id="Rectangle_5705" data-name="Rectangle 5705" width="78.796" height="3.031" transform="translate(0.001 83.342)" fill="#f6f6f6"/>
    <rect id="Rectangle_5706" data-name="Rectangle 5706" width="3.031" height="15.153" transform="translate(37.883 69.705)" fill="#f6f6f6"/>
    <path id="Path_5958" data-name="Path 5958" d="M48.49,84.858H45.459V71.22H33.337V84.858H30.306V68.19H48.49Z" fill="#f6f6f6"/>
    <path id="Path_5959" data-name="Path 5959" d="M66.674,63.643H59.1V60.612h4.546V56.066H15.153v4.546H50.005v3.031H12.123V53.036H66.674Z" fill="#f6f6f6"/>
    <rect id="Rectangle_5707" data-name="Rectangle 5707" width="12.123" height="3.031" transform="translate(15.153 46.974)" fill="#f6f6f6"/>
    <rect id="Rectangle_5708" data-name="Rectangle 5708" width="36.368" height="5.115" transform="translate(21.214 35.325)" fill="#1c96d4"/>
    <rect id="Rectangle_5709" data-name="Rectangle 5709" width="3.031" height="4.546" transform="translate(37.883 21.214)" fill="#f6f6f6"/>
    <rect id="Rectangle_5710" data-name="Rectangle 5710" width="3.031" height="4.546" transform="translate(37.883 4.546)" fill="#f6f6f6"/>
    <path id="Path_5952" data-name="Path 5952" d="M72.735,84.858H69.7V50.006H62.128V25.761H49.563V22.73H65.158V46.975h7.577Z" fill="#f6f6f6"/>
    <path id="Path_5953" data-name="Path 5953" d="M9.092,84.858H6.061V46.975h7.577V22.73h15.6v3.031H16.669V50.006H9.092Z" fill="#f6f6f6"/>
    <path id="Path_5954" data-name="Path 5954" d="M21.214,24.245H18.183V15.153h7.66v3.031H21.214Z" fill="#f6f6f6"/>
    <path id="Path_5955" data-name="Path 5955" d="M60.613,24.245H57.582V18.184h-4.63V15.153h7.661Z" fill="#f6f6f6"/>
  </g>
</svg>
