<?xml version="1.0" encoding="utf-8"?>
<!-- Generator: Adobe Illustrator 26.0.3, SVG Export Plug-In . SVG Version: 6.00 Build 0)  -->
<svg version="1.1" id="Layer_1" xmlns="http://www.w3.org/2000/svg" xmlns:xlink="http://www.w3.org/1999/xlink" x="0px" y="0px"
	 viewBox="0 0 137.59 250.23" style="enable-background:new 0 0 137.59 250.23;" xml:space="preserve">
<style type="text/css">
	.st0{fill:none;stroke:#FFFFFF;stroke-miterlimit:10;}
	.st1{fill:#451C9F;}
</style>
<g id="Logo" transform="translate(-3222.227 -2799.502)">
	<line id="Line" class="st0" x1="3291.13" y1="2997.61" x2="3291.13" y2="3122.47"/>
	<g id="Saudi_Logo">
		<path id="Path_5644" class="st1" d="M3291.07,2912.88l-17.85,14.48l-0.08-0.1c-1.43-1.81-1.69-2.68-1.58-3.05
			c0.95-0.04,1.87-0.31,2.67-0.81c1.24-1.28,1.21-3.32-0.07-4.57c-1.04-1.01-2.64-1.21-3.89-0.47c-0.47,0.45-0.84,0.99-1.07,1.6
			c-1.79,4.09-1.39,7.16,0.72,9.82l0.11,0.15l-3.24,2.63c-4.52,3.61-6.08-2.04-6.08-2.04c-1.95-4.79-7.3-1.79-7.3-1.79
			c-5.8,3.01-2.98,6.98-2.98,6.98c6.97,13.54,20.16,3.3,20.16,3.3l4.06-3.21l0.25,0.32c2.1,2.67,5,3.76,9.39,2.97
			c0.65-0.08,1.27-0.31,1.81-0.67c1.24-1.28,1.2-3.33-0.08-4.57c-1.05-1.01-2.64-1.19-3.89-0.45c-0.67,0.67-1.16,1.51-1.42,2.42
			c-0.39,0.01-1.17-0.43-2.6-2.24l-0.25-0.32l19.37-15.29c38.24-32.78,62.56-29.36,62.56-29.36
			C3329.1,2877.48,3291.07,2912.88,3291.07,2912.88"/>
		<path id="Path_5645" class="st1" d="M3290.97,2912.88l17.85,14.48l0.08-0.1c1.43-1.81,1.69-2.68,1.58-3.05
			c-0.95-0.04-1.87-0.31-2.67-0.81c-1.24-1.28-1.21-3.32,0.07-4.57c1.04-1.01,2.64-1.21,3.89-0.47c0.47,0.45,0.84,0.99,1.07,1.6
			c1.79,4.09,1.38,7.16-0.72,9.82c-0.02,0.02-0.06,0.08-0.11,0.15l3.24,2.63c4.52,3.61,6.08-2.04,6.08-2.04
			c1.95-4.79,7.3-1.79,7.3-1.79c5.8,3.01,2.98,6.98,2.98,6.98c-6.97,13.54-20.16,3.3-20.16,3.3l-4.06-3.21l-0.25,0.32
			c-2.1,2.67-5,3.76-9.39,2.97c-0.65-0.08-1.27-0.31-1.81-0.67c-1.24-1.28-1.2-3.33,0.08-4.57c1.05-1.01,2.64-1.2,3.9-0.45
			c0.67,0.67,1.16,1.51,1.42,2.42c0.39,0.01,1.17-0.43,2.6-2.24l0.25-0.32l-19.37-15.29c-38.24-32.78-62.56-29.36-62.56-29.36
			C3252.94,2877.48,3290.97,2912.88,3290.97,2912.88"/>
		<path id="Path_5646" class="st1" d="M3307.69,2822.36c9.26-1.36,15.5,9.99,15.5,9.99c-1.21-18.18-20.67-15.5-20.67-15.5
			c4.93-3.85,14.92,1.04,14.92,1.04c-7.26-10.12-17.67-7.23-17.67-7.23c1.25-2.33,8.71-1.82,8.71-1.82
			c-6.78-6.62-14.7,0.03-14.7,0.03c0.38-3.65-2.76-9.36-2.76-9.36s-3.01,5.71-2.63,9.36c0,0-7.86-6.65-14.64-0.03
			c0,0,7.5-0.51,8.74,1.82c0,0-10.39-2.89-17.66,7.23c0,0,10-4.89,14.93-1.04c0,0-19.45-2.69-20.66,15.5c0,0,6.24-11.35,15.5-9.99
			c0,0-19.81,5.57-10.33,23.07c0,0-0.51-14.5,10.9-17.79c0,0-15,11.89-1.48,21.93c0,0-2.79-11.27,5.05-16.42
			c-3.11,8.12-1.03,17.3,5.26,23.3c0,0-2.51-10.83,4.75-16.77v54.86l-4.15,5.31h12.88l-3.89-5.31v-54.85
			c6.85,5.95,4.73,16.77,4.73,16.77c6.29-6,8.36-15.18,5.25-23.3c7.84,5.15,5.04,16.42,5.04,16.42
			c13.52-10.04-1.49-21.93-1.49-21.93c11.41,3.29,10.9,17.79,10.9,17.79c9.48-17.51-10.33-23.07-10.33-23.07"/>
	</g>
</g>
</svg>
