<svg xmlns="http://www.w3.org/2000/svg" width="64.545" height="61.398" viewBox="0 0 64.545 61.398">
  <g id="Icon" transform="translate(0 0)">
    <path id="Path_4027" data-name="Path 4027" d="M12.178,58.962H9.742V52.873a4.267,4.267,0,0,1,1.1-2.891,16.73,16.73,0,0,0,3.764-10.17c.041-1.894.089-3.6.283-5.328l.929-8.25s.008-.1.01-.156a1.215,1.215,0,0,0-2.4-.279l-2.7,11.26L8.368,36.49l2.7-11.256a3.65,3.65,0,0,1,7.2.846c0,.135-.021.394-.021.394l-.931,8.284c-.184,1.622-.231,3.272-.269,5.106A18.976,18.976,0,0,1,12.7,51.557a1.845,1.845,0,0,0-.526,1.316Z" fill="#ffffff"/>
    <path id="Path_4028" data-name="Path 4028" d="M2.436,58.962H0V27.3a7.839,7.839,0,0,1,3.83-6.722l6.485-4.053,1.292,2.065L5.121,22.641A5.38,5.38,0,0,0,2.436,27.3Z" fill="#ffffff"/>
    <path id="Path_4029" data-name="Path 4029" d="M48.713,54.091H10.96V51.655H46.277V6.595H42.624V4.16h6.089Z" fill="#ffffff"/>
    <path id="Path_4030" data-name="Path 4030" d="M12.178,30.9H9.742V4.159h6.09V6.6H12.178Z" fill="#ffffff"/>
    <rect id="Rectangle_4160" data-name="Rectangle 4160" width="29.228" height="9.743" transform="translate(14.614 0)" fill="#8347ad"/>
    <path id="Path_4031" data-name="Path 4031" d="M18.267,21.713l-4-4,1.722-1.722,2.279,2.279,4.695-4.7L24.684,15.3Z" fill="#ffffff"/>
    <rect id="Rectangle_4161" data-name="Rectangle 4161" width="15.832" height="2.436" transform="translate(25.574 17.556)" fill="#ffffff"/>
    <rect id="Rectangle_4162" data-name="Rectangle 4162" width="10.96" height="2.436" transform="translate(25.575 28.516)" fill="#ffffff"/>
    <rect id="Rectangle_4163" data-name="Rectangle 4163" width="2.436" height="2.436" transform="translate(38.97 28.516)" fill="#ffffff"/>
    <rect id="Rectangle_4164" data-name="Rectangle 4164" width="15.832" height="2.436" transform="translate(25.574 39.477)" fill="#ffffff"/>
    <path id="Path_4032" data-name="Path 4032" d="M62.11,39.477H59.674V17.556H47.5V15.12H62.11Z" fill="#ffffff"/>
    <path id="Path_4033" data-name="Path 4033" d="M37.753,61.4a2.439,2.439,0,0,1-2.436-2.436V52.873h2.436Z" fill="#ffffff"/>
    <path id="Path_4034" data-name="Path 4034" d="M53.585,23.645H47.5V21.209h3.653V16.338h2.436Z" fill="#ffffff"/>
    <rect id="Rectangle_4165" data-name="Rectangle 4165" width="4.871" height="2.436" transform="translate(52.367 28.516)" fill="#ffffff"/>
    <rect id="Rectangle_4166" data-name="Rectangle 4166" width="4.871" height="2.436" transform="translate(52.367 33.388)" fill="#ffffff"/>
    <rect id="Rectangle_4167" data-name="Rectangle 4167" width="2.436" height="2.436" transform="translate(57.238 49.219)" fill="#ffffff"/>
    <rect id="Rectangle_4168" data-name="Rectangle 4168" width="2.436" height="2.436" transform="translate(57.238 54.091)" fill="#ffffff"/>
    <path id="Path_4035" data-name="Path 4035" d="M64.545,61.4H31.663V58.962H62.109V40.695H47.5V38.259h17.05Z" fill="#ffffff"/>
    <path id="Path_4026" data-name="Path 4026" d="M57.238,49.219H47.5V39.476h9.743Z" fill="#2cabe2"/>
  </g>
</svg>
