<svg xmlns="http://www.w3.org/2000/svg" width="121.507" height="115.305" viewBox="0 0 121.507 115.305">
  <g id="Icon" transform="translate(0 0)">
    <path id="Path_5906" data-name="Path 5906" d="M54.945,2.621H99.128v18.6" fill="none" stroke="#fff" stroke-linejoin="round" stroke-width="5.235"/>
    <path id="Path_5907" data-name="Path 5907" d="M2.618,72.2V2.618H54.945" fill="none" stroke="#fff" stroke-linejoin="round" stroke-width="5.235"/>
    <path id="Path_5908" data-name="Path 5908" d="M117.734,76.721h0a3.443,3.443,0,1,1-3.1,3.757,3.443,3.443,0,0,1,3.1-3.757" fill="#793699"/>
    <path id="Path_5909" data-name="Path 5909" d="M117.734,56.809h0a3.443,3.443,0,1,1-3.1,3.757,3.443,3.443,0,0,1,3.1-3.757" fill="#793699"/>
    <path id="Path_5910" data-name="Path 5910" d="M102.778,89.953v22.735L57.968,89.953H21.561V20.372h96.5v18.6" fill="none" stroke="#fff" stroke-linejoin="round" stroke-width="5.235"/>
    <line id="Line_51" data-name="Line 51" x2="35.485" transform="translate(65.528 39.281)" fill="none" stroke="#2cabe2" stroke-linejoin="round" stroke-width="5.235"/>
    <line id="Line_52" data-name="Line 52" x2="35.485" transform="translate(65.528 69.498)" fill="none" stroke="#2cabe2" stroke-linejoin="round" stroke-width="5.235"/>
    <line id="Line_53" data-name="Line 53" x2="60.896" transform="translate(40.117 53.871)" fill="none" stroke="#2cabe2" stroke-linejoin="round" stroke-width="5.235"/>
  </g>
</svg>
