<svg xmlns="http://www.w3.org/2000/svg" width="98.89" height="84.056" viewBox="0 0 98.89 84.056">
  <g id="Icon" transform="translate(0 0)">
    <path id="Path_5928" data-name="Path 5928" d="M92.3,82.408a6.591,6.591,0,0,1-5.448-2.883L72.915,59.091l2.723-1.858L89.572,77.668a3.3,3.3,0,1,0,5.45-3.705L81.092,53.528l2.723-1.857,13.93,20.434a6.591,6.591,0,0,1-5.448,10.3" fill="#f6f6f6"/>
    <path id="Path_5929" data-name="Path 5929" d="M67.574,60.982A21.426,21.426,0,1,1,89,39.556,21.451,21.451,0,0,1,67.574,60.982" fill="#8347ad"/>
    <rect id="Rectangle_5672" data-name="Rectangle 5672" width="3.296" height="8.241" transform="translate(69.223 64.278)" fill="#f6f6f6"/>
    <path id="Path_5930" data-name="Path 5930" d="M8.241,72.519h-3.3V14.834H56.037v3.3H8.241Z" fill="#f6f6f6"/>
    <path id="Path_5931" data-name="Path 5931" d="M0,84.056V70.871H77.463V84.056Zm3.3-9.889V80.76H74.167V74.167Z" fill="#f6f6f6"/>
    <rect id="Rectangle_5673" data-name="Rectangle 5673" width="3.296" height="4.944" transform="translate(56.038 72.519)" fill="#f6f6f6"/>
    <rect id="Rectangle_5674" data-name="Rectangle 5674" width="3.296" height="4.944" transform="translate(62.63 72.519)" fill="#f6f6f6"/>
    <rect id="Rectangle_5675" data-name="Rectangle 5675" width="3.296" height="4.944" transform="translate(49.445 72.519)" fill="#f6f6f6"/>
    <path id="Path_5932" data-name="Path 5932" d="M18.13,44.5a6.592,6.592,0,1,1,6.593-6.593A6.6,6.6,0,0,1,18.13,44.5" fill="#1c96d4"/>
    <path id="Path_5933" data-name="Path 5933" d="M36.259,64.278a6.593,6.593,0,1,1,6.593-6.593,6.6,6.6,0,0,1-6.593,6.593m0-9.889a3.3,3.3,0,1,0,3.3,3.3,3.3,3.3,0,0,0-3.3-3.3" fill="#f6f6f6"/>
    <path id="Path_5934" data-name="Path 5934" d="M67.574,44.5a8.241,8.241,0,1,1,8.241-8.241A8.25,8.25,0,0,1,67.574,44.5m0-13.185a4.944,4.944,0,1,0,4.944,4.944,4.949,4.949,0,0,0-4.944-4.944" fill="#f6f6f6"/>
    <path id="Path_5935" data-name="Path 5935" d="M92.982,51.384l-2.99-1.391A24.611,24.611,0,0,0,91,47.473l3.123,1.056a28.7,28.7,0,0,1-1.143,2.855" fill="#f6f6f6"/>
    <path id="Path_5936" data-name="Path 5936" d="M95.146,44.513l-3.268-.441a43.543,43.543,0,0,0,.418-4.516A24.643,24.643,0,0,0,88.408,26.24l2.774-1.777a27.91,27.91,0,0,1,4.41,15.093,48.05,48.05,0,0,1-.446,4.957" fill="#f6f6f6"/>
    <rect id="Rectangle_5676" data-name="Rectangle 5676" width="11.501" height="3.298" transform="translate(39.606 53.806) rotate(-33.324)" fill="#f6f6f6"/>
    <rect id="Rectangle_5677" data-name="Rectangle 5677" width="9.031" height="3.297" transform="translate(53.78 43.777) rotate(-34.611)" fill="#f6f6f6"/>
    <rect id="Rectangle_5678" data-name="Rectangle 5678" width="3.296" height="3.296" transform="translate(13.186 8.241)" fill="#f6f6f6"/>
    <rect id="Rectangle_5679" data-name="Rectangle 5679" width="3.296" height="3.296" transform="translate(19.778 8.241)" fill="#f6f6f6"/>
    <rect id="Rectangle_5680" data-name="Rectangle 5680" width="3.296" height="3.296" transform="translate(26.371 8.241)" fill="#f6f6f6"/>
    <rect id="Rectangle_5681" data-name="Rectangle 5681" width="3.296" height="11.537" transform="translate(62.63 0)" fill="#f6f6f6"/>
    <rect id="Rectangle_5682" data-name="Rectangle 5682" width="11.984" height="3.296" transform="matrix(0.707, -0.707, 0.707, 0.707, 86.821, 17.978)" fill="#f6f6f6"/>
    <rect id="Rectangle_5683" data-name="Rectangle 5683" width="11.705" height="3.295" transform="translate(75.419 12.22) rotate(-68.153)" fill="#f6f6f6"/>
    <rect id="Rectangle_5671" data-name="Rectangle 5671" width="3.296" height="16.944" transform="translate(20.256 42.666) rotate(-42.513)" fill="#f6f6f6"/>
  </g>
</svg>
