<?xml version="1.0" encoding="utf-8"?>
<!-- Generator: Adobe Illustrator 26.0.3, SVG Export Plug-In . SVG Version: 6.00 Build 0)  -->
<svg version="1.1" id="Layer_1" xmlns="http://www.w3.org/2000/svg" xmlns:xlink="http://www.w3.org/1999/xlink" x="0px" y="0px"
	 viewBox="0 0 65.2 68.3" style="enable-background:new 0 0 65.2 68.3;" xml:space="preserve">
<style type="text/css">
	.st0{fill:#2B2D71;}
	.st1{fill:#FFFFFF;}
	.st2{fill:#56BBE8;}
	.st3{fill:#9D6BBD;}
</style>
<g id="Icon" transform="translate(0 0)">
	<path id="Path_2576" class="st0" d="M3,29.7L32.6,8.3l29.6,21.4v35.7H3V29.7z M0,28.2v40.1h65.2V28.2L32.6,4.7L0,28.2z"/>
	<path id="Path_2577" class="st1" d="M8.6,0v34.6l24,14.6l24-14.6V0H8.6z"/>
	<path id="Path_2578" class="st0" d="M11.2,33.1V2.6H54v30.5l-21.4,13L11.2,33.1z M8.6,0v34.6l24,14.6l24-14.6V0H8.6z"/>
	
		<rect id="Rectangle_2733" x="29.8" y="36.8" transform="matrix(0.853 -0.522 0.522 0.853 -12.9307 30.662)" class="st0" width="36.3" height="3"/>
	
		<rect id="Rectangle_2734" x="15.6" y="20.2" transform="matrix(0.5202 -0.8541 0.8541 0.5202 -24.6502 32.994)" class="st0" width="3" height="36.4"/>
	<path id="Path_2579" class="st0" d="M0.7,65.6l1.5,2.5l30.4-18.5l30.4,18.5l1.5-2.5L32.6,46.2L0.7,65.6z"/>
	<path id="Path_2580" class="st2" d="M32.6,49.6L6.8,65.4h51.7L32.6,49.6z"/>
	<g id="Group_5589">
		<path id="Path_2581" class="st3" d="M32.6,34.2c-7.4,0-13.3-6-13.3-13.3c0-7.4,6-13.3,13.3-13.3c7.4,0,13.3,6,13.3,13.3v0
			c0,0.8-0.7,1.5-1.5,1.5c-0.8,0-1.5-0.7-1.5-1.5l0,0l0,0c0-5.7-4.7-10.3-10.4-10.3c-5.7,0-10.3,4.7-10.3,10.4s4.7,10.3,10.4,10.3
			c1.8,0,3.6-0.5,5.2-1.4c0.7-0.4,1.6-0.1,2,0.6c0.4,0.7,0.1,1.6-0.5,2C37.3,33.6,34.9,34.2,32.6,34.2"/>
		<path id="Path_2582" class="st3" d="M32.6,28.3c-4.1,0-7.4-3.3-7.4-7.4c0-4.1,3.3-7.4,7.4-7.4c4.1,0,7.4,3.3,7.4,7.4c0,0,0,0,0,0
			C40,25,36.7,28.3,32.6,28.3 M32.6,16.4c-2.5,0-4.4,2-4.4,4.4s2,4.4,4.4,4.4c2.5,0,4.4-2,4.4-4.4l0,0
			C37.1,18.4,35.1,16.4,32.6,16.4C32.6,16.4,32.6,16.4,32.6,16.4L32.6,16.4z"/>
		<path id="Path_2583" class="st3" d="M41.5,28.3c-2.4,0-4.4-2-4.4-4.4v-3c-0.1-0.8,0.6-1.5,1.4-1.6c0.8-0.1,1.5,0.6,1.6,1.4
			c0,0.1,0,0.1,0,0.2v3c0,0.4,0.2,0.8,0.4,1c0.6,0.6,1.5,0.6,2.1,0c0.3-0.3,0.4-0.7,0.4-1v-3c0-0.8,0.7-1.5,1.5-1.5s1.5,0.7,1.5,1.5
			v3c0,1.2-0.5,2.3-1.3,3.1C43.8,27.8,42.7,28.3,41.5,28.3"/>
		<rect id="Rectangle_2735" x="25.9" y="59.8" class="st1" width="2.7" height="3"/>
		<rect id="Rectangle_2736" x="31.3" y="59.8" class="st1" width="2.7" height="3"/>
		<rect id="Rectangle_2737" x="36.6" y="59.8" class="st1" width="2.7" height="3"/>
	</g>
</g>
</svg>
