<svg xmlns="http://www.w3.org/2000/svg" width="58.654" height="58.943" viewBox="0 0 58.654 58.943">
  <g id="Icon" transform="translate(0 0)">
    <rect id="Rectangle_4110" data-name="Rectangle 4110" width="58.654" height="2.173" transform="translate(0 56.77)" fill="#000b63"/>
    <rect id="Rectangle_4111" data-name="Rectangle 4111" width="2.172" height="16.128" transform="translate(52.137 41.729)" fill="#000b63"/>
    <rect id="Rectangle_4112" data-name="Rectangle 4112" width="2.172" height="4.345" transform="translate(43.448 14.638)" fill="#000b63"/>
    <rect id="Rectangle_4113" data-name="Rectangle 4113" width="2.172" height="4.345" transform="translate(43.448 24.351)" fill="#000b63"/>
    <rect id="Rectangle_4114" data-name="Rectangle 4114" width="2.172" height="4.345" transform="translate(43.448 34.063)" fill="#000b63"/>
    <rect id="Rectangle_4115" data-name="Rectangle 4115" width="2.172" height="4.345" transform="translate(38.017 14.638)" fill="#000b63"/>
    <rect id="Rectangle_4116" data-name="Rectangle 4116" width="2.172" height="4.345" transform="translate(38.017 24.351)" fill="#000b63"/>
    <rect id="Rectangle_4117" data-name="Rectangle 4117" width="2.172" height="4.345" transform="translate(38.017 34.063)" fill="#000b63"/>
    <rect id="Rectangle_4118" data-name="Rectangle 4118" width="2.172" height="4.345" transform="translate(43.448 43.776)" fill="#000b63"/>
    <rect id="Rectangle_4119" data-name="Rectangle 4119" width="2.172" height="4.345" transform="translate(38.017 43.776)" fill="#000b63"/>
    <path id="Path_4014" data-name="Path 4014" d="M49.969,6.859v8.93h-2.18V9.029H35.849v48.83h-2.18v-51Z" fill="#000b63"/>
    <rect id="Rectangle_4120" data-name="Rectangle 4120" width="2.18" height="16.13" transform="translate(47.789 41.728)" fill="#000b63"/>
    <path id="Path_4015" data-name="Path 4015" d="M3.259,0V57.856H5.431V2.173H24.982v22.24h2.173V0Z" fill="#000b63"/>
    <rect id="Rectangle_4121" data-name="Rectangle 4121" width="13.034" height="2.172" transform="translate(8.69 9.387)" fill="#000b63"/>
    <rect id="Rectangle_4122" data-name="Rectangle 4122" width="13.034" height="2.172" transform="translate(8.69 16.048)" fill="#000b63"/>
    <rect id="Rectangle_4123" data-name="Rectangle 4123" width="11.948" height="2.172" transform="translate(8.69 22.708)" fill="#000b63"/>
    <rect id="Rectangle_4124" data-name="Rectangle 4124" width="9.388" height="2.172" transform="translate(8.689 29.369)" fill="#000b63"/>
    <rect id="Rectangle_4125" data-name="Rectangle 4125" width="9.388" height="8.833" transform="translate(8.689 36.029)" fill="#2cabe2"/>
    <path id="Path_4016" data-name="Path 4016" d="M24.982,57.857H22.81V23.328H34.758V25.5H24.982Z" fill="#000b63"/>
    <path id="Path_4017" data-name="Path 4017" d="M58.654,34.846a5.431,5.431,0,1,1-10.862,0V23.012a5.431,5.431,0,1,1,10.862,0Z" fill="#8347ad"/>
  </g>
</svg>
