<svg id="Icon" xmlns="http://www.w3.org/2000/svg" width="101.299" height="100.245" viewBox="0 0 101.299 100.245">
  <path id="Path_5097" data-name="Path 5097" d="M16.075,27.428V20.212L0,25.57l1.688-3.708A37.22,37.22,0,0,1,53.843,4.782L52.1,7.874A33.657,33.657,0,0,0,6.97,19.5l12.655-4.219V22.27l7.592-2.9,1.269,3.314Z" fill="#f6f6f6"/>
  <path id="Path_5098" data-name="Path 5098" d="M23.175,39.049h-3.55c0-.631.021-1.257.057-1.879A30.211,30.211,0,0,1,49.8,8.875a31.668,31.668,0,0,1,8.993,1.279l-1.009,3.4A28.07,28.07,0,0,0,49.8,12.425,26.653,26.653,0,0,0,23.225,37.383q-.05.822-.05,1.666" fill="#f6f6f6"/>
  <path id="Path_5099" data-name="Path 5099" d="M64.478,16.618a25.56,25.56,0,0,0-2.756-1.541l1.539-3.2A29.694,29.694,0,0,1,66.4,13.633Z" fill="#f6f6f6"/>
  <path id="Path_5100" data-name="Path 5100" d="M77.681,51.886l-2-5.42A41.261,41.261,0,0,0,68.1,33.2l-3.7,7.93-1.071-5.276c-2.177-10.742-6.384-16.616-15-20.955l1.6-3.172c8.174,4.119,12.934,9.653,15.645,18.5l1.312-2.812,1.756,1.359c.2.155,4.038,3.19,7.786,10.532,0-.085,0-.168,0-.253a26.542,26.542,0,0,0-9.7-20.809l2.232-2.759A30.414,30.414,0,0,1,79.066,46.275Z" fill="#f6f6f6"/>
  <path id="Path_5101" data-name="Path 5101" d="M101.3,27.078,84.6,20.122l-1.721,5.164L70.3,21.365l1.057-3.39,9.259,2.887,1.829-5.486,13.536,5.639C91.932,10.71,81.276,3.55,69.322,3.55a28.978,28.978,0,0,0-20.713,8.457L46.1,9.5A32.5,32.5,0,0,1,69.322,0c14.9,0,28.02,9.972,31.2,23.71Z" fill="#f6f6f6"/>
  <path id="Path_5102" data-name="Path 5102" d="M43.831,86.065,38.543,71.4l24.374-4.432L57.713,85.7l-3.421-.95L57.98,71.476,43.306,74.143l3.863,10.719Z" fill="#f6f6f6"/>
  <path id="Path_5103" data-name="Path 5103" d="M43.07,72.627l-4.413-13.5,23.96-6.535L59.96,69.9l-3.509-.538L58.28,57.455,43.191,61.57l3.252,9.955Z" fill="#f6f6f6"/>
  <path id="Path_5104" data-name="Path 5104" d="M43.191,61.57,58.28,57.455,56.643,68.11,45.962,70.052Z" fill="#2cabe2"/>
  <path id="Path_5105" data-name="Path 5105" d="M43.793,59.7,38.635,44.982l22.214-6.665L58.107,56.4l-3.508-.53L56.5,43.33,43.214,47.315l3.928,11.206Z" fill="#f6f6f6"/>
  <path id="Path_5106" data-name="Path 5106" d="M43.248,45.188,41.594,34.193l15.673-4.179.915,3.429L45.578,36.8l1.182,7.857Z" fill="#f6f6f6"/>
  <rect id="Rectangle_4697" data-name="Rectangle 4697" width="20.778" height="3.551" transform="translate(55.079 41.21) rotate(-84.797)" fill="#f6f6f6"/>
  <rect id="Rectangle_4698" data-name="Rectangle 4698" width="3.552" height="7.317" transform="matrix(0.97, -0.242, 0.242, 0.97, 45.63, 27.352)" fill="#f6f6f6"/>
  <path id="Path_5107" data-name="Path 5107" d="M23.858,55.2l-1.869-4.429a29.986,29.986,0,0,1-2.364-11.722c0-.631.021-1.257.057-1.879l3.543.208c-.033.553-.05,1.109-.05,1.671a26.8,26.8,0,0,0,.567,5.5,54.584,54.584,0,0,1,8.776-14.366L33.7,28.736l1.387,1.251c.5.452.992.922,1.468,1.407,2.117-8.236,7.923-17.225,14.534-22.079l2.1,2.86c-6.9,5.072-12.841,15.1-13.808,23.317l-.5,4.257-2.655-3.366a30.606,30.606,0,0,0-2.155-2.451,49.616,49.616,0,0,0-8.751,16.687Z" fill="#f6f6f6"/>
  <rect id="Rectangle_4699" data-name="Rectangle 4699" width="58.646" height="15.955" transform="translate(21.327 84.29)" fill="#8347ad"/>
</svg>
