<svg xmlns="http://www.w3.org/2000/svg" width="50.317" height="56" viewBox="0 0 50.317 56">
  <g id="Icon" transform="translate(0 0)">
    <path id="Path_4054" data-name="Path 4054" d="M13.287,11.495h-7.3V5.379a3.652,3.652,0,0,1,7.3,0Z" fill="#2cabe2"/>
    <path id="Path_4055" data-name="Path 4055" d="M24.623,47.435H0v-36.4H12.936v2.141H2.141V45.294H24.623Z" fill="#000b63"/>
    <path id="Path_4056" data-name="Path 4056" d="M36.4,33.1H34.259V2.141H9.635V0H36.4Z" fill="#000b63"/>
    <path id="Path_4057" data-name="Path 4057" d="M14.988,33.1H12.847V5.353a3.212,3.212,0,1,0-6.424,0v6.015H4.282V5.353a5.353,5.353,0,1,1,10.706,0Z" fill="#000b63"/>
    <rect id="Rectangle_4179" data-name="Rectangle 4179" width="38.541" height="2.141" transform="translate(3.212 53.859)" fill="#000b63"/>
    <rect id="Rectangle_4180" data-name="Rectangle 4180" width="25.567" height="2.141" transform="translate(10.833 30.957)" fill="#000b63"/>
    <rect id="Rectangle_4181" data-name="Rectangle 4181" width="2.141" height="2.141" transform="translate(43.894 53.859)" fill="#000b63"/>
    <rect id="Rectangle_4182" data-name="Rectangle 4182" width="8.753" height="2.141" transform="translate(14.645 54.709) rotate(-78.113)" fill="#000b63"/>
    <rect id="Rectangle_4183" data-name="Rectangle 4183" width="8.753" height="2.141" transform="translate(9.292 54.709) rotate(-78.113)" fill="#000b63"/>
    <rect id="Rectangle_4184" data-name="Rectangle 4184" width="47.007" height="2.141" transform="translate(1.655 39.941)" fill="#000b63"/>
    <rect id="Rectangle_4185" data-name="Rectangle 4185" width="10.5" height="2.141" transform="translate(21.618 12.503)" fill="#000b63"/>
    <rect id="Rectangle_4186" data-name="Rectangle 4186" width="10.5" height="2.141" transform="translate(21.618 7.427)" fill="#000b63"/>
    <path id="Path_4058" data-name="Path 4058" d="M34.663,55.16l-2.185-9.866h15.7V13.176H38.541V11.035H50.317v36.4H35.146L36.754,54.7Z" fill="#000b63"/>
    <rect id="Rectangle_4187" data-name="Rectangle 4187" width="10.5" height="10.5" transform="translate(21.618 18.316)" fill="#8347ad"/>
  </g>
</svg>
