<svg xmlns="http://www.w3.org/2000/svg" width="50.277" height="47.769" viewBox="0 0 50.277 47.769">
  <g id="Icon" transform="translate(0 0)">
    <rect id="Rectangle_5561" data-name="Rectangle 5561" width="1.695" height="1.695" transform="translate(18.337 12.875)" fill="#fff"/>
    <rect id="Rectangle_5562" data-name="Rectangle 5562" width="1.695" height="1.695" transform="translate(21.724 12.875)" fill="#fff"/>
    <rect id="Rectangle_5563" data-name="Rectangle 5563" width="1.695" height="1.695" transform="translate(25.111 12.875)" fill="#fff"/>
    <rect id="Rectangle_5564" data-name="Rectangle 5564" width="1.695" height="1.695" transform="translate(28.501 12.875)" fill="#fff"/>
    <rect id="Rectangle_5565" data-name="Rectangle 5565" width="1.695" height="1.695" transform="translate(18.337 16.262)" fill="#fff"/>
    <rect id="Rectangle_5566" data-name="Rectangle 5566" width="1.695" height="1.695" transform="translate(21.724 16.262)" fill="#fff"/>
    <rect id="Rectangle_5567" data-name="Rectangle 5567" width="1.695" height="1.695" transform="translate(25.111 16.262)" fill="#fff"/>
    <rect id="Rectangle_5568" data-name="Rectangle 5568" width="1.695" height="1.695" transform="translate(28.501 16.262)" fill="#fff"/>
    <rect id="Rectangle_5569" data-name="Rectangle 5569" width="1.695" height="1.695" transform="translate(18.337 19.648)" fill="#fff"/>
    <rect id="Rectangle_5570" data-name="Rectangle 5570" width="1.695" height="1.695" transform="translate(21.724 19.648)" fill="#fff"/>
    <rect id="Rectangle_5571" data-name="Rectangle 5571" width="1.695" height="1.695" transform="translate(25.111 19.648)" fill="#fff"/>
    <rect id="Rectangle_5572" data-name="Rectangle 5572" width="1.695" height="1.695" transform="translate(28.501 19.648)" fill="#fff"/>
    <rect id="Rectangle_5573" data-name="Rectangle 5573" width="1.695" height="1.695" transform="translate(18.337 23.039)" fill="#fff"/>
    <rect id="Rectangle_5574" data-name="Rectangle 5574" width="1.695" height="1.695" transform="translate(21.724 23.039)" fill="#fff"/>
    <rect id="Rectangle_5575" data-name="Rectangle 5575" width="1.695" height="1.695" transform="translate(25.111 23.039)" fill="#fff"/>
    <rect id="Rectangle_5576" data-name="Rectangle 5576" width="1.695" height="1.695" transform="translate(28.501 23.039)" fill="#fff"/>
    <rect id="Rectangle_5577" data-name="Rectangle 5577" width="1.695" height="1.695" transform="translate(18.337 26.426)" fill="#fff"/>
    <rect id="Rectangle_5578" data-name="Rectangle 5578" width="1.695" height="1.695" transform="translate(21.724 26.426)" fill="#fff"/>
    <rect id="Rectangle_5579" data-name="Rectangle 5579" width="1.695" height="1.695" transform="translate(25.111 26.426)" fill="#fff"/>
    <rect id="Rectangle_5580" data-name="Rectangle 5580" width="1.695" height="1.695" transform="translate(28.501 26.426)" fill="#fff"/>
    <rect id="Rectangle_5581" data-name="Rectangle 5581" width="1.695" height="1.695" transform="translate(18.337 29.812)" fill="#fff"/>
    <rect id="Rectangle_5582" data-name="Rectangle 5582" width="1.695" height="1.695" transform="translate(21.724 29.812)" fill="#fff"/>
    <rect id="Rectangle_5583" data-name="Rectangle 5583" width="1.695" height="1.695" transform="translate(25.111 29.812)" fill="#fff"/>
    <rect id="Rectangle_5584" data-name="Rectangle 5584" width="1.695" height="1.695" transform="translate(28.501 29.812)" fill="#fff"/>
    <rect id="Rectangle_5585" data-name="Rectangle 5585" width="1.695" height="1.695" transform="translate(18.337 33.199)" fill="#fff"/>
    <rect id="Rectangle_5586" data-name="Rectangle 5586" width="1.695" height="1.695" transform="translate(21.724 33.199)" fill="#fff"/>
    <rect id="Rectangle_5587" data-name="Rectangle 5587" width="1.695" height="1.695" transform="translate(25.111 33.199)" fill="#fff"/>
    <rect id="Rectangle_5588" data-name="Rectangle 5588" width="1.695" height="1.695" transform="translate(28.501 33.199)" fill="#fff"/>
    <rect id="Rectangle_5589" data-name="Rectangle 5589" width="1.695" height="1.695" transform="translate(18.337 36.589)" fill="#fff"/>
    <rect id="Rectangle_5590" data-name="Rectangle 5590" width="1.695" height="1.695" transform="translate(21.724 36.589)" fill="#fff"/>
    <rect id="Rectangle_5591" data-name="Rectangle 5591" width="1.695" height="1.695" transform="translate(25.111 36.589)" fill="#fff"/>
    <rect id="Rectangle_5592" data-name="Rectangle 5592" width="1.695" height="1.695" transform="translate(28.501 36.589)" fill="#fff"/>
    <rect id="Rectangle_5593" data-name="Rectangle 5593" width="1.695" height="1.695" transform="translate(18.337 39.976)" fill="#fff"/>
    <rect id="Rectangle_5594" data-name="Rectangle 5594" width="1.695" height="1.695" transform="translate(21.724 39.976)" fill="#fff"/>
    <rect id="Rectangle_5595" data-name="Rectangle 5595" width="1.695" height="1.695" transform="translate(25.111 39.976)" fill="#fff"/>
    <rect id="Rectangle_5596" data-name="Rectangle 5596" width="1.695" height="1.695" transform="translate(28.501 39.976)" fill="#fff"/>
    <path id="Path_5875" data-name="Path 5875" d="M33.749,45.228H14.773V9.315H33.749ZM16.472,43.533H32.058V11.01H16.472Z" fill="#fff"/>
    <path id="Path_5876" data-name="Path 5876" d="M31.208,11.009H17.321V5.927H31.208ZM19.02,9.314h10.5V7.622h-10.5Z" fill="#fff"/>
    <path id="Path_5877" data-name="Path 5877" d="M28.667,7.623H19.862V2.541h8.805Zm-7.113-1.7h5.407v-1.7H21.554Z" fill="#fff"/>
    <rect id="Rectangle_5597" data-name="Rectangle 5597" width="1.696" height="3.387" transform="translate(23.419 0)" fill="#fff"/>
    <rect id="Rectangle_5598" data-name="Rectangle 5598" width="1.695" height="23.715" transform="translate(35.614 17.107)" fill="#fff"/>
    <rect id="Rectangle_5599" data-name="Rectangle 5599" width="1.695" height="23.715" transform="translate(38.964 17.107)" fill="#0a9efa"/>
    <rect id="Rectangle_5600" data-name="Rectangle 5600" width="1.695" height="23.715" transform="translate(42.314 17.107)" fill="#0a9efa"/>
    <path id="Path_5878" data-name="Path 5878" d="M47.566,45.228H32.054V12.7H47.566ZM33.749,43.533H45.87V14.4H33.749Z" fill="#fff"/>
    <path id="Path_5879" data-name="Path 5879" d="M44.009,14.4h-8.4V9.315h8.4ZM37.3,12.7h5V11.01h-5Z" fill="#fff"/>
    <rect id="Rectangle_5601" data-name="Rectangle 5601" width="1.695" height="1.695" transform="translate(7.833 26.426)" fill="#fff"/>
    <rect id="Rectangle_5602" data-name="Rectangle 5602" width="1.695" height="1.695" transform="translate(11.22 26.426)" fill="#fff"/>
    <rect id="Rectangle_5603" data-name="Rectangle 5603" width="1.695" height="1.695" transform="translate(7.833 29.812)" fill="#fff"/>
    <rect id="Rectangle_5604" data-name="Rectangle 5604" width="1.695" height="1.695" transform="translate(11.22 29.812)" fill="#fff"/>
    <rect id="Rectangle_5605" data-name="Rectangle 5605" width="1.695" height="1.695" transform="translate(7.833 33.199)" fill="#fff"/>
    <rect id="Rectangle_5606" data-name="Rectangle 5606" width="1.695" height="1.695" transform="translate(11.22 33.199)" fill="#fff"/>
    <rect id="Rectangle_5607" data-name="Rectangle 5607" width="1.695" height="1.695" transform="translate(7.833 36.589)" fill="#fff"/>
    <rect id="Rectangle_5608" data-name="Rectangle 5608" width="1.695" height="1.695" transform="translate(11.22 36.589)" fill="#fff"/>
    <rect id="Rectangle_5609" data-name="Rectangle 5609" width="1.695" height="1.695" transform="translate(7.833 39.976)" fill="#fff"/>
    <rect id="Rectangle_5610" data-name="Rectangle 5610" width="1.695" height="1.695" transform="translate(11.22 39.976)" fill="#fff"/>
    <path id="Path_5880" data-name="Path 5880" d="M16.472,45.228H4.284V22.869H16.472Zm-10.5-1.695h8.8V24.561h-8.8Z" fill="#fff"/>
    <path id="Path_5881" data-name="Path 5881" d="M1.566,43.532v4.236h1.7v-2.54H48.581v2.54h1.7V43.532Z" fill="#fff"/>
    <rect id="Rectangle_5611" data-name="Rectangle 5611" width="4.447" height="1.695" transform="translate(0 12.875)" fill="#fff"/>
    <rect id="Rectangle_5612" data-name="Rectangle 5612" width="4.447" height="1.695" transform="translate(32.013 0.846)" fill="#fff"/>
    <rect id="Rectangle_5613" data-name="Rectangle 5613" width="6.297" height="1.695" transform="translate(3.206 5.928)" fill="#fff"/>
    <rect id="Rectangle_5614" data-name="Rectangle 5614" width="2.486" height="1.695" transform="translate(11.279 5.928)" fill="#fff"/>
  </g>
</svg>
