<svg xmlns="http://www.w3.org/2000/svg" width="89.255" height="89.255" viewBox="0 0 89.255 89.255">
  <g id="Icon" transform="translate(0 0)">
    <path id="Path_5912" data-name="Path 5912" d="M50.108,11.586V23.7h12.12a14.3,14.3,0,0,0-12.12-12.11m-10.62,25.63a14.3,14.3,0,0,0,22.74-9.42H48.908Zm6.53-25.64a14.322,14.322,0,0,0-9.43,22.75l9.43-9.43Z" fill="#8347ad"/>
    <rect id="Rectangle_5646" data-name="Rectangle 5646" width="13.732" height="3.433" transform="translate(61.792 41.194)" fill="#f6f6f6"/>
    <rect id="Rectangle_5647" data-name="Rectangle 5647" width="20.597" height="3.433" transform="translate(61.792 48.06)" fill="#f6f6f6"/>
    <rect id="Rectangle_5648" data-name="Rectangle 5648" width="13.732" height="3.433" transform="translate(61.792 60.075)" fill="#f6f6f6"/>
    <rect id="Rectangle_5649" data-name="Rectangle 5649" width="20.597" height="3.433" transform="translate(61.792 66.941)" fill="#f6f6f6"/>
    <path id="Path_5913" data-name="Path 5913" d="M17.164,89.255H13.731V70.374H3.432V89.255H0V66.941H17.164Z" fill="#f6f6f6"/>
    <path id="Path_5914" data-name="Path 5914" d="M20.6,89.255v-30.9H37.761v30.9" fill="#1c96d4"/>
    <path id="Path_5915" data-name="Path 5915" d="M58.359,89.255H54.926V51.493h-10.3V89.255H41.2V48.06H58.359Z" fill="#f6f6f6"/>
    <path id="Path_5916" data-name="Path 5916" d="M87.539,17.165H72.091V1.717h3.433V13.732H87.539Z" fill="#f6f6f6"/>
    <path id="Path_5911" data-name="Path 5911" d="M24.03,0V48.06h3.434V3.433H73.1L85.822,16.159V80.672H61.792v3.434H89.255V14.737L74.518,0Z" fill="#f6f6f6"/>
  </g>
</svg>
