<svg id="Icon" xmlns="http://www.w3.org/2000/svg" width="97.599" height="97.88" viewBox="0 0 97.599 97.88">
  <path id="Path_5088" data-name="Path 5088" d="M56.636,67.366,54.786,63.7a5.249,5.249,0,0,1-.4-3.668l8.805-34.413L58.386,9.356l-.808-2.735L63.859,0l3.6.932,20.062,5.2,2.5,8.688-14.5,13.648L66.317,65.283l-3.505-.875,9.46-37.846L86,13.644l-1.3-4.51L64.8,3.977l-3.226,3.4L66.94,25.549,57.887,60.927a1.649,1.649,0,0,0,.126,1.146l1.849,3.666Z" fill="#f6f6f6"/>
  <path id="Path_5089" data-name="Path 5089" d="M76.041,81.961l-3.428-1.144,5.1-15.276C76.7,63.884,72.97,60,66.2,57.293l1.341-3.357c7.138,2.854,11.607,7.028,13.264,9.734a3.577,3.577,0,0,1,.336,3.018Z" fill="#f6f6f6"/>
  <path id="Path_5090" data-name="Path 5090" d="M40.689,75.9l-3.523-.815,4.183-18.039A3.607,3.607,0,0,1,44.2,54.313a81.672,81.672,0,0,1,13.464-1.618v3.614A78.335,78.335,0,0,0,44.86,57.868Z" fill="#f6f6f6"/>
  <path id="Path_5091" data-name="Path 5091" d="M8.689,75.781,5.159,75l3.486-15.71a5.39,5.39,0,0,1,3.488-3.938l27.13-9.575a5.461,5.461,0,0,1,4.815.6l9.886,6.971L51.881,56.3l-9.849-6.942a1.805,1.805,0,0,0-1.565-.176L13.336,58.76a1.793,1.793,0,0,0-1.161,1.31Z" fill="#f6f6f6"/>
  <path id="Path_5092" data-name="Path 5092" d="M81.334,97.88h-67.4a5.424,5.424,0,0,1-3.446-1.234C5.7,92.689,0,87.184,0,83.423c0-5.488,11.371-14.964,16.26-18.784A5.2,5.2,0,0,1,20.252,63.6a5.26,5.26,0,0,1,3.515,2.214l2.195,3.2a5.656,5.656,0,0,1,1.149,3.343,5.384,5.384,0,0,1-1.59,3.821l-7.189,7.578-2.623-2.489,7.225-7.613a1.823,1.823,0,0,0,.563-1.308,2.071,2.071,0,0,0-.523-1.3l-2.19-3.2a1.6,1.6,0,0,0-1.084-.685,1.558,1.558,0,0,0-1.216.314C10.006,74.11,3.613,80.96,3.615,83.421c0,1.371,2.872,5.224,9.177,10.438a1.772,1.772,0,0,0,1.142.406h67.4Z" fill="#f6f6f6"/>
  <path id="Path_5093" data-name="Path 5093" d="M52.969,96.475,49.358,80.648a1.815,1.815,0,0,0-1.384-1.366l-23.05-4.939.759-3.533,23.05,4.938a5.438,5.438,0,0,1,4.148,4.1L56.492,95.67Z" fill="#f6f6f6"/>
  <path id="Path_5094" data-name="Path 5094" d="M12.791,93.859c-6.305-5.214-9.176-9.067-9.176-10.438,0-2.461,6.391-9.311,14.868-15.933a1.563,1.563,0,0,1,1.216-.315,1.6,1.6,0,0,1,1.084.685l2.19,3.2a2.065,2.065,0,0,1,.523,1.3,1.823,1.823,0,0,1-.563,1.308l-7.224,7.613,2.622,2.488,7.189-7.577a5.38,5.38,0,0,0,1.037-1.491l21.416,4.589a1.815,1.815,0,0,1,1.384,1.366l3.107,13.617H13.933a1.774,1.774,0,0,1-1.142-.406" fill="#8347ad"/>
  <path id="Path_5095" data-name="Path 5095" d="M92.175,97.88H79.525V94.265h12.65A1.81,1.81,0,0,0,93.949,92.1L91.564,80.187a1.8,1.8,0,0,0-1.036-1.295L76.927,73.2l1.394-3.336,13.637,5.708a5.437,5.437,0,0,1,3.15,3.906l2.385,11.916a5.422,5.422,0,0,1-5.318,6.486" fill="#f6f6f6"/>
  <path id="Path_5096" data-name="Path 5096" d="M86.755,96.072H83.14V90.4a1.8,1.8,0,0,0-.805-1.5l-13.186-8.79a1.82,1.82,0,0,0-1.573-.212L60.7,82.2l-1.147-3.428,6.877-2.3a5.441,5.441,0,0,1,4.725.633L84.34,85.891A5.411,5.411,0,0,1,86.755,90.4Z" fill="#f6f6f6"/>
  <path id="Path_5087" data-name="Path 5087" d="M70.544,20.775l8.478-7.98L67.287,9.754Z" fill="#2cabe2"/>
</svg>
