<?xml version="1.0" encoding="utf-8"?>
<!-- Generator: Adobe Illustrator 26.0.3, SVG Export Plug-In . SVG Version: 6.00 Build 0)  -->
<svg version="1.1" id="Layer_1" xmlns="http://www.w3.org/2000/svg" xmlns:xlink="http://www.w3.org/1999/xlink" x="0px" y="0px"
	 viewBox="0 0 66.8 66.8" style="enable-background:new 0 0 66.8 66.8;" xml:space="preserve">
<style type="text/css">
	.st0{fill:#459EF3;}
	.st1{fill:#2B2D71;}
</style>
<g id="Icon" transform="translate(0 0)">
	<path id="Path_2808" class="st0" d="M33.4,21.4c6.6,0,12,5.4,12,12s-5.4,12-12,12s-12-5.4-12-12l0,0C21.4,26.8,26.8,21.4,33.4,21.4
		"/>
	<rect id="Rectangle_2783" x="27.1" y="32" class="st1" width="2.5" height="2.8"/>
	<rect id="Rectangle_2784" x="32.1" y="32" class="st1" width="2.5" height="2.8"/>
	<rect id="Rectangle_2785" x="37.1" y="32" class="st1" width="2.5" height="2.8"/>
	<path id="Path_2809" class="st1" d="M33.4,66.8C14.9,66.8,0,51.8,0,33.4S14.9,0,33.4,0s33.4,14.9,33.4,33.4S51.8,66.8,33.4,66.8
		L33.4,66.8 M33.4,2.8C16.5,2.8,2.8,16.5,2.8,33.4S16.5,64,33.4,64S64,50.3,64,33.4l0,0C64,16.5,50.3,2.8,33.4,2.8
		C33.4,2.8,33.4,2.8,33.4,2.8"/>
	<path id="Path_2810" class="st1" d="M33.4,66.8C23.6,66.8,16,52.1,16,33.4S23.6,0,33.4,0v2.8c-7.9,0-14.6,14-14.6,30.6
		S25.5,64,33.4,64L33.4,66.8z"/>
	<path id="Path_2811" class="st1" d="M33.4,66.8V64C41.3,64,48,50,48,33.4S41.3,2.8,33.4,2.8V0c9.8,0,17.4,14.7,17.4,33.4
		S43.1,66.8,33.4,66.8"/>
	<rect id="Rectangle_2786" x="32" y="1.4" class="st1" width="2.8" height="28.2"/>
	<rect id="Rectangle_2787" x="32" y="37.1" class="st1" width="2.8" height="28.2"/>
	<rect id="Rectangle_2788" x="1.4" y="32" class="st1" width="23.2" height="2.8"/>
	<rect id="Rectangle_2789" x="42.1" y="32" class="st1" width="23.2" height="2.8"/>
	<path id="Path_2812" class="st1" d="M33.4,18.8c-8.6,0-17.2-1.4-25.4-4l0.9-2.6c7.9,2.6,16.2,3.9,24.5,3.9c8.3,0,16.6-1.3,24.5-3.9
		l0.9,2.6C50.6,17.4,42,18.8,33.4,18.8"/>
	<path id="Path_2813" class="st1" d="M8.9,54.7L8,52.1c16.5-5.4,34.3-5.4,50.8,0l-0.9,2.6C42,49.5,24.8,49.5,8.9,54.7L8.9,54.7z"/>
</g>
</svg>
