<svg id="Icon" xmlns="http://www.w3.org/2000/svg" width="52" height="54" viewBox="0 0 52 54">
  <path id="Path_6005" data-name="Path 6005" d="M47,40H5a3,3,0,0,1-3-3V10H4V37a1,1,0,0,0,1,1H47a1,1,0,0,0,1-1V10h2V37a3,3,0,0,1-3,3" fill="#000b63"/>
  <rect id="Rectangle_5767" data-name="Rectangle 5767" width="2" height="12.23" transform="translate(25 41.77)" fill="#000b63"/>
  <path id="Path_6006" data-name="Path 6006" d="M39.36,54,34.392,41.77h2.159L41.518,54Z" fill="#000b63"/>
  <path id="Path_6007" data-name="Path 6007" d="M26,34a10,10,0,0,1,0-20h1v9h9v1A10.011,10.011,0,0,1,26,34" fill="#8347ad"/>
  <path id="Path_6008" data-name="Path 6008" d="M40,21H29V10h1A10.011,10.011,0,0,1,40,20Z" fill="#2cabe2"/>
  <rect id="Rectangle_5768" data-name="Rectangle 5768" width="4" height="2" transform="translate(42 12)" fill="#000b63"/>
  <rect id="Rectangle_5769" data-name="Rectangle 5769" width="2" height="2" transform="translate(6 34)" fill="#000b63"/>
  <rect id="Rectangle_5770" data-name="Rectangle 5770" width="2" height="2" transform="translate(10 34)" fill="#000b63"/>
  <rect id="Rectangle_5771" data-name="Rectangle 5771" width="2" height="2" transform="translate(14 34)" fill="#000b63"/>
  <path id="Path_6009" data-name="Path 6009" d="M12.641,54H10.481l4.967-12.23h2.159Z" fill="#000b63"/>
  <path id="Path_6004" data-name="Path 6004" d="M2,2H50V6H2ZM0,8H52V0H0Z" fill="#000b63"/>
</svg>
