<svg xmlns="http://www.w3.org/2000/svg" width="49.582" height="54.86" viewBox="0 0 49.582 54.86">
  <g id="Icon" transform="translate(0 0.001)">
    <path id="Path_5986" data-name="Path 5986" d="M44.624,7.933V9.78H47.6V45.616H1.983V9.916H6.941V7.933H0V47.6H49.582V7.933H44.624" fill="#000b63"/>
    <path id="Path_5987" data-name="Path 5987" d="M33.907,52.876,32.124,47.6H17.362l-1.794,5.277H11.9v1.983H36.691V52.876Z" fill="#8347ad"/>
    <rect id="Rectangle_5747" data-name="Rectangle 5747" width="47.599" height="1.983" transform="translate(0.992 40.658)" fill="#000b63"/>
    <path id="Path_5988" data-name="Path 5988" d="M44.624,25.782H4.958V0H44.624ZM6.942,23.8h35.7V1.983H6.942Z" fill="#000b63"/>
    <path id="Path_5989" data-name="Path 5989" d="M36.691,21.816h-23.8v-.991A2.978,2.978,0,0,0,9.916,17.85H8.925V7.933h.991a2.978,2.978,0,0,0,2.975-2.975V3.967h23.8v.991a2.978,2.978,0,0,0,2.975,2.975h.992V17.85h-.992a2.978,2.978,0,0,0-2.975,2.975ZM14.775,19.833H34.808a4.972,4.972,0,0,1,3.866-3.867V9.817A4.972,4.972,0,0,1,34.808,5.95H14.775a4.972,4.972,0,0,1-3.867,3.867v6.149a4.972,4.972,0,0,1,3.867,3.867" fill="#000b63"/>
    <path id="Path_5990" data-name="Path 5990" d="M24.791,17.85a4.959,4.959,0,1,1,4.958-4.958,4.963,4.963,0,0,1-4.958,4.958" fill="#2cabe2"/>
    <rect id="Rectangle_5748" data-name="Rectangle 5748" width="8.984" height="1.996" transform="translate(4.958 34.762)" fill="#000b63"/>
    <rect id="Rectangle_5749" data-name="Rectangle 5749" width="39.666" height="1.996" transform="translate(4.958 29.591)" fill="#000b63"/>
    <rect id="Rectangle_5750" data-name="Rectangle 5750" width="1.996" height="1.996" transform="translate(15.939 34.762)" fill="#000b63"/>
  </g>
</svg>
