<svg xmlns="http://www.w3.org/2000/svg" width="44.753" height="37.298" viewBox="0 0 44.753 37.298">
  <g id="Icon" transform="translate(0 0)">
    <path id="Path_3233" data-name="Path 3233" d="M20.06,40.24H13.24V33.42h6.82ZM15,38.484H18.3V35.172H15Z" transform="translate(-8.176 -20.637)" fill="#2b2d71"/>
    <path id="Path_3234" data-name="Path 3234" d="M33.3,40.24H26.48V33.42H33.3Zm-5.064-1.756h3.312V35.172H28.236Z" transform="translate(-16.351 -20.637)" fill="#2b2d71"/>
    <path id="Path_3235" data-name="Path 3235" d="M46.55,40.24H39.73V33.42h6.82Zm-5.068-1.756h3.324V35.172H41.482Z" transform="translate(-24.533 -20.637)" fill="#2b2d71"/>
    <path id="Path_3236" data-name="Path 3236" d="M59.809,40.24H53V33.42h6.809Zm-5.064-1.756h3.309V35.172H54.744Z" transform="translate(-32.727 -20.637)" fill="#2b2d71"/>
    <path id="Path_3237" data-name="Path 3237" d="M73.015,40.24h-6.8V33.42h6.8Zm-5.049-1.756h3.3V35.172h-3.3Z" transform="translate(-40.884 -20.637)" fill="#2b2d71"/>
    <path id="Path_3238" data-name="Path 3238" d="M86.26,40.24H79.44V33.42h6.82Zm-5.076-1.756H84.5V35.172H81.184Z" transform="translate(-49.054 -20.637)" fill="#2b2d71"/>
    <path id="Path_3239" data-name="Path 3239" d="M20.06,53.48H13.24V46.66h6.82ZM15,51.724H18.3V48.416H15Z" transform="translate(-8.176 -28.812)" fill="#2b2d71"/>
    <path id="Path_3240" data-name="Path 3240" d="M33.3,53.48H26.48V46.66H33.3Zm-5.064-1.756h3.312V48.416H28.236Z" transform="translate(-16.351 -28.812)" fill="#2b2d71"/>
    <path id="Path_3241" data-name="Path 3241" d="M46.55,53.48H39.73V46.66h6.82Zm-5.068-1.756h3.324V48.416H41.482Z" transform="translate(-24.533 -28.812)" fill="#2b2d71"/>
    <path id="Path_3242" data-name="Path 3242" d="M59.809,53.48H53V46.66h6.809Zm-5.064-1.756h3.309V48.416H54.744Z" transform="translate(-32.727 -28.812)" fill="#2b2d71"/>
    <path id="Path_3243" data-name="Path 3243" d="M73.015,53.48h-6.8V46.66h6.8Zm-5.049-1.756h3.3V48.416h-3.3Z" transform="translate(-40.884 -28.812)" fill="#2b2d71"/>
    <path id="Path_3244" data-name="Path 3244" d="M86.26,53.48H79.44V46.66h6.82Zm-5.076-1.756H84.5V48.416H81.184Z" transform="translate(-49.054 -28.812)" fill="#2b2d71"/>
    <path id="Path_3245" data-name="Path 3245" d="M20.06,66.72H13.24V59.9h6.82ZM15,64.964H18.3V61.656H15Z" transform="translate(-8.176 -36.988)" fill="#2b2d71"/>
    <path id="Path_3246" data-name="Path 3246" d="M33.3,66.72H26.48V59.9H33.3Zm-5.064-1.756h3.312V61.656H28.236Z" transform="translate(-16.351 -36.988)" fill="#2b2d71"/>
    <path id="Path_3247" data-name="Path 3247" d="M46.55,66.72H39.73V59.9h6.82Zm-5.068-1.756h3.324V61.656H41.482Z" transform="translate(-24.533 -36.988)" fill="#2b2d71"/>
    <path id="Path_3248" data-name="Path 3248" d="M59.809,66.72H53V59.9h6.809Zm-5.064-1.756h3.309V61.656H54.744Z" transform="translate(-32.727 -36.988)" fill="#2b2d71"/>
    <path id="Path_3249" data-name="Path 3249" d="M73.015,66.72h-6.8V59.9h6.8Zm-5.049-1.756h3.3V61.656h-3.3Z" transform="translate(-40.884 -36.988)" fill="#2b2d71"/>
    <path id="Path_3250" data-name="Path 3250" d="M86.26,66.72H79.44V59.9h6.82Zm-5.076-1.756H84.5V61.656H81.184Z" transform="translate(-49.054 -36.988)" fill="#2b2d71"/>
    <path id="Path_3251" data-name="Path 3251" d="M0,24.76V50.085H25.9V48.334H1.756V24.76Z" transform="translate(0 -15.289)" fill="#2b2d71"/>
    <rect id="Rectangle_3782" data-name="Rectangle 3782" width="1.756" height="8.954" transform="translate(40.519 9.471)" fill="#2b2d71"/>
    <rect id="Rectangle_3783" data-name="Rectangle 3783" width="42.27" height="6.316" transform="translate(0 3.155)" fill="#459ef3"/>
    <rect id="Rectangle_3784" data-name="Rectangle 3784" width="1.756" height="6.315" transform="translate(5.064 0)" fill="#2b2d71"/>
    <rect id="Rectangle_3785" data-name="Rectangle 3785" width="1.756" height="6.315" transform="translate(35.454 0)" fill="#2b2d71"/>
    <g id="Group_5593" data-name="Group 5593">
      <path id="Path_3252" data-name="Path 3252" d="M89.744,61.812A8.442,8.442,0,1,1,81.3,53.37h.027a8.438,8.438,0,0,1,8.415,8.442" transform="translate(-44.991 -32.956)" fill="#9d6bbd"/>
      <path id="Path_3253" data-name="Path 3253" d="M85.755,73.946,82.32,70.515l1.239-1.243,2.2,2.2,5.007-5.007L92,67.7Z" transform="translate(-50.832 -41.039)" fill="#fff"/>
    </g>
  </g>
</svg>
