<svg xmlns="http://www.w3.org/2000/svg" width="79.92" height="90.158" viewBox="0 0 79.92 90.158">
  <g id="Icon" transform="translate(-1435.808 -1218.414)">
    <path id="Path_2480" data-name="Path 2480" d="M1515.728,1287.847v-3.41l-4.862-1a17.921,17.921,0,0,0-1.02-3.781l3.735-3.3-1.7-2.927-4.718,1.588a17.5,17.5,0,0,0-2.775-2.767l1.6-4.695-2.941-1.687-3.289,3.743a17.351,17.351,0,0,0-3.781-1.013l-.983-4.884h-3.4l-.983,4.884a17.621,17.621,0,0,0-3.781,1.013l-3.281-3.743-2.919,1.687,1.588,4.733a18.011,18.011,0,0,0-2.767,2.767l-4.726-1.588-1.693,2.926,3.78,3.3a17.629,17.629,0,0,0-1.013,3.78l-4.892.984v3.409l4.884.976a17.3,17.3,0,0,0,1.014,3.78l-3.781,3.3,1.694,2.934,4.725-1.6a18.1,18.1,0,0,0,2.768,2.768l-1.588,4.725,2.941,1.694,3.282-3.781a17.471,17.471,0,0,0,3.78,1.013l.983,4.893h3.4l.983-4.893a17.353,17.353,0,0,0,3.781-1.013l3.3,3.781,2.933-1.694-1.595-4.718a18.164,18.164,0,0,0,2.775-2.775l4.718,1.6,1.7-2.934-3.735-3.289a17.984,17.984,0,0,0,1.021-3.781Zm-22.456,7.644a9.349,9.349,0,1,1,.038,0Z" fill="#459ef3"/>
    <path id="Path_2481" data-name="Path 2481" d="M1493.272,1297.229a11.084,11.084,0,1,1,11.1-11.084,11.083,11.083,0,0,1-11.1,11.084m0-18.7a7.633,7.633,0,1,0,.008,0Z" fill="#793699"/>
    <rect id="Rectangle_2596" data-name="Rectangle 2596" width="9.912" height="3.47" transform="translate(1446.129 1238.503)" fill="#793699"/>
    <rect id="Rectangle_2597" data-name="Rectangle 2597" width="10.653" height="3.47" transform="translate(1456.042 1251.108)" fill="#793699"/>
    <rect id="Rectangle_2598" data-name="Rectangle 2598" width="10.653" height="3.47" transform="translate(1456.042 1257.406)" fill="#793699"/>
    <rect id="Rectangle_2599" data-name="Rectangle 2599" width="10.653" height="3.47" transform="translate(1456.042 1276.308)" fill="#793699"/>
    <rect id="Rectangle_2600" data-name="Rectangle 2600" width="10.653" height="3.47" transform="translate(1456.042 1282.607)" fill="#793699"/>
    <rect id="Rectangle_2601" data-name="Rectangle 2601" width="20.566" height="3.47" transform="translate(1446.129 1244.802)" fill="#793699"/>
    <rect id="Rectangle_2602" data-name="Rectangle 2602" width="9.912" height="3.47" transform="translate(1446.129 1263.712)" fill="#793699"/>
    <rect id="Rectangle_2603" data-name="Rectangle 2603" width="20.566" height="3.47" transform="translate(1446.129 1270.01)" fill="#793699"/>
    <rect id="Rectangle_2604" data-name="Rectangle 2604" width="10.661" height="3.47" transform="translate(1470.869 1251.108)" fill="#793699"/>
    <rect id="Rectangle_2605" data-name="Rectangle 2605" width="20.566" height="3.47" transform="translate(1470.869 1257.406)" fill="#793699"/>
    <rect id="Rectangle_2606" data-name="Rectangle 2606" width="10.661" height="3.47" transform="translate(1470.869 1244.802)" fill="#793699"/>
    <path id="Path_2482" data-name="Path 2482" d="M1501.756,1232.908h-65.947v-14.494h65.947Zm-62.477-3.47h59.014v-7.561h-58.976Z" fill="#793699"/>
    <rect id="Rectangle_2607" data-name="Rectangle 2607" width="3.47" height="3.47" transform="translate(1442.742 1223.926)" fill="#793699"/>
    <rect id="Rectangle_2608" data-name="Rectangle 2608" width="3.47" height="3.47" transform="translate(1449.683 1223.926)" fill="#793699"/>
    <rect id="Rectangle_2609" data-name="Rectangle 2609" width="3.47" height="3.47" transform="translate(1456.617 1223.926)" fill="#793699"/>
    <path id="Path_2483" data-name="Path 2483" d="M1466.7,1295.143h-30.887v-65.7h65.948v31.438h-3.463v-27.968h-59.014v58.765H1466.7Z" fill="#793699"/>
  </g>
</svg>
