<svg xmlns="http://www.w3.org/2000/svg" width="81.068" height="76.736" viewBox="0 0 81.068 76.736">
  <g id="Icon" transform="translate(0.446 0.517)">
    <path id="Path_2805" data-name="Path 2805" d="M22.495,60.138l-6.372-6.467L14.883,46.6,1.6,27.938,4.421,14.123l3.035.179L23.372,1.855,42.523,14.837l12.462,3.02L67,35.17l7.969,1.053L80.5,44.528l-4.545,14.48-20.2,4.9L51.6,69.816l-13.156-1.2-8.614,7.143Z" transform="translate(-0.979 -1.135)" fill="none" stroke="#fff" stroke-miterlimit="10" stroke-width="2"/>
    <path id="Path_2806" data-name="Path 2806" d="M59.55,61.47l18.711-4.534,2.007-6.393L78.93,48.536,71.051,47.5l-12.3-17.728L47.859,27.129" transform="translate(-9.658 -5.877)" fill="none" stroke="#2cabe2" stroke-miterlimit="10" stroke-width="2"/>
    <path id="Path_2807" data-name="Path 2807" d="M12.268,31.7l12.3,17.282,1.119,6.387" transform="translate(-2.98 -6.735)" fill="none" stroke="#fff" stroke-miterlimit="10" stroke-width="2" stroke-dasharray="2 2"/>
  </g>
</svg>
