<svg id="Icon" xmlns="http://www.w3.org/2000/svg" width="53.593" height="58.943" viewBox="0 0 53.593 58.943">
  <rect id="Rectangle_4101" data-name="Rectangle 4101" width="4.16" height="10.003" transform="translate(4.161 4.643)" fill="#2cabe2"/>
  <rect id="Rectangle_4102" data-name="Rectangle 4102" width="24.962" height="2.08" transform="translate(6.24 2.779)" fill="#000b63"/>
  <path id="Path_4008" data-name="Path 4008" d="M45.763,52.7h-31.2v-2.08H43.683V37.445h2.08Z" fill="#000b63"/>
  <rect id="Rectangle_4103" data-name="Rectangle 4103" width="4.16" height="2.08" transform="translate(5.201 14.22)" fill="#000b63"/>
  <rect id="Rectangle_4104" data-name="Rectangle 4104" width="8.321" height="2.08" transform="translate(18.721 10.06)" fill="#000b63"/>
  <rect id="Rectangle_4105" data-name="Rectangle 4105" width="2.08" height="2.08" transform="translate(14.561 10.06)" fill="#000b63"/>
  <rect id="Rectangle_4106" data-name="Rectangle 4106" width="12.481" height="2.08" transform="translate(14.561 17.34)" fill="#000b63"/>
  <rect id="Rectangle_4107" data-name="Rectangle 4107" width="15.601" height="2.08" transform="translate(18.721 35.021)" fill="#000b63"/>
  <rect id="Rectangle_4108" data-name="Rectangle 4108" width="15.601" height="2.08" transform="translate(18.721 27.741)" fill="#000b63"/>
  <g id="Group_5797" data-name="Group 5797">
    <path id="Path_4009" data-name="Path 4009" d="M10.4,30.637H8.321V6.94a2.08,2.08,0,0,0-4.16,0v7.28h2.08V16.3H2.08V6.94a4.161,4.161,0,0,1,8.321,0Z" fill="#000b63"/>
    <path id="Path_4010" data-name="Path 4010" d="M9.361,58.943H7.281V52.7a3.647,3.647,0,0,1,.942-2.47c2.223-2.62,3.154-4.835,3.215-7.645.035-1.618.076-3.076.242-4.55l.793-7.046s.007-.082.008-.133a1.037,1.037,0,0,0-2.047-.239l-2.3,9.617-2.023-.486,2.3-9.613a3.118,3.118,0,0,1,6.151.723c0,.115-.018.336-.018.336l-.8,7.075c-.157,1.385-.2,2.8-.23,4.361-.071,3.29-1.18,5.966-3.708,8.946A1.576,1.576,0,0,0,9.361,52.7Z" fill="#000b63"/>
    <path id="Path_4011" data-name="Path 4011" d="M2.08,58.943H0V30.861A6.693,6.693,0,0,1,3.27,25.12l5.539-3.461,1.1,1.763L4.373,26.884A4.594,4.594,0,0,0,2.08,30.861Z" fill="#000b63"/>
    <rect id="Rectangle_4109" data-name="Rectangle 4109" width="11.441" height="2.08" transform="translate(18.721 42.302)" fill="#000b63"/>
    <path id="Path_4012" data-name="Path 4012" d="M47.352,18.38V30.03l-4.16-4.16-4.161,4.16V18.38h-2.08V35.052l6.241-6.24,6.24,6.24V18.38Z" fill="#000b63"/>
    <path id="Path_4013" data-name="Path 4013" d="M43.192,20.8a10.4,10.4,0,1,1,10.4-10.4,10.413,10.413,0,0,1-10.4,10.4" fill="#8347ad"/>
  </g>
</svg>
