<svg xmlns="http://www.w3.org/2000/svg" width="114.981" height="69.274" viewBox="0 0 114.981 69.274">
  <g id="Icon" transform="translate(-54.284)">
    <path id="Path_5045" data-name="Path 5045" d="M150.216,69.274c-4.362,0-7.778-4.936-7.778-11.236S145.854,46.8,150.216,46.8s7.778,4.936,7.778,11.235-3.416,11.236-7.778,11.236m0-19.014c-2.044,0-4.321,3.194-4.321,7.778s2.277,7.779,4.321,7.779,4.321-3.194,4.321-7.779-2.277-7.778-4.321-7.778" fill="#f6f6f6"/>
    <path id="Path_5046" data-name="Path 5046" d="M150.216,69.274H143.3c-4.362,0-7.778-4.936-7.778-11.235S138.94,46.8,143.3,46.8h6.914V50.26H143.3c-2.044,0-4.321,3.194-4.321,7.779s2.277,7.778,4.321,7.778h6.914Z" fill="#f6f6f6"/>
    <path id="Path_5047" data-name="Path 5047" d="M100.09,69.274c-4.362,0-7.778-4.936-7.778-11.236S95.728,46.8,100.09,46.8s7.778,4.936,7.778,11.235-3.416,11.236-7.778,11.236m0-19.014c-2.044,0-4.321,3.194-4.321,7.778s2.277,7.779,4.321,7.779,4.321-3.194,4.321-7.779-2.277-7.778-4.321-7.778" fill="#f6f6f6"/>
    <path id="Path_5048" data-name="Path 5048" d="M100.09,69.274H93.176c-4.362,0-7.778-4.936-7.778-11.235S88.814,46.8,93.176,46.8h6.914V50.26H93.176c-2.044,0-4.321,3.194-4.321,7.779s2.277,7.778,4.321,7.778h6.914Z" fill="#f6f6f6"/>
    <path id="Path_5049" data-name="Path 5049" d="M111.325,51.989h-3.457V26.061a5.185,5.185,0,0,0-10.371,0v11.2l-8.643,6.914v7.812H85.4V42.516L94.04,35.6V26.061a8.642,8.642,0,0,1,17.285,0Z" fill="#f6f6f6"/>
    <path id="Path_5050" data-name="Path 5050" d="M61.2,51.989H57.741V44.177a3.434,3.434,0,0,1,1.3-2.7L66.384,35.6V26.061a8.652,8.652,0,0,1,8.642-8.642H88.854v3.457H75.026a5.191,5.191,0,0,0-5.185,5.185v11.2L61.2,44.179Z" fill="#f6f6f6"/>
    <rect id="Rectangle_4660" data-name="Rectangle 4660" width="41.484" height="3.457" transform="translate(68.112 34.704)" fill="#f6f6f6"/>
    <rect id="Rectangle_4661" data-name="Rectangle 4661" width="15.557" height="3.457" transform="translate(87.125 17.419)" fill="#f6f6f6"/>
    <rect id="Rectangle_4662" data-name="Rectangle 4662" width="33.88" height="3.457" transform="translate(104.757 50.26)" fill="#f6f6f6"/>
    <path id="Path_5051" data-name="Path 5051" d="M87.151,60.631H54.284V50.26H88.508v3.457H57.741v3.457h29.41Z" fill="#f6f6f6"/>
    <path id="Path_5052" data-name="Path 5052" d="M80.183,3.457h34.6V45.736a17.387,17.387,0,0,1-.65,4.715l3.325.942a20.8,20.8,0,0,0,.782-5.657V0H80.212" fill="#f6f6f6"/>
    <rect id="Rectangle_4663" data-name="Rectangle 4663" width="3.457" height="19.147" transform="translate(76.755)" fill="#f6f6f6"/>
    <path id="Path_5053" data-name="Path 5053" d="M72.434,69.274c-4.083,0-7.415-4.416-7.75-10.273l3.45-.2c.221,3.866,2.151,7.012,4.3,7.012s4.077-3.146,4.3-7.012l3.452.2c-.336,5.857-3.667,10.273-7.75,10.273" fill="#f6f6f6"/>
    <path id="Path_5054" data-name="Path 5054" d="M72.434,69.274H65.52c-4.083,0-7.416-4.416-7.75-10.273l3.451-.2c.221,3.866,2.15,7.012,4.3,7.012h6.914Z" fill="#f6f6f6"/>
    <path id="Path_5055" data-name="Path 5055" d="M165.808,53.717V3.457H97.5V0h71.768V53.717Z" fill="#f6f6f6"/>
    <rect id="Rectangle_4664" data-name="Rectangle 4664" width="14.471" height="3.457" transform="translate(154.794 50.26)" fill="#f6f6f6"/>
    <path id="Path_5056" data-name="Path 5056" d="M85.4,42.516H63.276L61.2,44.179v6.082H85.4Z" fill="#1c96d4"/>
    <rect id="Rectangle_4659" data-name="Rectangle 4659" width="31.138" height="3.457" transform="translate(106.14 57.174)" fill="#ededed"/>
    <rect id="Rectangle_4658" data-name="Rectangle 4658" width="36.298" height="37.001" transform="translate(129.574 3.415)" fill="#8347ad"/>
  </g>
</svg>
