<svg id="Icon" xmlns="http://www.w3.org/2000/svg" width="44.727" height="42.496" viewBox="0 0 44.727 42.496">
  <rect id="Rectangle_3727" data-name="Rectangle 3727" width="15.37" height="30.441" transform="translate(13.901 9.042)" fill="#56bbe8"/>
  <rect id="Rectangle_3728" data-name="Rectangle 3728" width="1.508" height="1.508" transform="translate(16.313 11.454)" fill="#fff"/>
  <rect id="Rectangle_3729" data-name="Rectangle 3729" width="1.508" height="1.508" transform="translate(19.326 11.454)" fill="#fff"/>
  <rect id="Rectangle_3730" data-name="Rectangle 3730" width="1.508" height="1.508" transform="translate(22.339 11.454)" fill="#fff"/>
  <rect id="Rectangle_3731" data-name="Rectangle 3731" width="1.508" height="1.508" transform="translate(25.355 11.454)" fill="#fff"/>
  <rect id="Rectangle_3732" data-name="Rectangle 3732" width="1.508" height="1.508" transform="translate(16.313 14.467)" fill="#fff"/>
  <rect id="Rectangle_3733" data-name="Rectangle 3733" width="1.508" height="1.508" transform="translate(19.326 14.467)" fill="#fff"/>
  <rect id="Rectangle_3734" data-name="Rectangle 3734" width="1.508" height="1.508" transform="translate(22.339 14.467)" fill="#fff"/>
  <rect id="Rectangle_3735" data-name="Rectangle 3735" width="1.508" height="1.508" transform="translate(25.355 14.467)" fill="#fff"/>
  <rect id="Rectangle_3736" data-name="Rectangle 3736" width="1.508" height="1.508" transform="translate(16.313 17.479)" fill="#fff"/>
  <rect id="Rectangle_3737" data-name="Rectangle 3737" width="1.508" height="1.508" transform="translate(19.326 17.479)" fill="#fff"/>
  <rect id="Rectangle_3738" data-name="Rectangle 3738" width="1.508" height="1.508" transform="translate(22.339 17.479)" fill="#fff"/>
  <rect id="Rectangle_3739" data-name="Rectangle 3739" width="1.508" height="1.508" transform="translate(25.355 17.479)" fill="#fff"/>
  <rect id="Rectangle_3740" data-name="Rectangle 3740" width="1.508" height="1.508" transform="translate(16.313 20.496)" fill="#fff"/>
  <rect id="Rectangle_3741" data-name="Rectangle 3741" width="1.508" height="1.508" transform="translate(19.326 20.496)" fill="#fff"/>
  <rect id="Rectangle_3742" data-name="Rectangle 3742" width="1.508" height="1.508" transform="translate(22.339 20.496)" fill="#fff"/>
  <rect id="Rectangle_3743" data-name="Rectangle 3743" width="1.508" height="1.508" transform="translate(25.355 20.496)" fill="#fff"/>
  <rect id="Rectangle_3744" data-name="Rectangle 3744" width="1.508" height="1.508" transform="translate(16.313 23.508)" fill="#fff"/>
  <rect id="Rectangle_3745" data-name="Rectangle 3745" width="1.508" height="1.508" transform="translate(19.326 23.508)" fill="#fff"/>
  <rect id="Rectangle_3746" data-name="Rectangle 3746" width="1.508" height="1.508" transform="translate(22.339 23.508)" fill="#fff"/>
  <rect id="Rectangle_3747" data-name="Rectangle 3747" width="1.508" height="1.508" transform="translate(25.355 23.508)" fill="#fff"/>
  <rect id="Rectangle_3748" data-name="Rectangle 3748" width="1.508" height="1.508" transform="translate(16.313 26.521)" fill="#fff"/>
  <rect id="Rectangle_3749" data-name="Rectangle 3749" width="1.508" height="1.508" transform="translate(19.326 26.521)" fill="#fff"/>
  <rect id="Rectangle_3750" data-name="Rectangle 3750" width="1.508" height="1.508" transform="translate(22.339 26.521)" fill="#fff"/>
  <rect id="Rectangle_3751" data-name="Rectangle 3751" width="1.508" height="1.508" transform="translate(25.355 26.521)" fill="#fff"/>
  <rect id="Rectangle_3752" data-name="Rectangle 3752" width="1.508" height="1.508" transform="translate(16.313 29.534)" fill="#fff"/>
  <rect id="Rectangle_3753" data-name="Rectangle 3753" width="1.508" height="1.508" transform="translate(19.326 29.534)" fill="#fff"/>
  <rect id="Rectangle_3754" data-name="Rectangle 3754" width="1.508" height="1.508" transform="translate(22.339 29.534)" fill="#fff"/>
  <rect id="Rectangle_3755" data-name="Rectangle 3755" width="1.508" height="1.508" transform="translate(25.355 29.534)" fill="#fff"/>
  <rect id="Rectangle_3756" data-name="Rectangle 3756" width="1.508" height="1.508" transform="translate(16.313 32.55)" fill="#fff"/>
  <rect id="Rectangle_3757" data-name="Rectangle 3757" width="1.508" height="1.508" transform="translate(19.326 32.55)" fill="#fff"/>
  <rect id="Rectangle_3758" data-name="Rectangle 3758" width="1.508" height="1.508" transform="translate(22.339 32.55)" fill="#fff"/>
  <rect id="Rectangle_3759" data-name="Rectangle 3759" width="1.508" height="1.508" transform="translate(25.355 32.55)" fill="#fff"/>
  <rect id="Rectangle_3760" data-name="Rectangle 3760" width="1.508" height="1.508" transform="translate(16.313 35.563)" fill="#fff"/>
  <rect id="Rectangle_3761" data-name="Rectangle 3761" width="1.508" height="1.508" transform="translate(19.326 35.563)" fill="#fff"/>
  <rect id="Rectangle_3762" data-name="Rectangle 3762" width="1.508" height="1.508" transform="translate(22.339 35.563)" fill="#fff"/>
  <rect id="Rectangle_3763" data-name="Rectangle 3763" width="1.508" height="1.508" transform="translate(25.355 35.563)" fill="#fff"/>
  <path id="Path_3226" data-name="Path 3226" d="M56.881,57.169H40V25.22H56.881Zm-15.37-1.508H55.377V26.728H41.511Z" transform="translate(-26.858 -16.934)" fill="#2b2d71"/>
  <path id="Path_3227" data-name="Path 3227" d="M59.254,20.571H46.9V16.05H59.254ZM48.411,19.063h9.338v-1.5H48.4Z" transform="translate(-31.491 -10.777)" fill="#2b2d71"/>
  <path id="Path_3228" data-name="Path 3228" d="M61.613,11.4H53.78V6.88h7.833ZM55.285,9.893h4.81V8.385h-4.81Z" transform="translate(-36.11 -4.62)" fill="#2b2d71"/>
  <rect id="Rectangle_3764" data-name="Rectangle 3764" width="1.508" height="3.013" transform="translate(20.834)" fill="#2b2d71"/>
  <rect id="Rectangle_3765" data-name="Rectangle 3765" width="1.508" height="21.097" transform="translate(31.683 15.219)" fill="#2b2d71"/>
  <rect id="Rectangle_3766" data-name="Rectangle 3766" width="1.508" height="21.097" transform="translate(34.663 15.219)" fill="#2b2d71"/>
  <rect id="Rectangle_3767" data-name="Rectangle 3767" width="1.508" height="21.097" transform="translate(37.643 15.219)" fill="#2b2d71"/>
  <path id="Path_3229" data-name="Path 3229" d="M100.59,63.333H86.79V34.4h13.8ZM88.3,61.825H99.081V35.911H88.3Z" transform="translate(-58.274 -23.098)" fill="#2b2d71"/>
  <path id="Path_3230" data-name="Path 3230" d="M103.9,29.748H96.43V25.22H103.9Zm-5.967-1.511h4.452V26.728H97.932Z" transform="translate(-64.747 -16.934)" fill="#2b2d71"/>
  <rect id="Rectangle_3768" data-name="Rectangle 3768" width="1.508" height="1.508" transform="translate(6.969 23.508)" fill="#793699"/>
  <rect id="Rectangle_3769" data-name="Rectangle 3769" width="1.508" height="1.508" transform="translate(9.982 23.508)" fill="#793699"/>
  <rect id="Rectangle_3770" data-name="Rectangle 3770" width="1.508" height="1.508" transform="translate(6.969 26.521)" fill="#793699"/>
  <rect id="Rectangle_3771" data-name="Rectangle 3771" width="1.508" height="1.508" transform="translate(9.982 26.521)" fill="#793699"/>
  <rect id="Rectangle_3772" data-name="Rectangle 3772" width="1.508" height="1.508" transform="translate(6.969 29.534)" fill="#793699"/>
  <rect id="Rectangle_3773" data-name="Rectangle 3773" width="1.508" height="1.508" transform="translate(9.982 29.534)" fill="#793699"/>
  <rect id="Rectangle_3774" data-name="Rectangle 3774" width="1.508" height="1.508" transform="translate(6.969 32.55)" fill="#793699"/>
  <rect id="Rectangle_3775" data-name="Rectangle 3775" width="1.508" height="1.508" transform="translate(9.982 32.55)" fill="#793699"/>
  <rect id="Rectangle_3776" data-name="Rectangle 3776" width="1.508" height="1.508" transform="translate(6.969 35.563)" fill="#793699"/>
  <rect id="Rectangle_3777" data-name="Rectangle 3777" width="1.508" height="1.508" transform="translate(9.982 35.563)" fill="#793699"/>
  <path id="Path_3231" data-name="Path 3231" d="M22.442,81.811H11.6V61.92H22.442ZM13.1,80.3h7.83V63.425H13.1Z" transform="translate(-7.789 -41.576)" fill="#793699"/>
  <path id="Path_3232" data-name="Path 3232" d="M4.24,117.87v3.769H5.748v-2.26H46.066v2.26h1.508V117.87Z" transform="translate(-2.847 -79.143)" fill="#2b2d71"/>
  <rect id="Rectangle_3778" data-name="Rectangle 3778" width="3.956" height="1.508" transform="translate(0 11.454)" fill="#2b2d71"/>
  <rect id="Rectangle_3779" data-name="Rectangle 3779" width="3.956" height="1.508" transform="translate(28.48 0.752)" fill="#2b2d71"/>
  <rect id="Rectangle_3780" data-name="Rectangle 3780" width="5.602" height="1.508" transform="translate(2.852 5.273)" fill="#2b2d71"/>
  <rect id="Rectangle_3781" data-name="Rectangle 3781" width="2.211" height="1.508" transform="translate(10.034 5.273)" fill="#2b2d71"/>
</svg>
