<svg xmlns="http://www.w3.org/2000/svg" width="117.43" height="101.964" viewBox="0 0 117.43 101.964">
  <g id="Map_Icon" data-name="Map Icon" transform="translate(-2280.522 -3035.357)">
    <path id="Path_5721" data-name="Path 5721" d="M2315.608,3039.942a117.019,117.019,0,0,1,16.789,11.5,17.684,17.684,0,0,0,11.275,3.651c3.006.157,6.216-.336,8.356,2.67.258.367,1.1.294,1.614.524.837.371,1.933.626,2.4,1.291a26.3,26.3,0,0,0,6.816,6.978,22.4,22.4,0,0,1,4.653,5.887,2.233,2.233,0,0,1,.219,1.934c-.8,1.376-.262,2.277.375,3.553" fill="none" stroke="#8401fb" stroke-miterlimit="10" stroke-width="5.381"/>
    <path id="Path_5722" data-name="Path 5722" d="M2366.753,3120.766a31.308,31.308,0,0,0-5.672,1.3,6.959,6.959,0,0,0-4.244,4.761c-1.267,3.894-4.289,4.484-8.054,3.207-3.8-1.295-7.956-2.465-12.115-1-.494.179-.826.9-1.175,1.4-1.436,2.1-2.8,4.948-5.8,4.042-3.409-1.041-7.176-2.153-8.745-6.051-.266-.665-.482-1.765-.131-2.181,1.471-1.794.3-3.049-.51-4.517-.976-1.775-1.627-3.738-2.708-5.439a12.521,12.521,0,0,0-3.724-4.339c-5.419-3-6.885-7.943-7.087-13.469a12.884,12.884,0,0,0-5.8-9.64,17.776,17.776,0,0,1-4.57-5.863c-1.011-1.651-1.4-3.666-2.331-5.381a62.241,62.241,0,0,0-3.734-5.765c-1.058-1.521-1.783-3.163-4.146-3.6" fill="none" stroke="#8401fb" stroke-miterlimit="10" stroke-width="5.381"/>
    <path id="Path_5723" data-name="Path 5723" d="M2286.209,3068.23c-2.332-.433-3.345-3.133-2.87-5.56.28-1.408.576-2.815.743-4.237.488-4.007,2.256-5.417,6.224-4.579a2.424,2.424,0,0,0,2.953-1.02,21.311,21.311,0,0,1,3.7-3.133c-.884-1.03-1.914-2.153-2.87-3.349-1.6-2-1.2-3.7,1.171-4.59,3.568-1.333,7.114-3.186,10.81-3.608a16.649,16.649,0,0,1,9.534,1.794" fill="none" stroke="#451c9f" stroke-linejoin="round" stroke-width="5.381"/>
    <path id="Path_5724" data-name="Path 5724" d="M2368.114,3077.926a5,5,0,0,0,3.64,3.324,4.278,4.278,0,0,1,2.163,1.952c1.358,2.1,2.511,4.343,3.858,6.457a2.349,2.349,0,0,0,1.676.871c3.134.061,6.232,1.948,9.421.116.418-.247,1.365.077,1.885.415a11.893,11.893,0,0,1,4.255,11.419c-.5,2.061-.884,4.158-1.2,6.251a6.229,6.229,0,0,1-4.262,5.475c-4.045,1.492-7.864,3.656-11.977,4.885a86.13,86.13,0,0,1-10.829,1.675" fill="none" stroke="#05a1fd" stroke-linejoin="round" stroke-width="5.381"/>
  </g>
</svg>
