<svg xmlns="http://www.w3.org/2000/svg" width="58.654" height="58.943" viewBox="0 0 58.654 58.943">
  <g id="Icon" transform="translate(0 0)">
    <rect id="Rectangle_4126" data-name="Rectangle 4126" width="58.654" height="2.173" transform="translate(0 56.77)" fill="#000b63"/>
    <rect id="Rectangle_4127" data-name="Rectangle 4127" width="2.172" height="16.128" transform="translate(52.137 41.729)" fill="#000b63"/>
    <rect id="Rectangle_4128" data-name="Rectangle 4128" width="2.172" height="4.345" transform="translate(43.448 14.638)" fill="#000b63"/>
    <rect id="Rectangle_4129" data-name="Rectangle 4129" width="2.172" height="4.345" transform="translate(43.448 24.351)" fill="#000b63"/>
    <rect id="Rectangle_4130" data-name="Rectangle 4130" width="2.172" height="4.345" transform="translate(43.448 34.063)" fill="#000b63"/>
    <rect id="Rectangle_4131" data-name="Rectangle 4131" width="2.172" height="4.345" transform="translate(38.017 14.638)" fill="#000b63"/>
    <rect id="Rectangle_4132" data-name="Rectangle 4132" width="2.172" height="4.345" transform="translate(38.017 24.351)" fill="#000b63"/>
    <rect id="Rectangle_4133" data-name="Rectangle 4133" width="2.172" height="4.345" transform="translate(38.017 34.063)" fill="#000b63"/>
    <rect id="Rectangle_4134" data-name="Rectangle 4134" width="2.172" height="4.345" transform="translate(43.448 43.776)" fill="#000b63"/>
    <rect id="Rectangle_4135" data-name="Rectangle 4135" width="2.172" height="4.345" transform="translate(38.017 43.776)" fill="#000b63"/>
    <path id="Path_4018" data-name="Path 4018" d="M49.969,6.859v8.93h-2.18V9.029H35.849v48.83h-2.18v-51Z" fill="#000b63"/>
    <rect id="Rectangle_4136" data-name="Rectangle 4136" width="2.18" height="16.13" transform="translate(47.789 41.728)" fill="#000b63"/>
    <path id="Path_4019" data-name="Path 4019" d="M3.259,0V57.856H5.431V2.173H24.982v22.24h2.173V0Z" fill="#000b63"/>
    <rect id="Rectangle_4137" data-name="Rectangle 4137" width="13.034" height="2.172" transform="translate(8.69 9.387)" fill="#000b63"/>
    <rect id="Rectangle_4138" data-name="Rectangle 4138" width="13.034" height="2.172" transform="translate(8.69 16.048)" fill="#000b63"/>
    <rect id="Rectangle_4139" data-name="Rectangle 4139" width="11.948" height="2.172" transform="translate(8.69 22.708)" fill="#000b63"/>
    <rect id="Rectangle_4140" data-name="Rectangle 4140" width="9.388" height="2.172" transform="translate(8.689 29.369)" fill="#2cabe2"/>
    <rect id="Rectangle_4141" data-name="Rectangle 4141" width="9.388" height="2.172" transform="translate(8.689 36.03)" fill="#2cabe2"/>
    <rect id="Rectangle_4142" data-name="Rectangle 4142" width="9.388" height="2.172" transform="translate(8.689 42.69)" fill="#000b63"/>
    <path id="Path_4020" data-name="Path 4020" d="M24.982,57.857H22.81V23.328H34.758V25.5H24.982Z" fill="#000b63"/>
    <path id="Path_4021" data-name="Path 4021" d="M53.223,18.591H47.792V39.267H58.654V18.591Z" fill="#8347ad"/>
  </g>
</svg>
