<svg xmlns="http://www.w3.org/2000/svg" width="71.194" height="80.386" viewBox="0 0 71.194 80.386">
  <g id="Icon" transform="translate(0)">
    <path id="Path_5068" data-name="Path 5068" d="M18.513,44.63a8.955,8.955,0,0,0-4.7-1.431,9.325,9.325,0,0,0-5.463,1.947A19.647,19.647,0,0,0,2.375,53,27.107,27.107,0,0,0,0,63.964,17.515,17.515,0,0,0,4.316,75.878a13.031,13.031,0,0,0,9.5,4.508,12.558,12.558,0,0,0,7.8-2.9L19.537,74.9a9.262,9.262,0,0,1-5.72,2.167,9.746,9.746,0,0,1-7.043-3.417,14.207,14.207,0,0,1-3.458-9.69A23.558,23.558,0,0,1,6.835,51.685,14.139,14.139,0,0,1,10.3,47.827a6.054,6.054,0,0,1,3.513-1.312,5.656,5.656,0,0,1,2.956.937Z" fill="#f6f6f6"/>
    <path id="Path_5069" data-name="Path 5069" d="M39.191,44.712a20.331,20.331,0,0,0-5.039-5.56,10.763,10.763,0,0,0-6.3-2.249,10.763,10.763,0,0,0-6.3,2.249,23.005,23.005,0,0,0-6.99,9.193A31.841,31.841,0,0,0,11.777,61.22a20.469,20.469,0,0,0,5.037,13.922,15.151,15.151,0,0,0,11.04,5.244,15.149,15.149,0,0,0,11.039-5.244A20.465,20.465,0,0,0,43.931,61.22a31.509,31.509,0,0,0-4.74-16.508" fill="#8347ad"/>
    <rect id="Rectangle_4682" data-name="Rectangle 4682" width="9.64" height="3.213" transform="translate(32.633 6.428)" fill="#f6f6f6"/>
    <rect id="Rectangle_4683" data-name="Rectangle 4683" width="32.134" height="3.213" transform="translate(39.06 75.516)" fill="#f6f6f6"/>
    <rect id="Rectangle_4684" data-name="Rectangle 4684" width="22.488" height="3.213" transform="translate(43.723 22.495)" fill="#f6f6f6"/>
    <rect id="Rectangle_4685" data-name="Rectangle 4685" width="6.427" height="3.213" transform="translate(51.913 62.662)" fill="#f6f6f6"/>
    <rect id="Rectangle_4686" data-name="Rectangle 4686" width="12.854" height="3.213" transform="translate(48.7 69.089)" fill="#f6f6f6"/>
    <path id="Path_5070" data-name="Path 5070" d="M55.127,54.628A6.433,6.433,0,0,1,48.7,48.2c0-2.934,4.186-10.539,5.026-12.033l1.4-2.495,1.4,2.495c.84,1.494,5.026,9.1,5.026,12.033a6.433,6.433,0,0,1-6.427,6.427" fill="#2cabe2"/>
    <path id="Path_5071" data-name="Path 5071" d="M45.487,38.168H42.274V25.115a1.594,1.594,0,0,0-.291-.922L31.317,8.955,33.95,7.113,44.616,22.35a4.789,4.789,0,0,1,.871,2.765Z" fill="#f6f6f6"/>
    <rect id="Rectangle_4687" data-name="Rectangle 4687" width="3.213" height="3.213" transform="translate(45.487 6.428)" fill="#f6f6f6"/>
    <path id="Path_5072" data-name="Path 5072" d="M67.981,77.122H64.768V25.114a1.591,1.591,0,0,0-.291-.921L53.521,8.54V3.213H34.24V8.54L23.284,24.19a1.617,1.617,0,0,0-.291.924v9H19.78v-9a4.82,4.82,0,0,1,.873-2.769L31.027,7.527V0H56.734V7.527L67.109,22.348a4.82,4.82,0,0,1,.872,2.766Z" fill="#f6f6f6"/>
  </g>
</svg>
