<svg id="Icon" xmlns="http://www.w3.org/2000/svg" width="95.502" height="98.015" viewBox="0 0 95.502 98.015">
  <path id="Path_5122" data-name="Path 5122" d="M53.145,98.015,26.39,71.26,29.9,64.631a30.423,30.423,0,0,1,15.2-14.32l6.654-2.851A27.034,27.034,0,0,0,65.28,34.707l3.638-7.274L95.5,54.031l-3.165,6.23A30.4,30.4,0,0,1,77.119,74.6l-6.654,2.852A27.03,27.03,0,0,0,56.944,90.208ZM30.567,70.633,52.176,92.242l1.72-3.537A30.438,30.438,0,0,1,69.127,74.334l6.655-2.852A27.005,27.005,0,0,0,89.3,58.732l2.055-4.043L69.847,33.17l-1.528,3.057A30.43,30.43,0,0,1,53.1,50.582l-6.656,2.851A27.038,27.038,0,0,0,32.919,66.185Z" fill="#f6f6f6"/>
  <path id="Path_5123" data-name="Path 5123" d="M30.567,70.633,52.176,92.242l1.72-3.537A30.438,30.438,0,0,1,69.127,74.334l6.655-2.852A27.005,27.005,0,0,0,89.3,58.732l2.055-4.043L69.847,33.17l-1.528,3.057A30.43,30.43,0,0,1,53.1,50.582l-6.656,2.851A27.038,27.038,0,0,0,32.919,66.185Z" fill="#8347ad"/>
  <rect id="Rectangle_4720" data-name="Rectangle 4720" width="3.397" height="3.397" transform="translate(69.648 52.66)" fill="#f6f6f6"/>
  <rect id="Rectangle_4721" data-name="Rectangle 4721" width="3.397" height="3.397" transform="translate(74.744 47.564)" fill="#f6f6f6"/>
  <rect id="Rectangle_4722" data-name="Rectangle 4722" width="3.397" height="3.397" transform="translate(44.167 74.744)" fill="#f6f6f6"/>
  <rect id="Rectangle_4723" data-name="Rectangle 4723" width="3.397" height="3.397" transform="translate(49.264 69.648)" fill="#f6f6f6"/>
  <path id="Path_5124" data-name="Path 5124" d="M61.154,71.347a8.493,8.493,0,1,1,8.494-8.494,8.5,8.5,0,0,1-8.494,8.494m0-13.59a5.1,5.1,0,1,0,5.1,5.1,5.1,5.1,0,0,0-5.1-5.1" fill="#f6f6f6"/>
  <path id="Path_5125" data-name="Path 5125" d="M39.071,91.731H18.686C8.383,91.731,0,82.587,0,71.346,0,58.073,10.873,42.889,22.985,27.2a3.806,3.806,0,0,0,.381-4.061L17.635,11.873a5.968,5.968,0,0,1,2.78-8.1C24.091,2.05,29.428,0,33.975,0c4.668,0,6.8,2.641,6.8,5.1a4.305,4.305,0,0,1-2.286,3.63c-.9.635-1.112.846-1.112,1.466,0,1.576,3.9,1.7,5.1,1.7a10.492,10.492,0,0,0,4.017-.737,14.837,14.837,0,0,1,5.24-.962,4.333,4.333,0,0,1,3.661,6.651l-3.779,5.983a4.143,4.143,0,0,0-.645,2.225A3.978,3.978,0,0,0,52.024,27.7c.584.647,1.179,1.3,1.778,1.946,1.773,1.928,3.607,3.92,5.115,5.922L56.2,37.609c-1.407-1.868-3.184-3.8-4.9-5.665-.607-.659-1.211-1.317-1.8-1.974a7.369,7.369,0,0,1-1.934-4.919,7.539,7.539,0,0,1,1.171-4.041l3.779-5.984a.934.934,0,0,0-.79-1.436,11.456,11.456,0,0,0-4.044.744,13.769,13.769,0,0,1-5.213.954c-7.39,0-8.493-3.193-8.493-5.1A4.94,4.94,0,0,1,36.53,5.949c.8-.566.842-.661.842-.853,0-.823-1.191-1.7-3.4-1.7-3.922,0-8.758,1.876-12.122,3.451a2.571,2.571,0,0,0-1.189,3.487L26.4,21.6a7.2,7.2,0,0,1-.72,7.676C14.4,43.876,3.4,59.152,3.4,71.346c0,9.367,6.858,16.988,15.288,16.988H39.071Z" fill="#f6f6f6"/>
  <rect id="Rectangle_4724" data-name="Rectangle 4724" width="23.403" height="3.397" transform="translate(25.878 23.782)" fill="#f6f6f6"/>
  <path id="Path_5126" data-name="Path 5126" d="M48.736,21.01a7.541,7.541,0,0,0-1.052,2.772h-20.6A7.279,7.279,0,0,0,26.4,21.6L20.664,10.335a2.571,2.571,0,0,1,1.189-3.487C25.217,5.274,30.053,3.4,33.975,3.4c2.206,0,3.4.876,3.4,1.7,0,.193-.041.287-.842.853a4.94,4.94,0,0,0-2.555,4.243c0,1.9,1.1,5.1,8.493,5.1a13.769,13.769,0,0,0,5.213-.954,11.456,11.456,0,0,1,4.044-.744.934.934,0,0,1,.79,1.436Z" fill="#2cabe2"/>
  <path id="Path_5127" data-name="Path 5127" d="M33.376,35.912l-3.162-1.241a42.056,42.056,0,0,1,5.871-10.3l2.575,2.22a38.754,38.754,0,0,0-5.284,9.321" fill="#f6f6f6"/>
</svg>
