<svg xmlns="http://www.w3.org/2000/svg" width="94.945" height="81" viewBox="0 0 94.945 81">
  <g id="Icon" transform="translate(0 0)">
    <rect id="Rectangle_4673" data-name="Rectangle 4673" width="94.945" height="3.164" transform="translate(0 77.836)" fill="#f6f6f6"/>
    <rect id="Rectangle_4674" data-name="Rectangle 4674" width="3.165" height="54.215" transform="translate(85.45 25.203)" fill="#f6f6f6"/>
    <path id="Path_5062" data-name="Path 5062" d="M50.638,0,9.074,26.635v3.76L50.638,3.758,92.2,30.395v-3.76Z" fill="#f6f6f6"/>
    <rect id="Rectangle_4675" data-name="Rectangle 4675" width="3.165" height="11.489" transform="translate(12.659 25.203)" fill="#f6f6f6"/>
    <path id="Path_5063" data-name="Path 5063" d="M25.319,79.417H22.154V63.593H47.473v3.165H25.319Z" fill="#f6f6f6"/>
    <rect id="Rectangle_4676" data-name="Rectangle 4676" width="3.165" height="6.33" transform="translate(33.23 65.176)" fill="#f6f6f6"/>
    <path id="Path_5064" data-name="Path 5064" d="M49.055,79.417H45.89V47.769H28.484V65.175H25.319V44.6H49.055Z" fill="#f6f6f6"/>
    <path id="Path_5065" data-name="Path 5065" d="M31.648,46.187H28.483V24.033H63.3v12.66H60.131V27.2H31.648Z" fill="#f6f6f6"/>
    <path id="Path_5066" data-name="Path 5066" d="M71.209,54.1H47.473V50.934H68.044V38.275H49.055V48.489H45.89V35.11H71.209Z" fill="#f6f6f6"/>
    <rect id="Rectangle_4677" data-name="Rectangle 4677" width="3.165" height="6.33" transform="translate(56.967 52.516)" fill="#f6f6f6"/>
    <rect id="Rectangle_4678" data-name="Rectangle 4678" width="3.165" height="6.33" transform="translate(56.967 71.746)" fill="#f6f6f6"/>
    <rect id="Rectangle_4679" data-name="Rectangle 4679" width="3.165" height="27.351" transform="translate(68.044 52.516)" fill="#f6f6f6"/>
    <path id="Path_5067" data-name="Path 5067" d="M82.285,77.835H71.208V43.022H82.285Z" fill="#2cabe2"/>
    <rect id="Rectangle_4680" data-name="Rectangle 4680" width="3.165" height="7.912" transform="translate(7.912 71.506)" fill="#f6f6f6"/>
    <rect id="Rectangle_4681" data-name="Rectangle 4681" width="18.989" height="39.56" transform="translate(0 33.528)" fill="#8347ad"/>
  </g>
</svg>
