<?xml version="1.0" encoding="utf-8"?>
<!-- Generator: Adobe Illustrator 26.0.3, SVG Export Plug-In . SVG Version: 6.00 Build 0)  -->
<svg version="1.1" id="Layer_1" xmlns="http://www.w3.org/2000/svg" xmlns:xlink="http://www.w3.org/1999/xlink" x="0px" y="0px"
	 viewBox="0 0 81.1 76.7" style="enable-background:new 0 0 81.1 76.7;" xml:space="preserve">
<style type="text/css">
	.st0{fill:none;stroke:#2B2D71;stroke-width:2;stroke-miterlimit:10;}
	.st1{fill:none;stroke:#2CABE2;stroke-width:2;stroke-miterlimit:10;}
	.st2{fill:none;stroke:#2B2D71;stroke-width:2;stroke-miterlimit:10;stroke-dasharray:2,2;}
</style>
<g id="Icon" transform="translate(0.446 0.517)">
	<path id="Path_2805" class="st0" d="M21.5,59l-6.4-6.5l-1.2-7.1L0.6,26.8L3.4,13l3,0.2L22.4,0.7l19.2,13l12.5,3L66,34l8,1.1
		l5.5,8.3L75,57.9l-20.2,4.9l-4.2,5.9l-13.2-1.2l-8.6,7.1L21.5,59z"/>
	<path id="Path_2806" class="st1" d="M49.9,55.6l18.7-4.5l2-6.4l-1.3-2l-7.9-1L49.1,23.9l-10.9-2.6"/>
	<path id="Path_2807" class="st2" d="M9.3,25l12.3,17.3l1.1,6.4"/>
</g>
</svg>
