<svg xmlns="http://www.w3.org/2000/svg" width="58.654" height="58.943" viewBox="0 0 58.654 58.943">
  <g id="Icon" transform="translate(0 0)">
    <rect id="Rectangle_4143" data-name="Rectangle 4143" width="58.654" height="2.173" transform="translate(0 56.77)" fill="#000b63"/>
    <rect id="Rectangle_4144" data-name="Rectangle 4144" width="2.172" height="16.128" transform="translate(52.137 41.729)" fill="#000b63"/>
    <rect id="Rectangle_4145" data-name="Rectangle 4145" width="2.172" height="4.345" transform="translate(43.448 14.638)" fill="#000b63"/>
    <rect id="Rectangle_4146" data-name="Rectangle 4146" width="2.172" height="4.345" transform="translate(43.448 24.351)" fill="#000b63"/>
    <rect id="Rectangle_4147" data-name="Rectangle 4147" width="2.172" height="4.345" transform="translate(43.448 34.063)" fill="#000b63"/>
    <rect id="Rectangle_4148" data-name="Rectangle 4148" width="2.172" height="4.345" transform="translate(38.017 14.638)" fill="#000b63"/>
    <rect id="Rectangle_4149" data-name="Rectangle 4149" width="2.172" height="4.345" transform="translate(38.017 24.351)" fill="#000b63"/>
    <rect id="Rectangle_4150" data-name="Rectangle 4150" width="2.172" height="4.345" transform="translate(38.017 34.063)" fill="#000b63"/>
    <rect id="Rectangle_4151" data-name="Rectangle 4151" width="2.172" height="4.345" transform="translate(43.448 43.776)" fill="#000b63"/>
    <rect id="Rectangle_4152" data-name="Rectangle 4152" width="2.172" height="4.345" transform="translate(38.017 43.776)" fill="#000b63"/>
    <path id="Path_4022" data-name="Path 4022" d="M49.969,6.859v8.93h-2.18V9.029H35.849v48.83h-2.18v-51Z" fill="#000b63"/>
    <rect id="Rectangle_4153" data-name="Rectangle 4153" width="2.18" height="16.13" transform="translate(47.789 41.728)" fill="#000b63"/>
    <path id="Path_4023" data-name="Path 4023" d="M3.259,0V57.856H5.431V2.173H24.982v22.24h2.173V0Z" fill="#000b63"/>
    <rect id="Rectangle_4154" data-name="Rectangle 4154" width="13.034" height="2.172" transform="translate(8.69 9.387)" fill="#000b63"/>
    <rect id="Rectangle_4155" data-name="Rectangle 4155" width="13.034" height="2.172" transform="translate(8.69 16.048)" fill="#000b63"/>
    <rect id="Rectangle_4156" data-name="Rectangle 4156" width="11.948" height="2.172" transform="translate(8.69 22.708)" fill="#000b63"/>
    <rect id="Rectangle_4157" data-name="Rectangle 4157" width="9.388" height="2.172" transform="translate(8.689 29.369)" fill="#2cabe2"/>
    <rect id="Rectangle_4158" data-name="Rectangle 4158" width="9.388" height="2.172" transform="translate(8.689 36.03)" fill="#2cabe2"/>
    <rect id="Rectangle_4159" data-name="Rectangle 4159" width="9.388" height="2.172" transform="translate(8.689 42.69)" fill="#000b63"/>
    <path id="Path_4024" data-name="Path 4024" d="M24.982,57.857H22.81V23.328H34.758V25.5H24.982Z" fill="#000b63"/>
    <path id="Path_4025" data-name="Path 4025" d="M58.654,33.836a5.432,5.432,0,0,1-5.431,5.431H47.792V18.591h5.431a5.431,5.431,0,0,1,5.431,5.431Z" fill="#8347ad"/>
  </g>
</svg>
