<svg xmlns="http://www.w3.org/2000/svg" width="83.277" height="103.092" viewBox="0 0 83.277 103.092">
  <g id="Pin_Icon" data-name="Pin Icon" transform="translate(-2274.744 -2799.302)">
    <line id="Line_44" data-name="Line 44" x2="13.769" transform="translate(2330.265 2898.588)" fill="none" stroke="#05a1fd" stroke-linejoin="round" stroke-width="5.381"/>
    <line id="Line_45" data-name="Line 45" x2="13.769" transform="translate(2290.167 2898.588)" fill="none" stroke="#05a1fd" stroke-linejoin="round" stroke-width="5.381"/>
    <path id="Path_5725" data-name="Path 5725" d="M2333.744,2882.357l-16.23,16.232-16.4-16.4" fill="none" stroke="#8401fb" stroke-miterlimit="10" stroke-width="5.381"/>
    <path id="Path_5726" data-name="Path 5726" d="M2284.2,2853.71a3.392,3.392,0,1,1-3.043-3.709,3.392,3.392,0,0,1,3.043,3.709v0" fill="#451c9f"/>
    <path id="Path_5727" data-name="Path 5727" d="M2295.448,2871.4a3.394,3.394,0,1,1-3.047-3.709v0a3.393,3.393,0,0,1,3.046,3.707" fill="#451c9f"/>
    <path id="Path_5728" data-name="Path 5728" d="M2277.434,2840.938a38.943,38.943,0,1,1,77.886,0v0" fill="none" stroke="#05a1fd" stroke-linejoin="round" stroke-width="5.381"/>
    <path id="Path_5729" data-name="Path 5729" d="M2338.8,2874.459l9.877-12.265a38.771,38.771,0,0,0,6.652-21.769" fill="none" stroke="#451c9f" stroke-linejoin="round" stroke-width="5.381"/>
    <path id="Path_5730" data-name="Path 5730" d="M2328.815,2840.938a12.438,12.438,0,1,1-12.439-12.438A12.439,12.439,0,0,1,2328.815,2840.938Z" fill="none" stroke="#05a1fd" stroke-linecap="round" stroke-linejoin="round" stroke-width="5.381"/>
  </g>
</svg>
