<svg id="Icon" xmlns="http://www.w3.org/2000/svg" width="69.688" height="70.44" viewBox="0 0 69.688 70.44">
  <rect id="Rectangle_2625" data-name="Rectangle 2625" width="23.948" height="50.458" transform="translate(21.659 14.988)" fill="#56bbe8"/>
  <rect id="Rectangle_2626" data-name="Rectangle 2626" width="2.35" height="2.5" transform="translate(25.417 18.985)" fill="#fff"/>
  <rect id="Rectangle_2627" data-name="Rectangle 2627" width="2.35" height="2.5" transform="translate(30.111 18.985)" fill="#fff"/>
  <rect id="Rectangle_2628" data-name="Rectangle 2628" width="2.35" height="2.5" transform="translate(34.805 18.985)" fill="#fff"/>
  <rect id="Rectangle_2629" data-name="Rectangle 2629" width="2.35" height="2.5" transform="translate(39.505 18.985)" fill="#fff"/>
  <rect id="Rectangle_2630" data-name="Rectangle 2630" width="2.35" height="2.5" transform="translate(25.417 23.979)" fill="#fff"/>
  <rect id="Rectangle_2631" data-name="Rectangle 2631" width="2.35" height="2.5" transform="translate(30.111 23.979)" fill="#fff"/>
  <rect id="Rectangle_2632" data-name="Rectangle 2632" width="2.35" height="2.5" transform="translate(34.805 23.979)" fill="#fff"/>
  <rect id="Rectangle_2633" data-name="Rectangle 2633" width="2.35" height="2.5" transform="translate(39.505 23.979)" fill="#fff"/>
  <rect id="Rectangle_2634" data-name="Rectangle 2634" width="2.35" height="2.5" transform="translate(25.417 28.973)" fill="#fff"/>
  <rect id="Rectangle_2635" data-name="Rectangle 2635" width="2.35" height="2.5" transform="translate(30.111 28.973)" fill="#fff"/>
  <rect id="Rectangle_2636" data-name="Rectangle 2636" width="2.35" height="2.5" transform="translate(34.805 28.973)" fill="#fff"/>
  <rect id="Rectangle_2637" data-name="Rectangle 2637" width="2.35" height="2.5" transform="translate(39.505 28.973)" fill="#fff"/>
  <rect id="Rectangle_2638" data-name="Rectangle 2638" width="2.35" height="2.5" transform="translate(25.417 33.973)" fill="#fff"/>
  <rect id="Rectangle_2639" data-name="Rectangle 2639" width="2.35" height="2.5" transform="translate(30.111 33.973)" fill="#fff"/>
  <rect id="Rectangle_2640" data-name="Rectangle 2640" width="2.35" height="2.5" transform="translate(34.805 33.973)" fill="#fff"/>
  <rect id="Rectangle_2641" data-name="Rectangle 2641" width="2.35" height="2.5" transform="translate(39.505 33.973)" fill="#fff"/>
  <rect id="Rectangle_2642" data-name="Rectangle 2642" width="2.35" height="2.5" transform="translate(25.417 38.967)" fill="#fff"/>
  <rect id="Rectangle_2643" data-name="Rectangle 2643" width="2.35" height="2.5" transform="translate(30.111 38.967)" fill="#fff"/>
  <rect id="Rectangle_2644" data-name="Rectangle 2644" width="2.35" height="2.5" transform="translate(34.805 38.967)" fill="#fff"/>
  <rect id="Rectangle_2645" data-name="Rectangle 2645" width="2.35" height="2.5" transform="translate(39.505 38.967)" fill="#fff"/>
  <rect id="Rectangle_2646" data-name="Rectangle 2646" width="2.35" height="2.5" transform="translate(25.417 43.961)" fill="#fff"/>
  <rect id="Rectangle_2647" data-name="Rectangle 2647" width="2.35" height="2.5" transform="translate(30.111 43.961)" fill="#fff"/>
  <rect id="Rectangle_2648" data-name="Rectangle 2648" width="2.35" height="2.5" transform="translate(34.805 43.961)" fill="#fff"/>
  <rect id="Rectangle_2649" data-name="Rectangle 2649" width="2.35" height="2.5" transform="translate(39.505 43.961)" fill="#fff"/>
  <rect id="Rectangle_2650" data-name="Rectangle 2650" width="2.35" height="2.5" transform="translate(25.417 48.955)" fill="#fff"/>
  <rect id="Rectangle_2651" data-name="Rectangle 2651" width="2.35" height="2.5" transform="translate(30.111 48.955)" fill="#fff"/>
  <rect id="Rectangle_2652" data-name="Rectangle 2652" width="2.35" height="2.5" transform="translate(34.805 48.955)" fill="#fff"/>
  <rect id="Rectangle_2653" data-name="Rectangle 2653" width="2.35" height="2.5" transform="translate(39.505 48.955)" fill="#fff"/>
  <rect id="Rectangle_2654" data-name="Rectangle 2654" width="2.35" height="2.5" transform="translate(25.417 53.955)" fill="#fff"/>
  <rect id="Rectangle_2655" data-name="Rectangle 2655" width="2.35" height="2.5" transform="translate(30.111 53.955)" fill="#fff"/>
  <rect id="Rectangle_2656" data-name="Rectangle 2656" width="2.35" height="2.5" transform="translate(34.805 53.955)" fill="#fff"/>
  <rect id="Rectangle_2657" data-name="Rectangle 2657" width="2.35" height="2.5" transform="translate(39.505 53.955)" fill="#fff"/>
  <rect id="Rectangle_2658" data-name="Rectangle 2658" width="2.35" height="2.5" transform="translate(25.417 58.949)" fill="#fff"/>
  <rect id="Rectangle_2659" data-name="Rectangle 2659" width="2.35" height="2.5" transform="translate(30.111 58.949)" fill="#fff"/>
  <rect id="Rectangle_2660" data-name="Rectangle 2660" width="2.35" height="2.5" transform="translate(34.805 58.949)" fill="#fff"/>
  <rect id="Rectangle_2661" data-name="Rectangle 2661" width="2.35" height="2.5" transform="translate(39.505 58.949)" fill="#fff"/>
  <path id="Path_2555" data-name="Path 2555" d="M66.3,78.178H40V25.22H66.3Zm-23.948-2.5h21.6V27.72h-21.6Z" transform="translate(-19.523 -11.485)" fill="#fff"/>
  <path id="Path_2556" data-name="Path 2556" d="M66.148,23.544H46.9V16.05H66.148Zm-16.893-2.5H63.8V18.55H49.245Z" transform="translate(-22.891 -7.309)" fill="#fff"/>
  <path id="Path_2557" data-name="Path 2557" d="M65.984,14.374H53.78V6.88h12.2Zm-9.86-2.5h7.494v-2.5H56.125Z" transform="translate(-26.249 -3.133)" fill="#fff"/>
  <rect id="Rectangle_2662" data-name="Rectangle 2662" width="2.35" height="4.994" transform="translate(32.461)" fill="#fff"/>
  <rect id="Rectangle_2663" data-name="Rectangle 2663" width="2.35" height="34.97" transform="translate(49.364 25.226)" fill="#fff"/>
  <rect id="Rectangle_2664" data-name="Rectangle 2664" width="2.35" height="34.97" transform="translate(54.007 25.226)" fill="#fff"/>
  <rect id="Rectangle_2665" data-name="Rectangle 2665" width="2.35" height="34.97" transform="translate(58.65 25.226)" fill="#fff"/>
  <path id="Path_2558" data-name="Path 2558" d="M108.291,82.359H86.79V34.4h21.5Zm-19.151-2.5h16.8V36.905H89.14Z" transform="translate(-42.361 -15.665)" fill="#fff"/>
  <path id="Path_2559" data-name="Path 2559" d="M108.066,32.725H96.43v-7.5h11.636Zm-9.3-2.505h6.936v-2.5H98.769Z" transform="translate(-47.066 -11.485)" fill="#fff"/>
  <rect id="Rectangle_2666" data-name="Rectangle 2666" width="2.35" height="2.5" transform="translate(10.858 38.967)" fill="#fff"/>
  <rect id="Rectangle_2667" data-name="Rectangle 2667" width="2.35" height="2.5" transform="translate(15.552 38.967)" fill="#fff"/>
  <rect id="Rectangle_2668" data-name="Rectangle 2668" width="2.35" height="2.5" transform="translate(10.858 43.961)" fill="#fff"/>
  <rect id="Rectangle_2669" data-name="Rectangle 2669" width="2.35" height="2.5" transform="translate(15.552 43.961)" fill="#fff"/>
  <rect id="Rectangle_2670" data-name="Rectangle 2670" width="2.35" height="2.5" transform="translate(10.858 48.955)" fill="#fff"/>
  <rect id="Rectangle_2671" data-name="Rectangle 2671" width="2.35" height="2.5" transform="translate(15.552 48.955)" fill="#fff"/>
  <rect id="Rectangle_2672" data-name="Rectangle 2672" width="2.35" height="2.5" transform="translate(10.858 53.955)" fill="#fff"/>
  <rect id="Rectangle_2673" data-name="Rectangle 2673" width="2.35" height="2.5" transform="translate(15.552 53.955)" fill="#fff"/>
  <rect id="Rectangle_2674" data-name="Rectangle 2674" width="2.35" height="2.5" transform="translate(10.858 58.949)" fill="#fff"/>
  <rect id="Rectangle_2675" data-name="Rectangle 2675" width="2.35" height="2.5" transform="translate(15.552 58.949)" fill="#fff"/>
  <path id="Path_2560" data-name="Path 2560" d="M28.493,94.891H11.6V61.92H28.493Zm-14.554-2.5h12.2V64.414h-12.2Z" transform="translate(-5.662 -28.198)" fill="#fff"/>
  <path id="Path_2561" data-name="Path 2561" d="M4.24,117.87v6.247H6.59V120.37H69.407v3.747h2.35V117.87Z" transform="translate(-2.069 -53.677)" fill="#fff"/>
  <rect id="Rectangle_2676" data-name="Rectangle 2676" width="6.163" height="2.5" transform="translate(0 18.985)" fill="#fff"/>
  <rect id="Rectangle_2677" data-name="Rectangle 2677" width="6.163" height="2.5" transform="translate(44.373 1.247)" fill="#fff"/>
  <rect id="Rectangle_2678" data-name="Rectangle 2678" width="8.728" height="2.5" transform="translate(4.443 8.741)" fill="#fff"/>
  <rect id="Rectangle_2679" data-name="Rectangle 2679" width="3.445" height="2.5" transform="translate(15.634 8.741)" fill="#fff"/>
</svg>
