<svg xmlns="http://www.w3.org/2000/svg" width="90.94" height="89.255" viewBox="0 0 90.94 89.255">
  <g id="Icon" transform="translate(0 0)">
    <path id="Path_5917" data-name="Path 5917" d="M3.368,79.151h84.2v6.736H3.368ZM0,89.255H90.94V75.783H0Z" fill="#f6f6f6"/>
    <path id="Path_5918" data-name="Path 5918" d="M6.736,77.467H3.368V18.525h62.31v3.368H6.736Z" fill="#f6f6f6"/>
    <path id="Path_5919" data-name="Path 5919" d="M87.571,77.467H84.2V21.893h-8.42V18.525H87.571Z" fill="#f6f6f6"/>
    <rect id="Rectangle_5650" data-name="Rectangle 5650" width="3.368" height="3.368" transform="translate(10.104 25.261)" fill="#f6f6f6"/>
    <rect id="Rectangle_5651" data-name="Rectangle 5651" width="3.368" height="3.368" transform="translate(16.841 25.261)" fill="#f6f6f6"/>
    <rect id="Rectangle_5652" data-name="Rectangle 5652" width="3.368" height="3.368" transform="translate(23.577 25.261)" fill="#f6f6f6"/>
    <rect id="Rectangle_5653" data-name="Rectangle 5653" width="13.473" height="25.261" transform="translate(11.788 47.153)" fill="#8347ad"/>
    <path id="Path_5920" data-name="Path 5920" d="M42.1,72.414H28.629V37.049H42.1ZM32,69.046h6.736V40.417H32Z" fill="#f6f6f6"/>
    <path id="Path_5921" data-name="Path 5921" d="M58.942,72.414H45.47V43.785H58.942Zm-10.1-3.368h6.736V47.153H48.838Z" fill="#f6f6f6"/>
    <path id="Path_5922" data-name="Path 5922" d="M70.73,0,59.6,10.93v4.226h4.394v53.89H77.466V15.156h4.211l.226-4.179Z" fill="#1c96d4"/>
  </g>
</svg>
