<svg id="Icon" xmlns="http://www.w3.org/2000/svg" width="54.777" height="65.27" viewBox="0 0 54.777 65.27">
  <path id="Path_2562" data-name="Path 2562" d="M82.449,22.96V36.949H78.07V47.435h7.667v9.324h4.385V76.575H95.6V50.933H91.214V27.624h-4.38V22.96Z" transform="translate(-40.822 -11.306)" fill="#56bbe8"/>
  <path id="Path_2563" data-name="Path 2563" d="M4.38,41.33V69.3H0V85.621H5.477V65.805h4.38V56.481h7.672V50.654H13.144v-4.66H8.764V41.33Z" transform="translate(0 -20.352)" fill="#9d6bbd"/>
  <rect id="Rectangle_2680" data-name="Rectangle 2680" width="2.19" height="2.33" transform="translate(26.293 6.994)" fill="#130b69"/>
  <rect id="Rectangle_2681" data-name="Rectangle 2681" width="2.19" height="2.33" transform="translate(26.293 11.654)" fill="#130b69"/>
  <rect id="Rectangle_2682" data-name="Rectangle 2682" width="2.19" height="2.33" transform="translate(26.293 16.319)" fill="#130b69"/>
  <rect id="Rectangle_2683" data-name="Rectangle 2683" width="2.19" height="2.33" transform="translate(26.293 20.978)" fill="#130b69"/>
  <rect id="Rectangle_2684" data-name="Rectangle 2684" width="2.19" height="2.33" transform="translate(26.293 25.643)" fill="#130b69"/>
  <rect id="Rectangle_2685" data-name="Rectangle 2685" width="2.19" height="2.33" transform="translate(26.293 30.303)" fill="#130b69"/>
  <rect id="Rectangle_2686" data-name="Rectangle 2686" width="2.19" height="2.33" transform="translate(26.293 34.967)" fill="#130b69"/>
  <rect id="Rectangle_2687" data-name="Rectangle 2687" width="2.19" height="2.33" transform="translate(26.293 39.627)" fill="#130b69"/>
  <rect id="Rectangle_2688" data-name="Rectangle 2688" width="2.19" height="2.33" transform="translate(26.293 44.286)" fill="#130b69"/>
  <rect id="Rectangle_2689" data-name="Rectangle 2689" width="2.19" height="2.33" transform="translate(26.293 48.951)" fill="#130b69"/>
  <rect id="Rectangle_2690" data-name="Rectangle 2690" width="2.19" height="2.33" transform="translate(26.293 53.611)" fill="#130b69"/>
  <rect id="Rectangle_2691" data-name="Rectangle 2691" width="2.19" height="2.33" transform="translate(26.293 58.275)" fill="#130b69"/>
  <rect id="Rectangle_2692" data-name="Rectangle 2692" width="2.19" height="2.33" transform="translate(30.673 16.319)" fill="#130b69"/>
  <rect id="Rectangle_2693" data-name="Rectangle 2693" width="2.19" height="2.33" transform="translate(30.673 20.978)" fill="#130b69"/>
  <rect id="Rectangle_2694" data-name="Rectangle 2694" width="2.19" height="2.33" transform="translate(30.673 25.643)" fill="#130b69"/>
  <rect id="Rectangle_2695" data-name="Rectangle 2695" width="2.19" height="2.33" transform="translate(30.673 30.303)" fill="#130b69"/>
  <rect id="Rectangle_2696" data-name="Rectangle 2696" width="2.19" height="2.33" transform="translate(30.673 34.967)" fill="#130b69"/>
  <rect id="Rectangle_2697" data-name="Rectangle 2697" width="2.19" height="2.33" transform="translate(30.673 39.627)" fill="#130b69"/>
  <rect id="Rectangle_2698" data-name="Rectangle 2698" width="2.19" height="2.33" transform="translate(30.673 44.286)" fill="#130b69"/>
  <rect id="Rectangle_2699" data-name="Rectangle 2699" width="2.19" height="2.33" transform="translate(30.673 48.951)" fill="#130b69"/>
  <rect id="Rectangle_2700" data-name="Rectangle 2700" width="2.19" height="2.33" transform="translate(30.673 53.611)" fill="#130b69"/>
  <rect id="Rectangle_2701" data-name="Rectangle 2701" width="2.19" height="2.33" transform="translate(30.673 58.275)" fill="#130b69"/>
  <rect id="Rectangle_2702" data-name="Rectangle 2702" width="2.19" height="2.33" transform="translate(21.909 16.319)" fill="#130b69"/>
  <rect id="Rectangle_2703" data-name="Rectangle 2703" width="2.19" height="2.33" transform="translate(21.909 20.978)" fill="#130b69"/>
  <rect id="Rectangle_2704" data-name="Rectangle 2704" width="2.19" height="2.33" transform="translate(21.909 25.643)" fill="#130b69"/>
  <rect id="Rectangle_2705" data-name="Rectangle 2705" width="2.19" height="2.33" transform="translate(21.909 30.303)" fill="#130b69"/>
  <rect id="Rectangle_2706" data-name="Rectangle 2706" width="2.19" height="2.33" transform="translate(21.909 34.967)" fill="#130b69"/>
  <rect id="Rectangle_2707" data-name="Rectangle 2707" width="2.19" height="2.33" transform="translate(21.909 39.627)" fill="#130b69"/>
  <rect id="Rectangle_2708" data-name="Rectangle 2708" width="2.19" height="2.33" transform="translate(21.909 44.286)" fill="#130b69"/>
  <rect id="Rectangle_2709" data-name="Rectangle 2709" width="2.19" height="2.33" transform="translate(21.909 48.951)" fill="#130b69"/>
  <rect id="Rectangle_2710" data-name="Rectangle 2710" width="2.19" height="2.33" transform="translate(21.909 53.611)" fill="#130b69"/>
  <rect id="Rectangle_2711" data-name="Rectangle 2711" width="2.19" height="2.33" transform="translate(21.909 58.275)" fill="#130b69"/>
  <path id="Path_2564" data-name="Path 2564" d="M38.93,16.249h4.385V6.925h6.57v9.324h4.385V65.2H38.93ZM41.12,4.59v9.345H36.74v53.6H56.459l.019-53.6H52.093V4.59Z" transform="translate(-19.211 -2.26)" fill="#130b69"/>
  <rect id="Rectangle_2712" data-name="Rectangle 2712" width="2.19" height="3.497" transform="translate(26.293)" fill="#130b69"/>
  <rect id="Rectangle_2713" data-name="Rectangle 2713" width="2.19" height="2.33" transform="translate(39.438 39.627)" fill="#130b69"/>
  <rect id="Rectangle_2714" data-name="Rectangle 2714" width="2.19" height="2.33" transform="translate(39.438 44.286)" fill="#130b69"/>
  <rect id="Rectangle_2715" data-name="Rectangle 2715" width="2.19" height="2.33" transform="translate(39.438 48.951)" fill="#130b69"/>
  <rect id="Rectangle_2716" data-name="Rectangle 2716" width="2.19" height="2.33" transform="translate(39.438 53.611)" fill="#130b69"/>
  <rect id="Rectangle_2717" data-name="Rectangle 2717" width="2.19" height="2.33" transform="translate(39.438 58.275)" fill="#130b69"/>
  <rect id="Rectangle_2718" data-name="Rectangle 2718" width="2.19" height="2.33" transform="translate(43.818 48.951)" fill="#130b69"/>
  <rect id="Rectangle_2719" data-name="Rectangle 2719" width="2.19" height="2.33" transform="translate(43.818 53.611)" fill="#130b69"/>
  <rect id="Rectangle_2720" data-name="Rectangle 2720" width="2.19" height="2.33" transform="translate(43.818 58.275)" fill="#130b69"/>
  <path id="Path_2565" data-name="Path 2565" d="M75.67,71.22h6.57v9.324h4.4V96.863H75.67Zm-2.19-2.33v30.3H88.815l.019-20.983h-4.38V68.89Z" transform="translate(-38.422 -33.923)" fill="#130b69"/>
  <rect id="Rectangle_2721" data-name="Rectangle 2721" width="2.19" height="2.33" transform="translate(13.144 39.627)" fill="#130b69"/>
  <rect id="Rectangle_2722" data-name="Rectangle 2722" width="2.19" height="2.33" transform="translate(13.144 44.286)" fill="#130b69"/>
  <rect id="Rectangle_2723" data-name="Rectangle 2723" width="2.19" height="2.33" transform="translate(13.144 48.951)" fill="#130b69"/>
  <rect id="Rectangle_2724" data-name="Rectangle 2724" width="2.19" height="2.33" transform="translate(13.144 53.611)" fill="#130b69"/>
  <rect id="Rectangle_2725" data-name="Rectangle 2725" width="2.19" height="2.33" transform="translate(13.144 58.275)" fill="#130b69"/>
  <rect id="Rectangle_2726" data-name="Rectangle 2726" width="2.19" height="2.33" transform="translate(8.764 48.951)" fill="#130b69"/>
  <rect id="Rectangle_2727" data-name="Rectangle 2727" width="2.19" height="2.33" transform="translate(8.764 53.611)" fill="#130b69"/>
  <rect id="Rectangle_2728" data-name="Rectangle 2728" width="2.19" height="2.33" transform="translate(8.764 58.275)" fill="#130b69"/>
  <path id="Path_2566" data-name="Path 2566" d="M11.375,80.544h4.4V71.22h6.575V96.863H11.375Zm2.19-11.654v9.319H9.18V99.193H24.519l.019-30.3Z" transform="translate(-4.8 -33.923)" fill="#130b69"/>
</svg>
