<svg xmlns="http://www.w3.org/2000/svg" width="46" height="58" viewBox="0 0 46 58">
  <g id="Icon" transform="translate(0)">
    <path id="Path_5969" data-name="Path 5969" d="M43,52H41V49.139a11.08,11.08,0,0,1,.281-2.473l2.458-10.65a10.177,10.177,0,0,0-1.775-8.4L35.205,18.6l1.6-1.2,6.759,9.014a12.189,12.189,0,0,1,2.125,10.047L43.23,47.115A9.014,9.014,0,0,0,43,49.139Z" fill="#000b63"/>
    <path id="Path_5970" data-name="Path 5970" d="M27.51,46H0V0H27.414l9.594,9.586L37,28H35l.008-17.586L26.586,2H2V44H27.51Z" fill="#000b63"/>
    <path id="Path_5971" data-name="Path 5971" d="M31,52H29V49.858a.939.939,0,0,0-.25-.658C26.468,46.874,26,43.84,26,40a5.878,5.878,0,0,0-.31-1.837l-2.5-8A3.931,3.931,0,0,1,23,29a3.992,3.992,0,0,1,7.817-1.148l2.166,7.17A2.442,2.442,0,0,0,35,36.909V27h2V39H36c-2.58,0-4.238-1.143-4.93-3.4L28.9,28.43A1.98,1.98,0,0,0,27,27a2,2,0,0,0-2,2,1.947,1.947,0,0,0,.1.57l2.5,7.995A7.883,7.883,0,0,1,28,40c0,4.068.59,6.182,2.177,7.8A2.953,2.953,0,0,1,31,49.858Z" fill="#000b63"/>
    <rect id="Rectangle_5733" data-name="Rectangle 5733" width="20" height="7" transform="translate(26 51)" fill="#8347ad"/>
    <path id="Path_5972" data-name="Path 5972" d="M15.8,38.368h4.387v-2H15.8" fill="#000b63"/>
    <path id="Path_5973" data-name="Path 5973" d="M14.374,36.368v8.2h2v-8.2" fill="#000b63"/>
    <path id="Path_5974" data-name="Path 5974" d="M20.187,36.363l-6.372-6.694H11.846L5.474,36.363l1.757,1.055,5.6-5.882,5.6,5.882Z" fill="#000b63"/>
    <path id="Path_5975" data-name="Path 5975" d="M9.861,38.368H5.474v-2H9.861" fill="#000b63"/>
    <path id="Path_5976" data-name="Path 5976" d="M11.288,36.368v8.2h-2v-8.2" fill="#000b63"/>
    <path id="Path_5977" data-name="Path 5977" d="M20.963,17.672H25.35v-2H20.963" fill="#2cabe2"/>
    <path id="Path_5978" data-name="Path 5978" d="M19.537,15.672V29.617h2V15.672" fill="#2cabe2"/>
    <path id="Path_5979" data-name="Path 5979" d="M25.35,15.668,18.978,8.974H17.009l-6.372,6.694,1.757,1.055,5.6-5.882,5.6,5.882Z" fill="#2cabe2"/>
    <path id="Path_5980" data-name="Path 5980" d="M15.024,17.672H10.637v-2h4.387" fill="#2cabe2"/>
    <path id="Path_5981" data-name="Path 5981" d="M16.451,15.672v9.653h-2V15.672" fill="#2cabe2"/>
    <rect id="Rectangle_5734" data-name="Rectangle 5734" width="2" height="2" transform="translate(19.537 31.789)" fill="#000b63"/>
    <rect id="Rectangle_5735" data-name="Rectangle 5735" width="2" height="17" transform="translate(5.474 6)" fill="#000b63"/>
    <path id="Path_5968" data-name="Path 5968" d="M36,11H26V1h2V9h8Z" fill="#000b63"/>
  </g>
</svg>
