<svg id="Icon" xmlns="http://www.w3.org/2000/svg" width="92.423" height="75.137" viewBox="0 0 92.423 75.137">
  <path id="Path_5057" data-name="Path 5057" d="M44.1,0H4.9V27.768H18.189l-.665,4.671,3.235.459s1.463-7.934,3.771-7.934c2.474,0,3.973,7.963,3.973,7.963l3.226-.517-.742-4.642H44.1Z" fill="#8347ad"/>
  <path id="Path_5058" data-name="Path 5058" d="M65.336,52.269V49h15.6L88.5,6.534H67.7L62.985,32.955l-3.216-.574,5.2-29.114H92.423l-1.21,6.778L83.672,52.269Z" fill="#f6f6f6"/>
  <path id="Path_5059" data-name="Path 5059" d="M71.87,40.835h-14.7V37.568H68.6V34.3H3.267v3.267H24.5v3.267H0v-9.8H71.87Z" fill="#f6f6f6"/>
  <rect id="Rectangle_4665" data-name="Rectangle 4665" width="3.267" height="3.267" transform="translate(34.301 37.568)" fill="#f6f6f6"/>
  <rect id="Rectangle_4666" data-name="Rectangle 4666" width="3.267" height="3.267" transform="translate(27.768 37.568)" fill="#f6f6f6"/>
  <rect id="Rectangle_4667" data-name="Rectangle 4667" width="3.267" height="34.302" transform="translate(4.9 39.202)" fill="#f6f6f6"/>
  <rect id="Rectangle_4668" data-name="Rectangle 4668" width="3.267" height="34.302" transform="translate(63.703 39.202)" fill="#f6f6f6"/>
  <rect id="Rectangle_4669" data-name="Rectangle 4669" width="88.204" height="3.267" transform="translate(1.633 71.87)" fill="#f6f6f6"/>
  <rect id="Rectangle_4670" data-name="Rectangle 4670" width="3.267" height="22.868" transform="translate(71.87 50.636)" fill="#f6f6f6"/>
  <path id="Path_5060" data-name="Path 5060" d="M86.571,73.5H83.3V64.894H71.87V61.627h14.7Z" fill="#f6f6f6"/>
  <rect id="Rectangle_4671" data-name="Rectangle 4671" width="11.434" height="3.267" transform="translate(65.336 42.469)" fill="#f6f6f6"/>
  <path id="Path_5061" data-name="Path 5061" d="M78.86,6.534H75.593L71.878,25.911h3.267Z" fill="#f6f6f6"/>
  <rect id="Rectangle_4672" data-name="Rectangle 4672" width="39.9" height="9.8" transform="translate(15.891 52.578)" fill="#2cabe2"/>
</svg>
