<svg xmlns="http://www.w3.org/2000/svg" width="81.043" height="77.943" viewBox="0 0 81.043 77.943">
  <g id="Icon" transform="translate(0 0)">
    <path id="Path_5937" data-name="Path 5937" d="M69.058,61.773c-.036-.106-3.6-10.614-4.736-13.595a9.355,9.355,0,0,0-2.784-4.188c-2.836-2.223-11.807-7.262-14.222-7.262a4.6,4.6,0,0,0-2.855.662l-2-1.995c.239-.249,1.591-1.492,4.855-1.492,3.771,0,13.817,6.18,15.966,7.863a12.115,12.115,0,0,1,3.681,5.406c1.153,3.03,4.624,13.26,4.771,13.693Z" fill="#f6f6f6"/>
    <path id="Path_5938" data-name="Path 5938" d="M64.013,67.129l-5.137-1.6a12.7,12.7,0,0,1-6.325-3.86,56.072,56.072,0,0,1-3.565-5.372c-1.372-2.206-2.93-4.707-4.362-6.735a5.29,5.29,0,0,1-.833-2.942,5.656,5.656,0,0,1,5.65-5.651,6.593,6.593,0,0,1,4.6,2.384c1.656,1.93,5.694,7.027,5.865,7.243l-2.216,1.754c-.041-.052-4.173-5.269-5.794-7.158a3.893,3.893,0,0,0-2.457-1.4,2.828,2.828,0,0,0-2.825,2.825,2.591,2.591,0,0,0,.316,1.313c1.479,2.1,3.06,4.632,4.453,6.871a59.957,59.957,0,0,0,3.305,5.02,10.1,10.1,0,0,0,4.979,2.994l5.185,1.619Z" fill="#f6f6f6"/>
    <rect id="Rectangle_5686" data-name="Rectangle 5686" width="2.825" height="13.441" transform="translate(35.144 40.019) rotate(-45.006)" fill="#f6f6f6"/>
    <rect id="Rectangle_5687" data-name="Rectangle 5687" width="2.825" height="11.169" transform="translate(40.596 35.479) rotate(-45)" fill="#f6f6f6"/>
    <path id="Path_5939" data-name="Path 5939" d="M61.661,77.943l-2.805-3.954a4.583,4.583,0,0,1-.939-2.782,4.645,4.645,0,0,1,1.8-3.663l11.5-8.611a4.986,4.986,0,0,1,3.012-1.016,4.936,4.936,0,0,1,3.916,1.909l2.89,3.751Z" fill="#1c96d4"/>
    <path id="Path_5940" data-name="Path 5940" d="M28.252,42.378a18.364,18.364,0,1,1,0-36.728c10.64,0,18.364,7.724,18.364,18.364A18.385,18.385,0,0,1,28.252,42.378" fill="#8347ad"/>
    <rect id="Rectangle_5688" data-name="Rectangle 5688" width="2.825" height="2.825" transform="translate(63.073 69.623)" fill="#f6f6f6"/>
    <path id="Path_5941" data-name="Path 5941" d="M26.84,31.662l-7.5-7.5,2-2,5.506,5.506,9.743-9.744,2,2Z" fill="#f6f6f6"/>
    <path id="Path_5942" data-name="Path 5942" d="M73.456,53.679H67.285V50.854h3.346V2.825H2.825V50.854H48.137v2.825H0V0H73.456Z" fill="#f6f6f6"/>
    <rect id="Rectangle_5689" data-name="Rectangle 5689" width="2.825" height="2.825" transform="translate(53.679 5.65)" fill="#f6f6f6"/>
    <rect id="Rectangle_5690" data-name="Rectangle 5690" width="2.825" height="2.825" transform="translate(59.33 5.65)" fill="#f6f6f6"/>
    <rect id="Rectangle_5691" data-name="Rectangle 5691" width="2.825" height="2.825" transform="translate(64.98 5.65)" fill="#f6f6f6"/>
    <rect id="Rectangle_5685" data-name="Rectangle 5685" width="14.201" height="2.825" transform="translate(1.416 11.301)" fill="#f6f6f6"/>
    <rect id="Rectangle_5684" data-name="Rectangle 5684" width="30.853" height="2.825" transform="translate(41.19 11.301)" fill="#f6f6f6"/>
  </g>
</svg>
