<svg id="Icon" xmlns="http://www.w3.org/2000/svg" width="46.409" height="33.839" viewBox="0 0 46.409 33.839">
  <path id="Path_5897" data-name="Path 5897" d="M43.01,30.862H8V9.846a1.9,1.9,0,0,1,1.9-1.9H41.113a1.9,1.9,0,0,1,1.9,1.9ZM9.566,29.289h31.88V9.846a.337.337,0,0,0-.1-.238.343.343,0,0,0-.235-.1H9.9a.317.317,0,0,0-.232.1.339.339,0,0,0-.1.238Z" fill="#fff"/>
  <path id="Path_5898" data-name="Path 5898" d="M40.326,30.862H10.7V10.629H40.326ZM12.26,29.289H38.773v-17.1H12.26Z" fill="#fff"/>
  <path id="Path_5899" data-name="Path 5899" d="M44.138,33.839H6.876a2.272,2.272,0,0,1-2.271-2.272V29.289h41.8v2.268a2.271,2.271,0,0,1-2.271,2.271ZM6.168,30.862v.7a.708.708,0,0,0,.708.708H44.138a.7.7,0,0,0,.708-.7v-.712Z" fill="#fff"/>
  <rect id="Rectangle_5624" data-name="Rectangle 5624" width="18.557" height="12.502" transform="translate(0 14.495)" fill="#0a9efa"/>
  <rect id="Rectangle_5625" data-name="Rectangle 5625" width="1.563" height="3.103" transform="translate(4.594 19.627)" fill="#fff"/>
  <rect id="Rectangle_5626" data-name="Rectangle 5626" width="1.563" height="0.923" transform="translate(1.992 21.807)" fill="#fff"/>
  <rect id="Rectangle_5627" data-name="Rectangle 5627" width="1.563" height="1.924" transform="translate(7.196 20.806)" fill="#fff"/>
  <rect id="Rectangle_5628" data-name="Rectangle 5628" width="1.563" height="4.625" transform="translate(9.798 18.105)" fill="#fff"/>
  <rect id="Rectangle_5629" data-name="Rectangle 5629" width="1.563" height="3.525" transform="translate(12.4 19.205)" fill="#fff"/>
  <rect id="Rectangle_5630" data-name="Rectangle 5630" width="1.563" height="5.936" transform="translate(15.002 16.794)" fill="#fff"/>
  <rect id="Rectangle_5631" data-name="Rectangle 5631" width="14.573" height="1.563" transform="translate(1.992 23.663)" fill="#2b2d71"/>
  <rect id="Rectangle_5632" data-name="Rectangle 5632" width="24.143" height="15.819" transform="translate(22.263 1.741)" fill="#8500fc"/>
  <path id="Path_5900" data-name="Path 5900" d="M26.564,12.976l-1.107-1.1,4.254-4.251,2.775,2.773,3.7-3.7,2.776,2.776,3.146-3.151,1.107,1.107-4.253,4.254L36.185,8.906l-3.7,3.7L29.711,9.829Z" fill="#fff"/>
  <path id="Path_5901" data-name="Path 5901" d="M43.443,9.71H41.88V7.656H39.826V6.093h3.617Z" fill="#fff"/>
  <path id="Path_5902" data-name="Path 5902" d="M31.049,26.905a3.283,3.283,0,1,1,3.283-3.283,3.283,3.283,0,0,1-3.283,3.283m0-5a1.72,1.72,0,1,0,1.7,1.737v-.017a1.723,1.723,0,0,0-1.7-1.706Z" fill="#fff"/>
  <path id="Path_5903" data-name="Path 5903" d="M14.266,5.313a2.657,2.657,0,1,1,2.656-2.656,2.656,2.656,0,0,1-2.656,2.656m0-3.746A1.093,1.093,0,1,0,15.359,2.66v0a1.093,1.093,0,0,0-1.093-1.093Z" fill="#fff"/>
</svg>
