<svg id="Icon" xmlns="http://www.w3.org/2000/svg" width="47.566" height="48.564" viewBox="0 0 47.566 48.564">
  <path id="Path_5864" data-name="Path 5864" d="M1.925,44.911H45.636v1.723H1.925ZM0,48.564H47.566V42.985H0Z" fill="#fff"/>
  <path id="Path_5865" data-name="Path 5865" d="M1.925,21.493H45.636v1.723H1.925ZM0,25.141H47.566V19.567H0Z" fill="#fff"/>
  <rect id="Rectangle_5546" data-name="Rectangle 5546" width="1.925" height="14.24" transform="translate(41.987 26.946)" fill="#fff"/>
  <rect id="Rectangle_5547" data-name="Rectangle 5547" width="1.925" height="14.24" transform="translate(36.509 26.946)" fill="#fff"/>
  <rect id="Rectangle_5548" data-name="Rectangle 5548" width="1.925" height="14.24" transform="translate(31.035 26.946)" fill="#fff"/>
  <rect id="Rectangle_5549" data-name="Rectangle 5549" width="1.925" height="14.24" transform="translate(25.557 26.946)" fill="#fff"/>
  <rect id="Rectangle_5550" data-name="Rectangle 5550" width="1.925" height="14.24" transform="translate(20.079 26.946)" fill="#fff"/>
  <rect id="Rectangle_5551" data-name="Rectangle 5551" width="1.925" height="14.24" transform="translate(14.605 26.946)" fill="#fff"/>
  <rect id="Rectangle_5552" data-name="Rectangle 5552" width="1.925" height="14.24" transform="translate(9.127 26.946)" fill="#fff"/>
  <rect id="Rectangle_5553" data-name="Rectangle 5553" width="1.925" height="14.24" transform="translate(3.649 26.946)" fill="#fff"/>
  <path id="Path_5866" data-name="Path 5866" d="M23.782,0,3.934,19.849,5.3,21.211,23.782,2.726,42.268,21.211l1.363-1.362Z" fill="#fff"/>
  <path id="Path_5867" data-name="Path 5867" d="M28.162,13.137a4.384,4.384,0,1,1-4.383-4.383h0a4.374,4.374,0,0,1,4.379,4.37v.013" fill="#8500fc"/>
</svg>
