<svg xmlns="http://www.w3.org/2000/svg" xmlns:xlink="http://www.w3.org/1999/xlink" width="162.2" height="58.8" viewBox="0 0 162.2 58.8">
  <defs>
    <clipPath id="clip-path">
      <rect x="-1" y="18" width="162.2" height="58.8" fill="none"/>
    </clipPath>
    <clipPath id="clip-path-2">
      <rect id="Rectangle_2750" data-name="Rectangle 2750" width="28.799" height="0.5" transform="translate(111.361 33.777) rotate(-34.231)" fill="none"/>
    </clipPath>
    <linearGradient id="linear-gradient" x1="-3.746" y1="2.714" x2="-3.712" y2="2.714" gradientUnits="objectBoundingBox">
      <stop offset="0" stop-color="#61b24d"/>
      <stop offset="0.456" stop-color="#51b9b3"/>
      <stop offset="1" stop-color="#0293d2"/>
    </linearGradient>
    <clipPath id="clip-path-3">
      <rect id="Rectangle_2752" data-name="Rectangle 2752" width="23.1" height="0.5" transform="translate(111.416 30.724) rotate(-34.231)" fill="none"/>
    </clipPath>
    <linearGradient id="linear-gradient-2" x1="-4.675" y1="3.313" x2="-4.632" y2="3.313" xlink:href="#linear-gradient"/>
    <clipPath id="clip-path-4">
      <rect id="Rectangle_2754" data-name="Rectangle 2754" width="16.101" height="0.5" transform="matrix(0.826, -0.564, 0.564, 0.826, 111.424, 27.777)" fill="none"/>
    </clipPath>
    <linearGradient id="linear-gradient-3" x1="-6.68" y1="4.557" x2="-6.619" y2="4.557" xlink:href="#linear-gradient"/>
    <clipPath id="clip-path-5">
      <rect id="Rectangle_2756" data-name="Rectangle 2756" width="6.7" height="0.5" transform="matrix(0.823, -0.568, 0.568, 0.823, 111.418, 24.864)" fill="none"/>
    </clipPath>
    <linearGradient id="linear-gradient-4" x1="-15.514" y1="9.874" x2="-15.374" y2="9.874" xlink:href="#linear-gradient"/>
    <clipPath id="clip-path-6">
      <path id="Path_2732" data-name="Path 2732" d="M147.5,38.5l-3.9,2.6L123.7,54.7l.5.6-2.7,1.8.2.3-5.8,4.1.3.4,6.4-4.4,2.1-1.5,20.1-13.7-.4-.7,3.6-2.4-.2-.3,12.9-8.8-.3-.5Z" fill="none"/>
    </clipPath>
    <linearGradient id="linear-gradient-5" x1="-2.016" y1="1.299" x2="-1.998" y2="1.299" xlink:href="#linear-gradient"/>
    <clipPath id="clip-path-7">
      <path id="Path_2733" data-name="Path 2733" d="M148.6,40.7l-4.2,2.8L125.2,56.6l.4.6-2.9,2,.2.3-5.6,3.9.3.5,5.6-4V60l2.9-2.1,19.3-13.1-.4-.6,4.1-2.8-.2-.3L160.7,33l-.3-.4Z" fill="none"/>
    </clipPath>
    <linearGradient id="linear-gradient-6" x1="-2.11" y1="1.277" x2="-2.092" y2="1.277" xlink:href="#linear-gradient"/>
    <clipPath id="clip-path-8">
      <path id="Path_2734" data-name="Path 2734" d="M149.6,42.9l-3.4,2.3L126.6,58.6l.4.6L124.3,61l.2.3-5.6,4,.3.5,5.7-4,2.6-1.9V60l19.6-13.4-.4-.6,3.4-2.4-.2-.3L160.7,36l-.3-.5Z" fill="none"/>
    </clipPath>
    <linearGradient id="linear-gradient-7" x1="-2.221" y1="1.257" x2="-2.201" y2="1.257" xlink:href="#linear-gradient"/>
    <clipPath id="clip-path-9">
      <path id="Path_2735" data-name="Path 2735" d="M151.2,44.7,147.8,47h.1L128,60.5l.4.6L125,63.5l.2.3-4.6,3.3.3.4,5.3-3.7,3.6-2.6,19.1-12.9-.4-.6,3.3-2.2-.3-.3,9.2-6.3-.3-.4Z" fill="none"/>
    </clipPath>
    <linearGradient id="linear-gradient-8" x1="-2.356" y1="1.241" x2="-2.335" y2="1.241" xlink:href="#linear-gradient"/>
    <clipPath id="clip-path-10">
      <path id="Path_2736" data-name="Path 2736" d="M153.2,46.3l-3.7,2.5L132.3,60.6l.4.6L128.6,64l.3.3-6.4,4.4.3.5,6.9-4.8,3.5-2.5,17.3-11.8-.4-.6,3.6-2.5-.2-.3,7.2-4.8-.3-.5Z" fill="none"/>
    </clipPath>
    <linearGradient id="linear-gradient-9" x1="-2.511" y1="1.226" x2="-2.489" y2="1.226" xlink:href="#linear-gradient"/>
    <clipPath id="clip-path-11">
      <path id="Path_2737" data-name="Path 2737" d="M157.6,46.4l-.1-.1-4.3,3L136.5,60.6l.4.6-4.5,3.2.3.3-7.9,5.5.3.4,8.4-5.9,4.4-3,16.2-11.1-.4-.6,4.4-3-.3-.3.2.2,2.7-1.9-.4-.5Z" fill="none"/>
    </clipPath>
    <linearGradient id="linear-gradient-10" x1="-2.731" y1="1.221" x2="-2.708" y2="1.221" xlink:href="#linear-gradient"/>
    <clipPath id="clip-path-12">
      <path id="Path_2738" data-name="Path 2738" d="M157.7,49.1l-2.4,1.7-9.8,6.7.4.6L141.7,61l.2.3L127,71.7l.3.5,15.5-10.9,3.7-2.5,9.7-6.7-.4-.6,2.4-1.6-.2-.3,2.6-1.8-.3-.4Z" fill="none"/>
    </clipPath>
    <linearGradient id="linear-gradient-11" x1="-2.957" y1="1.21" x2="-2.933" y2="1.21" xlink:href="#linear-gradient"/>
    <clipPath id="clip-path-13">
      <path id="Path_2739" data-name="Path 2739" d="M158.2,51.8v-.1l-2.4,1.6-7.7,5.3.4.6-3.6,2.6.2.3-15.8,11,.3.4,16.6-11.6,3.2-2.2,7.4-5-.4-.6,2.3-1.6-.3-.4,1.8-1.2-.2-.3Z" fill="none"/>
    </clipPath>
    <linearGradient id="linear-gradient-12" x1="-3.278" y1="1.211" x2="-3.251" y2="1.211" xlink:href="#linear-gradient"/>
    <clipPath id="clip-path-14">
      <path id="Path_2740" data-name="Path 2740" d="M126.9,26.1l-3.6,2.5h-.1l-8.8,6,.4.6-2.1,1.5.2.3-1.5,1.1.3.4,1.9-1.3,2.2-1.6,8.4-5.7-.4-.6,3.6-2.5-.2-.3,12.4-8.4-.3-.5Z" fill="none"/>
    </clipPath>
    <linearGradient id="linear-gradient-13" x1="-3.089" y1="2.269" x2="-3.06" y2="2.269" xlink:href="#linear-gradient"/>
    <clipPath id="clip-path-15">
      <path id="Path_2741" data-name="Path 2741" d="M129.5,27.3h-.1l-2.8,1.9-11,7.5.4.7-1.9,1.3.2.3-3,2.1.4.4,3.3-2.3,2.2-1.5,10.3-7.1-.4-.6,2.9-2-.2-.2,13.5-9.3-.4-.5Z" fill="none"/>
    </clipPath>
    <linearGradient id="linear-gradient-14" x1="-2.719" y1="2.022" x2="-2.694" y2="2.022" xlink:href="#linear-gradient"/>
    <clipPath id="clip-path-16">
      <path id="Path_2742" data-name="Path 2742" d="M131.8,28.7l-.1-.1-3.1,2.2-11.8,8.1.4.6-2.6,1.8.2.3L111.3,44l.3.5,3.9-2.7,2.9-2,11.2-7.7-.4-.6,3-2.1-.1-.3,14.5-10-.3-.4Z" fill="none"/>
    </clipPath>
    <linearGradient id="linear-gradient-15" x1="-2.462" y1="1.839" x2="-2.439" y2="1.839" xlink:href="#linear-gradient"/>
    <clipPath id="clip-path-17">
      <path id="Path_2743" data-name="Path 2743" d="M133.8,30.2l-3,2L118,41l.4.6-3,2.1.3.3-4.3,3,.3.4,4.9-3.5,3.2-2.2,12-8.1-.4-.6,3.1-2.2-.2-.3L149.9,20l-.3-.5Z" fill="none"/>
    </clipPath>
    <linearGradient id="linear-gradient-16" x1="-2.261" y1="1.693" x2="-2.24" y2="1.693" xlink:href="#linear-gradient"/>
    <clipPath id="clip-path-18">
      <path id="Path_2744" data-name="Path 2744" d="M136.5,31.3l-3.6,2.4-13.7,9.4.4.6-2.7,1.9.2.3-5.5,3.8.3.5,6.2-4.3H118l2.1-1.4L133.9,35l-.4-.6,3.6-2.4-.2-.3L152.5,21l-.3-.4Z" fill="none"/>
    </clipPath>
    <linearGradient id="linear-gradient-17" x1="-2.128" y1="1.584" x2="-2.108" y2="1.584" xlink:href="#linear-gradient"/>
    <clipPath id="clip-path-19">
      <path id="Path_2745" data-name="Path 2745" d="M139,32.5l-4.1,2.8-14.5,9.9.4.6-2.5,1.8.2.3-6.4,4.4.3.5,7-4.9,2.3-1.6L136,36.5l-.4-.6,4-2.7-.2-.3L155.5,22l-.4-.5Z" fill="none"/>
    </clipPath>
    <linearGradient id="linear-gradient-18" x1="-2.013" y1="1.49" x2="-1.994" y2="1.49" xlink:href="#linear-gradient"/>
    <clipPath id="clip-path-20">
      <path id="Path_2746" data-name="Path 2746" d="M142.8,32.9,139,35.5,121.5,47.4l.4.6-3.1,2.2.2.3-6.2,4.3.3.5,6.7-4.7,3.4-2.4L140,36.8l-.4-.6,3.7-2.5-.2-.3,15-10.2-.3-.5Z" fill="none"/>
    </clipPath>
    <linearGradient id="linear-gradient-19" x1="-1.939" y1="1.415" x2="-1.921" y2="1.415" xlink:href="#linear-gradient"/>
    <clipPath id="clip-path-21">
      <path id="Path_2747" data-name="Path 2747" d="M144.3,34.8l-3.7,2.5L121.9,50.1l.4.6-3.2,2.2.2.3-5.6,3.9.3.5,6.2-4.4,3-2,18.3-12.5-.4-.6,3.7-2.6-.2-.3,15.8-10.7-.3-.5Z" fill="none"/>
    </clipPath>
    <linearGradient id="linear-gradient-20" x1="-1.894" y1="1.356" x2="-1.877" y2="1.356" xlink:href="#linear-gradient"/>
    <clipPath id="clip-path-22">
      <path id="Path_2748" data-name="Path 2748" d="M145.5,36.9l-3.6,2.4L122.4,52.6l.4.6-2.9,2.1.2.3-5.4,3.7.3.5,5.8-4v-.1l2.5-1.7,19.5-13.3-.4-.6,3.6-2.4-.2-.3,15-10.2-.3-.5Z" fill="none"/>
    </clipPath>
    <linearGradient id="linear-gradient-21" x1="-1.94" y1="1.323" x2="-1.922" y2="1.323" xlink:href="#linear-gradient"/>
    <clipPath id="clip-path-23">
      <path id="Path_2749" data-name="Path 2749" d="M131.6,74.4l.3.4,27-18.8-.3-.4Z" fill="none"/>
    </clipPath>
    <linearGradient id="linear-gradient-22" x1="-3.879" y1="1.227" x2="-3.849" y2="1.227" xlink:href="#linear-gradient"/>
    <clipPath id="clip-path-24">
      <rect id="Rectangle_2776" data-name="Rectangle 2776" width="27.701" height="0.5" transform="matrix(0.82, -0.572, 0.572, 0.82, 133.865, 75.885)" fill="none"/>
    </clipPath>
    <linearGradient id="linear-gradient-23" x1="-4.69" y1="1.252" x2="-4.655" y2="1.252" xlink:href="#linear-gradient"/>
    <clipPath id="clip-path-25">
      <rect id="Rectangle_2778" data-name="Rectangle 2778" width="12.2" height="0.5" transform="matrix(0.818, -0.576, 0.576, 0.818, 141.966, 73.234)" fill="none"/>
    </clipPath>
    <linearGradient id="linear-gradient-24" x1="-11.167" y1="2.028" x2="-11.088" y2="2.028" xlink:href="#linear-gradient"/>
    <clipPath id="clip-path-26">
      <rect id="Rectangle_2782" data-name="Rectangle 2782" width="177.2" height="88.8" fill="none"/>
    </clipPath>
  </defs>
  <g id="Scroll_Group_1" data-name="Scroll Group 1" transform="translate(1 -18)" clip-path="url(#clip-path)" style="isolation: isolate">
    <g id="هيئة_الزكاة" data-name="هيئة الزكاة">
      <g id="Group_5411" data-name="Group 5411">
        <g id="Group_5410" data-name="Group 5410" clip-path="url(#clip-path-2)">
          <rect id="Rectangle_2749" data-name="Rectangle 2749" width="29.062" height="28.416" transform="translate(103.11 24.857) rotate(-41.462)" fill="url(#linear-gradient)"/>
        </g>
      </g>
      <g id="Group_5413" data-name="Group 5413">
        <g id="Group_5412" data-name="Group 5412" clip-path="url(#clip-path-3)">
          <rect id="Rectangle_2751" data-name="Rectangle 2751" width="23.402" height="22.882" transform="translate(104.762 23.607) rotate(-41.462)" fill="url(#linear-gradient-2)"/>
        </g>
      </g>
      <g id="Group_5415" data-name="Group 5415">
        <g id="Group_5414" data-name="Group 5414" clip-path="url(#clip-path-4)">
          <rect id="Rectangle_2753" data-name="Rectangle 2753" width="16.464" height="16.111" transform="translate(106.711 22.859) rotate(-41.462)" fill="url(#linear-gradient-3)"/>
        </g>
      </g>
      <g id="Group_5417" data-name="Group 5417">
        <g id="Group_5416" data-name="Group 5416" clip-path="url(#clip-path-5)">
          <rect id="Rectangle_2755" data-name="Rectangle 2755" width="7.139" height="7.002" transform="translate(109.323 22.905) rotate(-41.462)" fill="url(#linear-gradient-4)"/>
        </g>
      </g>
      <g id="Group_5419" data-name="Group 5419">
        <g id="Group_5418" data-name="Group 5418" clip-path="url(#clip-path-6)">
          <rect id="Rectangle_2757" data-name="Rectangle 2757" width="54.959" height="53.869" transform="translate(99.873 43.761) rotate(-41.462)" fill="url(#linear-gradient-5)"/>
        </g>
      </g>
      <g id="Group_5421" data-name="Group 5421">
        <g id="Group_5420" data-name="Group 5420" clip-path="url(#clip-path-7)">
          <rect id="Rectangle_2758" data-name="Rectangle 2758" width="53.248" height="52.192" transform="translate(101.769 46.322) rotate(-41.462)" fill="url(#linear-gradient-6)"/>
        </g>
      </g>
      <g id="Group_5423" data-name="Group 5423">
        <g id="Group_5422" data-name="Group 5422" clip-path="url(#clip-path-8)">
          <rect id="Rectangle_2759" data-name="Rectangle 2759" width="51.387" height="50.383" transform="translate(103.865 48.784) rotate(-41.462)" fill="url(#linear-gradient-7)"/>
        </g>
      </g>
      <g id="Group_5425" data-name="Group 5425">
        <g id="Group_5424" data-name="Group 5424" clip-path="url(#clip-path-9)">
          <rect id="Rectangle_2760" data-name="Rectangle 2760" width="49.252" height="48.284" transform="matrix(0.749, -0.662, 0.662, 0.749, 106.21, 51.214)" fill="url(#linear-gradient-8)"/>
        </g>
      </g>
      <g id="Group_5427" data-name="Group 5427">
        <g id="Group_5426" data-name="Group 5426" clip-path="url(#clip-path-10)">
          <rect id="Rectangle_2761" data-name="Rectangle 2761" width="47.034" height="46.126" transform="translate(108.706 53.588) rotate(-41.462)" fill="url(#linear-gradient-9)"/>
        </g>
      </g>
      <g id="Group_5429" data-name="Group 5429">
        <g id="Group_5428" data-name="Group 5428" clip-path="url(#clip-path-11)">
          <rect id="Rectangle_2762" data-name="Rectangle 2762" width="44.185" height="43.329" transform="translate(111.849 55.943) rotate(-41.462)" fill="url(#linear-gradient-10)"/>
        </g>
      </g>
      <g id="Group_5431" data-name="Group 5431">
        <g id="Group_5430" data-name="Group 5430" clip-path="url(#clip-path-12)">
          <rect id="Rectangle_2763" data-name="Rectangle 2763" width="41.6" height="40.832" transform="matrix(0.749, -0.662, 0.662, 0.749, 114.694, 58.273)" fill="url(#linear-gradient-11)"/>
        </g>
      </g>
      <g id="Group_5433" data-name="Group 5433">
        <g id="Group_5432" data-name="Group 5432" clip-path="url(#clip-path-13)">
          <rect id="Rectangle_2764" data-name="Rectangle 2764" width="38.319" height="37.621" transform="translate(117.937 60.64) rotate(-41.462)" fill="url(#linear-gradient-12)"/>
        </g>
      </g>
      <g id="Group_5435" data-name="Group 5435">
        <g id="Group_5434" data-name="Group 5434" clip-path="url(#clip-path-14)">
          <rect id="Rectangle_2765" data-name="Rectangle 2765" width="34.971" height="34.334" transform="matrix(0.749, -0.662, 0.662, 0.749, 101.03, 26.763)" fill="url(#linear-gradient-13)"/>
        </g>
      </g>
      <g id="Group_5437" data-name="Group 5437">
        <g id="Group_5436" data-name="Group 5436" clip-path="url(#clip-path-15)">
          <rect id="Rectangle_2766" data-name="Rectangle 2766" width="39.541" height="38.799" transform="translate(99.639 28.303) rotate(-41.462)" fill="url(#linear-gradient-14)"/>
        </g>
      </g>
      <g id="Group_5439" data-name="Group 5439">
        <g id="Group_5438" data-name="Group 5438" clip-path="url(#clip-path-16)">
          <rect id="Rectangle_2767" data-name="Rectangle 2767" width="43.536" height="42.707" transform="translate(98.498 30.011) rotate(-41.462)" fill="url(#linear-gradient-15)"/>
        </g>
      </g>
      <g id="Group_5441" data-name="Group 5441">
        <g id="Group_5440" data-name="Group 5440" clip-path="url(#clip-path-17)">
          <rect id="Rectangle_2768" data-name="Rectangle 2768" width="47.325" height="46.4" transform="translate(97.556 31.732) rotate(-41.462)" fill="url(#linear-gradient-16)"/>
        </g>
      </g>
      <g id="Group_5443" data-name="Group 5443">
        <g id="Group_5442" data-name="Group 5442" clip-path="url(#clip-path-18)">
          <rect id="Rectangle_2769" data-name="Rectangle 2769" width="50.249" height="49.263" transform="translate(96.913 33.577) rotate(-41.462)" fill="url(#linear-gradient-17)"/>
        </g>
      </g>
      <g id="Group_5445" data-name="Group 5445">
        <g id="Group_5444" data-name="Group 5444" clip-path="url(#clip-path-19)">
          <rect id="Rectangle_2770" data-name="Rectangle 2770" width="53.248" height="52.192" transform="translate(96.569 35.222) rotate(-41.462)" fill="url(#linear-gradient-18)"/>
        </g>
      </g>
      <g id="Group_5447" data-name="Group 5447">
        <g id="Group_5446" data-name="Group 5446" clip-path="url(#clip-path-20)">
          <rect id="Rectangle_2771" data-name="Rectangle 2771" width="55.533" height="54.424" transform="matrix(0.749, -0.662, 0.662, 0.749, 96.624, 36.992)" fill="url(#linear-gradient-19)"/>
        </g>
      </g>
      <g id="Group_5449" data-name="Group 5449">
        <g id="Group_5448" data-name="Group 5448" clip-path="url(#clip-path-21)">
          <rect id="Rectangle_2772" data-name="Rectangle 2772" width="57.244" height="56.101" transform="matrix(0.749, -0.662, 0.662, 0.749, 97.028, 38.731)" fill="url(#linear-gradient-20)"/>
        </g>
      </g>
      <g id="Group_5451" data-name="Group 5451">
        <g id="Group_5450" data-name="Group 5450" clip-path="url(#clip-path-22)">
          <rect id="Rectangle_2773" data-name="Rectangle 2773" width="56.463" height="55.329" transform="translate(98.276 41.211) rotate(-41.462)" fill="url(#linear-gradient-21)"/>
        </g>
      </g>
      <g id="Group_5453" data-name="Group 5453">
        <g id="Group_5452" data-name="Group 5452" clip-path="url(#clip-path-23)">
          <rect id="Rectangle_2774" data-name="Rectangle 2774" width="33.171" height="32.464" transform="translate(122.073 64.017) rotate(-41.462)" fill="url(#linear-gradient-22)"/>
        </g>
      </g>
      <g id="Group_5455" data-name="Group 5455">
        <g id="Group_5454" data-name="Group 5454" clip-path="url(#clip-path-24)">
          <rect id="Rectangle_2775" data-name="Rectangle 2775" width="28.008" height="27.421" transform="translate(125.796 67.164) rotate(-41.462)" fill="url(#linear-gradient-23)"/>
        </g>
      </g>
      <g id="Group_5457" data-name="Group 5457">
        <g id="Group_5456" data-name="Group 5456" clip-path="url(#clip-path-25)">
          <rect id="Rectangle_2777" data-name="Rectangle 2777" width="12.607" height="12.355" transform="translate(138.283 69.471) rotate(-41.462)" fill="url(#linear-gradient-24)"/>
        </g>
      </g>
      <g id="Group_5459" data-name="Group 5459">
        <g id="Group_5458" data-name="Group 5458" clip-path="url(#clip-path-26)">
          <path id="Path_2750" data-name="Path 2750" d="M6.3,46.4H5a.793.793,0,0,1-.5-.7.472.472,0,0,1,.5-.5.472.472,0,0,1,.5.5h.7c-.1-.9-.6-1.3-1.3-1.3a1.1,1.1,0,0,0-1.2,1.2,1.136,1.136,0,0,0,.3.8H3.7v.8H6.4v-.8Z" fill="#575756"/>
          <path id="Path_2751" data-name="Path 2751" d="M8.6,49.5c0,.6-.2,1.1-1,1.1H2.9a1.367,1.367,0,0,1-1.4-1.4v-2H0v2a2.783,2.783,0,0,0,2.9,2.9H8.2a2.006,2.006,0,0,0,2-2V42.8H8.6Z" fill="#575756"/>
          <path id="Path_2752" data-name="Path 2752" d="M12.8,52.3a1.367,1.367,0,0,1-1.4,1.4h-.7v1.5h.7a2.783,2.783,0,0,0,2.9-2.9V45.7H12.8v6.6" fill="#575756"/>
          <path id="Path_2753" data-name="Path 2753" d="M31.3,53.2a.9.9,0,1,0,.9.9.967.967,0,0,0-.9-.9" fill="#575756"/>
          <path id="Path_2754" data-name="Path 2754" d="M37.8,50a.576.576,0,0,1-.6.6h-2c-.3,0-.6-.1-1.4-1.8-1.4-2.9-3.5-4-5.9-3.1v1.4c2-.8,3.2,0,4.2,1.9a4.486,4.486,0,0,0,.9,1.6H27a.9.9,0,0,1-.9-.9V48.2a2.925,2.925,0,0,0-2.9-3h-.1a2.865,2.865,0,0,0-2.9,3v1.5a.839.839,0,0,1-.9.9H18.2a.576.576,0,0,1-.6-.6V42.8H16.1v7.7a1.58,1.58,0,0,0,1.6,1.6h1.6a2.342,2.342,0,0,0,1.8-.8,3.5,3.5,0,0,0,2.2.8,2.2,2.2,0,0,0,1.9-.9,2.019,2.019,0,0,0,1.8.9H37.8a1.58,1.58,0,0,0,1.6-1.6V42.8H37.9V50Zm-13.2-.8a1.347,1.347,0,0,1-1.3,1.4,2.36,2.36,0,0,1-1.6-.7V48.3a1.367,1.367,0,0,1,1.4-1.4h.1a1.367,1.367,0,0,1,1.4,1.4Z" fill="#575756"/>
          <rect id="Rectangle_2779" data-name="Rectangle 2779" width="1.5" height="9.3" transform="translate(41.2 42.8)" fill="#575756"/>
          <path id="Path_2755" data-name="Path 2755" d="M47.5,45.3h-.1a2.84,2.84,0,0,0-2.9,2.9v1a3.045,3.045,0,0,0,2.8,3h1.6v.2c0,1.1-.8,1.7-3.5,1.2V55c3.3.8,5-.4,5-2.3V48.2a2.84,2.84,0,0,0-2.9-2.9m1.4,5.3H47.3A1.347,1.347,0,0,1,46,49.2v-1a1.367,1.367,0,0,1,1.4-1.4h.1a1.367,1.367,0,0,1,1.4,1.4v2.4" fill="#575756"/>
          <path id="Path_2756" data-name="Path 2756" d="M56.3,44.2a.9.9,0,1,0-.9-.9.9.9,0,0,0,.9.9" fill="#575756"/>
          <path id="Path_2757" data-name="Path 2757" d="M59,44.2a.9.9,0,1,0-.9-.9c-.1.5.4.9.9.9" fill="#575756"/>
          <path id="Path_2758" data-name="Path 2758" d="M64.2,53.7a.9.9,0,1,0,.9.9.9.9,0,0,0-.9-.9" fill="#575756"/>
          <path id="Path_2759" data-name="Path 2759" d="M70.3,53.4a.9.9,0,1,0,.9.9.967.967,0,0,0-.9-.9" fill="#575756"/>
          <path id="Path_2760" data-name="Path 2760" d="M70.9,50.6V45.8H69.4V50a.576.576,0,0,1-.6.6H66c-.8,0-1-.5-1-1.1V45.8H63.4v3.7c0,.6-.2,1.1-1,1.1h-1a.9.9,0,0,1-.9-.9V45.2H57.4a2.865,2.865,0,0,0-2.9,3v.9a2.989,2.989,0,0,0,2.9,3,2.583,2.583,0,0,0,2.1-.9,2.2,2.2,0,0,0,1.9.9h1a2.2,2.2,0,0,0,1.8-.8,2.469,2.469,0,0,0,1.6.8h3.5a1.444,1.444,0,0,0,1.6-1.5m-12-.8a1.99,1.99,0,0,1-1.6.7A1.347,1.347,0,0,1,56,49.1v-.9a1.367,1.367,0,0,1,1.4-1.4h1.5v3" fill="#575756"/>
          <path id="Path_2761" data-name="Path 2761" d="M67.6,53.4a.9.9,0,1,0,.9.9c.1-.4-.3-.9-.9-.9" fill="#575756"/>
          <path id="Path_2762" data-name="Path 2762" d="M83.7,44.5a.9.9,0,1,0-.9-.9c-.1.5.4.9.9.9" fill="#575756"/>
          <path id="Path_2763" data-name="Path 2763" d="M89.3,50a.576.576,0,0,1-.6.6H87.2V49.4c0-2.8-1.1-4-3.4-4A5.224,5.224,0,0,0,80,47.6V46.1H78.5v4.6H76.4V45.8H74.8v6.6a1.347,1.347,0,0,1-1.3,1.4h-.7v1.5h.7a2.783,2.783,0,0,0,2.9-2.9v-.2H89.2a1.58,1.58,0,0,0,1.6-1.6V42.9H89.3V50m-3.6.6H79.9V49.1A4.945,4.945,0,0,1,83.5,47c1.3,0,2.1.7,2.1,2.5v1.1Z" fill="#575756"/>
          <rect id="Rectangle_2780" data-name="Rectangle 2780" width="1.5" height="9.3" transform="translate(92.6 42.8)" fill="#575756"/>
          <path id="Path_2764" data-name="Path 2764" d="M98.9,45.3h-.1a2.84,2.84,0,0,0-2.9,2.9v1a3.045,3.045,0,0,0,2.8,3h1.6v.2c0,1.1-.8,1.7-3.5,1.2V55c3.3.8,5-.4,5-2.3V48.2a2.84,2.84,0,0,0-2.9-2.9m1.4,5.3H98.7a1.347,1.347,0,0,1-1.3-1.4v-1a1.367,1.367,0,0,1,1.4-1.4h.1a1.367,1.367,0,0,1,1.4,1.4Z" fill="#575756"/>
          <path id="Path_2765" data-name="Path 2765" d="M4.6,28.6a.9.9,0,1,0-.9-.9.9.9,0,0,0,.9.9" fill="#575756"/>
          <path id="Path_2766" data-name="Path 2766" d="M2,28.6a.9.9,0,1,0-.9-.9.9.9,0,0,0,.9.9" fill="#575756"/>
          <path id="Path_2767" data-name="Path 2767" d="M3.1,29.5H2.9A2.9,2.9,0,0,0,0,32.4v1.1a2.9,2.9,0,0,0,2.9,2.9h.3a2.712,2.712,0,0,0,2.7-2.8V32.4a2.7,2.7,0,0,0-2.8-2.9m1.4,4.1a1.2,1.2,0,0,1-1.1,1.2H2.9a1.324,1.324,0,0,1-1.3-1.3V32.4a1.261,1.261,0,0,1,1.3-1.3h.2a1.261,1.261,0,0,1,1.3,1.3v1.2Z" fill="#575756"/>
          <path id="Path_2768" data-name="Path 2768" d="M30.2,28.6a.9.9,0,1,0-.9-.9.9.9,0,0,0,.9.9" fill="#575756"/>
          <path id="Path_2769" data-name="Path 2769" d="M45.1,34.2a.576.576,0,0,1-.6.6H31V29.9H29.4v6.6a1.347,1.347,0,0,1-1.3,1.4h-.7v1.5h.7A2.783,2.783,0,0,0,31,36.5v-.2H45a1.58,1.58,0,0,0,1.6-1.6V27H45.1Z" fill="#575756"/>
          <rect id="Rectangle_2781" data-name="Rectangle 2781" width="1.5" height="9.3" transform="translate(48.5 27)" fill="#575756"/>
          <path id="Path_2770" data-name="Path 2770" d="M56.2,28.4a.9.9,0,1,0-.9-.9.9.9,0,0,0,.9.9" fill="#575756"/>
          <path id="Path_2771" data-name="Path 2771" d="M58.8,28.4a.9.9,0,1,0-.9-.9.9.9,0,0,0,.9.9" fill="#575756"/>
          <path id="Path_2772" data-name="Path 2772" d="M66.6,27.9H65.2a.824.824,0,0,1-.5-.8.472.472,0,0,1,.5-.5q.45,0,.6.6h.8a1.365,1.365,0,0,0-1.4-1.4,1.208,1.208,0,0,0-1.3,1.3,1.4,1.4,0,0,0,.3.9h-.5v.9h2.9Z" fill="#575756"/>
          <path id="Path_2773" data-name="Path 2773" d="M77.7,37.6a.9.9,0,1,0,.9.9.9.9,0,0,0-.9-.9" fill="#575756"/>
          <path id="Path_2774" data-name="Path 2774" d="M80.3,37.6a.9.9,0,1,0,.9.9c.1-.5-.3-.9-.9-.9" fill="#575756"/>
          <path id="Path_2775" data-name="Path 2775" d="M94.6,29.7v.8a2.577,2.577,0,0,0-1.9,2.4v.6a1.656,1.656,0,0,0,.5,1.2H83.3c-.8,0-1-.5-1-1.1V30H80.7v3.7c0,.6-.2,1.1-1,1.1H72.4c-.8,0-1-.5-1-1.1V30H69.9v3.7c0,.6-.2,1.1-1,1.1H61.2a.9.9,0,0,1-.9-.9V29.5H57.2a2.865,2.865,0,0,0-2.9,3v.9a2.989,2.989,0,0,0,2.9,3,2.583,2.583,0,0,0,2.1-.9,2.2,2.2,0,0,0,1.9.9h7.7a2.2,2.2,0,0,0,1.8-.8,2.469,2.469,0,0,0,1.6.8h7.5a2.2,2.2,0,0,0,1.8-.8,2.469,2.469,0,0,0,1.6.8H98.7a2.9,2.9,0,0,0,2.9-2.9v-1c-.1-2.2-2.8-3.8-7-2.8M58.8,34a1.99,1.99,0,0,1-1.6.7,1.347,1.347,0,0,1-1.3-1.4v-.9A1.367,1.367,0,0,1,57.3,31h1.5v3m37.9.8H95.4a1.4,1.4,0,0,1-1.3-1.3v-.6a1.3,1.3,0,1,1,2.6,0Zm1.9,0H98V32.9a1.983,1.983,0,0,0-1.6-2.1c2-.2,3.6.6,3.6,1.7v.9a1.367,1.367,0,0,1-1.4,1.4" fill="#575756"/>
          <path id="Path_2776" data-name="Path 2776" d="M26.6,33.8A2.582,2.582,0,0,1,24,36.4H9.3a1.58,1.58,0,0,1-1.6-1.6V27H9.2v7.2a.576.576,0,0,0,.6.6H24a1.078,1.078,0,0,0,1.1-1.2,1.321,1.321,0,0,0-1.5-1.3h-4l-.3-1.1L21.7,27l1.4.5-1.8,3.2h2.4a3.08,3.08,0,0,1,2.9,3.1" fill="#575756"/>
          <path id="Path_2777" data-name="Path 2777" d="M3.6,63.7v.7H.2v-.6l2.2-3.2H.3v-.8H3.5v.6L1.3,63.7Z" fill="#575756"/>
          <path id="Path_2778" data-name="Path 2778" d="M4.6,61.7l-.1-.5c1-.5,2.5-.5,2.5.9v2.3H6.2V64a1.606,1.606,0,0,1-1.1.5.839.839,0,0,1-.9-.9c0-.8.7-1.3,2-1.2v-.2c0-.9-.9-.8-1.6-.5M5,63.4c0,.3.2.4.5.4a.908.908,0,0,0,.7-.3v-.8c-.9,0-1.2.4-1.2.7" fill="#575756"/>
          <path id="Path_2779" data-name="Path 2779" d="M11.6,61.7l-.1-.5c1.1-.5,2.6-.5,2.6.9v2.3h-.8V64a1.606,1.606,0,0,1-1.1.5.839.839,0,0,1-.9-.9c0-.8.7-1.3,2-1.2v-.2c-.1-.9-1-.8-1.7-.5m.4,1.7c0,.3.2.4.5.4a.908.908,0,0,0,.7-.3v-.8c-.8,0-1.2.4-1.2.7" fill="#575756"/>
          <path id="Path_2780" data-name="Path 2780" d="M15.8,63.6a.265.265,0,0,0,.3.3h.3v.6h-.6c-.6,0-.8-.3-.8-.9V61.7h-.4l.1-.6H15v-.8l.8-.2v1h.7l-.1.6h-.6v1.9" fill="#575756"/>
          <path id="Path_2781" data-name="Path 2781" d="M17.7,65.5h-.5a12.994,12.994,0,0,0,.3-1.5v-.2h.6V64a7.544,7.544,0,0,1-.4,1.5" fill="#575756"/>
          <path id="Path_2782" data-name="Path 2782" d="M21.3,60.6v3.8h-.8V60.6H19.2v-.8h3.4v.8Z" fill="#575756"/>
          <path id="Path_2783" data-name="Path 2783" d="M23.6,61.7l-.1-.5c1.1-.5,2.6-.5,2.6.9v2.3h-.8V64a1.606,1.606,0,0,1-1.1.5.839.839,0,0,1-.9-.9c0-.8.7-1.3,2-1.2v-.2c-.1-.9-.9-.8-1.7-.5m.4,1.7c0,.3.2.4.5.4a.908.908,0,0,0,.7-.3v-.8c-.8,0-1.2.4-1.2.7" fill="#575756"/>
          <path id="Path_2784" data-name="Path 2784" d="M27.7,61l.5.8.3.5.3-.5.4-.8h.9L29,62.7l1.1,1.7h-1l-.5-.7-.2-.5-.3.5-.5.7h-.9l1.2-1.7L26.7,61Z" fill="#575756"/>
          <path id="Path_2785" data-name="Path 2785" d="M32.5,61.7l-.1-.5c1.1-.5,2.6-.5,2.6.9v2.3h-.8V64a1.606,1.606,0,0,1-1.1.5.839.839,0,0,1-.9-.9c0-.8.7-1.3,2-1.2v-.2c0-.9-.9-.8-1.7-.5m.4,1.7c0,.3.2.4.5.4a.908.908,0,0,0,.7-.3v-.8c-.8,0-1.2.4-1.2.7" fill="#575756"/>
          <path id="Path_2786" data-name="Path 2786" d="M35.8,64.4V61h.8v.3a1.666,1.666,0,0,1,1.1-.4c.7,0,1,.4,1,1.1v2.3h-.8V62.2a.53.53,0,0,0-.6-.6,1.909,1.909,0,0,0-.8.3v2.3h-.7Z" fill="#575756"/>
          <path id="Path_2787" data-name="Path 2787" d="M40.8,64.5c-.9,0-1.3-.8-1.3-1.8s.5-1.8,1.4-1.8a1.222,1.222,0,0,1,.9.4V59.8h.8v4.6h-.8v-.3a1.777,1.777,0,0,1-1,.4m.3-2.9c-.5,0-.8.4-.8,1.1s.3,1.1.8,1.1a.845.845,0,0,0,.6-.2V61.9c0-.1-.3-.3-.6-.3" fill="#575756"/>
          <path id="Path_2788" data-name="Path 2788" d="M47,64.5c-1.5,0-2.1-1-2.1-2.4s.6-2.4,2.1-2.4a4.529,4.529,0,0,1,1.6.3v.7a5.557,5.557,0,0,0-1.5-.3c-.8,0-1.3.6-1.3,1.6,0,1.1.4,1.6,1.3,1.6a5.557,5.557,0,0,0,1.5-.3V64a2.7,2.7,0,0,1-1.6.5" fill="#575756"/>
          <path id="Path_2789" data-name="Path 2789" d="M52.3,61v3.4h-.8v-.3a1.666,1.666,0,0,1-1.1.4c-.7,0-1-.4-1-1.1V61h.8v2.1a.53.53,0,0,0,.6.6,1.909,1.909,0,0,0,.8-.3V61Z" fill="#575756"/>
          <path id="Path_2790" data-name="Path 2790" d="M53.1,64.2v-.6a3.013,3.013,0,0,0,1.2.3c.5,0,.6-.2.6-.4,0-.3-.3-.4-.7-.5-.5-.2-1-.4-1-1,0-.7.5-1.1,1.5-1.1a2.016,2.016,0,0,1,1.1.3v.6a1.431,1.431,0,0,0-1-.3c-.5,0-.8.2-.8.4,0,.3.4.4.8.5.5.2,1,.4,1,1,0,.7-.6,1.1-1.4,1.1a3.079,3.079,0,0,1-1.3-.3" fill="#575756"/>
          <path id="Path_2791" data-name="Path 2791" d="M57.5,63.6a.265.265,0,0,0,.3.3h.3v.6h-.6c-.6,0-.8-.3-.8-.9V61.7h-.4l.1-.6h.3v-.8l.8-.2v1h.7l-.1.6h-.6Z" fill="#575756"/>
          <path id="Path_2792" data-name="Path 2792" d="M58.7,62.7c0-1,.5-1.8,1.6-1.8s1.6.8,1.6,1.8-.5,1.8-1.6,1.8-1.6-.8-1.6-1.8m.8,0c0,.7.3,1.2.8,1.2.6,0,.8-.5.8-1.2s-.2-1.2-.8-1.2c-.5,0-.8.6-.8,1.2" fill="#575756"/>
          <path id="Path_2793" data-name="Path 2793" d="M67.7,62.1v2.3h-.8V62.3a.53.53,0,0,0-.6-.6,1.143,1.143,0,0,0-.7.3v2.4h-.8V62.3a.53.53,0,0,0-.6-.6,1.143,1.143,0,0,0-.7.3v2.3h-.8V60.9h.8v.6a1.433,1.433,0,0,1,1.1-.5.8.8,0,0,1,.9.6,1.729,1.729,0,0,1,1.2-.6c.7,0,1,.4,1,1.1" fill="#575756"/>
          <path id="Path_2794" data-name="Path 2794" d="M68.5,64.2v-.6a3.013,3.013,0,0,0,1.2.3c.5,0,.6-.2.6-.4,0-.3-.3-.4-.7-.5-.5-.2-1-.4-1-1,0-.7.5-1.1,1.5-1.1a2.016,2.016,0,0,1,1.1.3v.6a1.431,1.431,0,0,0-1-.3c-.5,0-.8.2-.8.4,0,.3.4.4.8.5.5.2,1,.4,1,1,0,.7-.6,1.1-1.4,1.1a3.079,3.079,0,0,1-1.3-.3" fill="#575756"/>
          <path id="Path_2795" data-name="Path 2795" d="M74.5,63.3l-.4,1.1h-.9l1.7-4.6h.7l1.7,4.6h-.9L76,63.3Zm.1-.6h1.3l-.6-1.9Z" fill="#575756"/>
          <path id="Path_2796" data-name="Path 2796" d="M80.9,61v3.4h-.8v-.3a1.666,1.666,0,0,1-1.1.4c-.7,0-1-.4-1-1.1V61h.8v2.1a.53.53,0,0,0,.6.6,1.909,1.909,0,0,0,.8-.3V61h.7" fill="#575756"/>
          <path id="Path_2797" data-name="Path 2797" d="M82.8,63.6a.265.265,0,0,0,.3.3h.3v.6c-.2,0-.5.1-.6.1-.6,0-.8-.3-.8-.9V61.8h-.4l.1-.6H82v-.8l.8-.2v1h.7l-.1.6h-.6v1.8" fill="#575756"/>
          <path id="Path_2798" data-name="Path 2798" d="M87,62.1v2.3h-.8V62.3c0-.4-.2-.6-.5-.6a1.909,1.909,0,0,0-.8.3v2.3h-.8V59.7h.8v1.5a2.112,2.112,0,0,1,1-.4A1.23,1.23,0,0,1,87,62.1" fill="#575756"/>
          <path id="Path_2799" data-name="Path 2799" d="M87.8,62.7c0-1,.5-1.8,1.6-1.8s1.6.8,1.6,1.8a1.653,1.653,0,0,1-1.7,1.8c-1,0-1.5-.8-1.5-1.8m.7,0c0,.7.3,1.2.8,1.2.6,0,.8-.5.8-1.2s-.2-1.2-.8-1.2c-.5,0-.8.6-.8,1.2" fill="#575756"/>
          <path id="Path_2800" data-name="Path 2800" d="M91.7,64.4V61h.8v.6a1.269,1.269,0,0,1,1.1-.7v.6a1.059,1.059,0,0,0-1.1.6v2.1h-.8Z" fill="#575756"/>
          <path id="Path_2801" data-name="Path 2801" d="M94.2,60.3a.4.4,0,1,1,.4.4.366.366,0,0,1-.4-.4m.9,4.1h-.8V61.1h.8Z" fill="#575756"/>
          <path id="Path_2802" data-name="Path 2802" d="M97.1,63.6a.265.265,0,0,0,.3.3h.3v.6c-.2,0-.5.1-.6.1-.6,0-.8-.3-.8-.9V61.8h-.4l.1-.6h.3v-.8l.8-.2v1h.7l-.1.6h-.6v1.8" fill="#575756"/>
          <path id="Path_2803" data-name="Path 2803" d="M101.6,61,100,65.6h-.8l.4-.9L98.2,61h.9l.8,2.7.8-2.7Z" fill="#575756"/>
          <path id="Path_2804" data-name="Path 2804" d="M10.7,64.4h-1l-1-1.5v1.5H7.8V59.8h.9v2.6l1-1.4h.9L9.4,62.6Z" fill="#575756"/>
        </g>
      </g>
    </g>
  </g>
</svg>
