<svg xmlns="http://www.w3.org/2000/svg" width="154.87" height="44.58" viewBox="0 0 154.87 44.58">
  <g id="وزارة_الشئون" data-name="وزارة الشئون" transform="translate(0 0)">
    <path id="Path_2622" data-name="Path 2622" d="M130.67,44.58a24.271,24.271,0,0,1-24.25-24.24l.18-3.33h3.8V11.9h.42v-.82h1.82l.52.88h.94v6.48h.76v.9h.28v-5.2h3.06v1.34h1v2.53h1.69V15.56h2.28l.82,1v2.76h4.68v.7h-5.38V16.84l-.46-.58h-1.24v3.26h-.94v-.84H118.5v-2.5h-1V14.84h-1.66v5.22h-1.68v-.92h-.76V12.66h-.64l-.52-.88h-.72v.82h-.42v5.08h-3.82l-.14,2.66a23.53,23.53,0,0,0,47.05.08H151.8V16.28h-1.42V14.16h-1.66v-.9h-2v.64l-.4.46V18.2h-2.06V15.34l-.52-.58H142.6v-1h-1.3v6.26h-2.1V17.74h-1.86v2.32h-4.93v-.7h4.23V17.01h3.24v2.32h.7V13.1h2.7v1H144l.9,1v2.42h.66v-3.4l.4-.46v-1.1h3.44v.92h1.66V15.6h1.41v4.14h2.4v.62a24.24,24.24,0,0,1-24.22,24.22" fill="#80bc00"/>
    <path id="Path_2623" data-name="Path 2623" d="M121.49,34.85a1.12,1.12,0,0,0-.94,1.74,1.06,1.06,0,0,0,.76.52h.36a6.584,6.584,0,0,0,3.88-1.78l.2-.16.14.22a3.479,3.479,0,0,0,2.28,1.62h.2a1.449,1.449,0,0,0,1.52-1,1.271,1.271,0,0,0-.7-1.28,1.529,1.529,0,0,0-1.16.1c-.12,0-.16.2-.22.42s-.14.58-.5.58a1.109,1.109,0,0,1-.84-.52.46.46,0,0,1,0-.48,12.439,12.439,0,0,1,2.7-2.72c.44-.36.9-.72,1.32-1.12l.16-.14.16.14c.42.38.86.74,1.3,1.1a9.311,9.311,0,0,1,2.74,2.92.3.3,0,0,1,0,.3,1.181,1.181,0,0,1-.82.6.38.38,0,0,1-.36-.08.488.488,0,0,1-.1-.4.744.744,0,0,0,0-.24c-.14-.3-.44-.36-.76-.44a1.17,1.17,0,0,0-1.34.92,1,1,0,0,0,.14.8,1.549,1.549,0,0,0,1.26.64,3.551,3.551,0,0,0,2.6-1.64l.14-.22.2.16a6.33,6.33,0,0,0,3.61,1.72,2.523,2.523,0,0,0,1-.2.9.9,0,0,0,.5-.6,1,1,0,0,0-.14-.86,1.2,1.2,0,0,0-2,0l-.1.16-.18-.06a3.591,3.591,0,0,1-1.94-1.38,1,1,0,0,1,0-.88c.14-.24.28-.3.4-.3a.366.366,0,0,1,.14,0,1.908,1.908,0,0,0,1,.32,1.121,1.121,0,0,0,1.14-.88,1,1,0,0,0-.18-.82,1.3,1.3,0,0,0-.74-.52h-.18a1.86,1.86,0,0,0-1.38.66,2.43,2.43,0,0,0-.42.92,3.74,3.74,0,0,1-.37.88l-.16.22-4.22-3.94.18-.18c4.53-4.36,10.59-5.89,15.57-6.35-.64-.06-1.28-.08-1.92-.08a22.162,22.162,0,0,0-14.61,5.31l-.14.12-.16-.12a26.671,26.671,0,0,0-8-4.32,24.282,24.282,0,0,0-8.75-.95c5,.44,11,2,15.59,6.35l.18.18-4.18,3.88-.16-.22a3.814,3.814,0,0,1-.38-.88,2.43,2.43,0,0,0-.42-.92,2.992,2.992,0,0,0-1.06-.66,1.161,1.161,0,0,0-1.4.848c-.005.024-.011.048-.015.072a1.271,1.271,0,0,0,.7,1.28.939.939,0,0,0,.28,0,2.2,2.2,0,0,0,.92-.26l.14-.06a.411.411,0,0,1,.14,0,.57.57,0,0,1,.48.34.893.893,0,0,1,0,.84,3.54,3.54,0,0,1-1.92,1.36l-.16.06-.1-.14a1.451,1.451,0,0,0-1-.48m.16,2.74a3.231,3.231,0,0,1-.44,0,1.551,1.551,0,0,1-1.09-.76,1.646,1.646,0,0,1,2.73-1.84,3,3,0,0,0,1.54-1.1.364.364,0,0,0,0-.26.533.533,0,0,0-.12-.22h-.1a2.787,2.787,0,0,1-1.1.28,1.225,1.225,0,0,1-.46-.08,1.78,1.78,0,0,1-1-1.8,1.621,1.621,0,0,1,1.6-1.32,2.67,2.67,0,0,1,.4,0,3.422,3.422,0,0,1,1.26.78,2.533,2.533,0,0,1,.52,1.1c.06.18.12.34.18.5l3.4-3.16c-5.18-4.86-12.35-6-17.49-6.19l-2.12-.06,2.08-.4a24.122,24.122,0,0,1,11.33.64,25.71,25.71,0,0,1,8,4.27,22.468,22.468,0,0,1,14.77-5.31,24.558,24.558,0,0,1,4.38.4l2.14.4-2.16.06c-5.14.14-12.32,1.33-17.49,6.19l3.4,3.16.18-.5a3.308,3.308,0,0,1,.51-1.08,2.27,2.27,0,0,1,2-.8,1.694,1.694,0,0,1,1,.72,1.458,1.458,0,0,1,.24,1.2,1.59,1.59,0,0,1-1.58,1.24,2.272,2.272,0,0,1-1.1-.3c-.06.12-.12.34-.06.42a2.9,2.9,0,0,0,1.64,1.22,1.69,1.69,0,0,1,2.387-.126,1.64,1.64,0,0,1,.253.286,1.409,1.409,0,0,1,.2,1.26,1.38,1.38,0,0,1-.76.9,3.054,3.054,0,0,1-1.2.24,6.41,6.41,0,0,1-3.71-1.66,4,4,0,0,1-2.84,1.64,2.058,2.058,0,0,1-1.64-.84,1.521,1.521,0,0,1-.22-1.2,1.7,1.7,0,0,1,1.58-1.3,1.931,1.931,0,0,1,.34,0,1.439,1.439,0,0,1,1.06.66.869.869,0,0,1,.1.5,1.1,1.1,0,0,0,.36-.26,8.936,8.936,0,0,0-2.56-2.64,10.792,10.792,0,0,1-1.18-1c-.38.36-.8.68-1.18,1a11.987,11.987,0,0,0-2.6,2.62.643.643,0,0,0,.42.26,1.689,1.689,0,0,0,.08-.24.939.939,0,0,1,.5-.74,2,2,0,0,1,1.54-.08,1.78,1.78,0,0,1,1,1.78,2,2,0,0,1-2.26,1.38,3.942,3.942,0,0,1-2.48-1.62,7.067,7.067,0,0,1-4,1.72" fill="#80bc00"/>
    <path id="Path_2624" data-name="Path 2624" d="M139.48,6.35l.58.44-.42-.6c-2.72-3.88-5.75-4-6.71-3.92a2.9,2.9,0,0,1,1-.7l.34-.12-.34-.1a2.769,2.769,0,0,0-2.62.36,3.457,3.457,0,0,0-.66-1.7.256.256,0,0,0-.14,0c-.24.06-.64.68-.84,1.7a2.47,2.47,0,0,0-2.56-.28l-.26.12.28.1a2,2,0,0,1,.92.7,7.412,7.412,0,0,0-6.56,3.6,3.726,3.726,0,0,1-.26.34l.18.16a6.683,6.683,0,0,1,5.32-1.7c-1.44.58-4.22,2.28-5.16,7l-.12.62.34-.54a12,12,0,0,1,5-4.85c-1.18,1.79-2.82,4.91-2.18,7.71l.12.52.12-.52a12.93,12.93,0,0,1,3.3-6.1,13.334,13.334,0,0,0-.08,7.22l.2.52v-.56a24.73,24.73,0,0,1,1.38-6.58l.36,2.52-.22.06.16,3.46h-.28l.26,3.56-.32.08v.1s.22,2.24.3,3.48a3.922,3.922,0,0,0-1,.78v.24h3.1v-.22a3.481,3.481,0,0,0-.94-.74l.34-3.72h-.34l.24-3.64h-.24l.16-3.46h-.26c.06-.3.18-1.14.3-2.56a18.143,18.143,0,0,1,1.56,6.5l.1.88.14-.88a18.66,18.66,0,0,0-.22-7.32,18.832,18.832,0,0,1,3.38,6.32l.17.68.06-.7a10.38,10.38,0,0,0-2.37-7.77,6.993,6.993,0,0,1,2.73,1.87,13.944,13.944,0,0,1,2.34,3l.28.54-.06-.6a9,9,0,0,0-5.09-7.07c1.72-.34,4.31,1.06,5.11,1.66" fill="#80bc00"/>
    <path id="Path_2625" data-name="Path 2625" d="M5.25,15.01H3.36v-.76l-.49.76H2.43a2.237,2.237,0,0,1-1.72-.6,2.051,2.051,0,0,1-.53-1.48V11.01a1.9,1.9,0,0,1,.6-1.55,2.2,2.2,0,0,1,1.45-.5H4.52v4.88h.73ZM1.87,7.28a.58.58,0,0,1-.815.095A.61.61,0,0,1,.96,7.28a.73.73,0,0,1,0-1,.58.58,0,0,1,.815-.1.61.61,0,0,1,.1.1.749.749,0,0,1,0,1m1.49,6.54V10.1H2.19a.76.76,0,0,0-.851.656.734.734,0,0,0,0,.2v2a.911.911,0,0,0,.21.67,1,1,0,0,0,.71.2Zm.39-6.54a.6.6,0,0,1-.46.22.577.577,0,0,1-.45-.22.749.749,0,0,1,0-1,.577.577,0,0,1,.45-.22.6.6,0,0,1,.46.22.72.72,0,0,1,0,1" fill="#006b68"/>
    <path id="Path_2626" data-name="Path 2626" d="M6.39,15.01H5.06V13.82H6.48c.57,0,.85-.27.85-.8V8.94h1.3v4a1.8,1.8,0,0,1-.79,1.62,2.515,2.515,0,0,1-1.45.45m.24,2a.673.673,0,0,1,.19.49.712.712,0,0,1-.19.5.609.609,0,0,1-.47.21.591.591,0,0,1-.45-.2.678.678,0,0,1-.19-.5.722.722,0,0,1,.19-.5.61.61,0,0,1,.861-.059.548.548,0,0,1,.059.059m1.92,1a.741.741,0,0,1-.55.21.827.827,0,0,1-.56-.2.66.66,0,0,1-.069-.931.562.562,0,0,1,.069-.069A.79.79,0,0,1,8,16.75a.768.768,0,0,1,.55.21.64.64,0,0,1,.23.49.659.659,0,0,1-.23.5Z" fill="#006b68"/>
    <path id="Path_2627" data-name="Path 2627" d="M15.67,15.01H10.3V13.82h3.49v-2a1.522,1.522,0,0,0-1.69-1.75h-.78V8.94h.86A2.689,2.689,0,0,1,15,11.495c0,.075.005.15,0,.225v2.1h.71Z" fill="#006b68"/>
    <path id="Path_2628" data-name="Path 2628" d="M18.84,15.01H15.6V13.82H17V6.49h1.17v7.33h.71Z" fill="#006b68"/>
    <path id="Path_2629" data-name="Path 2629" d="M22.92,15.01h-4V13.82H21V8.94h1.3v4.88h.59Zm-.67,3a.779.779,0,0,1-.56.21.827.827,0,0,1-.56-.2.64.64,0,0,1,0-1,.841.841,0,0,1,1.11,0,.64.64,0,0,1,.23.49.7.7,0,0,1-.22.44Z" fill="#006b68"/>
    <path id="Path_2630" data-name="Path 2630" d="M23.31,15.01h-.49V13.82h.46a1.07,1.07,0,0,0,.72-.2,1,1,0,0,0,.21-.69V6.49h1.16v6.52a1.817,1.817,0,0,1-.54,1.46,2.19,2.19,0,0,1-1.52.54" fill="#006b68"/>
    <path id="Path_2631" data-name="Path 2631" d="M27.05,6.49h1.16v8.52l-1.16.66Z" fill="#006b68"/>
    <path id="Path_2632" data-name="Path 2632" d="M38.42,15.22V8.94h1.16v6.37a2.491,2.491,0,0,1-1.33,2.29,4.67,4.67,0,0,1-2.46.6,4.209,4.209,0,0,1-2.53-.79,2.479,2.479,0,0,1-1.07-2.1V12.26l1.17-.76v3.7a1.56,1.56,0,0,0,.94,1.48,3.672,3.672,0,0,0,1.7.33,3,3,0,0,0,1.73-.48,1.53,1.53,0,0,0,.69-1.31m-2-7.94a.58.58,0,0,1-.815.095.61.61,0,0,1-.1-.095.73.73,0,0,1,0-1A.612.612,0,0,1,36,6.06a.559.559,0,0,1,.45.22.749.749,0,0,1,0,1Z" fill="#006b68"/>
    <path id="Path_2633" data-name="Path 2633" d="M42.15,17.11c1.62,0,2.44-.59,2.44-1.77v-.33h-1A2.231,2.231,0,0,1,42,14.44a2.1,2.1,0,0,1-.55-1.51V11.01A2,2,0,0,1,42,9.46a2.111,2.111,0,0,1,1.48-.52h2.29v6.18A2.93,2.93,0,0,1,45,17.37a3.675,3.675,0,0,1-2.25.79l-.78-1Zm2.44-3.29V10.1H43.42a.858.858,0,0,0-.65.21,1,1,0,0,0-.19.68v1.94a.861.861,0,0,0,.22.7,1.349,1.349,0,0,0,.87.19Z" fill="#006b68"/>
    <path id="Path_2634" data-name="Path 2634" d="M52.51,15.01H51.8v.14a2.941,2.941,0,0,1-.8,2.22,3.679,3.679,0,0,1-2.26.79l-.78-1h.18c1.63,0,2.45-.59,2.45-1.77v-.38h-1A2.25,2.25,0,0,1,48,14.44a2.1,2.1,0,0,1-.55-1.51V11.01A2,2,0,0,1,48,9.46a2.1,2.1,0,0,1,1.49-.52h2.3v4.88h.71Zm-1.8-7.48h-2.2V7.01H49a1.221,1.221,0,0,1-.14-.58.861.861,0,0,1,.26-.59.941.941,0,0,1,.7-.27h.51v.47H50q-.6,0-.6.48c0,.32.2.49.6.49h.69Zm-.08,6.32V10.1H49.46a.892.892,0,0,0-.66.21,1,1,0,0,0-.19.68v1.94a.861.861,0,0,0,.22.7,1.392,1.392,0,0,0,.88.19Z" fill="#006b68"/>
    <path id="Path_2635" data-name="Path 2635" d="M63.88,15.01H52.46V13.82h3.4V8.94H57v4.88h2V8.94h1.17v4.88h2V8.94h1.16v4.88h.49Zm-4.61-8.7a.8.8,0,0,1,.18.52.691.691,0,0,1-.19.49.572.572,0,0,1-.45.21.62.62,0,0,1-.46-.21.732.732,0,0,1-.2-.51.759.759,0,0,1,.19-.51.61.61,0,0,1,.86-.07.579.579,0,0,1,.07.07Zm.78-1.46a.539.539,0,0,1,.19.41.531.531,0,0,1-.19.41.609.609,0,0,1-.44.17.568.568,0,0,1-.43-.17A.578.578,0,0,1,59,5.23a.6.6,0,0,1,.17-.41.609.609,0,0,1,.43-.17.661.661,0,0,1,.45.17Zm.89,1.45a.719.719,0,0,1,.19.51.689.689,0,0,1-.2.51.6.6,0,0,1-.846.064.645.645,0,0,1-.064-.064.759.759,0,0,1-.19-.51.732.732,0,0,1,.2-.51.59.59,0,0,1,.46-.21.57.57,0,0,1,.45.18Z" fill="#006b68"/>
    <path id="Path_2636" data-name="Path 2636" d="M64.3,15.01h-.49V13.82h.45a1.048,1.048,0,0,0,.72-.2.91.91,0,0,0,.22-.69V6.49h1.16v6.52a1.817,1.817,0,0,1-.54,1.46,2.19,2.19,0,0,1-1.52.54" fill="#006b68"/>
    <path id="Path_2637" data-name="Path 2637" d="M68,6.49h1.2v8.52l-1.2.63Z" fill="#006b68"/>
    <path id="Path_2638" data-name="Path 2638" d="M77.52,8.94v4a1.931,1.931,0,0,1-.71,1.67,2.67,2.67,0,0,1-1.54.38,2.048,2.048,0,0,1-1.55-.55,2.209,2.209,0,0,1-.54-1.55V11.01a1.909,1.909,0,0,1,.58-1.54,2.092,2.092,0,0,1,1.43-.51ZM74.87,7.28a.57.57,0,0,1-.8.1.591.591,0,0,1-.1-.1.72.72,0,0,1,0-1,.57.57,0,0,1,.8-.1.591.591,0,0,1,.1.1.749.749,0,0,1,0,1m1.49,5.67V10.1H75.19c-.56,0-.84.3-.84.89v2c0,.58.33.87,1,.87s1.01-.33,1.01-.91m.42-5.67a.58.58,0,0,1-.815.095.61.61,0,0,1-.095-.095.713.713,0,0,1-.19-.5.679.679,0,0,1,.2-.5.57.57,0,0,1,.8-.1.591.591,0,0,1,.1.1.749.749,0,0,1,0,1" fill="#006b68"/>
    <path id="Path_2639" data-name="Path 2639" d="M80.15,15.14V8.94h1.16V15.5a2.7,2.7,0,0,1-1.8,2.66l-.82-1a2.237,2.237,0,0,0,1.15-.68,2.248,2.248,0,0,0,.31-1.34" fill="#006b68"/>
    <path id="Path_2640" data-name="Path 2640" d="M83,6.49h1.16v8.52L83,15.64Z" fill="#006b68"/>
    <path id="Path_2641" data-name="Path 2641" d="M86.77,15.14V8.94h1.16V15.5a2.7,2.7,0,0,1-1.8,2.66l-.82-1a2.284,2.284,0,0,0,1.16-.68,2.26,2.26,0,0,0,.3-1.34m1.08-7.85a.692.692,0,0,1-.5.21.661.661,0,0,1-.5-.21.69.69,0,0,1-.025-.975l.025-.025a.661.661,0,0,1,.5-.21.711.711,0,0,1,.524,1.186l-.024.024" fill="#006b68"/>
    <path id="Path_2642" data-name="Path 2642" d="M90.35,17.11c1.62,0,2.44-.59,2.44-1.77v-.33h-1a2.229,2.229,0,0,1-1.63-.54,2.1,2.1,0,0,1-.55-1.51V11.01a2,2,0,0,1,.57-1.53,2.092,2.092,0,0,1,1.48-.52H94v6.18a2.931,2.931,0,0,1-.75,2.25,3.675,3.675,0,0,1-2.25.79l-.78-1Zm2.44-3.29V10.1H91.62a.858.858,0,0,0-.65.21,1,1,0,0,0-.19.68v1.94a.9.9,0,0,0,.21.7,1.406,1.406,0,0,0,.88.19Z" fill="#006b68"/>
    <path id="Path_2643" data-name="Path 2643" d="M6.52,30.82V24.54H7.68v6.37A2.491,2.491,0,0,1,6.35,33.2a4.583,4.583,0,0,1-2.46.6,4.2,4.2,0,0,1-2.53-.79,2.479,2.479,0,0,1-1.07-2.1V27.86l1.17-.76v3.7a1.58,1.58,0,0,0,.93,1.49,3.742,3.742,0,0,0,1.69.34,3,3,0,0,0,1.73-.48,1.521,1.521,0,0,0,.71-1.33m-2-7.93a.58.58,0,0,1-.815.1.61.61,0,0,1-.1-.1.758.758,0,0,1-.2-.51.718.718,0,0,1,.2-.5.631.631,0,0,1,.46-.21.58.58,0,0,1,.45.21.713.713,0,0,1,.19.5.748.748,0,0,1-.19.51" fill="#006b68"/>
    <path id="Path_2644" data-name="Path 2644" d="M11.46,30.58h-.07a1.682,1.682,0,0,1-1.32-.57,1.869,1.869,0,0,1-.5-1.3V22.09h1.16v6.58q0,.75.66.75h.07Z" fill="#006b68"/>
    <path id="Path_2645" data-name="Path 2645" d="M20.52,30.58H11.46V29.42h7.16V26.56a.739.739,0,0,0-.614-.847.711.711,0,0,0-.216,0h-3V24.16q0-2.07,2.16-2.07h2v1.17H16.77a.75.75,0,0,0-.857.624.711.711,0,0,0,0,.216v.44h1.85a2,2,0,0,1,1.53.57,2.2,2.2,0,0,1,.5,1.49v2.82h.73Z" fill="#006b68"/>
    <path id="Path_2646" data-name="Path 2646" d="M31,30.58H18.46V29.42h7.07V24.54h1.16v4.88h2V24.54h1.16v4.88h1.18a.741.741,0,0,0,.85-.82V24.54h1.16v4a1.91,1.91,0,0,1-.56,1.52,2.215,2.215,0,0,1-1.48.52" fill="#006b68"/>
    <path id="Path_2647" data-name="Path 2647" d="M38.6,30.58H34.75V29.42h2.11L35,24.54h1.26l1.89,4.88h.47a1.048,1.048,0,0,0,.72-.2.919.919,0,0,0,.21-.69V22.09h1.17v6.53a1.88,1.88,0,0,1-.56,1.47,2.164,2.164,0,0,1-1.56.49M37,33.76H34.8v-.49h.53a1.107,1.107,0,0,1-.14-.56.9.9,0,0,1,.26-.6.912.912,0,0,1,.68-.27h.52v.49h-.34c-.41,0-.6.16-.6.47s.2.47.6.47H37Z" fill="#006b68"/>
    <path id="Path_2648" data-name="Path 2648" d="M42.33,22.09H43.5v8.49l-1.17.66Z" fill="#006b68"/>
    <path id="Path_2649" data-name="Path 2649" d="M45.92,32.71c1.62,0,2.44-.58,2.44-1.76v-.37h-1a2.229,2.229,0,0,1-1.63-.57,2.082,2.082,0,0,1-.55-1.51V26.6a2,2,0,0,1,.57-1.54,2.149,2.149,0,0,1,1.48-.52h2.3v6.19a2.889,2.889,0,0,1-.75,2.28,3.667,3.667,0,0,1-2.26.79l-.78-1Zm2.44-3.29V25.71H47.2a.872.872,0,0,0-.66.21,1,1,0,0,0-.19.68v1.93a.891.891,0,0,0,.22.71,1.474,1.474,0,0,0,.88.18Z" fill="#006b68"/>
    <path id="Path_2650" data-name="Path 2650" d="M58.5,30.58H56.61v-.76l-.49.76h-.44A2.242,2.242,0,0,1,54,30.01a2,2,0,0,1-.53-1.48V26.6A1.91,1.91,0,0,1,54,25.01a2.191,2.191,0,0,1,1.44-.5h2.3v4.88h.73Zm-3.38-7.69a.58.58,0,0,1-.815.1.61.61,0,0,1-.1-.1.759.759,0,0,1-.2-.51.718.718,0,0,1,.2-.5.6.6,0,0,1,.846-.064.645.645,0,0,1,.064.064.761.761,0,0,1,.19.5.8.8,0,0,1-.19.51m1.49,6.53V25.71H55.44a.76.76,0,0,0-.85.658.771.771,0,0,0,0,.192v2a.9.9,0,0,0,.21.67,1,1,0,0,0,.71.2ZM57,22.89a.629.629,0,0,1-.46.22.613.613,0,0,1-.45-.22.8.8,0,0,1-.19-.51.761.761,0,0,1,.19-.5.6.6,0,0,1,.45-.21.62.62,0,0,1,.46.21.718.718,0,0,1,.2.5.759.759,0,0,1-.2.51" fill="#006b68"/>
    <path id="Path_2651" data-name="Path 2651" d="M61.47,30.58H58.31V29.42h3.25c.57,0,.85-.27.85-.8V24.54h1.3v4a1.8,1.8,0,0,1-.79,1.61,2.52,2.52,0,0,1-1.45.43m.24,2a.742.742,0,0,1,.19.5.706.706,0,0,1-.19.49.621.621,0,0,1-.47.21.578.578,0,0,1-.46-.2.768.768,0,0,1,.01-1,.61.61,0,0,1,.861-.059.547.547,0,0,1,.059.059m1.92,1a.75.75,0,0,1-.55.21.788.788,0,0,1-.56-.2.611.611,0,0,1-.23-.49.639.639,0,0,1,.23-.51.792.792,0,0,1,.55-.21.768.768,0,0,1,.55.21.659.659,0,0,1,.23.5.629.629,0,0,1-.22.46Z" fill="#006b68"/>
    <path id="Path_2652" data-name="Path 2652" d="M66.1,32.71c1.62,0,2.44-.58,2.44-1.76v-.37h-1a2.211,2.211,0,0,1-1.63-.57,2.081,2.081,0,0,1-.55-1.51V26.6a2,2,0,0,1,.57-1.54,2.144,2.144,0,0,1,1.48-.52H69.7v6.19a2.889,2.889,0,0,1-.7,2.28,3.618,3.618,0,0,1-2.26.79l-.77-1Zm2.44-3.29V25.71H67.37a.858.858,0,0,0-.65.21,1,1,0,0,0-.2.68v1.93a.919.919,0,0,0,.22.71,1.49,1.49,0,0,0,.88.18Z" fill="#006b68"/>
    <path id="Path_2653" data-name="Path 2653" d="M72.33,30.74v-6.2h1.16v4.88h.73v1.16h-.73v.53a2.68,2.68,0,0,1-1.8,2.65l-.82-1a1.867,1.867,0,0,0,1.46-2.02" fill="#006b68"/>
    <path id="Path_2654" data-name="Path 2654" d="M82.6,30.58H74.1V29.42h1.37V26.6A2,2,0,0,1,76,25.01a2.092,2.092,0,0,1,1.43-.51H79.8v4.88h2.8Zm-5.45-7.69a.577.577,0,0,1-.45.22.629.629,0,0,1-.46-.22.748.748,0,0,1-.19-.51.712.712,0,0,1,.19-.5.62.62,0,0,1,.46-.21.572.572,0,0,1,.45.21.712.712,0,0,1,.19.5.748.748,0,0,1-.19.51m1.49,6.53V25.71H77.47c-.56,0-.84.29-.84.89v2.82Zm.41-6.53a.58.58,0,0,1-.815.1.609.609,0,0,1-.1-.1.748.748,0,0,1-.19-.51.713.713,0,0,1,.19-.5.6.6,0,0,1,.846-.064.645.645,0,0,1,.064.064.712.712,0,0,1,.19.5.748.748,0,0,1-.19.51" fill="#006b68"/>
    <path id="Path_2655" data-name="Path 2655" d="M83,30.58h-.49V29.42H83a1.048,1.048,0,0,0,.72-.2.88.88,0,0,0,.22-.69V22.09H85.1v6.53a1.882,1.882,0,0,1-.54,1.47,2.208,2.208,0,0,1-1.56.49" fill="#006b68"/>
    <path id="Path_2656" data-name="Path 2656" d="M86.76,22.09h1.16v8.49l-1.16.66Z" fill="#006b68"/>
    <path id="Path_2657" data-name="Path 2657" d="M90.35,32.71c1.62,0,2.43-.58,2.44-1.76v-.37h-1a2.211,2.211,0,0,1-1.63-.57,2.081,2.081,0,0,1-.55-1.51V26.6a2,2,0,0,1,.57-1.54,2.144,2.144,0,0,1,1.48-.52H94v6.19a2.89,2.89,0,0,1-.8,2.28,3.618,3.618,0,0,1-2.26.79l-.77-1Zm2.44-3.29V25.71H91.62a.858.858,0,0,0-.65.21,1,1,0,0,0-.2.68v1.93a.919.919,0,0,0,.22.71,1.49,1.49,0,0,0,.88.18Z" fill="#006b68"/>
    <path id="Path_2658" data-name="Path 2658" d="M3.31,40.72H2.84V37.88L2,40.72H1.36L.47,37.88v2.84H0V37.31H.76l.9,3,.91-3h.74Z" fill="#80bc00"/>
    <path id="Path_2659" data-name="Path 2659" d="M4.46,37.29a.289.289,0,0,1,.09.22.293.293,0,0,1-.09.21.27.27,0,0,1-.22.1.278.278,0,0,1-.22-.1.3.3,0,0,1-.1-.21.316.316,0,0,1,.1-.22.312.312,0,0,1,.22-.09.289.289,0,0,1,.22.09M4,40.4V38.29h.49v2c0,.08,0,.13.11.13h.13l.06.27a.647.647,0,0,1-.36.08.441.441,0,0,1-.32-.1A.3.3,0,0,1,4,40.4" fill="#80bc00"/>
    <path id="Path_2660" data-name="Path 2660" d="M6.73,40.4V39.08a.583.583,0,0,0-.06-.31.307.307,0,0,0-.24-.08,1.155,1.155,0,0,0-.4.1,1.245,1.245,0,0,0-.39.25v1.68H5.15V38.29h.49v.32a1.516,1.516,0,0,1,.41-.26,1.2,1.2,0,0,1,.45-.1.722.722,0,0,1,.56.17.9.9,0,0,1,.16.62v1.24c0,.08,0,.13.11.13h.14l.06.27a.7.7,0,0,1-.37.08.493.493,0,0,1-.32-.09.352.352,0,0,1-.11-.27" fill="#80bc00"/>
    <path id="Path_2661" data-name="Path 2661" d="M8.36,37.29a.289.289,0,0,1,.09.22.293.293,0,0,1-.09.21.27.27,0,0,1-.22.1.278.278,0,0,1-.22-.1.293.293,0,0,1-.09-.21.31.31,0,0,1,.31-.31.289.289,0,0,1,.22.09M7.89,40.4V38.29h.49v2c0,.08,0,.13.12.13h.12l.07.27a.7.7,0,0,1-.37.08.441.441,0,0,1-.32-.1.33.33,0,0,1-.11-.27" fill="#80bc00"/>
    <path id="Path_2662" data-name="Path 2662" d="M9.71,40.35c.39,0,.59-.11.59-.35a.22.22,0,0,0-.11-.18,1.92,1.92,0,0,0-.44-.2,1.971,1.971,0,0,1-.49-.25A.56.56,0,0,1,9,38.9a.549.549,0,0,1,.25-.47,1.142,1.142,0,0,1,.68-.18,1.692,1.692,0,0,1,.72.13l-.09.4a1.337,1.337,0,0,0-.59-.13c-.32,0-.49.08-.49.25a.2.2,0,0,0,.1.16,3.053,3.053,0,0,0,.43.19,2.127,2.127,0,0,1,.5.25.639.639,0,0,1,.23.53.61.61,0,0,1-.3.53,1.3,1.3,0,0,1-.73.19A2.709,2.709,0,0,1,9,40.64l.11-.43a1.7,1.7,0,0,0,.32.1,1.476,1.476,0,0,0,.28.04" fill="#80bc00"/>
    <path id="Path_2663" data-name="Path 2663" d="M11.42,40.13V38.69H11l.07-.4h.31v-.65l.49-.16v.81h.51v.4h-.51v1.39a.368.368,0,0,0,.05.22.269.269,0,0,0,.19.05.542.542,0,0,0,.25-.06l.07.37a1.708,1.708,0,0,1-.54.09.5.5,0,0,1-.39-.14.729.729,0,0,1-.08-.48" fill="#80bc00"/>
    <path id="Path_2664" data-name="Path 2664" d="M13.38,40.72h-.49V38.29h.49v.32a.511.511,0,0,1,.19-.26.47.47,0,0,1,.3-.1.817.817,0,0,1,.41.13l-.08.41a1.342,1.342,0,0,0-.43-.08q-.23,0-.39.33Z" fill="#80bc00"/>
    <path id="Path_2665" data-name="Path 2665" d="M15.39,41.52a.768.768,0,0,1-.54.2,1.157,1.157,0,0,1-.51-.09l.09-.41a.705.705,0,0,0,.66,0,1.494,1.494,0,0,0,.26-.54l-.92-2.37H15l.58,1.7.53-1.74h.52l-.87,2.52a1.832,1.832,0,0,1-.37.73" fill="#80bc00"/>
    <path id="Path_2666" data-name="Path 2666" d="M20.22,39.5c0,.83-.39,1.25-1.18,1.25s-1.18-.42-1.18-1.25.4-1.25,1.18-1.25,1.18.41,1.18,1.25M19,40.35a.67.67,0,0,0,.52-.18,1.067,1.067,0,0,0,.15-.65,1.162,1.162,0,0,0-.15-.67.749.749,0,0,0-1,0,1,1,0,0,0-.16.66,1.07,1.07,0,0,0,.15.66.591.591,0,0,0,.49.18" fill="#80bc00"/>
    <path id="Path_2667" data-name="Path 2667" d="M21.39,40.72H20.9v-2h-.38l.08-.4h.3v-.34a.942.942,0,0,1,.15-.6.571.571,0,0,1,.48-.19,1.688,1.688,0,0,1,.56.08l-.09.4c-.29-.07-.47-.08-.52,0a.332.332,0,0,0-.09.26v.41h.53v.4h-.53Z" fill="#80bc00"/>
    <path id="Path_2668" data-name="Path 2668" d="M26.64,40.72h-.47V37.88l-.89,2.84h-.59l-.9-2.84v2.84h-.46V37.31h.76l.9,3,.91-3h.74Z" fill="#80bc00"/>
    <path id="Path_2669" data-name="Path 2669" d="M28,40.75a.761.761,0,0,1-.56-.17.877.877,0,0,1-.14-.57V38.29h.49v1.62a.6.6,0,0,0,.06.32.322.322,0,0,0,.25.08,1.1,1.1,0,0,0,.42-.11.739.739,0,0,0,.33-.24V38.29h.49v2c0,.08,0,.13.12.13h.14v.27a.682.682,0,0,1-.36.08.478.478,0,0,1-.33-.1.332.332,0,0,1-.11-.25,1.5,1.5,0,0,1-.4.25,1,1,0,0,1-.4.08" fill="#80bc00"/>
    <path id="Path_2670" data-name="Path 2670" d="M31.57,40.4V39.08a.583.583,0,0,0-.06-.31.307.307,0,0,0-.24-.08,1.264,1.264,0,0,0-.41.1,1.319,1.319,0,0,0-.38.25v1.68H30V38.29h.49v.32a1.516,1.516,0,0,1,.41-.26,1.2,1.2,0,0,1,.45-.1.722.722,0,0,1,.56.17.9.9,0,0,1,.16.62v1.24c0,.08,0,.13.11.13h.14l.06.27a.7.7,0,0,1-.37.08.493.493,0,0,1-.32-.09.35.35,0,0,1-.12-.27" fill="#80bc00"/>
    <path id="Path_2671" data-name="Path 2671" d="M33.2,37.29a.289.289,0,0,1,.09.22.293.293,0,0,1-.09.21.27.27,0,0,1-.22.1.278.278,0,0,1-.22-.1.293.293,0,0,1-.09-.21.31.31,0,0,1,.31-.31.289.289,0,0,1,.22.09m-.47,3.11V38.29h.49v2c0,.08,0,.13.12.13h.12l.07.27a.7.7,0,0,1-.37.08.441.441,0,0,1-.32-.1.33.33,0,0,1-.11-.27" fill="#80bc00"/>
    <path id="Path_2672" data-name="Path 2672" d="M34.13,40.43a1.247,1.247,0,0,1-.32-.9,1.319,1.319,0,0,1,.32-.92,1,1,0,0,1,.8-.36,2.2,2.2,0,0,1,.8.12l-.07.39a1.433,1.433,0,0,0-.62-.11c-.47,0-.71.28-.71.85s.26.85.78.85h.31l.29-.07-.09.4a2.2,2.2,0,0,1-.73.1,1.071,1.071,0,0,1-.76-.35" fill="#80bc00"/>
    <path id="Path_2673" data-name="Path 2673" d="M36.66,37.29a.289.289,0,0,1,.09.22.293.293,0,0,1-.09.21.27.27,0,0,1-.22.1.278.278,0,0,1-.22-.1.293.293,0,0,1-.09-.21.31.31,0,0,1,.31-.31.289.289,0,0,1,.22.09m-.47,3.11V38.29h.49v2c0,.08,0,.13.12.13h.12l.07.27a.7.7,0,0,1-.37.08.441.441,0,0,1-.32-.1.33.33,0,0,1-.11-.27" fill="#80bc00"/>
    <path id="Path_2674" data-name="Path 2674" d="M37.84,41.68h-.49V38.29h.49v.33a1,1,0,0,1,1.407-.146.947.947,0,0,1,.093.086,1.346,1.346,0,0,1,.27.92,1.37,1.37,0,0,1-.29.94,1,1,0,0,1-.8.33,1.774,1.774,0,0,1-.39-.05,1.11,1.11,0,0,1-.29-.14Zm0-2.37v.82a.9.9,0,0,0,.26.16.938.938,0,0,0,.31.06.651.651,0,0,0,.53-.19,1.053,1.053,0,0,0,.15-.65,1.124,1.124,0,0,0-.14-.64.558.558,0,0,0-.46-.18.6.6,0,0,0-.48.2.643.643,0,0,0-.17.42" fill="#80bc00"/>
    <path id="Path_2675" data-name="Path 2675" d="M40.82,40.75c-.52,0-.78-.23-.78-.7a.741.741,0,0,1,.37-.69,1.466,1.466,0,0,1,.71-.15h.4v-.2a.321.321,0,0,0-.13-.28,1,1,0,0,0-.47-.08,2,2,0,0,0-.71.13l.09-.4a2.149,2.149,0,0,1,.81-.13.758.758,0,0,1,.9.9v1.13c0,.08,0,.13.12.13h.13l.05.27a.752.752,0,0,1-.37.08.477.477,0,0,1-.31-.09.312.312,0,0,1-.11-.26.751.751,0,0,1-.7.34m.7-.93v-.23h-.46a.693.693,0,0,0-.36.1.391.391,0,0,0-.14.33q0,.36.42.36a.519.519,0,0,0,.38-.15.493.493,0,0,0,.16-.41" fill="#80bc00"/>
    <path id="Path_2676" data-name="Path 2676" d="M42.67,40.4V37.31h.49v3c0,.08,0,.13.11.13h.14l.05.27a.647.647,0,0,1-.36.08.441.441,0,0,1-.32-.1.3.3,0,0,1-.11-.29" fill="#80bc00"/>
    <path id="Path_2677" data-name="Path 2677" d="M45.29,39.46v1.26h-.52V37.31h1.09q1.14,0,1.14,1.08a1.109,1.109,0,0,1-.16.61.886.886,0,0,1-.44.37l.73,1.35h-.59l-.65-1.26Zm0-.45H46c.36,0,.54-.2.54-.62a.608.608,0,0,0-.16-.47.489.489,0,0,0-.38-.17h-.68Z" fill="#80bc00"/>
    <path id="Path_2678" data-name="Path 2678" d="M48.38,40.75a.788.788,0,0,1-.57-.17.9.9,0,0,1-.16-.62V38.29h.48v1.62a.576.576,0,0,0,.07.32.3.3,0,0,0,.24.08,1.1,1.1,0,0,0,.42-.11.739.739,0,0,0,.33-.24V38.29h.49v2a.12.12,0,0,0,.109.13.074.074,0,0,0,.021,0h.13l.05.27a.682.682,0,0,1-.36.08.441.441,0,0,1-.32-.1.3.3,0,0,1-.12-.25,1.353,1.353,0,0,1-.4.25,1,1,0,0,1-.41.08" fill="#80bc00"/>
    <path id="Path_2679" data-name="Path 2679" d="M50.82,40.72h-.49V38.29h.49v.32a.573.573,0,0,1,.19-.26.482.482,0,0,1,.31-.1.869.869,0,0,1,.41.13l-.09.41a1.289,1.289,0,0,0-.43-.08q-.21,0-.39.33Z" fill="#80bc00"/>
    <path id="Path_2680" data-name="Path 2680" d="M52.73,40.75c-.52,0-.78-.23-.78-.7a.741.741,0,0,1,.37-.69,1.469,1.469,0,0,1,.68-.15h.4v-.2a.321.321,0,0,0-.13-.28,1,1,0,0,0-.47-.08,2,2,0,0,0-.71.13l.09-.4a2.149,2.149,0,0,1,.81-.13.747.747,0,0,1,.89.9v1.13a.12.12,0,0,0,.109.13h.141l.06.27a.752.752,0,0,1-.37.08.477.477,0,0,1-.31-.09.312.312,0,0,1-.11-.26.749.749,0,0,1-.67.34m.7-.93v-.23h-.46a.693.693,0,0,0-.36.1.372.372,0,0,0-.14.33q0,.36.42.36a.519.519,0,0,0,.38-.15.53.53,0,0,0,.16-.41" fill="#80bc00"/>
    <path id="Path_2681" data-name="Path 2681" d="M54.57,40.4V37.31h.49v3c0,.08,0,.13.12.13h.13l.06.27a.647.647,0,0,1-.36.08.478.478,0,0,1-.33-.1.328.328,0,0,1-.11-.29" fill="#80bc00"/>
    <path id="Path_2682" data-name="Path 2682" d="M59.3,40.72h-.56l-.27-.78H57.19l-.27.78h-.49l1.16-3.41h.55Zm-1-1.22-.49-1.41-.48,1.41Z" fill="#80bc00"/>
    <path id="Path_2683" data-name="Path 2683" d="M60.34,40.72h-.49v-2h-.39l.08-.4h.31v-.34a.994.994,0,0,1,.14-.6.571.571,0,0,1,.49-.19,1.685,1.685,0,0,1,.55.08l-.09.4c-.29-.07-.47-.08-.52,0a.329.329,0,0,0-.08.26v.41h.52v.4h-.52Zm1.68,0h-.49v-2h-.39l.08-.4h.31v-.34a.942.942,0,0,1,.15-.6.539.539,0,0,1,.48-.19,1.742,1.742,0,0,1,.56.08l-.09.4c-.3-.07-.47-.08-.53,0a.369.369,0,0,0-.08.26v.41h.53v.4H62Z" fill="#80bc00"/>
    <path id="Path_2684" data-name="Path 2684" d="M63.59,40.75c-.52,0-.78-.23-.78-.7a.74.74,0,0,1,.38-.69,1.466,1.466,0,0,1,.71-.15h.39v-.2a.3.3,0,0,0-.13-.28,1,1,0,0,0-.47-.08,2,2,0,0,0-.7.13l.08-.4a2.245,2.245,0,0,1,.82-.13.76.76,0,0,1,.892.6.776.776,0,0,1,0,.3v1.13a.12.12,0,0,0,.109.13H65l.06.27a.766.766,0,0,1-.37.08.464.464,0,0,1-.31-.09.319.319,0,0,1-.12-.26.739.739,0,0,1-.67.34m.7-.93v-.23h-.45a.693.693,0,0,0-.36.1.37.37,0,0,0-.15.33c0,.24.14.36.43.36a.538.538,0,0,0,.38-.15.518.518,0,0,0,.15-.41" fill="#80bc00"/>
    <path id="Path_2685" data-name="Path 2685" d="M65.91,37.29a.289.289,0,0,1,.09.22.293.293,0,0,1-.09.21.27.27,0,0,1-.22.1.278.278,0,0,1-.22-.1.293.293,0,0,1-.09-.21.31.31,0,0,1,.31-.31.289.289,0,0,1,.22.09m-.47,3.11V38.29h.49v2c0,.08,0,.13.12.13h.12l.07.27a.7.7,0,0,1-.37.08.441.441,0,0,1-.32-.1.33.33,0,0,1-.11-.27" fill="#80bc00"/>
    <path id="Path_2686" data-name="Path 2686" d="M67.09,40.72H66.6V38.29h.49v.32a.511.511,0,0,1,.19-.26.47.47,0,0,1,.3-.1.817.817,0,0,1,.41.13l-.08.41a1.342,1.342,0,0,0-.43-.08q-.229,0-.39.33Z" fill="#80bc00"/>
    <path id="Path_2687" data-name="Path 2687" d="M69,40.35c.39,0,.58-.11.58-.35a.24.24,0,0,0-.1-.18,1.993,1.993,0,0,0-.45-.2,1.971,1.971,0,0,1-.49-.25.56.56,0,0,1-.22-.47.549.549,0,0,1,.25-.47,1.159,1.159,0,0,1,.68-.18,1.692,1.692,0,0,1,.72.13l-.08.4a1.383,1.383,0,0,0-.6-.13c-.32,0-.48.08-.48.25a.192.192,0,0,0,.09.16,3.053,3.053,0,0,0,.43.19,1.762,1.762,0,0,1,.5.25.649.649,0,0,1,.24.53.61.61,0,0,1-.3.53,1.337,1.337,0,0,1-.74.19,2.674,2.674,0,0,1-.78-.11l.11-.43a1.5,1.5,0,0,0,.32.1,1.438,1.438,0,0,0,.32.04" fill="#80bc00"/>
    <path id="Path_2688" data-name="Path 2688" d="M74,40.77a.869.869,0,0,1-.6-.35,1.059,1.059,0,0,1-.41.25,1.492,1.492,0,0,1-.52.1,1.22,1.22,0,0,1-.81-.24.84.84,0,0,1-.28-.68,1,1,0,0,1,.64-1,1.37,1.37,0,0,1-.29-.77.749.749,0,0,1,.23-.57.86.86,0,0,1,.64-.22,2.012,2.012,0,0,1,.77.15l-.08.44a1.5,1.5,0,0,0-.66-.14c-.27,0-.41.11-.41.33a1,1,0,0,0,.21.57,13.53,13.53,0,0,0,1,1.1,1.093,1.093,0,0,0,.12-.36,4.73,4.73,0,0,0,0-.63h.89l-.07.4H74a2.373,2.373,0,0,1-.07.51,2.005,2.005,0,0,1-.18.44,1.06,1.06,0,0,0,.27.26.5.5,0,0,0,.42,0l-.07.41a1.349,1.349,0,0,1-.37,0m-2.13-1c0,.38.2.58.62.58a.929.929,0,0,0,.34-.08.7.7,0,0,0,.27-.18,12.939,12.939,0,0,1-.86-1,.7.7,0,0,0-.33.7Z" fill="#80bc00"/>
    <path id="Path_2689" data-name="Path 2689" d="M78.49,40.72H78V39.19H76.48v1.53H76V37.31h.52v1.43H78V37.31h.52Z" fill="#80bc00"/>
    <path id="Path_2690" data-name="Path 2690" d="M81.44,39.5c0,.83-.39,1.25-1.18,1.25s-1.18-.42-1.18-1.25.4-1.25,1.18-1.25,1.18.41,1.18,1.25m-1.19.85a.67.67,0,0,0,.52-.18,1.067,1.067,0,0,0,.15-.65,1.162,1.162,0,0,0-.15-.67.749.749,0,0,0-1,0,1,1,0,0,0-.16.66,1.069,1.069,0,0,0,.15.66.591.591,0,0,0,.49.18" fill="#80bc00"/>
    <path id="Path_2691" data-name="Path 2691" d="M82.72,40.75a.761.761,0,0,1-.56-.17.878.878,0,0,1-.16-.57V38.29h.49v1.62a.6.6,0,0,0,.06.32.322.322,0,0,0,.25.08,1.1,1.1,0,0,0,.42-.11.739.739,0,0,0,.33-.24V38.29H84v2c0,.08,0,.13.12.13h.14v.27a.682.682,0,0,1-.36.08.478.478,0,0,1-.33-.1.332.332,0,0,1-.11-.25,1.5,1.5,0,0,1-.4.25,1.023,1.023,0,0,1-.34.08" fill="#80bc00"/>
    <path id="Path_2692" data-name="Path 2692" d="M85.34,40.35c.39,0,.58-.11.58-.35a.212.212,0,0,0-.1-.18,2.155,2.155,0,0,0-.44-.2,1.815,1.815,0,0,1-.49-.25.57.57,0,0,1-.23-.47.56.56,0,0,1,.26-.47,1.12,1.12,0,0,1,.68-.18,1.742,1.742,0,0,1,.72.13l-.09.4a1.337,1.337,0,0,0-.59-.13c-.32,0-.49.08-.49.25a.192.192,0,0,0,.09.16l.44.19a2.127,2.127,0,0,1,.5.25.671.671,0,0,1,.23.53.61.61,0,0,1-.3.53,1.3,1.3,0,0,1-.73.19,2.674,2.674,0,0,1-.79-.11l.11-.43a1.7,1.7,0,0,0,.32.1,1.438,1.438,0,0,0,.32.04" fill="#80bc00"/>
    <path id="Path_2693" data-name="Path 2693" d="M87.38,37.29a.328.328,0,0,1,.08.22.32.32,0,0,1-.08.21.29.29,0,0,1-.409.031.3.3,0,0,1-.031-.031.257.257,0,0,1-.1-.21.278.278,0,0,1,.1-.22.311.311,0,0,1,.438,0l0,0m-.47,3.11V38.29h.49v2c0,.08,0,.13.11.13h.13l.06.27a.682.682,0,0,1-.36.08.448.448,0,0,1-.33-.1.321.321,0,0,1-.1-.27" fill="#80bc00"/>
    <path id="Path_2694" data-name="Path 2694" d="M89.65,40.4V39.08a.583.583,0,0,0-.06-.31.334.334,0,0,0-.24-.08,1.264,1.264,0,0,0-.41.1,1.525,1.525,0,0,0-.39.25v1.68h-.48V38.29h.48v.32a1.569,1.569,0,0,1,.42-.26,1.2,1.2,0,0,1,.45-.1.739.739,0,0,1,.56.17.9.9,0,0,1,.16.62v1.24c0,.08,0,.13.11.13h.13l.06.27a.683.683,0,0,1-.36.08.493.493,0,0,1-.32-.09.309.309,0,0,1-.11-.27" fill="#80bc00"/>
    <path id="Path_2695" data-name="Path 2695" d="M92.49,40.67v-.21a1.012,1.012,0,0,1-.33.23,1.175,1.175,0,0,1-.42.06c-.67,0-1-.42-1-1.25A1.091,1.091,0,0,1,92,38.25a4.109,4.109,0,0,1,1,.12v2.19a1.1,1.1,0,0,1-.41,1,1.772,1.772,0,0,1-.82.14,2.324,2.324,0,0,1-1-.2l.09-.41a1.791,1.791,0,0,0,.86.21,1,1,0,0,0,.62-.14.642.642,0,0,0,.15-.49m0-1.12v-.84a2.334,2.334,0,0,0-.54-.06c-.46,0-.7.27-.7.81a1.269,1.269,0,0,0,.14.69.521.521,0,0,0,.47.2c.42,0,.63-.27.63-.8" fill="#80bc00"/>
  </g>
</svg>
