<svg xmlns="http://www.w3.org/2000/svg" width="154.38" height="47.38" viewBox="0 0 154.38 47.38">
  <g id="الموارد_البشرية" data-name="الموارد البشرية" transform="translate(0)">
    <path id="Path_2696" data-name="Path 2696" d="M2.25,27a.661.661,0,0,0,.745-.563.689.689,0,0,0-.683-.779l-.032,0a.66.66,0,1,0-.162,1.31.627.627,0,0,0,.162,0Z" fill="#158285"/>
    <path id="Path_2697" data-name="Path 2697" d="M4.18,27a.66.66,0,0,0,.717-.6q0-.031,0-.063a.67.67,0,0,0-.688-.652l-.032,0A.66.66,0,1,0,4.018,27a.627.627,0,0,0,.162,0" fill="#158285"/>
    <path id="Path_2698" data-name="Path 2698" d="M5.88,34.17a.679.679,0,0,0-.728.628c0,.011,0,.021,0,.032a.66.66,0,0,0,.656.664.6.6,0,0,0,.074,0,.659.659,0,0,0,.726-.586.612.612,0,0,0,0-.074.68.68,0,0,0-.7-.662l-.032,0" fill="#158285"/>
    <path id="Path_2699" data-name="Path 2699" d="M7.83,34.17a.669.669,0,0,0-.718.618c0,.014,0,.028,0,.042a.66.66,0,0,0,.657.663l.063,0a.659.659,0,0,0,.726-.586.612.612,0,0,0,0-.074.68.68,0,0,0-.7-.662l-.032,0" fill="#158285"/>
    <path id="Path_2700" data-name="Path 2700" d="M12.35,30.56a1.36,1.36,0,0,1,1.233-1.476,1.494,1.494,0,0,1,.177,0,3.273,3.273,0,0,1,1.41.39l.38-1.07a4.983,4.983,0,0,0-1.88-.4,2.25,2.25,0,0,0-2.43,2.054,2.36,2.36,0,0,0,0,.376,5.285,5.285,0,0,0,.36,1.72H9.15V28H8v4.1H4.86V28H3A2.68,2.68,0,0,0,.019,30.341,2.534,2.534,0,0,0,0,30.63a2.59,2.59,0,0,0,2.56,2.62,2.511,2.511,0,0,0,.26-.01H15.76V32.1H12.87a2.886,2.886,0,0,1-.52-1.54M3.7,32.08h-1a1.49,1.49,0,0,1-1.624-1.343c0-.036,0-.071-.006-.107a1.491,1.491,0,0,1,1.493-1.487c.046,0,.092,0,.137.007h1Z" fill="#158285"/>
    <path id="Path_2701" data-name="Path 2701" d="M26.09,27.2a.66.66,0,0,0,.717-.6q0-.031,0-.063a.67.67,0,0,0-.678-.662l-.042,0a.679.679,0,0,0-.728.628c0,.011,0,.021,0,.032a.66.66,0,0,0,.656.664.6.6,0,0,0,.074,0" fill="#158285"/>
    <path id="Path_2702" data-name="Path 2702" d="M28,27.2a.66.66,0,0,0,.717-.6q0-.031,0-.063a.67.67,0,0,0-.678-.662l-.042,0a.679.679,0,0,0-.728.628c0,.011,0,.021,0,.032a.66.66,0,0,0,.656.664.6.6,0,0,0,.074,0" fill="#158285"/>
    <path id="Path_2703" data-name="Path 2703" d="M33.26,27.88a4,4,0,0,0-1.91.55l.41,1.06a2.625,2.625,0,0,1,1.43-.43c1.41,0,1.68,1.64,2.46,3H29.74V28H28.61v4.1H25.47V30.7A2.54,2.54,0,0,0,23.2,27.913a2.629,2.629,0,0,0-.294-.013,2.54,2.54,0,0,0-2.583,2.5,2.567,2.567,0,0,0,.013.3c0,1-.47,1.46-1.4,1.46h-.8v-6.2H17v7.38h2a2,2,0,0,0,1.9-.84,2.371,2.371,0,0,0,2.07.84h14.2V32.15c-1.09-.55-1.12-4.27-3.91-4.27m-8.94,4.2H22.91A1.3,1.3,0,0,1,21.5,30.9a1.326,1.326,0,0,1,0-.252,1.43,1.43,0,0,1,1.261-1.581,1.229,1.229,0,0,1,.149-.009A1.43,1.43,0,0,1,24.329,30.5a1.229,1.229,0,0,1-.009.149Z" fill="#158285"/>
    <path id="Path_2704" data-name="Path 2704" d="M34,34.17a.7.7,0,0,0-.749.647v.013a.69.69,0,0,0,.7.683l.053,0a.669.669,0,0,0,.718-.618c0-.021,0-.041,0-.062a.661.661,0,0,0-.657-.663l-.063,0" fill="#158285"/>
    <path id="Path_2705" data-name="Path 2705" d="M42.71,32.08H38.6v1.18h5.27V25.88H42.71Z" fill="#158285"/>
    <rect id="Rectangle_2743" data-name="Rectangle 2743" width="1.16" height="4.86" transform="translate(39.82 26.61)" fill="#158285"/>
    <rect id="Rectangle_2744" data-name="Rectangle 2744" width="1.16" height="7.38" transform="translate(45.36 25.88)" fill="#158285"/>
    <path id="Path_2706" data-name="Path 2706" d="M50.63,26.31a.73.73,0,0,0,1.45,0,.67.67,0,0,0-.688-.652l-.032,0a.65.65,0,0,0-.725.565.606.606,0,0,0,0,.085" fill="#158285"/>
    <path id="Path_2707" data-name="Path 2707" d="M52.56,26.31a.73.73,0,0,0,1.45,0,.67.67,0,0,0-.688-.652l-.032,0a.65.65,0,0,0-.725.565.606.606,0,0,0,0,.085" fill="#158285"/>
    <path id="Path_2708" data-name="Path 2708" d="M55,34.17a.679.679,0,0,0-.728.628c0,.011,0,.021,0,.032a.73.73,0,0,0,1.46,0,.68.68,0,0,0-.7-.662l-.032,0" fill="#158285"/>
    <path id="Path_2709" data-name="Path 2709" d="M56.92,34.17a.679.679,0,0,0-.728.628c0,.011,0,.021,0,.032a.73.73,0,0,0,1.46,0,.68.68,0,0,0-.7-.662l-.032,0" fill="#158285"/>
    <path id="Path_2710" data-name="Path 2710" d="M67.25,27.22a.67.67,0,0,0,0-1.34.7.7,0,0,0-.749.647v.013a.69.69,0,0,0,.7.683l.053,0" fill="#158285"/>
    <path id="Path_2711" data-name="Path 2711" d="M71.13,25.88a.669.669,0,0,0-.718.618c0,.014,0,.028,0,.042a.73.73,0,0,0,1.45,0,.68.68,0,0,0-.7-.662l-.032,0" fill="#158285"/>
    <path id="Path_2712" data-name="Path 2712" d="M72.45,26.54a.73.73,0,1,0,.64-.64.73.73,0,0,0-.64.64" fill="#158285"/>
    <path id="Path_2713" data-name="Path 2713" d="M77.51,32.08H75.08V28H73.93v4.09h-3.5V28H69.27v4.09H66V30.67a2.54,2.54,0,0,0-2.277-2.778,2.393,2.393,0,0,0-.293-.012,2.54,2.54,0,0,0-2.582,2.5,2.385,2.385,0,0,0,.012.293c0,1-.47,1.45-1.4,1.45H58.24V28H57.08v4.1H54V28H52.06a2.68,2.68,0,0,0-2.981,2.341,2.535,2.535,0,0,0-.019.289A2.58,2.58,0,0,0,51.6,33.25c.091,0,.181,0,.271-.01h7.49a2,2,0,0,0,1.91-.84,2.338,2.338,0,0,0,2.07.84H78.62V25.88H77.47v6.2Zm-24.7,0h-1a1.49,1.49,0,0,1-1.624-1.343c0-.036-.005-.071-.006-.107a1.491,1.491,0,0,1,1.493-1.487c.046,0,.092,0,.137.007h1Zm12,0H63.39A1.3,1.3,0,0,1,62,30.881a1.273,1.273,0,0,1,0-.231,1.43,1.43,0,0,1,1.261-1.581,1.229,1.229,0,0,1,.149-.009A1.43,1.43,0,0,1,64.829,30.5a1.23,1.23,0,0,1-.009.149Z" fill="#158285"/>
    <rect id="Rectangle_2745" data-name="Rectangle 2745" width="1.16" height="7.38" transform="translate(80.15 25.88)" fill="#158285"/>
    <path id="Path_2714" data-name="Path 2714" d="M85.25,28a2.68,2.68,0,0,0-2.981,2.341,2.713,2.713,0,0,0-.019.3,2.59,2.59,0,0,0,2.56,2.62,2.521,2.521,0,0,0,.26-.01H86c0,.63-.48.84-1.11.84a5.164,5.164,0,0,1-1.52-.25l.22,1.23a4.707,4.707,0,0,0,1.34.18c1.48,0,2.23-.55,2.23-2.3V28ZM86,30.61h0v1.47H85a1.5,1.5,0,0,1-1.634-1.353c0-.032,0-.065-.006-.1a1.491,1.491,0,0,1,1.492-1.488c.05,0,.1,0,.148.008h1Z" fill="#158285"/>
    <path id="Path_2715" data-name="Path 2715" d="M60.6,18.82a2.2,2.2,0,0,0-2.48-2.52h-.81v1.16h1a1.09,1.09,0,0,1,1.21,1.25v1.68H56.28v1.16h4.3V18.82Z" fill="#158285"/>
    <path id="Path_2716" data-name="Path 2716" d="M63.53,21.34v-5H62.37v5.22c0,.73-.34,1-.82,1a7.121,7.121,0,0,1-.73-.05l-.11,1a3.447,3.447,0,0,0,.73.09c1.22-.03,2.09-.53,2.09-2.26" fill="#158285"/>
    <rect id="Rectangle_2746" data-name="Rectangle 2746" width="1.16" height="7.38" transform="translate(64.87 14.19)" fill="#158285"/>
    <path id="Path_2717" data-name="Path 2717" d="M69.84,21.55h.88c0,.63-.47.84-1.11.84a5.164,5.164,0,0,1-1.52-.25l.23,1.22a3.018,3.018,0,0,0,1.11.18c1.38,0,2.36-.47,2.45-2h2.48a1.929,1.929,0,0,0,1.79-.84,2.35,2.35,0,0,0,2.07.84h6.13V14.17H83.19v6.2H80.78V19a2.53,2.53,0,0,0-2.256-2.777,2.577,2.577,0,0,0-.3-.013A2.529,2.529,0,0,0,75.65,19a1.26,1.26,0,0,1-1.043,1.445,1.289,1.289,0,0,1-.367.005H71.88V16.3H70a2.68,2.68,0,0,0-2.981,2.341,2.713,2.713,0,0,0-.019.3,2.57,2.57,0,0,0,2.515,2.624,2.709,2.709,0,0,0,.325-.014m7-2.59a1.4,1.4,0,1,1,2.775-.126A1.55,1.55,0,0,1,79.6,19v1.43H78.19A1.289,1.289,0,0,1,76.79,19Zm-8.68,0a1.491,1.491,0,0,1,1.492-1.488c.05,0,.1,0,.148.008h1v2.93h-1a1.47,1.47,0,0,1-1.63-1.29,1.432,1.432,0,0,1-.01-.16" fill="#158285"/>
    <rect id="Rectangle_2747" data-name="Rectangle 2747" width="1.16" height="7.38" transform="translate(85.84 14.19)" fill="#158285"/>
    <path id="Path_2718" data-name="Path 2718" d="M23.75,15.28a.67.67,0,0,0,.727-.607.471.471,0,0,0,0-.053.73.73,0,0,0-1.46,0,.661.661,0,0,0,.656.664.6.6,0,0,0,.074,0" fill="#158285"/>
    <path id="Path_2719" data-name="Path 2719" d="M21.82,15.28a.67.67,0,0,0,.727-.607.471.471,0,0,0,0-.053.73.73,0,0,0-1.46,0,.661.661,0,0,0,.656.664.6.6,0,0,0,.074,0" fill="#158285"/>
    <path id="Path_2720" data-name="Path 2720" d="M22.39,21.55H28.7V16.3H27.54v4.09H24.41V16.3H22.52a2.68,2.68,0,0,0-2.981,2.341,2.712,2.712,0,0,0-.019.3,2.62,2.62,0,0,0,2.618,2.622q.126,0,.252-.012m-1.73-2.61a1.491,1.491,0,0,1,1.492-1.488c.05,0,.1,0,.148.008h1v2.93h-1a1.48,1.48,0,0,1-1.631-1.311c-.005-.046-.008-.093-.009-.139" fill="#158285"/>
    <path id="Path_2721" data-name="Path 2721" d="M39,14.67a.62.62,0,0,0,.677-.557q0-.031,0-.063a.69.69,0,0,0-1.37,0,.64.64,0,0,0,.658.622l.032,0" fill="#158285"/>
    <path id="Path_2722" data-name="Path 2722" d="M38.08,16.12a.639.639,0,1,0-.074,0,.612.612,0,0,0,.074,0" fill="#158285"/>
    <path id="Path_2723" data-name="Path 2723" d="M39.26,15.48a.619.619,0,0,0,.7.64.65.65,0,0,0,.7-.6c0-.014,0-.028,0-.042a.7.7,0,0,0-1.4,0" fill="#158285"/>
    <path id="Path_2724" data-name="Path 2724" d="M51,14.19H49.79v6.2H47.52V16.3H46.36v4.09H43.23V16.3H42.07v4.09H39.64V17H38.48v3.36H36.37V17H35.21v3.36h-3v-4.2H31.08v5.33c0,.73-.34,1-.82,1a6.928,6.928,0,0,1-.72-.05l-.12,1a3.447,3.447,0,0,0,.73.09,1.821,1.821,0,0,0,2.09-2H50.93V14.19Z" fill="#158285"/>
    <rect id="Rectangle_2748" data-name="Rectangle 2748" width="1.16" height="7.38" transform="translate(52.45 14.19)" fill="#158285"/>
    <path id="Path_2725" data-name="Path 2725" d="M26.11,23.14a.68.68,0,0,0-.7-.662l-.032,0a.669.669,0,0,0-.718.618c0,.014,0,.028,0,.042a.73.73,0,0,0,1.45,0" fill="#158285"/>
    <path id="Path_2726" data-name="Path 2726" d="M28,23.14a.68.68,0,0,0-.7-.662l-.032,0a.669.669,0,0,0-.718.618c0,.014,0,.028,0,.042a.73.73,0,0,0,1.45,0" fill="#158285"/>
    <path id="Path_2727" data-name="Path 2727" d="M44.8,22.48a.679.679,0,0,0-.728.628c0,.011,0,.021,0,.032a.73.73,0,1,0,.8-.657l-.067,0" fill="#158285"/>
    <path id="Path_2728" data-name="Path 2728" d="M117.86,12.26a6.047,6.047,0,0,0,.72.11,40.184,40.184,0,0,1,3.86-5.79A41.975,41.975,0,0,0,110.21,0Zm19.73,15.53L125,23.7l14.8,23.68a40.551,40.551,0,0,0-2.21-19.59" fill="#158285"/>
    <path id="Path_2729" data-name="Path 2729" d="M117,18.66C122.4,9.94,129.51,3.56,139.79,0L125,23.7,110.2,47.38c-1.31-10.8,1.3-19.98,6.8-28.72" fill="#f7941d"/>
    <path id="Path_2730" data-name="Path 2730" d="M95.61,14.14l15.73,5.11c1.66-.9,3.36-1.74,5.13-2.49.23-.57.48-1.12.73-1.66.43-.93.89-1.84,1.36-2.73a48,48,0,0,0-22.95,1.77m43.05,5.14L125,23.7l29.38,9.56a47.486,47.486,0,0,0-15.72-13.98" fill="#2bb574"/>
    <path id="Path_2731" data-name="Path 2731" d="M95.61,33.26l16.8-5.45A50.745,50.745,0,0,1,114.52,23a39.781,39.781,0,0,1,2-6.22A48.068,48.068,0,0,0,95.61,33.26m36.55-21L125,23.7l29.38-9.56a47.929,47.929,0,0,0-22.22-1.88" fill="#fcb614"/>
  </g>
</svg>
