<?xml version="1.0" encoding="utf-8"?>
<!-- Generator: Adobe Illustrator 26.0.3, SVG Export Plug-In . SVG Version: 6.00 Build 0)  -->
<svg version="1.1" id="Layer_1" xmlns="http://www.w3.org/2000/svg" xmlns:xlink="http://www.w3.org/1999/xlink" x="0px" y="0px"
	 viewBox="0 0 482.57 271.32" style="enable-background:new 0 0 482.57 271.32;" xml:space="preserve">
<style type="text/css">
	.st0{enable-background:new    ;}
	.st1{fill:#0F0A67;}
	.st2{fill:#EFEEFE;}
	.st3{fill:#FB9C98;}
	.st4{fill:#F26D6D;}
	.st5{fill:#653087;}
	.st6{fill:#8754AF;}
	.st7{fill:#D3D5FC;}
	.st8{fill:#BBB4F8;}
	.st9{fill:#FFFFFF;}
	.st10{clip-path:url(#SVGID_00000154405273385064750020000012073559631606708876_);fill:#FB9C98;}
	.st11{fill:none;stroke:#2B2E4A;stroke-width:1.921;stroke-linecap:round;stroke-miterlimit:10;}
	.st12{fill:none;stroke:#F26D6D;stroke-width:3.1578;stroke-miterlimit:10;}
	.st13{fill:#FFB6B6;}
	.st14{fill:#FDC854;}
	.st15{fill:#F89F4F;}
	.st16{fill:none;stroke:#F89F4F;stroke-width:3.6023;stroke-miterlimit:10;}
</style>
<g id="Right" transform="translate(-1001.92 -2131)">
	<g class="st0">
		<path class="st1" d="M1147.53,2229.96c0,1.35,0.47,2.44,1.41,3.28c0.94,0.83,2.23,1.25,3.86,1.25c0.47,0,0.82,0.2,1.04,0.61
			c0.22,0.41,0.33,1.07,0.33,1.98c0,1.1-0.03,1.82-0.09,2.17c-0.06,0.35-0.2,0.52-0.42,0.52c-1.01,0-2.07-0.13-3.18-0.4
			c-1.12-0.27-2.14-0.75-3.09-1.44c-0.22,1.85-0.7,3.42-1.44,4.71c-0.74,1.29-1.68,2.33-2.83,3.13c-1.15,0.8-2.44,1.37-3.86,1.72
			c-1.43,0.35-2.95,0.52-4.55,0.52c-1.7,0-3.31-0.2-4.83-0.61c-1.52-0.41-2.89-1.06-4.1-1.96c-1.21-0.9-2.16-2.09-2.85-3.58
			c-0.69-1.49-1.04-3.24-1.04-5.25c0-1.23,0.21-2.7,0.64-4.43c0.42-1.73,1.06-3.39,1.91-4.99l5.7,2.07
			c-0.31,0.82-0.57,1.53-0.78,2.14c-0.2,0.61-0.37,1.19-0.49,1.74c-0.13,0.55-0.22,1.09-0.28,1.63c-0.06,0.53-0.09,1.08-0.09,1.65
			c0,1.19,0.18,2.18,0.54,2.97c0.36,0.79,0.86,1.43,1.51,1.93c0.64,0.5,1.36,0.85,2.14,1.04c0.79,0.19,1.57,0.28,2.36,0.28
			c2.07,0,3.6-0.53,4.57-1.6c0.97-1.07,1.46-2.72,1.46-4.95v-31.01h6.46V2229.96z"/>
		<path class="st1" d="M1153.66,2239.76c-0.79,0-1.39-0.21-1.81-0.64c-0.42-0.42-0.64-1.04-0.64-1.86c0-0.91,0.14-1.6,0.42-2.07
			c0.28-0.47,0.68-0.71,1.18-0.71h3.82c0.31,0,0.64-0.01,0.99-0.02c0.35-0.02,0.71-0.05,1.08-0.12c-0.53-0.47-0.97-1.04-1.32-1.72
			c-0.35-0.68-0.52-1.48-0.52-2.43c0-0.66,0.15-1.31,0.45-1.96c0.3-0.64,0.75-1.23,1.37-1.77c0.61-0.53,1.38-0.96,2.31-1.27
			c0.93-0.31,2-0.47,3.23-0.47c1.32,0,2.45,0.16,3.39,0.47c0.94,0.31,1.71,0.72,2.31,1.22c0.6,0.5,1.04,1.08,1.32,1.72
			c0.28,0.64,0.42,1.3,0.42,1.96c0,0.88-0.19,1.68-0.57,2.4c-0.38,0.72-0.93,1.38-1.65,1.98h1.41c0.75,0,1.38-0.14,1.88-0.42
			c0.5-0.28,0.9-0.65,1.2-1.11c0.3-0.45,0.5-0.95,0.61-1.48c0.11-0.53,0.16-1.05,0.16-1.56c0-1.04-0.2-2.02-0.59-2.95
			c-0.39-0.93-0.99-1.73-1.79-2.4c-0.8-0.68-1.81-1.21-3.04-1.6c-1.23-0.39-2.69-0.59-4.38-0.59c-1.51,0-2.87,0.15-4.1,0.45
			c-1.23,0.3-2.31,0.65-3.25,1.06l-1.93-4.52c1.41-0.72,3.01-1.3,4.78-1.72c1.77-0.42,3.67-0.64,5.68-0.64
			c1.92,0,3.78,0.24,5.58,0.71c1.81,0.47,3.45,1.23,4.92,2.26c1.48,1.04,2.64,2.38,3.49,4.03c0.85,1.65,1.27,3.59,1.27,5.82
			c0,2.04-0.29,3.73-0.87,5.07c-0.58,1.34-1.37,2.37-2.38,3.11c-1.01,0.74-2.12,1.26-3.35,1.56c-1.23,0.3-2.61,0.45-4.15,0.45
			c-1.19,0-2.36-0.11-3.51-0.33c-1.15-0.22-2.19-0.52-3.13-0.9c-1.07,0.31-2.07,0.56-2.99,0.73c-0.93,0.17-1.94,0.26-3.04,0.26
			H1153.66z M1161.9,2230.76c0,0.47,0.18,0.94,0.54,1.39c0.36,0.46,0.95,0.86,1.77,1.2c1.6-0.6,2.4-1.44,2.4-2.54
			c0-0.69-0.23-1.22-0.68-1.6c-0.46-0.38-1.03-0.57-1.72-0.57c-0.69,0-1.25,0.2-1.67,0.59
			C1162.12,2229.62,1161.9,2230.13,1161.9,2230.76z"/>
	</g>
	<g class="st0">
		<path class="st1" d="M1016.39,2306.47c-1.76,0-3.35-0.17-4.76-0.52c-1.41-0.35-2.62-0.88-3.6-1.6c-0.99-0.72-1.74-1.63-2.26-2.71
			s-0.78-2.38-0.78-3.89c0-1.16,0.17-2.25,0.52-3.25c0.35-1.01,0.88-1.89,1.6-2.64c0.72-0.75,1.64-1.34,2.76-1.77
			c1.11-0.42,2.43-0.64,3.93-0.64h3.91c1.23,0,2.21-0.12,2.97-0.38c0.75-0.25,1.33-0.6,1.72-1.04c0.39-0.44,0.65-0.97,0.78-1.58
			c0.12-0.61,0.19-1.3,0.19-2.05c0-1.89-0.61-3.31-1.84-4.29c-1.23-0.97-3.09-1.46-5.61-1.46c-0.63,0-1.4,0.06-2.31,0.19
			c-0.91,0.13-1.85,0.35-2.83,0.66l-1.37-4.81c1.41-0.53,2.79-0.9,4.12-1.11c1.33-0.2,2.51-0.31,3.51-0.31
			c2.36,0,4.35,0.29,5.98,0.87c1.63,0.58,2.96,1.38,3.98,2.4c1.02,1.02,1.77,2.23,2.24,3.63c0.47,1.4,0.71,2.9,0.71,4.5
			c0,1.89-0.25,3.47-0.75,4.76c-0.5,1.29-1.2,2.32-2.1,3.11c-0.9,0.79-1.95,1.34-3.16,1.67c-1.21,0.33-2.52,0.49-3.94,0.49h-4.67
			c-1.35,0-2.36,0.29-3.02,0.87c-0.66,0.58-0.99,1.37-0.99,2.38c0.03,1.07,0.49,1.87,1.37,2.4c0.88,0.53,2.15,0.8,3.82,0.8
			l0.33,5.28H1016.39z M1018.46,2300.16c0-0.88,0.29-1.6,0.87-2.17c0.58-0.57,1.31-0.85,2.19-0.85c0.85,0,1.56,0.28,2.12,0.85
			c0.57,0.57,0.85,1.29,0.85,2.17c0,0.88-0.28,1.61-0.85,2.19c-0.57,0.58-1.27,0.87-2.12,0.87c-0.88,0-1.61-0.28-2.19-0.85
			C1018.75,2301.81,1018.46,2301.07,1018.46,2300.16z"/>
		<path class="st1" d="M1046.69,2292.15c0,0.91-0.02,1.57-0.07,1.98c-0.05,0.41-0.12,0.61-0.21,0.61c-1.45,0-2.84-0.1-4.19-0.31
			c-1.35-0.2-2.57-0.58-3.65-1.13c-1.08-0.55-1.92-1.3-2.52-2.26c-0.6-0.96-0.9-2.13-0.9-3.51v-27.43h6.46v25.35
			c0,0.75,0.1,1.41,0.31,1.96c0.2,0.55,0.5,0.97,0.9,1.27c0.39,0.3,0.82,0.5,1.3,0.61c0.47,0.11,0.96,0.16,1.46,0.16
			c0.41,0,0.7,0.22,0.87,0.66C1046.6,2290.56,1046.69,2291.23,1046.69,2292.15z"/>
		<path class="st1" d="M1052.53,2289.46c0.44,0,0.78,0.22,1.01,0.66c0.24,0.44,0.35,1.16,0.35,2.17c0,0.82-0.06,1.43-0.16,1.84
			c-0.11,0.41-0.31,0.61-0.59,0.61h-6.97c-0.78,0-1.32-0.19-1.6-0.57c-0.28-0.38-0.42-1.07-0.42-2.07c0-0.82,0.12-1.46,0.35-1.93
			c0.24-0.47,0.59-0.71,1.06-0.71H1052.53z"/>
		<path class="st1" d="M1059.5,2289.46c0.44,0,0.78,0.22,1.01,0.66c0.24,0.44,0.35,1.16,0.35,2.17c0,0.82-0.06,1.43-0.16,1.84
			c-0.11,0.41-0.31,0.61-0.59,0.61h-6.97c-0.78,0-1.32-0.19-1.6-0.57c-0.28-0.38-0.42-1.07-0.42-2.07c0-0.82,0.12-1.46,0.35-1.93
			c0.24-0.47,0.59-0.71,1.06-0.71H1059.5z"/>
		<path class="st1" d="M1066.48,2289.46c0.44,0,0.78,0.22,1.01,0.66c0.24,0.44,0.35,1.16,0.35,2.17c0,0.82-0.06,1.43-0.16,1.84
			c-0.11,0.41-0.31,0.61-0.59,0.61h-6.97c-0.78,0-1.32-0.19-1.6-0.57c-0.28-0.38-0.42-1.07-0.42-2.07c0-0.82,0.12-1.46,0.35-1.93
			c0.24-0.47,0.59-0.71,1.06-0.71H1066.48z"/>
		<path class="st1" d="M1073.45,2289.46c0.44,0,0.78,0.22,1.01,0.66c0.24,0.44,0.35,1.16,0.35,2.17c0,0.82-0.06,1.43-0.16,1.84
			c-0.11,0.41-0.31,0.61-0.59,0.61h-6.97c-0.78,0-1.32-0.19-1.6-0.57c-0.28-0.38-0.42-1.07-0.42-2.07c0-0.82,0.12-1.46,0.35-1.93
			c0.24-0.47,0.59-0.71,1.06-0.71H1073.45z"/>
		<path class="st1" d="M1080.43,2289.46c0.44,0,0.78,0.22,1.01,0.66c0.24,0.44,0.35,1.16,0.35,2.17c0,0.82-0.06,1.43-0.16,1.84
			c-0.11,0.41-0.31,0.61-0.59,0.61h-6.97c-0.78,0-1.32-0.19-1.6-0.57c-0.28-0.38-0.42-1.07-0.42-2.07c0-0.82,0.12-1.46,0.35-1.93
			c0.24-0.47,0.59-0.71,1.06-0.71H1080.43z"/>
		<path class="st1" d="M1087.4,2289.46c0.44,0,0.78,0.22,1.01,0.66c0.24,0.44,0.35,1.16,0.35,2.17c0,0.82-0.06,1.43-0.16,1.84
			c-0.11,0.41-0.31,0.61-0.59,0.61h-6.97c-0.78,0-1.32-0.19-1.6-0.57c-0.28-0.38-0.42-1.07-0.42-2.07c0-0.82,0.12-1.46,0.35-1.93
			c0.24-0.47,0.59-0.71,1.06-0.71H1087.4z"/>
		<path class="st1" d="M1094.38,2289.46c0.44,0,0.78,0.22,1.01,0.66c0.24,0.44,0.35,1.16,0.35,2.17c0,0.82-0.06,1.43-0.16,1.84
			c-0.11,0.41-0.31,0.61-0.59,0.61h-6.97c-0.78,0-1.32-0.19-1.6-0.57c-0.28-0.38-0.42-1.07-0.42-2.07c0-0.82,0.12-1.46,0.35-1.93
			c0.24-0.47,0.59-0.71,1.06-0.71H1094.38z"/>
		<path class="st1" d="M1101.35,2289.46c0.44,0,0.78,0.22,1.01,0.66c0.24,0.44,0.35,1.16,0.35,2.17c0,0.82-0.06,1.43-0.16,1.84
			c-0.11,0.41-0.31,0.61-0.59,0.61h-6.97c-0.78,0-1.32-0.19-1.6-0.57c-0.28-0.38-0.42-1.07-0.42-2.07c0-0.82,0.12-1.46,0.35-1.93
			c0.24-0.47,0.59-0.71,1.06-0.71H1101.35z"/>
		<path class="st1" d="M1108.32,2289.46c0.44,0,0.78,0.22,1.01,0.66c0.24,0.44,0.35,1.16,0.35,2.17c0,0.82-0.06,1.43-0.16,1.84
			c-0.11,0.41-0.31,0.61-0.59,0.61h-6.97c-0.78,0-1.32-0.19-1.6-0.57c-0.28-0.38-0.42-1.07-0.42-2.07c0-0.82,0.12-1.46,0.35-1.93
			c0.24-0.47,0.59-0.71,1.06-0.71H1108.32z"/>
		<path class="st1" d="M1115.3,2289.46c0.44,0,0.78,0.22,1.01,0.66c0.24,0.44,0.35,1.16,0.35,2.17c0,0.82-0.06,1.43-0.16,1.84
			c-0.11,0.41-0.31,0.61-0.59,0.61h-6.97c-0.78,0-1.32-0.19-1.6-0.57c-0.28-0.38-0.42-1.07-0.42-2.07c0-0.82,0.12-1.46,0.35-1.93
			c0.24-0.47,0.59-0.71,1.06-0.71H1115.3z"/>
		<path class="st1" d="M1122.27,2289.46c0.44,0,0.78,0.22,1.01,0.66c0.24,0.44,0.35,1.16,0.35,2.17c0,0.82-0.06,1.43-0.16,1.84
			c-0.11,0.41-0.31,0.61-0.59,0.61h-6.97c-0.78,0-1.32-0.19-1.6-0.57c-0.28-0.38-0.42-1.07-0.42-2.07c0-0.82,0.12-1.46,0.35-1.93
			c0.24-0.47,0.59-0.71,1.06-0.71H1122.27z"/>
		<path class="st1" d="M1133.86,2291.39c-1.01,1.32-2.53,2.26-4.57,2.83c-1.01,0.25-1.97,0.4-2.9,0.45
			c-0.93,0.05-2.02,0.07-3.28,0.07c-0.79,0-1.39-0.21-1.81-0.64c-0.42-0.42-0.64-1.04-0.64-1.86c0-0.91,0.14-1.6,0.42-2.07
			c0.28-0.47,0.68-0.71,1.18-0.71c1.29,0,2.3-0.03,3.04-0.09c0.74-0.06,1.41-0.27,2-0.61c0.38-0.22,0.69-0.52,0.94-0.9
			c0.25-0.38,0.45-0.79,0.59-1.23c0.14-0.44,0.24-0.9,0.28-1.37c0.05-0.47,0.07-0.91,0.07-1.32v-10.27h6.41v11.26
			c0,1.35,0.47,2.44,1.41,3.28c0.94,0.83,2.23,1.25,3.86,1.25c0.47,0,0.82,0.2,1.04,0.61c0.22,0.41,0.33,1.07,0.33,1.98
			c0,1.1-0.03,1.82-0.09,2.17c-0.06,0.35-0.2,0.52-0.42,0.52c-0.6,0-1.26-0.06-2-0.19c-0.74-0.12-1.48-0.32-2.21-0.59
			c-0.74-0.27-1.43-0.61-2.07-1.04C1134.8,2292.5,1134.27,2291.99,1133.86,2291.39z M1124.72,2265.71c0-0.97,0.31-1.77,0.94-2.4
			c0.63-0.63,1.44-0.94,2.45-0.94c0.97,0,1.77,0.31,2.38,0.94c0.61,0.63,0.92,1.43,0.92,2.4c0,1.01-0.31,1.82-0.92,2.45
			c-0.61,0.63-1.41,0.94-2.38,0.94c-1.01,0-1.82-0.31-2.45-0.94C1125.04,2267.53,1124.72,2266.71,1124.72,2265.71z M1133.06,2265.71
			c0-0.97,0.31-1.77,0.94-2.4c0.63-0.63,1.44-0.94,2.45-0.94c0.97,0,1.77,0.31,2.38,0.94c0.61,0.63,0.92,1.43,0.92,2.4
			c0,1.01-0.31,1.82-0.92,2.45c-0.61,0.63-1.41,0.94-2.38,0.94c-1.01,0-1.82-0.31-2.45-0.94
			C1133.38,2267.53,1133.06,2266.71,1133.06,2265.71z"/>
		<path class="st1" d="M1141.73,2294.74c-0.69,0-1.27-0.19-1.74-0.57c-0.47-0.38-0.71-1.02-0.71-1.93c0-0.66,0.11-1.29,0.33-1.89
			c0.22-0.6,0.64-0.9,1.27-0.9h9.71c1.23,0,2.22-0.12,2.99-0.38c0.77-0.25,1.34-0.6,1.72-1.06c0.38-0.45,0.63-0.98,0.75-1.58
			c0.13-0.6,0.19-1.27,0.19-2.03c0-1.89-0.61-3.31-1.84-4.29c-1.23-0.97-3.09-1.46-5.61-1.46c-0.63,0-1.41,0.06-2.33,0.19
			c-0.93,0.13-1.86,0.35-2.8,0.66l-1.37-4.81c1.41-0.53,2.8-0.9,4.15-1.11c1.35-0.2,2.51-0.31,3.49-0.31c2.29,0,4.26,0.28,5.91,0.85
			c1.65,0.57,3,1.37,4.05,2.43c1.05,1.05,1.81,2.27,2.26,3.65c0.46,1.38,0.68,2.87,0.68,4.48c0,0.91-0.08,1.81-0.24,2.69
			c0.41,0.63,1,1.13,1.77,1.51c0.77,0.38,1.59,0.57,2.47,0.57c0.38,0,0.65,0.17,0.82,0.52c0.17,0.35,0.26,1.05,0.26,2.12
			c0,0.6-0.01,1.07-0.02,1.41c-0.02,0.35-0.03,0.59-0.05,0.73c-0.02,0.14-0.04,0.26-0.07,0.35c-0.03,0.09-0.06,0.14-0.09,0.14
			c-0.5,0-1.05-0.04-1.65-0.12c-0.6-0.08-1.22-0.23-1.86-0.45c-0.64-0.22-1.27-0.53-1.88-0.94c-0.61-0.41-1.15-0.94-1.63-1.6
			c-1.79,2.07-4.38,3.11-7.78,3.11H1141.73z"/>
		<path class="st1" d="M1167.7,2294.74c-0.79,0-1.39-0.21-1.81-0.64c-0.42-0.42-0.64-1.04-0.64-1.86c0-0.82,0.13-1.48,0.4-2
			c0.27-0.52,0.67-0.78,1.2-0.78c1.29,0,2.31-0.03,3.06-0.09c0.75-0.06,1.41-0.27,1.98-0.61c0.38-0.25,0.69-0.56,0.94-0.92
			c0.25-0.36,0.45-0.76,0.59-1.2c0.14-0.44,0.24-0.9,0.28-1.37c0.05-0.47,0.07-0.91,0.07-1.32v-10.27h6.41v11.59
			c0,2.36-0.49,4.28-1.46,5.77c-0.97,1.49-2.59,2.55-4.85,3.18c-0.97,0.25-1.93,0.4-2.87,0.45
			C1170.05,2294.71,1168.95,2294.74,1167.7,2294.74z M1168.59,2265.71c0-0.97,0.31-1.77,0.94-2.4c0.63-0.63,1.44-0.94,2.45-0.94
			c0.97,0,1.77,0.31,2.38,0.94c0.61,0.63,0.92,1.43,0.92,2.4c0,1.01-0.31,1.82-0.92,2.45c-0.61,0.63-1.41,0.94-2.38,0.94
			c-1.01,0-1.82-0.31-2.45-0.94C1168.91,2267.53,1168.59,2266.71,1168.59,2265.71z M1176.93,2265.71c0-0.97,0.31-1.77,0.94-2.4
			c0.63-0.63,1.44-0.94,2.45-0.94c0.97,0,1.77,0.31,2.38,0.94c0.61,0.63,0.92,1.43,0.92,2.4c0,1.01-0.31,1.82-0.92,2.45
			c-0.61,0.63-1.41,0.94-2.38,0.94c-1.01,0-1.82-0.31-2.45-0.94C1177.25,2267.53,1176.93,2266.71,1176.93,2265.71z"/>
	</g>
	<g class="st0">
		<path class="st1" d="M1013.42,2321.02c-0.63,0-1.23,0.06-1.81,0.19c-0.58,0.13-1.09,0.34-1.53,0.64c-0.44,0.3-0.79,0.68-1.04,1.16
			c-0.25,0.47-0.38,1.07-0.38,1.79c0,1.19,0.46,2.28,1.37,3.25c0.91,0.97,2.12,2.01,3.63,3.11c1.29,0.97,2.18,1.96,2.69,2.97
			c0.5,1.01,0.75,2.29,0.75,3.86v1.23h-6.36v-0.75c0-0.44-0.04-0.84-0.12-1.2c-0.08-0.36-0.24-0.71-0.47-1.06
			c-0.24-0.35-0.55-0.7-0.94-1.06c-0.39-0.36-0.89-0.76-1.48-1.2l-1.74-1.27c-1.38-1.01-2.4-2.14-3.06-3.42
			c-0.66-1.27-0.99-2.82-0.99-4.64c0-1.7,0.31-3.13,0.92-4.29c0.61-1.16,1.43-2.1,2.45-2.8c1.02-0.71,2.18-1.22,3.46-1.53
			c1.29-0.31,2.64-0.47,4.05-0.47c1.7,0,3.37,0.21,5.02,0.64s3.2,1.08,4.64,1.96l-1.93,4.99c-1.38-0.75-2.66-1.29-3.84-1.6
			C1015.52,2321.17,1014.42,2321.02,1013.42,2321.02z M1017.47,2349.71h-7.35v-7.07h7.35V2349.71z"/>
		<path class="st1" d="M1035.8,2349.95c-3.83,0-6.66-0.78-8.48-2.33c-1.82-1.56-2.73-3.97-2.73-7.23c0-1.89,0.28-3.58,0.82-5.09
			c0.55-1.51,1.32-2.78,2.31-3.82c0.99-1.04,2.18-1.83,3.58-2.38c1.4-0.55,2.95-0.82,4.64-0.82c1.82,0,3.42,0.31,4.81,0.92
			c1.38,0.61,2.54,1.46,3.49,2.54c0.94,1.08,1.66,2.36,2.14,3.84c0.49,1.48,0.73,3.08,0.73,4.81c0,3.24-0.96,5.64-2.87,7.21
			C1042.32,2349.17,1039.51,2349.95,1035.8,2349.95z M1028.45,2320.69c0-0.97,0.31-1.77,0.94-2.4c0.63-0.63,1.44-0.94,2.45-0.94
			c0.97,0,1.77,0.31,2.38,0.94c0.61,0.63,0.92,1.43,0.92,2.4c0,1.01-0.31,1.82-0.92,2.45c-0.61,0.63-1.41,0.94-2.38,0.94
			c-1.01,0-1.82-0.31-2.45-0.94C1028.76,2322.51,1028.45,2321.69,1028.45,2320.69z M1035.94,2344.53c0.94,0,1.7-0.12,2.29-0.35
			c0.58-0.24,1.04-0.57,1.39-0.99c0.35-0.42,0.58-0.93,0.71-1.51c0.13-0.58,0.19-1.22,0.19-1.91c0-1.88-0.42-3.37-1.25-4.45
			c-0.83-1.08-1.94-1.63-3.32-1.63c-0.82,0-1.52,0.16-2.12,0.47c-0.6,0.31-1.09,0.75-1.48,1.32c-0.39,0.57-0.68,1.22-0.87,1.96
			c-0.19,0.74-0.28,1.53-0.28,2.38c0,1.54,0.38,2.71,1.15,3.51C1033.11,2344.13,1034.31,2344.53,1035.94,2344.53z M1036.79,2320.69
			c0-0.97,0.31-1.77,0.94-2.4c0.63-0.63,1.44-0.94,2.45-0.94c0.97,0,1.77,0.31,2.38,0.94c0.61,0.63,0.92,1.43,0.92,2.4
			c0,1.01-0.31,1.82-0.92,2.45c-0.61,0.63-1.41,0.94-2.38,0.94c-1.01,0-1.82-0.31-2.45-0.94
			C1037.1,2322.51,1036.79,2321.69,1036.79,2320.69z"/>
		<path class="st1" d="M1060.02,2344.44c1.57,0,2.71-0.33,3.42-0.99c0.71-0.66,1.06-1.79,1.06-3.39v-1.23c0-1.6-0.53-2.82-1.6-3.65
			c-1.07-0.83-2.59-1.25-4.57-1.25h-4.48v-5.28h5.75c1.95,0,3.64,0.23,5.07,0.68c1.43,0.46,2.61,1.09,3.53,1.91
			c0.93,0.82,1.62,1.77,2.07,2.87c0.45,1.1,0.68,2.29,0.68,3.58v2.73c0,1.29,0.41,2.28,1.23,2.97c0.82,0.69,1.92,1.04,3.3,1.04
			c0.47,0,0.78,0.2,0.92,0.61c0.14,0.41,0.21,1.07,0.21,1.98c0,1.1-0.02,1.82-0.07,2.17c-0.05,0.35-0.13,0.52-0.26,0.52
			c-1.48,0-2.77-0.25-3.89-0.75c-1.12-0.5-2.02-1.24-2.71-2.22c-0.69,1.07-1.62,1.83-2.78,2.29c-1.16,0.46-2.62,0.68-4.38,0.68
			h-11.64v-5.28H1060.02z"/>
		<path class="st1" d="M1076.33,2349.71c-0.82,0-1.43-0.21-1.84-0.64c-0.41-0.42-0.61-1.04-0.61-1.86c0-0.91,0.14-1.6,0.42-2.07
			c0.28-0.47,0.68-0.71,1.18-0.71h4.29c-0.57-0.88-1.01-1.78-1.32-2.71c-0.31-0.93-0.47-1.85-0.47-2.76c0-1.76,0.32-3.32,0.97-4.69
			c0.64-1.37,1.52-2.49,2.62-3.37c1.1-0.88,2.36-1.54,3.77-1.98c1.41-0.44,2.91-0.66,4.48-0.66c1.22,0,2.46,0.09,3.7,0.26
			c1.24,0.17,2.3,0.42,3.18,0.73l-1.08,5c-0.47-0.13-1.17-0.26-2.1-0.4c-0.93-0.14-1.86-0.21-2.8-0.21c-0.66,0-1.34,0.09-2.05,0.26
			c-0.71,0.17-1.36,0.46-1.96,0.85c-0.6,0.39-1.09,0.94-1.48,1.63c-0.39,0.69-0.59,1.56-0.59,2.59c0,1.73,0.57,3.07,1.72,4.03
			c1.15,0.96,2.69,1.44,4.64,1.44h6.41v5.28H1076.33z"/>
		<path class="st1" d="M1113.65,2347.12c0,0.91-0.02,1.57-0.07,1.98c-0.05,0.41-0.12,0.61-0.21,0.61c-1.45,0-2.84-0.1-4.19-0.31
			c-1.35-0.2-2.57-0.58-3.65-1.13c-1.08-0.55-1.92-1.3-2.52-2.26c-0.6-0.96-0.9-2.13-0.9-3.51v-27.43h6.46v25.35
			c0,0.75,0.1,1.41,0.31,1.96c0.2,0.55,0.5,0.97,0.9,1.27c0.39,0.3,0.82,0.5,1.3,0.61c0.47,0.11,0.96,0.17,1.46,0.17
			c0.41,0,0.7,0.22,0.87,0.66C1113.56,2345.54,1113.65,2346.21,1113.65,2347.12z"/>
		<path class="st1" d="M1129.06,2349.71c-1.57,0-2.95-0.26-4.12-0.78c-1.18-0.52-2.02-1.23-2.52-2.14c-0.72,0.97-1.81,1.7-3.28,2.19
			c-1.46,0.49-3.39,0.73-5.77,0.73c-0.79,0-1.39-0.21-1.81-0.64c-0.42-0.42-0.64-1.04-0.64-1.86c0-0.91,0.14-1.6,0.42-2.07
			c0.28-0.47,0.68-0.71,1.18-0.71c1.76,0,3.02-0.3,3.77-0.9c0.75-0.6,1.13-1.74,1.13-3.44v-7.35h6.41v7.92
			c0,0.5,0.05,0.98,0.14,1.44c0.09,0.46,0.27,0.86,0.52,1.2c0.25,0.35,0.6,0.62,1.06,0.82c0.46,0.2,1.04,0.31,1.77,0.31
			c1.1,0,1.89-0.27,2.38-0.8c0.49-0.53,0.73-1.71,0.73-3.53v-7.35h6.41v7.92c0,0.5,0.05,0.98,0.14,1.44
			c0.09,0.46,0.26,0.86,0.49,1.2c0.24,0.35,0.59,0.62,1.06,0.82c0.47,0.2,1.07,0.31,1.79,0.31c1.13,0,1.93-0.27,2.4-0.82
			c0.47-0.55,0.71-1.72,0.71-3.51v-11.45h6.41v11.26c0,1.35,0.47,2.44,1.41,3.28c0.94,0.83,2.23,1.25,3.86,1.25
			c0.47,0,0.82,0.2,1.04,0.61c0.22,0.41,0.33,1.07,0.33,1.98c0,1.1-0.03,1.82-0.09,2.17c-0.06,0.35-0.2,0.52-0.42,0.52
			c-0.6,0-1.24-0.05-1.93-0.14c-0.69-0.09-1.38-0.26-2.07-0.49c-0.69-0.24-1.34-0.55-1.93-0.94c-0.6-0.39-1.1-0.87-1.51-1.44
			c-0.66,1.01-1.54,1.76-2.64,2.26c-1.1,0.5-2.37,0.75-3.82,0.75c-1.6,0-2.97-0.26-4.1-0.78c-1.13-0.52-1.96-1.23-2.5-2.14
			C1134.08,2348.74,1131.95,2349.71,1129.06,2349.71z"/>
		<path class="st1" d="M1167.7,2316.16c0.13,0,0.39-0.01,0.8-0.02c0.41-0.02,0.75-0.05,1.04-0.12c-0.5-0.25-0.95-0.66-1.34-1.22
			c-0.39-0.57-0.59-1.21-0.59-1.93c0-1.04,0.35-1.89,1.06-2.54c0.71-0.66,1.53-0.99,2.47-0.99c0.47,0,0.93,0.07,1.39,0.21
			c0.46,0.14,0.86,0.37,1.23,0.68c0.36,0.31,0.64,0.7,0.82,1.16c0.19,0.46,0.28,0.98,0.28,1.58c0,0.72-0.14,1.4-0.42,2.03
			c-0.28,0.63-0.72,1.19-1.3,1.7c-0.58,0.5-1.3,0.9-2.17,1.18c-0.86,0.28-1.88,0.42-3.04,0.42c-1.19,0-2.34-0.16-3.44-0.47
			c-1.1-0.31-1.92-0.63-2.45-0.94l0.8-2.03c0.79,0.41,1.59,0.73,2.4,0.97C1166.07,2316.04,1166.88,2316.16,1167.7,2316.16z
			 M1169.87,2312.91c0,0.44,0.18,0.84,0.54,1.2c0.36,0.36,0.86,0.65,1.48,0.87c0.22-0.19,0.39-0.46,0.52-0.82
			c0.12-0.36,0.19-0.75,0.19-1.16c0-0.5-0.13-0.9-0.4-1.18c-0.27-0.28-0.59-0.42-0.97-0.42s-0.7,0.13-0.97,0.4
			C1170,2312.07,1169.87,2312.44,1169.87,2312.91z"/>
		<path class="st1" d="M1155.97,2349.71c-0.82,0-1.43-0.21-1.84-0.64c-0.41-0.42-0.61-1.04-0.61-1.86c0-0.91,0.14-1.6,0.42-2.07
			c0.28-0.47,0.68-0.71,1.18-0.71h1.23c0.6,0,1.08-0.11,1.44-0.33c0.36-0.22,0.64-0.52,0.85-0.9c0.2-0.38,0.36-0.82,0.47-1.34
			c0.11-0.52,0.21-1.14,0.31-1.86c0.12-1.73,0.46-3.31,1.01-4.76c0.55-1.44,1.29-2.69,2.21-3.72c0.93-1.04,2.04-1.84,3.35-2.4
			c1.3-0.57,2.74-0.85,4.31-0.85c1.79,0,3.38,0.27,4.76,0.8c1.38,0.53,2.54,1.27,3.46,2.22c0.93,0.94,1.63,2.09,2.12,3.44
			c0.49,1.35,0.73,2.81,0.73,4.38c0,1.92-0.29,3.58-0.87,5c-0.58,1.41-1.37,2.54-2.38,3.39c-1.01,0.85-2.12,1.46-3.35,1.84
			c-1.23,0.38-2.47,0.57-3.72,0.57c-1.41,0-2.7-0.18-3.86-0.54c-1.16-0.36-2.42-1.08-3.77-2.14c-0.79,0.97-1.6,1.63-2.45,1.98
			c-0.85,0.35-2.01,0.52-3.49,0.52H1155.97z M1170.53,2333.69c-0.85,0-1.58,0.23-2.19,0.68c-0.61,0.46-1.13,1.07-1.56,1.84
			c-0.42,0.77-0.75,1.64-0.99,2.62c-0.24,0.97-0.4,2.06-0.49,3.25c1.01,0.91,1.91,1.54,2.71,1.88c0.8,0.35,1.66,0.52,2.57,0.52
			c1.32,0,2.37-0.45,3.16-1.37c0.78-0.91,1.18-2.1,1.18-3.58c0-1.85-0.39-3.29-1.18-4.31
			C1172.95,2334.2,1171.88,2333.69,1170.53,2333.69z"/>
	</g>
	<path class="st2" d="M1232.4,2370.27c-7.04-7.6-22.91-24.71-21.62-46.12c1.04-17.28,12.21-20.02,16.99-42.71
		c4.76-22.59-4.84-26.8-0.84-48.42c0.59-3.17,7.39-37.4,32.84-49.68c21.31-10.28,32.9,5.83,57.23-3.95
		c22.31-8.97,19.14-25.16,40.86-34.36c21.43-9.08,52.97-7.54,69.81,11.14c16.62,18.44,12.7,46.53,12.15,50.53
		c-2.67,19.17-11.76,23.36-10.89,41.33c0.66,13.78,6.64,24.38,11.9,33.73c10.94,19.42,18.51,19.59,23.92,33.54
		c3.76,9.69,8.66,31.61-1.71,42.3c-15.11,15.58-53.74-1.94-84.28,9.54c-8.41,3.16-13.52,6.55-13.52,6.55
		c-12.62,8.56-15.02,19.1-35.88,25.32C1296,2408.94,1256.04,2395.76,1232.4,2370.27z"/>
	<path class="st3" d="M1368.66,2354.63L1368.66,2354.63c16.26,0.09,29.52-13.02,29.61-29.28l0.4-70.4l-101.58-0.58l-0.16,27.71
		C1296.71,2321.92,1328.82,2354.4,1368.66,2354.63z"/>
	<path class="st4" d="M1274.29,2187.36l1.08-1.08c4.39-4.39,11.51-4.39,15.91,0l4.01,4.01c3.36,3.36,3.36,8.81,0,12.17l-2.91,15.56
		l-18.09-18.5C1270.93,2196.17,1270.93,2190.72,1274.29,2187.36z"/>
	<g>
		<path class="st5" d="M1376.84,2162.9L1376.84,2162.9v-11.37l0,0c1.01,0,1.83,0.82,1.83,1.83v7.71
			C1378.67,2162.08,1377.85,2162.9,1376.84,2162.9z"/>
		<path class="st5" d="M1376.84,2177.69L1376.84,2177.69v-11.37l0,0c1.01,0,1.83,0.82,1.83,1.83v7.71
			C1378.67,2176.87,1377.85,2177.69,1376.84,2177.69z"/>
		<path class="st6" d="M1324.41,2284.44h19.68c18.25,0,33.05-14.79,33.05-33.05v-87.35c0-18.25-14.8-33.05-33.05-33.05h-19.68
			c-18.25,0-33.05,14.8-33.05,33.05v87.35C1291.36,2269.64,1306.16,2284.44,1324.41,2284.44z"/>
		
			<rect x="1294.75" y="2144.74" transform="matrix(-1 -1.224647e-16 1.224647e-16 -1 2668.4934 4415.437)" class="st7" width="78.99" height="125.96"/>
		<circle class="st7" cx="1344.93" cy="2138.51" r="2.46"/>
		<polygon class="st8" points="1294.75,2189.93 1294.75,2218.35 1368.36,2144.74 1339.94,2144.74 		"/>
		<polygon class="st8" points="1373.74,2160.73 1294.75,2239.72 1294.75,2270.7 1306.21,2270.7 1373.74,2203.16 		"/>
		<rect x="1302.44" y="2155.46" class="st2" width="63.62" height="11.77"/>
		<rect x="1302.44" y="2171.69" class="st2" width="63.62" height="11.77"/>
		<rect x="1302.44" y="2187.77" class="st2" width="63.62" height="42.48"/>
		<path class="st8" d="M1345.1,2162.86h-36.01c-0.84,0-1.52-0.68-1.52-1.52l0,0c0-0.84,0.68-1.52,1.52-1.52h36.01
			c0.84,0,1.52,0.68,1.52,1.52l0,0C1346.61,2162.18,1345.94,2162.86,1345.1,2162.86z"/>
		<path class="st8" d="M1336.31,2179.1h-27.57c-0.65,0-1.17-0.52-1.17-1.17v-0.7c0-0.65,0.52-1.17,1.17-1.17h27.57
			c0.65,0,1.17,0.52,1.17,1.17v0.7C1337.47,2178.57,1336.95,2179.1,1336.31,2179.1z"/>
		<path class="st8" d="M1341.76,2195.05h-33.02c-0.65,0-1.17-0.52-1.17-1.17v-0.7c0-0.65,0.52-1.17,1.17-1.17h33.02
			c0.65,0,1.17,0.52,1.17,1.17v0.7C1342.93,2194.52,1342.4,2195.05,1341.76,2195.05z"/>
		<path class="st8" d="M1352.71,2201.06h-43.63c-0.84,0-1.52-0.68-1.52-1.52l0,0c0-0.84,0.68-1.52,1.52-1.52h43.63
			c0.84,0,1.52,0.68,1.52,1.52l0,0C1354.23,2200.38,1353.55,2201.06,1352.71,2201.06z"/>
		<path class="st8" d="M1359.93,2207.76h-50.84c-0.84,0-1.52-0.68-1.52-1.52l0,0c0-0.84,0.68-1.52,1.52-1.52h50.84
			c0.84,0,1.52,0.68,1.52,1.52l0,0C1361.44,2207.08,1360.76,2207.76,1359.93,2207.76z"/>
		<path class="st5" d="M1341.89,2272.7h-12.36c-2.05,0-3.71,1.66-3.71,3.71v2.21c0,2.05,1.66,3.71,3.71,3.71h12.36
			c2.05,0,3.71-1.66,3.71-3.71v-2.21C1345.6,2274.36,1343.94,2272.7,1341.89,2272.7z"/>
		<path class="st7" d="M1325.33,2139.84h13.34c0.73,0,1.33-0.59,1.33-1.33l0,0c0-0.73-0.59-1.33-1.33-1.33h-13.34
			c-0.73,0-1.33,0.59-1.33,1.33l0,0C1324.01,2139.24,1324.6,2139.84,1325.33,2139.84z"/>
	</g>
	<path id="Path_7" class="st9" d="M1306.83,2250.92c-0.02,0.2-0.08,0.39-0.17,0.57c-0.08,0.14-0.19,0.27-0.32,0.37
		c-0.13,0.09-0.27,0.16-0.42,0.2c-0.16,0.04-0.33,0.06-0.5,0.06c-0.16,0-0.31-0.02-0.47-0.06c-0.14-0.04-0.27-0.1-0.38-0.19
		c-0.11-0.09-0.19-0.21-0.24-0.34c-0.05-0.17-0.07-0.34-0.04-0.51c0.02-0.15,0.06-0.29,0.12-0.43c0.07-0.17,0.15-0.33,0.25-0.49
		l0.54,0.2c-0.04,0.08-0.08,0.15-0.1,0.21s-0.05,0.12-0.07,0.17c-0.02,0.05-0.03,0.1-0.05,0.16c-0.01,0.05-0.02,0.11-0.03,0.16
		c-0.02,0.1-0.01,0.19,0.02,0.29c0.02,0.07,0.06,0.14,0.12,0.19c0.06,0.05,0.13,0.08,0.2,0.1c0.07,0.02,0.15,0.03,0.23,0.03
		c0.17,0.01,0.34-0.04,0.47-0.15c0.12-0.13,0.2-0.3,0.21-0.48l0.4-3h0.64L1306.83,2250.92z"/>
	<path id="Path_8" class="st9" d="M1308.56,2251.07c-0.01,0.09-0.02,0.15-0.03,0.19c-0.01,0.04-0.02,0.06-0.03,0.06
		c-0.14,0-0.27-0.01-0.41-0.03c-0.12-0.02-0.24-0.05-0.35-0.11c-0.09-0.05-0.17-0.12-0.22-0.22c-0.05-0.11-0.06-0.23-0.04-0.34
		l0.35-2.66h0.64l-0.32,2.46c-0.01,0.06-0.01,0.13,0,0.19c0.01,0.05,0.04,0.09,0.07,0.12c0.04,0.03,0.08,0.05,0.12,0.06
		c0.05,0.01,0.09,0.02,0.14,0.02c0.04,0,0.07,0.03,0.08,0.06C1308.57,2250.94,1308.57,2251.01,1308.56,2251.07"/>
	<path id="Path_9" class="st9" d="M1309.98,2251.34c-0.13,0-0.26-0.02-0.39-0.06c-0.12-0.05-0.24-0.11-0.33-0.2
		c-0.07,0.08-0.16,0.15-0.27,0.19c-0.11,0.04-0.23,0.05-0.35,0.05h-0.15c-0.1,0.02-0.2-0.05-0.22-0.16c0-0.03,0-0.06,0-0.08
		c0.01-0.07,0.03-0.14,0.07-0.2c0.03-0.04,0.07-0.07,0.12-0.07h0.12c0.05,0,0.1-0.01,0.15-0.03c0.04-0.02,0.07-0.05,0.1-0.09
		c0.03-0.04,0.05-0.08,0.06-0.13c0.02-0.05,0.03-0.1,0.05-0.18c0.03-0.16,0.09-0.32,0.16-0.46c0.07-0.13,0.16-0.26,0.27-0.36
		c0.1-0.1,0.23-0.18,0.36-0.23c0.14-0.05,0.29-0.08,0.44-0.08c0.16,0,0.31,0.02,0.46,0.08c0.12,0.05,0.23,0.12,0.32,0.22
		c0.08,0.1,0.14,0.21,0.16,0.33c0.03,0.14,0.04,0.28,0.02,0.42c-0.01,0.06-0.02,0.11-0.03,0.17c-0.01,0.05-0.03,0.1-0.04,0.15
		c0.04,0.06,0.09,0.12,0.16,0.15c0.07,0.04,0.15,0.06,0.23,0.05c0.04,0,0.07,0.02,0.08,0.06l0,0c0.01,0.06,0.01,0.13,0,0.19
		c-0.01,0.05-0.01,0.1-0.02,0.14c0,0.03-0.01,0.05-0.02,0.08c0,0.01-0.01,0.02-0.01,0.03c0,0,0,0.01-0.01,0.01
		c-0.05,0-0.11,0-0.16-0.01c-0.06-0.01-0.12-0.02-0.18-0.05c-0.06-0.02-0.12-0.06-0.17-0.09c-0.06-0.04-0.1-0.09-0.14-0.16
		c-0.11,0.11-0.24,0.19-0.39,0.25C1310.28,2251.32,1310.13,2251.35,1309.98,2251.34 M1310.14,2249.78c-0.08,0-0.16,0.02-0.22,0.07
		c-0.07,0.05-0.13,0.11-0.18,0.18c-0.05,0.08-0.1,0.16-0.13,0.25c-0.04,0.1-0.07,0.21-0.09,0.32c0.07,0.07,0.15,0.13,0.23,0.18
		c0.08,0.04,0.17,0.06,0.26,0.06c0.12,0,0.24-0.05,0.33-0.13c0.09-0.09,0.15-0.22,0.16-0.35c0.03-0.14,0.01-0.29-0.06-0.42
		C1310.37,2249.83,1310.26,2249.77,1310.14,2249.78L1310.14,2249.78z"/>
	<path id="Path_10" class="st9" d="M1311.47,2251.32c-0.06,0.01-0.13-0.02-0.17-0.06c-0.04-0.05-0.05-0.12-0.04-0.18
		c0.01-0.07,0.03-0.14,0.07-0.2c0.03-0.04,0.07-0.07,0.12-0.07h0.42c-0.04-0.08-0.08-0.17-0.1-0.26c-0.02-0.09-0.02-0.18-0.01-0.27
		c0.02-0.16,0.07-0.32,0.15-0.45c0.08-0.13,0.18-0.24,0.3-0.33c0.12-0.09,0.25-0.15,0.4-0.19c0.15-0.04,0.3-0.06,0.45-0.06
		c0.12,0,0.24,0.01,0.36,0.03c0.1,0.01,0.21,0.04,0.3,0.07l-0.17,0.48c-0.07-0.02-0.13-0.03-0.2-0.04
		c-0.09-0.01-0.18-0.02-0.27-0.02c-0.07,0-0.14,0.01-0.2,0.03c-0.07,0.02-0.14,0.04-0.2,0.08c-0.15,0.09-0.24,0.24-0.26,0.41
		c-0.03,0.14,0.02,0.29,0.12,0.39c0.12,0.1,0.28,0.15,0.44,0.14h0.63l-0.07,0.51L1311.47,2251.32z"/>
	<path id="Path_11" class="st9" d="M1317,2251.32c-0.07,0-0.13-0.01-0.2-0.02c-0.07-0.01-0.13-0.03-0.2-0.05
		c-0.06-0.02-0.12-0.05-0.17-0.09c-0.05-0.04-0.1-0.09-0.13-0.14c-0.08,0.11-0.19,0.19-0.32,0.23c-0.15,0.05-0.31,0.07-0.46,0.07
		h-1.49l0.07-0.51h1.22c0.15,0.01,0.3-0.03,0.42-0.12c0.1-0.12,0.16-0.27,0.17-0.43l0.3-2.3h0.63l-0.32,2.41
		c-0.02,0.12,0.01,0.24,0.1,0.32c0.1,0.09,0.23,0.13,0.36,0.12c0.04,0,0.08,0.02,0.09,0.06c0.02,0.06,0.02,0.13,0.01,0.19
		c-0.01,0.07-0.02,0.14-0.04,0.21C1317.04,2251.31,1317.02,2251.33,1317,2251.32 M1315.2,2250.6h-0.63l0.28-2.12h0.63L1315.2,2250.6
		L1315.2,2250.6z M1315.67,2248.19h-0.95l0.03-0.26h0.19c-0.03-0.07-0.04-0.15-0.04-0.22c0.01-0.13,0.08-0.26,0.18-0.34
		c0.11-0.09,0.25-0.14,0.4-0.13c0.04,0,0.09,0,0.13,0.01c0.05,0.01,0.1,0.02,0.15,0.03l-0.09,0.25c-0.07-0.02-0.14-0.03-0.2-0.03
		c-0.07,0-0.14,0.02-0.2,0.06c-0.05,0.04-0.08,0.1-0.09,0.16c-0.01,0.06,0.01,0.12,0.05,0.16c0.06,0.04,0.13,0.06,0.2,0.05h0.28
		L1315.67,2248.19L1315.67,2248.19z"/>
	<path id="Path_12" class="st9" d="M1316.99,2250.81c0.08,0,0.16-0.01,0.24-0.02c0.06-0.01,0.11-0.04,0.16-0.08
		c0.04-0.04,0.07-0.08,0.09-0.13c0.02-0.06,0.03-0.12,0.04-0.19l0.32-2.43h0.63l-0.33,2.53c-0.01,0.13-0.05,0.25-0.1,0.36
		c-0.05,0.1-0.12,0.19-0.2,0.26c-0.1,0.07-0.21,0.13-0.33,0.15c-0.16,0.04-0.33,0.05-0.49,0.05c-0.1,0.02-0.2-0.06-0.22-0.16
		c0-0.03,0-0.05,0-0.08c0.01-0.07,0.03-0.14,0.07-0.2C1316.88,2250.84,1316.93,2250.82,1316.99,2250.81"/>
	<path id="Path_13" class="st9" d="M1321.48,2252.79c-0.09,0-0.17-0.03-0.23-0.09c-0.06-0.07-0.08-0.15-0.06-0.24
		c0.01-0.09,0.05-0.17,0.12-0.23c0.07-0.06,0.16-0.09,0.25-0.09c0.08,0,0.17,0.03,0.22,0.09c0.05,0.07,0.08,0.15,0.06,0.23
		c-0.01,0.09-0.05,0.18-0.12,0.24C1321.66,2252.76,1321.57,2252.8,1321.48,2252.79 M1320.66,2252.79c-0.09,0-0.17-0.03-0.23-0.09
		c-0.06-0.07-0.08-0.15-0.06-0.24c0.01-0.09,0.05-0.17,0.12-0.23c0.07-0.06,0.16-0.09,0.25-0.09c0.15-0.01,0.28,0.1,0.29,0.25
		c0,0.03,0,0.05-0.01,0.08c-0.01,0.09-0.05,0.18-0.12,0.24C1320.84,2252.76,1320.75,2252.79,1320.66,2252.79 M1321.32,2251.78
		c-0.23,0-0.47-0.02-0.7-0.06c-0.18-0.03-0.35-0.1-0.51-0.2c-0.13-0.09-0.23-0.21-0.29-0.35c-0.06-0.17-0.08-0.35-0.05-0.52
		c0.02-0.14,0.06-0.27,0.11-0.4c0.07-0.17,0.15-0.33,0.26-0.48l0.54,0.2c-0.06,0.11-0.12,0.23-0.16,0.34
		c-0.04,0.1-0.07,0.2-0.09,0.31c-0.04,0.18,0.04,0.37,0.19,0.48c0.23,0.12,0.48,0.18,0.74,0.16c0.14,0,0.28-0.01,0.42-0.03
		c0.11-0.02,0.22-0.04,0.32-0.08c0.07-0.02,0.14-0.06,0.2-0.1c0.04-0.03,0.07-0.07,0.08-0.12c0.01-0.05-0.03-0.11-0.11-0.18
		c-0.12-0.09-0.24-0.17-0.38-0.24c-0.16-0.08-0.3-0.18-0.41-0.32c-0.09-0.12-0.12-0.28-0.1-0.43c0.02-0.12,0.06-0.23,0.12-0.33
		c0.06-0.11,0.15-0.2,0.25-0.27c0.11-0.08,0.24-0.15,0.37-0.18c0.16-0.05,0.32-0.07,0.49-0.07c0.04,0,0.08,0,0.13,0.01
		s0.1,0.01,0.15,0.02c0.06,0.01,0.1,0.02,0.15,0.03c0.04,0.01,0.08,0.02,0.13,0.04l-0.17,0.47c-0.06-0.02-0.12-0.03-0.17-0.04
		c-0.08-0.01-0.15-0.02-0.23-0.02c-0.06,0-0.11,0-0.17,0.01c-0.06,0.01-0.12,0.03-0.18,0.05c-0.05,0.02-0.1,0.06-0.15,0.1
		c-0.04,0.04-0.06,0.1-0.07,0.15c-0.01,0.05,0,0.09,0.03,0.13c0.03,0.05,0.06,0.09,0.1,0.12c0.05,0.04,0.1,0.08,0.16,0.11
		c0.07,0.04,0.13,0.07,0.18,0.1c0.08,0.04,0.15,0.09,0.23,0.14c0.07,0.04,0.13,0.1,0.18,0.15c0.05,0.05,0.09,0.11,0.11,0.18
		c0.03,0.07,0.03,0.15,0.02,0.22c-0.02,0.13-0.07,0.26-0.16,0.37c-0.09,0.12-0.21,0.21-0.35,0.28c-0.17,0.08-0.34,0.15-0.53,0.18
		C1321.79,2251.76,1321.56,2251.78,1321.32,2251.78"/>
	<path id="Path_14" class="st9" d="M1324.24,2250.81c0.12,0.01,0.25-0.02,0.35-0.09c0.09-0.09,0.15-0.21,0.15-0.33l0.02-0.12
		c0.03-0.13-0.01-0.26-0.11-0.35c-0.13-0.09-0.28-0.13-0.43-0.12h-0.44l0.07-0.51h0.57c0.17,0,0.33,0.02,0.49,0.07
		c0.12,0.04,0.23,0.1,0.32,0.19c0.08,0.08,0.14,0.17,0.17,0.28c0.03,0.11,0.04,0.23,0.02,0.35l-0.04,0.3
		c-0.01,0.24-0.11,0.48-0.27,0.66c-0.19,0.15-0.43,0.22-0.67,0.2h-1.15l0.07-0.51L1324.24,2250.81z"/>
	<path id="Path_15" class="st9" d="M1326.55,2252.12c-0.1,0-0.2-0.01-0.3-0.02c-0.1-0.01-0.19-0.03-0.29-0.05l0.15-0.48
		c0.07,0.02,0.14,0.03,0.22,0.04c0.08,0.01,0.17,0.02,0.25,0.02c0.09,0,0.17,0,0.25-0.01c0.06-0.01,0.13-0.02,0.19-0.04
		c0.05-0.02,0.09-0.05,0.12-0.09c0.03-0.05,0.05-0.1,0.06-0.15h-0.45c-0.14,0-0.28-0.02-0.42-0.06c-0.12-0.03-0.22-0.09-0.31-0.17
		c-0.09-0.08-0.15-0.19-0.18-0.3c-0.04-0.14-0.04-0.29-0.02-0.43c0.02-0.14,0.06-0.28,0.12-0.42c0.06-0.13,0.15-0.26,0.25-0.36
		c0.11-0.11,0.24-0.19,0.38-0.25c0.16-0.06,0.33-0.09,0.5-0.09c0.13,0,0.26,0.02,0.39,0.06c0.11,0.04,0.22,0.1,0.31,0.19
		c0.09,0.09,0.15,0.19,0.19,0.31c0.04,0.14,0.05,0.29,0.03,0.43l-0.07,0.57h0.33c0.04,0,0.08,0.02,0.09,0.06
		c0.02,0.06,0.02,0.13,0.01,0.2c-0.01,0.07-0.02,0.14-0.04,0.2c-0.01,0.03-0.03,0.05-0.04,0.05h-0.43
		c-0.03,0.13-0.09,0.26-0.17,0.37c-0.08,0.1-0.17,0.19-0.28,0.25c-0.12,0.07-0.25,0.11-0.38,0.14
		C1326.86,2252.11,1326.7,2252.12,1326.55,2252.12 M1327.02,2249.77c-0.06,0-0.12,0.01-0.17,0.03c-0.06,0.02-0.11,0.05-0.16,0.09
		c-0.05,0.05-0.09,0.1-0.12,0.17c-0.04,0.08-0.06,0.16-0.07,0.25c-0.03,0.13,0,0.27,0.08,0.39c0.09,0.09,0.22,0.14,0.35,0.13h0.36
		l0.07-0.53c0.01-0.07,0.01-0.13,0.01-0.2c0-0.06-0.02-0.11-0.05-0.17c-0.03-0.05-0.06-0.09-0.11-0.12
		C1327.14,2249.78,1327.08,2249.77,1327.02,2249.77"/>
	<path id="Path_16" class="st9" d="M1330.82,2251.32h-0.66c-0.14,0-0.28-0.01-0.42-0.05c-0.1-0.03-0.19-0.07-0.27-0.13
		c-0.13,0.05-0.26,0.1-0.4,0.13c-0.15,0.03-0.29,0.05-0.44,0.05h-0.35c-0.06,0.01-0.13-0.02-0.17-0.06
		c-0.04-0.05-0.05-0.12-0.04-0.18c0.01-0.07,0.03-0.14,0.07-0.2c0.03-0.04,0.07-0.07,0.12-0.07h0.49c0.08,0,0.16-0.01,0.25-0.02
		c0.06-0.01,0.12-0.02,0.17-0.04c-0.06-0.07-0.12-0.14-0.17-0.2c-0.05-0.05-0.1-0.11-0.15-0.16c-0.05-0.04-0.1-0.09-0.16-0.14
		c-0.06-0.05-0.13-0.1-0.21-0.15c0.01-0.03,0.02-0.07,0.03-0.11l0-0.01c0.01-0.05,0.03-0.11,0.05-0.17s0.03-0.11,0.05-0.16
		c0.01-0.04,0.03-0.07,0.04-0.11c0.07-0.04,0.14-0.07,0.21-0.1c0.09-0.04,0.18-0.07,0.27-0.1c0.1-0.03,0.2-0.05,0.3-0.07
		c0.1-0.02,0.2-0.03,0.3-0.03c0.14,0,0.28,0.01,0.42,0.04c0.12,0.02,0.23,0.07,0.33,0.13c0.09,0.05,0.16,0.13,0.2,0.22
		c0.05,0.1,0.06,0.2,0.05,0.31c-0.01,0.08-0.04,0.16-0.08,0.24c-0.04,0.08-0.1,0.16-0.16,0.22c-0.07,0.08-0.14,0.14-0.22,0.2
		c-0.08,0.06-0.17,0.12-0.26,0.17c0.05,0.01,0.1,0.02,0.15,0.02c0.07,0,0.12,0,0.16,0h0.47c0.04,0,0.08,0.02,0.09,0.06
		c0.02,0.06,0.02,0.13,0.01,0.2c-0.01,0.07-0.02,0.14-0.04,0.21C1330.86,2251.31,1330.84,2251.32,1330.82,2251.32 M1329.66,2249.77
		c-0.06,0-0.11,0-0.17,0.01c-0.05,0.01-0.11,0.02-0.16,0.03c-0.05,0.01-0.09,0.02-0.14,0.04c-0.03,0.01-0.06,0.02-0.09,0.04
		c0.11,0.09,0.21,0.2,0.3,0.32c0.08,0.1,0.15,0.21,0.22,0.32c0.05-0.03,0.1-0.06,0.15-0.1c0.05-0.04,0.1-0.08,0.14-0.12
		c0.04-0.04,0.08-0.09,0.11-0.14c0.03-0.04,0.05-0.09,0.05-0.15c0-0.03,0-0.06-0.01-0.09c-0.01-0.03-0.04-0.06-0.06-0.08
		c-0.04-0.03-0.08-0.05-0.13-0.06C1329.8,2249.77,1329.73,2249.76,1329.66,2249.77"/>
	<path id="Path_17" class="st9" d="M1332.37,2251.32c-0.14,0-0.27-0.02-0.4-0.08c-0.1-0.04-0.18-0.11-0.22-0.21
		c-0.1,0.1-0.22,0.17-0.35,0.21c-0.19,0.05-0.38,0.08-0.58,0.07c-0.1,0.02-0.2-0.06-0.22-0.16c0-0.03,0-0.05,0.01-0.08
		c0.01-0.07,0.03-0.14,0.07-0.2c0.03-0.04,0.07-0.07,0.12-0.07c0.13,0.01,0.27-0.02,0.38-0.09c0.1-0.08,0.16-0.2,0.16-0.33
		l0.09-0.71h0.63l-0.1,0.77c-0.01,0.05-0.01,0.09,0,0.14c0,0.04,0.02,0.08,0.04,0.12c0.02,0.04,0.06,0.06,0.09,0.08
		c0.05,0.02,0.11,0.03,0.17,0.03c0.09,0.01,0.18-0.02,0.25-0.08c0.07-0.1,0.11-0.22,0.12-0.34l0.09-0.71h0.63l-0.1,0.77
		c-0.01,0.05-0.01,0.09,0,0.14c0,0.04,0.01,0.08,0.03,0.12c0.02,0.04,0.05,0.06,0.09,0.08c0.05,0.02,0.11,0.03,0.17,0.03
		c0.09,0.01,0.18-0.02,0.25-0.08c0.07-0.1,0.11-0.22,0.11-0.34l0.15-1.11h0.63l-0.15,1.09c-0.02,0.12,0.01,0.23,0.1,0.32
		c0.1,0.09,0.23,0.13,0.37,0.12c0.04,0,0.08,0.02,0.09,0.06c0.02,0.06,0.02,0.13,0.01,0.19c-0.01,0.07-0.02,0.14-0.04,0.21
		c-0.01,0.03-0.03,0.05-0.05,0.05c-0.06,0-0.13,0-0.19-0.01c-0.07-0.01-0.13-0.03-0.2-0.05c-0.06-0.02-0.12-0.05-0.18-0.09
		c-0.05-0.04-0.1-0.08-0.13-0.14c-0.08,0.1-0.18,0.17-0.29,0.22c-0.12,0.05-0.25,0.07-0.39,0.07c-0.14,0-0.27-0.02-0.39-0.08
		c-0.1-0.04-0.17-0.11-0.22-0.21C1332.87,2251.23,1332.62,2251.34,1332.37,2251.32"/>
	<path id="Path_18" class="st9" d="M1335,2250.81c0.08,0,0.16-0.01,0.24-0.02c0.06-0.01,0.11-0.04,0.16-0.08
		c0.04-0.04,0.07-0.08,0.09-0.13c0.02-0.06,0.03-0.12,0.04-0.19l0.32-2.43h0.63l-0.33,2.53c-0.01,0.13-0.05,0.25-0.1,0.36
		c-0.05,0.1-0.12,0.19-0.2,0.26c-0.1,0.07-0.21,0.13-0.33,0.15c-0.16,0.04-0.33,0.05-0.49,0.05c-0.1,0.02-0.2-0.06-0.22-0.16
		c0-0.03,0-0.05,0-0.08c0.01-0.07,0.03-0.14,0.07-0.2C1334.9,2250.84,1334.95,2250.81,1335,2250.81"/>
	<path id="Path_19" class="st9" d="M1337.74,2247.97l-0.44,3.36h-0.64l0.44-3.36H1337.74z"/>
	<path id="Path_20" class="st9" d="M1339.08,2252.12c-0.08,0-0.17-0.01-0.25-0.02c-0.06-0.01-0.12-0.02-0.19-0.04l0.14-0.49
		c0.03,0.01,0.06,0.01,0.1,0.02h0.01c0.03,0,0.07,0.01,0.1,0.01c0.1,0.01,0.2-0.03,0.27-0.1c0.07-0.09,0.11-0.2,0.12-0.32l0.25-1.89
		h0.64l-0.2,1.53h0.39c0.04,0,0.08,0.02,0.09,0.06c0.02,0.07,0.02,0.13,0.01,0.2c-0.01,0.07-0.02,0.13-0.04,0.2
		c-0.01,0.03-0.03,0.05-0.05,0.05h-0.47c-0.02,0.14-0.06,0.28-0.13,0.4c-0.05,0.1-0.13,0.18-0.22,0.25
		c-0.08,0.06-0.17,0.1-0.27,0.12C1339.28,2252.12,1339.18,2252.13,1339.08,2252.12 M1340.02,2248.84c-0.15,0.01-0.28-0.1-0.3-0.26
		c0-0.02,0-0.05,0-0.07c0.01-0.09,0.06-0.17,0.13-0.23c0.07-0.06,0.16-0.09,0.25-0.09c0.08,0,0.17,0.03,0.22,0.09
		c0.05,0.07,0.08,0.15,0.06,0.23c-0.01,0.09-0.05,0.18-0.12,0.24C1340.2,2248.81,1340.11,2248.85,1340.02,2248.84"/>
	<path id="Path_21" class="st9" d="M1340.47,2251.32c-0.1,0.02-0.2-0.06-0.22-0.16c0-0.03,0-0.05,0-0.08
		c0.01-0.07,0.03-0.14,0.07-0.2c0.03-0.05,0.08-0.07,0.13-0.07h1.37c0.13,0.01,0.25-0.03,0.35-0.1c0.09-0.09,0.14-0.2,0.14-0.32
		l0.02-0.12c0.04-0.32-0.13-0.47-0.51-0.47h-1.01l0.07-0.51l1.44-1.31l0.38,0.39l-1.02,0.92h0.37c0.16,0,0.31,0.02,0.47,0.07
		c0.11,0.04,0.22,0.1,0.3,0.18c0.07,0.08,0.13,0.17,0.15,0.28c0.03,0.11,0.03,0.23,0.01,0.35l-0.04,0.3
		c-0.01,0.25-0.11,0.48-0.28,0.66c-0.19,0.15-0.43,0.22-0.67,0.2L1340.47,2251.32z"/>
	<path id="Path_22" class="st9" d="M1343.31,2252.12c-0.08,0-0.17-0.01-0.25-0.02c-0.06-0.01-0.12-0.02-0.18-0.04l0.14-0.49
		c0.04,0.01,0.07,0.01,0.1,0.02c0.03,0,0.07,0.01,0.1,0.01c0.1,0.01,0.2-0.03,0.26-0.1c0.07-0.09,0.11-0.21,0.12-0.32l0.25-1.89
		h0.64l-0.2,1.53h0.39c0.04,0,0.08,0.02,0.09,0.06c0.02,0.07,0.02,0.13,0.01,0.2c-0.01,0.07-0.02,0.13-0.04,0.2
		c-0.01,0.03-0.03,0.05-0.05,0.05h-0.47c-0.02,0.14-0.06,0.28-0.13,0.4c-0.05,0.1-0.13,0.18-0.21,0.25
		c-0.08,0.06-0.17,0.1-0.27,0.12C1343.51,2252.12,1343.41,2252.13,1343.31,2252.12"/>
	<path id="Path_23" class="st9" d="M1346.18,2251.34c-0.13,0-0.26-0.02-0.39-0.06c-0.12-0.05-0.24-0.11-0.33-0.2
		c-0.07,0.08-0.16,0.15-0.27,0.19c-0.11,0.04-0.23,0.05-0.35,0.05h-0.15c-0.06,0.01-0.13-0.02-0.17-0.06
		c-0.04-0.05-0.05-0.12-0.04-0.18c0.01-0.07,0.03-0.14,0.07-0.2c0.03-0.04,0.07-0.07,0.13-0.07h0.12c0.05,0,0.1-0.01,0.15-0.03
		c0.04-0.02,0.07-0.05,0.09-0.09c0.03-0.04,0.05-0.08,0.06-0.13c0.02-0.05,0.04-0.11,0.05-0.18c0.03-0.16,0.09-0.32,0.16-0.46
		c0.07-0.13,0.16-0.26,0.27-0.36c0.1-0.1,0.23-0.18,0.36-0.23c0.14-0.05,0.29-0.08,0.44-0.08c0.16,0,0.31,0.02,0.46,0.08
		c0.12,0.05,0.23,0.12,0.32,0.22c0.08,0.1,0.14,0.21,0.16,0.33c0.03,0.14,0.03,0.28,0.01,0.42c-0.01,0.06-0.02,0.11-0.03,0.17
		c-0.01,0.05-0.03,0.1-0.04,0.15c0.04,0.06,0.09,0.12,0.16,0.15c0.07,0.04,0.15,0.06,0.23,0.05c0.04,0,0.07,0.03,0.08,0.06
		c0.01,0.06,0.01,0.13,0,0.19c-0.01,0.07-0.02,0.11-0.02,0.14s-0.01,0.06-0.02,0.08c0,0.01-0.01,0.02-0.01,0.03
		c0,0,0,0.01-0.01,0.01c-0.05,0-0.11,0-0.16-0.01c-0.06-0.01-0.12-0.02-0.18-0.05c-0.06-0.02-0.12-0.06-0.17-0.09
		c-0.06-0.04-0.1-0.09-0.14-0.16c-0.11,0.11-0.24,0.19-0.39,0.25C1346.49,2251.32,1346.34,2251.35,1346.18,2251.34 M1346.34,2249.78
		c-0.08,0-0.16,0.02-0.22,0.07c-0.07,0.05-0.13,0.11-0.18,0.18c-0.05,0.08-0.1,0.16-0.13,0.25c-0.04,0.1-0.07,0.21-0.09,0.32
		c0.07,0.07,0.15,0.13,0.23,0.18c0.08,0.04,0.17,0.06,0.26,0.06c0.12,0,0.24-0.05,0.33-0.13c0.09-0.09,0.15-0.22,0.16-0.35
		c0.03-0.14,0.01-0.29-0.06-0.42C1346.58,2249.83,1346.46,2249.77,1346.34,2249.78L1346.34,2249.78z"/>
	<path id="Path_24" class="st9" d="M1347.66,2250.81c0.08,0,0.16-0.01,0.24-0.02c0.06-0.01,0.11-0.04,0.16-0.08
		c0.04-0.04,0.07-0.08,0.09-0.13c0.02-0.06,0.03-0.12,0.04-0.19l0.32-2.43h0.63l-0.33,2.53c-0.01,0.13-0.05,0.25-0.1,0.36
		c-0.05,0.1-0.12,0.19-0.2,0.26c-0.1,0.07-0.21,0.13-0.33,0.15c-0.16,0.04-0.33,0.05-0.49,0.05c-0.1,0.02-0.2-0.06-0.22-0.16
		c0-0.03,0-0.05,0-0.08c0.01-0.07,0.03-0.14,0.07-0.2C1347.55,2250.84,1347.6,2250.81,1347.66,2250.81"/>
	<path id="Path_25" class="st9" d="M1350.39,2247.97l-0.44,3.36h-0.64l0.44-3.36H1350.39z"/>
	<path id="Path_26" class="st9" d="M1302.38,2254.14c-0.11-0.04-0.23-0.07-0.35-0.09c-0.12-0.02-0.23-0.03-0.35-0.03
		c-0.07,0-0.13,0.01-0.2,0.02c-0.06,0.01-0.12,0.03-0.18,0.06c-0.05,0.03-0.1,0.06-0.13,0.11c-0.04,0.05-0.06,0.11-0.07,0.17
		c-0.01,0.05,0,0.11,0.02,0.15c0.02,0.05,0.06,0.09,0.1,0.13c0.06,0.05,0.12,0.08,0.18,0.12c0.07,0.04,0.16,0.08,0.27,0.12
		c0.12,0.05,0.24,0.11,0.35,0.17c0.1,0.05,0.19,0.12,0.27,0.2c0.07,0.08,0.13,0.17,0.16,0.27c0.03,0.12,0.04,0.25,0.02,0.37
		c-0.02,0.15-0.07,0.3-0.16,0.43c-0.08,0.12-0.19,0.22-0.31,0.3c-0.13,0.08-0.27,0.14-0.42,0.18c-0.15,0.04-0.31,0.06-0.47,0.06
		c-0.16,0-0.32-0.01-0.49-0.04c-0.17-0.03-0.34-0.07-0.5-0.13l0.19-0.54c0.27,0.11,0.55,0.17,0.84,0.17
		c0.15,0.01,0.3-0.02,0.44-0.09c0.1-0.06,0.17-0.17,0.19-0.29c0.01-0.06,0-0.11-0.02-0.16c-0.02-0.05-0.06-0.1-0.1-0.13
		c-0.06-0.05-0.12-0.09-0.19-0.12c-0.09-0.05-0.18-0.09-0.27-0.12c-0.12-0.05-0.23-0.1-0.34-0.17c-0.09-0.06-0.18-0.13-0.26-0.21
		c-0.07-0.07-0.12-0.16-0.15-0.26c-0.03-0.11-0.04-0.22-0.02-0.33c0.02-0.15,0.07-0.3,0.16-0.43c0.08-0.12,0.19-0.22,0.31-0.29
		c0.12-0.08,0.26-0.13,0.4-0.17c0.14-0.03,0.28-0.05,0.42-0.05c0.15,0,0.31,0.01,0.46,0.03c0.13,0.02,0.26,0.05,0.39,0.09
		L1302.38,2254.14z"/>
	<path id="Path_27" class="st9" d="M1303.6,2256.85c-0.11,0-0.21-0.01-0.32-0.04c-0.1-0.02-0.19-0.07-0.27-0.13
		c-0.08-0.06-0.14-0.14-0.17-0.23c-0.04-0.11-0.05-0.23-0.03-0.35c0.02-0.16,0.08-0.3,0.18-0.43c0.1-0.11,0.23-0.2,0.37-0.25
		c0.17-0.06,0.34-0.1,0.52-0.12c0.17-0.02,0.34-0.03,0.51-0.03h0.08l0.01-0.06c0.02-0.11-0.01-0.22-0.1-0.3
		c-0.12-0.08-0.25-0.12-0.39-0.11c-0.1,0-0.2,0.01-0.3,0.03c-0.12,0.02-0.24,0.05-0.35,0.09l-0.06-0.46
		c0.26-0.09,0.54-0.14,0.82-0.14c0.3-0.03,0.61,0.06,0.85,0.24c0.17,0.18,0.24,0.44,0.18,0.68l-0.13,1
		c-0.01,0.09-0.02,0.19-0.03,0.29c-0.01,0.09-0.01,0.18,0,0.26h-0.59c-0.01-0.05-0.01-0.1-0.01-0.15v-0.15h-0.01
		c-0.08,0.11-0.19,0.2-0.31,0.26C1303.9,2256.82,1303.75,2256.85,1303.6,2256.85 M1304.32,2255.68c-0.11,0-0.21,0.01-0.32,0.02
		c-0.09,0.01-0.18,0.03-0.27,0.06c-0.07,0.02-0.14,0.07-0.19,0.12c-0.05,0.05-0.08,0.12-0.09,0.2c-0.02,0.09,0.01,0.18,0.07,0.24
		c0.07,0.06,0.16,0.09,0.25,0.09c0.09,0,0.17-0.01,0.25-0.05c0.07-0.03,0.14-0.07,0.19-0.13c0.05-0.05,0.09-0.11,0.12-0.18
		c0.03-0.06,0.05-0.13,0.06-0.2l0.02-0.17L1304.32,2255.68z"/>
	<path id="Path_28" class="st9" d="M1307.21,2256.8l0.04-0.32h-0.01c-0.08,0.12-0.2,0.22-0.33,0.28c-0.14,0.06-0.3,0.1-0.45,0.1
		c-0.13,0-0.25-0.02-0.37-0.06c-0.1-0.04-0.19-0.1-0.26-0.18c-0.07-0.08-0.12-0.17-0.14-0.27c-0.03-0.12-0.04-0.24-0.02-0.36
		l0.21-1.59h0.66l-0.18,1.35c-0.01,0.09-0.02,0.17-0.01,0.26c0,0.07,0.02,0.14,0.05,0.2c0.03,0.05,0.07,0.1,0.12,0.13
		c0.07,0.03,0.14,0.05,0.22,0.04c0.07,0,0.13-0.01,0.2-0.04c0.07-0.03,0.13-0.06,0.18-0.11c0.06-0.06,0.11-0.13,0.15-0.2
		c0.05-0.1,0.08-0.21,0.09-0.32l0.17-1.31h0.66l-0.32,2.41L1307.21,2256.8z"/>
	<path id="Path_29" class="st9" d="M1309.42,2256.85c-0.15,0-0.3-0.03-0.43-0.1c-0.12-0.06-0.22-0.16-0.29-0.27
		c-0.08-0.12-0.12-0.26-0.15-0.4c-0.02-0.16-0.03-0.33,0-0.49c0.02-0.17,0.07-0.34,0.14-0.5c0.06-0.15,0.15-0.28,0.25-0.4
		c0.1-0.11,0.23-0.2,0.36-0.27c0.14-0.07,0.3-0.1,0.46-0.1c0.14,0,0.27,0.02,0.39,0.07c0.12,0.05,0.22,0.14,0.29,0.25h0.01
		l0.16-1.21h0.66l-0.44,3.36h-0.65l0.04-0.31h-0.01c-0.1,0.12-0.23,0.22-0.38,0.28C1309.71,2256.82,1309.57,2256.85,1309.42,2256.85
		 M1309.87,2254.82c-0.09,0-0.18,0.02-0.26,0.06c-0.08,0.04-0.14,0.09-0.2,0.16c-0.06,0.07-0.1,0.16-0.13,0.25
		c-0.04,0.1-0.06,0.2-0.07,0.3c-0.02,0.1-0.02,0.2-0.01,0.3c0.01,0.09,0.03,0.17,0.07,0.25c0.04,0.07,0.09,0.12,0.15,0.16
		c0.07,0.04,0.16,0.06,0.24,0.06c0.09,0,0.18-0.02,0.27-0.06c0.08-0.04,0.15-0.1,0.21-0.16c0.06-0.07,0.11-0.16,0.15-0.25
		c0.04-0.1,0.07-0.21,0.08-0.31c0.02-0.1,0.02-0.2,0-0.31c-0.01-0.09-0.04-0.17-0.09-0.25c-0.04-0.07-0.1-0.12-0.17-0.16
		C1310.04,2254.83,1309.95,2254.81,1309.87,2254.82L1309.87,2254.82z"/>
	<path id="Path_30" class="st9" d="M1312.15,2256.8h-0.66l0.32-2.41h0.66L1312.15,2256.8L1312.15,2256.8z M1312.52,2254.02h-0.66
		l0.07-0.56h0.66L1312.52,2254.02z"/>
	<path id="Path_31" class="st9" d="M1315.46,2256.8h-1.41l0.43-3.26h1.39c0.13,0,0.27,0.01,0.4,0.05c0.11,0.03,0.21,0.08,0.3,0.15
		c0.08,0.07,0.14,0.16,0.18,0.26c0.04,0.12,0.05,0.25,0.03,0.37c-0.02,0.18-0.1,0.35-0.22,0.49c-0.11,0.12-0.26,0.2-0.41,0.25v0.01
		c0.08,0.02,0.16,0.05,0.23,0.1c0.07,0.04,0.12,0.09,0.17,0.15c0.05,0.07,0.09,0.14,0.1,0.22c0.02,0.1,0.02,0.21,0.01,0.31
		c-0.02,0.12-0.05,0.24-0.11,0.35c-0.06,0.11-0.14,0.21-0.24,0.29c-0.11,0.09-0.23,0.16-0.36,0.2
		C1315.79,2256.78,1315.63,2256.8,1315.46,2256.8 M1314.91,2255.4l-0.11,0.86h0.55c0.08,0,0.16-0.01,0.24-0.02
		c0.07-0.01,0.13-0.03,0.19-0.07c0.06-0.03,0.1-0.08,0.14-0.13c0.04-0.06,0.06-0.14,0.07-0.21c0.01-0.07,0-0.15-0.02-0.21
		c-0.03-0.06-0.07-0.1-0.12-0.13c-0.06-0.04-0.13-0.06-0.2-0.07c-0.09-0.01-0.18-0.02-0.27-0.02L1314.91,2255.4z M1315.09,2254.07
		l-0.1,0.79h0.48c0.15,0.01,0.3-0.02,0.43-0.09c0.11-0.07,0.18-0.19,0.19-0.32c0.01-0.06,0.01-0.13-0.02-0.19
		c-0.02-0.05-0.06-0.09-0.1-0.12c-0.05-0.03-0.11-0.05-0.16-0.06c-0.06-0.01-0.13-0.02-0.19-0.02H1315.09z"/>
	<path id="Path_32" class="st9" d="M1318.72,2256.8l0.04-0.32h-0.01c-0.08,0.12-0.2,0.22-0.33,0.28c-0.14,0.06-0.3,0.1-0.45,0.1
		c-0.13,0-0.25-0.02-0.37-0.06c-0.1-0.04-0.19-0.1-0.26-0.18c-0.07-0.08-0.12-0.17-0.15-0.27c-0.03-0.12-0.04-0.24-0.02-0.36
		l0.21-1.59h0.66l-0.18,1.35c-0.01,0.09-0.02,0.17-0.01,0.26c0,0.07,0.02,0.14,0.05,0.2c0.03,0.05,0.07,0.1,0.12,0.13
		c0.07,0.03,0.14,0.05,0.22,0.04c0.07,0,0.13-0.01,0.2-0.04c0.07-0.03,0.13-0.06,0.18-0.11c0.06-0.06,0.11-0.13,0.15-0.2
		c0.05-0.1,0.08-0.21,0.09-0.32l0.17-1.31h0.66l-0.32,2.41L1318.72,2256.8z"/>
	<path id="Path_33" class="st9" d="M1321.76,2254.95c-0.11-0.05-0.23-0.08-0.34-0.1c-0.1-0.02-0.21-0.03-0.31-0.03
		c-0.08,0-0.16,0.01-0.24,0.04c-0.06,0.03-0.1,0.09-0.11,0.15c-0.01,0.07,0.02,0.13,0.07,0.17c0.11,0.06,0.22,0.11,0.34,0.15
		c0.11,0.03,0.22,0.08,0.33,0.13c0.09,0.04,0.17,0.1,0.24,0.16c0.06,0.06,0.11,0.13,0.13,0.21c0.03,0.09,0.03,0.19,0.02,0.28
		c-0.01,0.13-0.06,0.25-0.14,0.35c-0.07,0.09-0.16,0.17-0.26,0.23c-0.11,0.06-0.22,0.1-0.34,0.12c-0.12,0.03-0.24,0.04-0.37,0.04
		c-0.16,0-0.32-0.02-0.47-0.04c-0.15-0.03-0.29-0.07-0.43-0.12l0.19-0.49c0.13,0.06,0.26,0.1,0.4,0.13
		c0.12,0.03,0.24,0.04,0.36,0.04c0.1,0,0.2-0.01,0.3-0.05c0.07-0.03,0.12-0.09,0.12-0.17c0.01-0.07-0.03-0.14-0.09-0.18
		c-0.12-0.07-0.25-0.12-0.38-0.16c-0.2-0.05-0.38-0.16-0.53-0.3c-0.11-0.12-0.15-0.28-0.12-0.43c0.03-0.24,0.17-0.45,0.37-0.57
		c0.1-0.06,0.21-0.11,0.33-0.14c0.12-0.03,0.23-0.04,0.35-0.04c0.14,0,0.27,0.01,0.4,0.03c0.13,0.02,0.26,0.05,0.38,0.1
		L1321.76,2254.95z"/>
	<path id="Path_34" class="st9" d="M1322.96,2256.8h-0.66l0.32-2.41h0.66L1322.96,2256.8L1322.96,2256.8z M1323.32,2254.02h-0.66
		l0.07-0.56h0.66L1323.32,2254.02z"/>
	<path id="Path_35" class="st9" d="M1324.57,2254.39l-0.04,0.32h0.01c0.08-0.12,0.2-0.22,0.34-0.28c0.14-0.06,0.3-0.1,0.46-0.1
		c0.13,0,0.25,0.02,0.37,0.06c0.1,0.04,0.19,0.1,0.26,0.18c0.07,0.08,0.12,0.18,0.14,0.28c0.03,0.12,0.03,0.24,0.02,0.36l-0.21,1.59
		h-0.66l0.18-1.35c0.01-0.09,0.02-0.18,0.01-0.27c0-0.07-0.02-0.14-0.05-0.2c-0.03-0.05-0.07-0.1-0.12-0.12
		c-0.07-0.03-0.14-0.05-0.22-0.04c-0.07,0-0.13,0.01-0.19,0.03c-0.07,0.03-0.13,0.06-0.18,0.11c-0.06,0.06-0.12,0.13-0.15,0.21
		c-0.05,0.1-0.08,0.2-0.09,0.31l-0.17,1.31h-0.66l0.32-2.41L1324.57,2254.39z"/>
	<path id="Path_36" class="st9" d="M1327.81,2256.85c-0.2,0-0.39-0.03-0.58-0.09c-0.15-0.05-0.29-0.14-0.4-0.26
		c-0.1-0.11-0.18-0.25-0.22-0.4c-0.04-0.17-0.05-0.34-0.03-0.51c0.02-0.18,0.07-0.35,0.15-0.51c0.07-0.15,0.17-0.29,0.3-0.4
		c0.12-0.11,0.27-0.2,0.42-0.26c0.17-0.06,0.35-0.09,0.53-0.09c0.16,0,0.32,0.02,0.47,0.08c0.12,0.05,0.23,0.13,0.31,0.24
		c0.08,0.11,0.14,0.24,0.16,0.37c0.03,0.16,0.03,0.33,0.01,0.49l-0.03,0.26h-1.68c0,0.09,0.01,0.19,0.05,0.27
		c0.03,0.07,0.09,0.13,0.15,0.18c0.07,0.05,0.15,0.08,0.24,0.1c0.1,0.02,0.2,0.04,0.3,0.03c0.1,0,0.2-0.01,0.3-0.02
		c0.1-0.01,0.2-0.03,0.3-0.07l0.01,0.47c-0.12,0.03-0.23,0.05-0.35,0.07C1328.08,2256.85,1327.94,2256.86,1327.81,2256.85
		 M1327.92,2254.77c-0.15,0-0.3,0.05-0.41,0.16c-0.12,0.11-0.2,0.25-0.23,0.41h1.06c0.03-0.14,0-0.29-0.08-0.41
		C1328.18,2254.82,1328.05,2254.76,1327.92,2254.77"/>
	<path id="Path_37" class="st9" d="M1331.04,2254.95c-0.11-0.05-0.23-0.08-0.34-0.1c-0.1-0.02-0.21-0.03-0.31-0.03
		c-0.08,0-0.16,0.01-0.24,0.04c-0.06,0.03-0.1,0.09-0.11,0.15c-0.01,0.07,0.02,0.13,0.07,0.17c0.11,0.06,0.22,0.11,0.34,0.15
		c0.11,0.03,0.22,0.08,0.33,0.13c0.09,0.04,0.17,0.1,0.24,0.16c0.06,0.06,0.11,0.13,0.13,0.21c0.03,0.09,0.03,0.19,0.02,0.28
		c-0.01,0.13-0.06,0.25-0.14,0.35c-0.07,0.09-0.16,0.17-0.26,0.23c-0.11,0.06-0.22,0.1-0.34,0.12c-0.12,0.03-0.24,0.04-0.37,0.04
		c-0.16,0-0.32-0.02-0.47-0.04c-0.15-0.03-0.29-0.07-0.43-0.12l0.19-0.49c0.13,0.06,0.26,0.1,0.4,0.13
		c0.12,0.03,0.24,0.04,0.36,0.04c0.1,0,0.2-0.01,0.3-0.05c0.07-0.03,0.12-0.09,0.12-0.17c0.01-0.07-0.03-0.14-0.09-0.18
		c-0.12-0.07-0.25-0.12-0.38-0.16c-0.2-0.05-0.38-0.16-0.53-0.3c-0.11-0.12-0.15-0.28-0.12-0.43c0.03-0.24,0.17-0.45,0.37-0.57
		c0.1-0.06,0.21-0.11,0.33-0.14c0.12-0.03,0.23-0.04,0.35-0.04c0.14,0,0.27,0.01,0.4,0.03c0.13,0.02,0.26,0.05,0.38,0.1
		L1331.04,2254.95z"/>
	<path id="Path_38" class="st9" d="M1333.27,2254.95c-0.11-0.05-0.23-0.08-0.34-0.1c-0.1-0.02-0.21-0.03-0.31-0.03
		c-0.08,0-0.16,0.01-0.24,0.04c-0.06,0.03-0.1,0.09-0.11,0.15c-0.01,0.07,0.02,0.13,0.07,0.17c0.11,0.06,0.22,0.11,0.34,0.15
		c0.11,0.03,0.22,0.08,0.33,0.13c0.09,0.04,0.17,0.1,0.24,0.16c0.06,0.06,0.11,0.13,0.13,0.21c0.03,0.09,0.03,0.19,0.02,0.28
		c-0.01,0.13-0.06,0.25-0.14,0.35c-0.07,0.09-0.16,0.17-0.26,0.23c-0.11,0.06-0.22,0.1-0.34,0.12c-0.12,0.03-0.24,0.04-0.37,0.04
		c-0.16,0-0.32-0.02-0.47-0.04c-0.15-0.03-0.29-0.07-0.43-0.12l0.19-0.49c0.13,0.06,0.26,0.1,0.4,0.13
		c0.12,0.03,0.24,0.04,0.36,0.04c0.1,0,0.2-0.01,0.3-0.05c0.07-0.03,0.12-0.09,0.12-0.17c0.01-0.07-0.03-0.14-0.09-0.18
		c-0.12-0.07-0.25-0.12-0.38-0.16c-0.2-0.06-0.38-0.16-0.53-0.3c-0.11-0.12-0.15-0.28-0.12-0.43c0.02-0.12,0.06-0.24,0.13-0.34
		c0.06-0.09,0.15-0.17,0.25-0.23c0.1-0.06,0.21-0.11,0.33-0.14c0.12-0.03,0.23-0.04,0.35-0.04c0.14,0,0.27,0.01,0.4,0.03
		c0.13,0.02,0.26,0.05,0.38,0.1L1333.27,2254.95z"/>
	<path id="Path_39" class="st9" d="M1337.62,2254.13c-0.09-0.03-0.18-0.06-0.28-0.08c-0.1-0.02-0.2-0.03-0.3-0.03
		c-0.16,0-0.33,0.03-0.48,0.09c-0.14,0.06-0.26,0.14-0.37,0.25c-0.1,0.11-0.19,0.23-0.25,0.37c-0.06,0.14-0.11,0.29-0.13,0.45
		c-0.02,0.14-0.02,0.29,0.01,0.43c0.02,0.13,0.08,0.25,0.15,0.36c0.08,0.11,0.18,0.19,0.3,0.25c0.14,0.07,0.29,0.1,0.45,0.09
		c0.12,0,0.23-0.01,0.34-0.03c0.1-0.02,0.2-0.05,0.3-0.09l0.05,0.52c-0.13,0.05-0.26,0.09-0.4,0.11c-0.15,0.02-0.29,0.03-0.44,0.03
		c-0.23,0-0.46-0.04-0.67-0.12c-0.19-0.08-0.35-0.2-0.48-0.35c-0.13-0.15-0.22-0.34-0.27-0.53c-0.05-0.22-0.06-0.45-0.03-0.68
		c0.03-0.24,0.1-0.47,0.2-0.68c0.1-0.2,0.24-0.38,0.4-0.54c0.17-0.15,0.36-0.27,0.58-0.35c0.23-0.09,0.48-0.13,0.72-0.13
		c0.14,0,0.28,0.01,0.42,0.03c0.12,0.02,0.24,0.05,0.35,0.1L1337.62,2254.13z"/>
	<path id="Path_40" class="st9" d="M1339.08,2256.85c-0.19,0-0.39-0.03-0.57-0.09c-0.15-0.05-0.29-0.14-0.4-0.26
		c-0.1-0.11-0.18-0.25-0.22-0.4c-0.04-0.17-0.05-0.34-0.03-0.51c0.02-0.18,0.07-0.35,0.15-0.51c0.07-0.15,0.17-0.29,0.3-0.4
		c0.12-0.11,0.27-0.2,0.42-0.26c0.17-0.06,0.35-0.09,0.53-0.09c0.16,0,0.32,0.02,0.47,0.08c0.12,0.05,0.23,0.14,0.31,0.24
		c0.08,0.11,0.14,0.24,0.16,0.37c0.03,0.16,0.03,0.33,0.01,0.49l-0.03,0.26h-1.68c0,0.09,0.01,0.19,0.05,0.27
		c0.03,0.07,0.09,0.13,0.15,0.18c0.07,0.05,0.15,0.08,0.24,0.1c0.1,0.02,0.2,0.04,0.29,0.03c0.1,0,0.2-0.01,0.3-0.02
		c0.1-0.01,0.2-0.03,0.3-0.07l0.01,0.47c-0.12,0.03-0.23,0.05-0.35,0.07C1339.34,2256.85,1339.21,2256.86,1339.08,2256.85
		 M1339.19,2254.77c-0.15,0-0.3,0.05-0.41,0.16c-0.12,0.11-0.2,0.25-0.23,0.41h1.06c0.03-0.14,0-0.29-0.08-0.41
		C1339.45,2254.82,1339.32,2254.76,1339.19,2254.77"/>
	<path id="Path_41" class="st9" d="M1341.52,2254.39l-0.04,0.32h0.01c0.08-0.12,0.2-0.22,0.33-0.28c0.14-0.06,0.3-0.1,0.46-0.1
		c0.13,0,0.25,0.02,0.37,0.06c0.1,0.04,0.19,0.1,0.26,0.18c0.07,0.08,0.12,0.18,0.14,0.28c0.03,0.12,0.03,0.24,0.02,0.36l-0.21,1.59
		h-0.66l0.18-1.35c0.01-0.09,0.02-0.18,0.01-0.27c0-0.07-0.02-0.14-0.05-0.2c-0.03-0.05-0.07-0.1-0.12-0.12
		c-0.07-0.03-0.14-0.05-0.22-0.04c-0.14,0-0.28,0.05-0.38,0.15c-0.06,0.06-0.12,0.13-0.15,0.21c-0.05,0.1-0.08,0.2-0.09,0.31
		l-0.17,1.31h-0.66l0.32-2.41L1341.52,2254.39z"/>
	<path id="Path_42" class="st9" d="M1343.53,2254.39h0.38l0.08-0.64h0.66l-0.08,0.64h0.51l-0.06,0.49h-0.51l-0.14,1.08
		c-0.01,0.07-0.01,0.13-0.01,0.2c0,0.04,0.01,0.08,0.03,0.11c0.02,0.03,0.05,0.04,0.08,0.05c0.05,0.01,0.09,0.01,0.14,0.01
		c0.04,0,0.07,0,0.11-0.01c0.03,0,0.07-0.01,0.11-0.01l-0.06,0.49c-0.06,0.01-0.13,0.01-0.21,0.02s-0.15,0.01-0.22,0.01
		c-0.12,0-0.25-0.01-0.37-0.04c-0.08-0.02-0.15-0.07-0.2-0.13c-0.05-0.06-0.08-0.14-0.08-0.22c-0.01-0.1,0-0.2,0.01-0.3l0.16-1.25
		h-0.38L1343.53,2254.39z"/>
	<path id="Path_43" class="st9" d="M1346.41,2256.85c-0.2,0-0.39-0.03-0.58-0.09c-0.15-0.05-0.29-0.14-0.4-0.26
		c-0.1-0.11-0.18-0.25-0.22-0.4c-0.04-0.17-0.05-0.34-0.03-0.51c0.02-0.18,0.08-0.35,0.16-0.51c0.07-0.15,0.17-0.29,0.3-0.4
		c0.12-0.11,0.27-0.2,0.42-0.26c0.17-0.06,0.35-0.09,0.53-0.09c0.16,0,0.32,0.02,0.47,0.08c0.12,0.05,0.23,0.14,0.31,0.24
		c0.08,0.11,0.14,0.24,0.16,0.37c0.03,0.16,0.03,0.33,0.01,0.49l-0.03,0.26h-1.68c0,0.09,0.01,0.19,0.05,0.27
		c0.03,0.07,0.09,0.13,0.15,0.18c0.07,0.05,0.15,0.08,0.24,0.1c0.1,0.02,0.2,0.04,0.29,0.03c0.1,0,0.2-0.01,0.3-0.02
		c0.1-0.01,0.2-0.04,0.3-0.07l0.01,0.47c-0.12,0.03-0.23,0.05-0.35,0.07C1346.69,2256.85,1346.55,2256.85,1346.41,2256.85
		 M1346.53,2254.77c-0.15,0-0.3,0.05-0.41,0.16c-0.12,0.11-0.2,0.25-0.23,0.41h1.06c0.03-0.14,0-0.29-0.08-0.41
		C1346.79,2254.82,1346.66,2254.76,1346.53,2254.77"/>
	<path id="Path_44" class="st9" d="M1349.6,2254.84c-0.03-0.01-0.06-0.01-0.09-0.02c-0.03,0-0.06,0-0.1,0
		c-0.08,0-0.16,0.01-0.23,0.04c-0.08,0.03-0.15,0.08-0.21,0.14c-0.07,0.07-0.13,0.16-0.16,0.25c-0.05,0.12-0.08,0.25-0.1,0.38
		l-0.15,1.16h-0.66l0.32-2.41h0.65l-0.04,0.31h0.01c0.14-0.24,0.41-0.38,0.69-0.37c0.03,0,0.06,0,0.09,0c0.03,0,0.06,0,0.09,0.01
		L1349.6,2254.84z"/>
	<path id="Path_45" class="st9" d="M1366.4,2250.47c-0.09,0.15-0.27,0.22-0.43,0.17c-0.32-0.09-0.63-0.19-0.96-0.28
		c-0.31-0.09-0.63-0.17-0.95-0.26c-0.64-0.16-1.27-0.3-1.92-0.42l-0.01,0c-0.3-0.05-0.5-0.33-0.45-0.63v-0.01
		c0.01-0.06,0.03-0.11,0.06-0.17c0.3-0.54,0.64-1.05,1.01-1.54c0.35-0.49,0.74-0.96,1.15-1.4c0.14-0.15,0.38-0.16,0.54-0.03
		c0.13,0.11,0.16,0.3,0.08,0.45l0,0c-0.28,0.53-0.59,1.04-0.89,1.54l-0.46,0.75c-0.02,0.03-0.04,0.07-0.06,0.1
		c0.42,0.1,0.84,0.22,1.25,0.36c0.33,0.11,0.65,0.24,0.96,0.38c0.32,0.14,0.63,0.29,0.93,0.46
		C1366.44,2250.06,1366.51,2250.29,1366.4,2250.47C1366.4,2250.47,1366.4,2250.47,1366.4,2250.47L1366.4,2250.47"/>
	<path id="Path_46" class="st9" d="M1358.95,2249.64c-0.05,0.03-0.11,0.05-0.17,0.06l-0.01,0c-0.64,0.11-1.28,0.26-1.91,0.42
		c-0.32,0.08-0.63,0.16-0.95,0.26c-0.32,0.08-0.63,0.18-0.95,0.28h0c-0.2,0.06-0.41-0.06-0.47-0.26c-0.05-0.17,0.03-0.34,0.18-0.43
		c0.3-0.17,0.61-0.31,0.93-0.46s0.64-0.27,0.97-0.38c0.41-0.14,0.83-0.26,1.25-0.36c-0.02-0.04-0.04-0.07-0.06-0.1l-0.46-0.75
		c-0.31-0.5-0.61-1.01-0.89-1.54v-0.01c-0.1-0.18-0.03-0.4,0.15-0.5c0,0,0,0,0,0l0.01,0c0.15-0.08,0.34-0.04,0.46,0.08
		c0.41,0.45,0.79,0.91,1.15,1.4c0.37,0.49,0.71,1.01,1.01,1.54C1359.32,2249.16,1359.23,2249.49,1358.95,2249.64
		C1358.96,2249.63,1358.96,2249.63,1358.95,2249.64L1358.95,2249.64"/>
	<path id="Path_47" class="st9" d="M1362.89,2256.6c-0.17,0.06-0.36,0-0.46-0.15v0c-0.21-0.34-0.41-0.68-0.62-1.02l-0.6-1.03
		l-0.6-1.02c-0.04-0.08-0.09-0.15-0.14-0.23c-0.05,0.08-0.1,0.16-0.14,0.24l-0.6,1.03l-0.61,1.03c-0.21,0.34-0.41,0.68-0.63,1.02
		l0,0c-0.11,0.17-0.35,0.22-0.52,0.11c-0.15-0.09-0.21-0.28-0.15-0.44c0.14-0.38,0.3-0.74,0.46-1.11c0.16-0.37,0.33-0.73,0.51-1.09
		c0.18-0.36,0.36-0.72,0.56-1.08c0.2-0.37,0.41-0.72,0.64-1.06l0.01-0.01c0.17-0.25,0.52-0.32,0.77-0.15
		c0.06,0.04,0.11,0.1,0.16,0.16c0.24,0.36,0.44,0.71,0.63,1.07c0.19,0.36,0.38,0.71,0.55,1.08s0.35,0.72,0.51,1.09
		s0.33,0.73,0.47,1.11C1363.18,2256.31,1363.09,2256.52,1362.89,2256.6C1362.89,2256.6,1362.89,2256.6,1362.89,2256.6
		L1362.89,2256.6"/>
	<path id="Path_48" class="st9" d="M1360.08,2244.31c-0.08-0.28-0.13-0.56-0.15-0.84c-0.02-0.28-0.03-0.56-0.03-0.84
		c0-0.57,0.07-1.13,0.19-1.69c0.05-0.21,0.27-0.33,0.48-0.28c0.14,0.04,0.24,0.14,0.28,0.28c0.12,0.55,0.18,1.12,0.18,1.69
		c0,0.28-0.01,0.56-0.03,0.84c-0.03,0.29-0.08,0.57-0.16,0.84c-0.07,0.21-0.29,0.32-0.5,0.25
		C1360.21,2244.54,1360.12,2244.44,1360.08,2244.31"/>
	<path id="Path_49" class="st9" d="M1367.76,2252.98c-0.11,0.17-0.32,0.24-0.51,0.18h0c-0.41-0.14-0.81-0.29-1.22-0.42
		c-0.41-0.13-0.82-0.26-1.23-0.37c-0.39-0.11-0.79-0.21-1.19-0.3c0.26,0.48,0.54,0.95,0.82,1.44c0.25,0.44,0.5,0.88,0.73,1.33
		c0.23,0.46,0.46,0.91,0.66,1.38c0.09,0.21-0.01,0.46-0.22,0.55c0,0,0,0,0,0l-0.01,0.01c-0.19,0.08-0.41,0.01-0.53-0.16l-1.66-2.5
		c-0.57-0.85-1.09-1.73-1.56-2.64l0,0c-0.16-0.31-0.03-0.68,0.27-0.84c0,0,0,0,0,0l0.01-0.01c0.12-0.06,0.26-0.08,0.4-0.06
		c0.9,0.15,1.78,0.38,2.64,0.69c0.43,0.15,0.85,0.32,1.26,0.51c0.41,0.2,0.81,0.39,1.2,0.63
		C1367.82,2252.52,1367.89,2252.78,1367.76,2252.98C1367.77,2252.98,1367.77,2252.98,1367.76,2252.98L1367.76,2252.98"/>
	<path id="Path_50" class="st9" d="M1359.09,2251.48L1359.09,2251.48c-0.47,0.91-0.99,1.8-1.56,2.65l-1.65,2.5
		c-0.13,0.19-0.4,0.25-0.6,0.12c-0.17-0.11-0.24-0.33-0.16-0.52c0.19-0.47,0.43-0.93,0.66-1.39c0.23-0.45,0.48-0.89,0.73-1.33
		c0.27-0.48,0.55-0.96,0.81-1.44c-0.4,0.09-0.79,0.19-1.19,0.3c-0.41,0.12-0.82,0.24-1.23,0.37c-0.41,0.13-0.82,0.28-1.22,0.42h0
		c-0.22,0.08-0.47-0.04-0.55-0.26c-0.07-0.19,0.01-0.4,0.18-0.5c0.39-0.24,0.79-0.43,1.2-0.63c0.41-0.19,0.83-0.36,1.26-0.51
		c0.86-0.31,1.74-0.54,2.64-0.7c0.35-0.06,0.68,0.17,0.74,0.51C1359.16,2251.22,1359.15,2251.36,1359.09,2251.48"/>
	<path id="Path_51" class="st9" d="M1366.3,2253.78c0.27,0.14,0.53,0.3,0.76,0.48c0.24,0.18,0.46,0.38,0.67,0.59
		c0.43,0.42,0.81,0.89,1.11,1.41c0.1,0.18,0.03,0.41-0.15,0.51c0,0,0,0,0,0l-0.01,0c-0.13,0.07-0.29,0.06-0.41-0.02l0,0
		c-0.47-0.34-0.92-0.71-1.34-1.12c-0.21-0.2-0.41-0.4-0.61-0.62c-0.2-0.22-0.38-0.45-0.54-0.7c-0.11-0.18-0.06-0.41,0.12-0.53
		l0.01-0.01C1366.04,2253.72,1366.18,2253.72,1366.3,2253.78"/>
	<path id="Path_52" class="st9" d="M1355.12,2254.32c-0.16,0.25-0.34,0.48-0.54,0.7c-0.19,0.22-0.4,0.42-0.61,0.62
		c-0.42,0.41-0.86,0.78-1.33,1.12l-0.01,0c-0.17,0.12-0.41,0.08-0.54-0.09c-0.08-0.12-0.09-0.27-0.02-0.4c0.3-0.52,0.68-1,1.11-1.41
		c0.21-0.21,0.43-0.41,0.67-0.6c0.24-0.19,0.49-0.35,0.76-0.49c0.19-0.1,0.43-0.02,0.53,0.17
		C1355.2,2254.06,1355.19,2254.2,1355.12,2254.32L1355.12,2254.32z"/>
	<path id="Path_53" class="st9" d="M1363.55,2243.92c-0.37,0.77-0.78,1.51-1.21,2.25c-0.43,0.73-0.87,1.46-1.33,2.18l0,0
		c-0.12,0.18-0.33,0.29-0.54,0.29h0c-0.22,0-0.42-0.11-0.54-0.3c-0.45-0.72-0.89-1.45-1.31-2.19c-0.22-0.37-0.42-0.74-0.63-1.11
		c-0.2-0.37-0.41-0.75-0.6-1.13c-0.1-0.21-0.02-0.46,0.19-0.56c0,0,0,0,0,0l0.01,0c0.18-0.09,0.4-0.04,0.53,0.12
		c0.26,0.33,0.51,0.69,0.76,1.03c0.25,0.35,0.49,0.7,0.73,1.05c0.29,0.42,0.57,0.85,0.85,1.28c0.28-0.43,0.56-0.86,0.85-1.28
		c0.48-0.7,0.97-1.4,1.51-2.07c0.15-0.18,0.42-0.22,0.61-0.07C1363.58,2243.53,1363.63,2243.74,1363.55,2243.92"/>
	<script  type="text/javascript">//	<![CDATA[  <-- For SVG support
	if ('WebSocket' in window) {
		(function () {
			function refreshCSS() {
				var sheets = [].slice.call(document.getElementsByTagName("link"));
				var head = document.getElementsByTagName("head")[0];
				for (var i = 0; i < sheets.length; ++i) {
					var elem = sheets[i];
					var parent = elem.parentElement || head;
					parent.removeChild(elem);
					var rel = elem.rel;
					if (elem.href && typeof rel != "string" || rel.length == 0 || rel.toLowerCase() == "stylesheet") {
						var url = elem.href.replace(/(&|\?)_cacheOverride=\d+/, '');
						elem.href = url + (url.indexOf('?') >= 0 ? '&' : '?') + '_cacheOverride=' + (new Date().valueOf());
					}
					parent.appendChild(elem);
				}
			}
			var protocol = window.location.protocol === 'http:' ? 'ws://' : 'wss://';
			var address = protocol + window.location.host + window.location.pathname + '/ws';
			var socket = new WebSocket(address);
			socket.onmessage = function (msg) {
				if (msg.data == 'reload') window.location.reload();
				else if (msg.data == 'refreshcss') refreshCSS();
			};
			if (sessionStorage && !sessionStorage.getItem('IsThisFirstTime_Log_From_LiveServer')) {
				console.log('Live reload enabled.');
				sessionStorage.setItem('IsThisFirstTime_Log_From_LiveServer', true);
			}
		})();
	}
	else {
		console.error('Upgrade your browser. This Browser is NOT supported WebSocket for Live-Reloading.');
	}
	// 
		]]>
</script>
	<g>
		<path class="st8" d="M1277.03,2316.14h-9.6c-8.9,0-16.12,7.22-16.12,16.12v9.6c0,8.9,7.22,16.12,16.12,16.12h9.6
			c8.9,0,16.12-7.22,16.12-16.12v-9.6C1293.15,2323.35,1285.93,2316.14,1277.03,2316.14z"/>
		<g>
			<path class="st9" d="M1261.38,2344.64c0.29,0,0.58,0.04,0.86,0.11c0.6,0.15,1.19,0.48,1.57,1.05c0.38,0.57,0.51,1.32,0.35,2.12
				l-0.01,0.03l-0.01,0.03c-0.22,0.75-0.8,1.26-1.35,1.5c-0.55,0.24-1.07,0.32-1.48,0.41c-0.24,0.05-0.44,0.14-0.56,0.31
				c-0.09,0.12-0.14,0.29-0.13,0.52l0.02,0.89h3.41v1.68h-5.22v-1.68l-0.02-1.37c0.07-0.49,0.26-0.92,0.56-1.23
				c0.48-0.49,1.07-0.64,1.56-0.75c0.49-0.11,0.93-0.2,1.19-0.31c0.28-0.11,0.43-0.37,0.45-0.65c0.01-0.19-0.03-0.39-0.14-0.56
				c-0.11-0.16-0.29-0.29-0.58-0.36c-0.58-0.14-1.44,0.08-1.83,0.5l-1.23-1.15c0.68-0.72,1.61-1.08,2.54-1.09
				C1261.34,2344.64,1261.36,2344.64,1261.38,2344.64z"/>
			<path class="st9" d="M1271.21,2344.64v4.25h0.69v1.68h-0.69v2.72h-1.68v-2.72h-3.62l0.86-5.94h1.7l-0.62,4.25h1.67v-4.25H1271.21
				z"/>
			<path class="st9" d="M1278.24,2344.64l-2.89,8.66h-1.78l2.89-8.66H1278.24z"/>
			<path class="st9" d="M1285.69,2344.64l-3.06,8.66h-1.79l2.46-6.97h-3.39v-1.68H1285.69z"/>
		</g>
		<g>
			<path class="st9" d="M1272.38,2340.59c-6.09,0-11.04-4.95-11.04-11.04s4.95-11.04,11.04-11.04s11.04,4.95,11.04,11.04
				S1278.47,2340.59,1272.38,2340.59z M1272.38,2319.58c-5.5,0-9.97,4.47-9.97,9.97c0,5.5,4.47,9.97,9.97,9.97s9.97-4.47,9.97-9.97
				C1282.35,2324.05,1277.88,2319.58,1272.38,2319.58z"/>
		</g>
		<g>
			<polygon class="st9" points="1278.99,2330.08 1271.85,2330.08 1271.85,2321.8 1272.91,2321.8 1272.91,2329.02 1278.99,2329.02 
							"/>
		</g>
	</g>
	<g>
		<defs>
			<path id="SVGID_1_" d="M1232.4,2370.27c-7.04-7.6-22.91-24.71-21.62-46.12c1.04-17.28,12.21-20.02,16.99-42.71
				c4.76-22.59-4.84-26.8-0.84-48.42c0.59-3.17,7.39-37.4,32.84-49.68c21.31-10.28,32.9,5.83,57.23-3.95
				c22.31-8.97,19.14-25.16,40.86-34.36c23.17-9.82,51.42-1.85,69.8,11.14c1.35,0.96,26.72,19.45,32.92,52.01
				c4.28,22.44-5.4,26.04-1.71,50.92c3.71,25.01,14.35,27.14,20.66,54.34c3.54,15.27,10.42,44.91-2.95,57.26
				c-18.33,16.93-52.91-18.81-97.84-3.56c-26.23,8.91-22.74,23.91-49.41,31.87C1296,2408.94,1256.04,2395.76,1232.4,2370.27z"/>
		</defs>
		<clipPath id="SVGID_00000066475098944893028080000011685113901674499497_">
			<use xlink:href="#SVGID_1_"  style="overflow:visible;"/>
		</clipPath>
		<path style="clip-path:url(#SVGID_00000066475098944893028080000011685113901674499497_);fill:#FB9C98;" d="M1354.18,2285.23
			L1354.18,2285.23c19.29-5.35,34.71,6.29,40.06,25.57l20.32,93.21l-74.12,0.1l-5.97-73.63
			C1329.11,2311.19,1334.89,2290.58,1354.18,2285.23z"/>
	</g>
	<path class="st11" d="M1318.3,2287.1"/>
	<path class="st11" d="M1342.81,2336.3"/>
	<path class="st3" d="M1279.26,2271.09l0.03-4.9c0.03-4.55,3.73-8.21,8.28-8.19l5.61,0.03c4.55,0.03,8.21,3.73,8.19,8.28l-0.03,4.9
		c-0.03,4.55-3.73,8.21-8.28,8.19l-5.61-0.03C1282.9,2279.34,1279.23,2275.64,1279.26,2271.09z"/>
	<path class="st3" d="M1279.38,2249.75l0.03-4.9c0.03-4.55,3.73-8.21,8.28-8.19l4.9,0.03c4.55,0.03,8.21,3.73,8.19,8.28l-0.03,4.9
		c-0.03,4.55-3.73,8.21-8.28,8.19l-4.9-0.03C1283.02,2258.01,1279.36,2254.3,1279.38,2249.75z"/>
	<path class="st3" d="M1383.32,2335.72l16.36-0.01l-0.05-89.03l-9.88,0.01c-18.33,0.01-33.19,14.88-33.18,33.22l0.02,29.11
		C1356.58,2323.77,1368.56,2335.73,1383.32,2335.72z"/>
	<path class="st12" d="M1356.24,2290.07v7.83c0,5.76,1.82,12.52,5.25,17.84l5.16,8.01"/>
	<path class="st13" d="M1291.36,2240.05c4.04,0,7.31,3.27,7.31,7.31s-3.27,7.31-7.31,7.31V2240.05z"/>
	<path class="st13" d="M1291.36,2261.39c4.04,0,7.31,3.27,7.31,7.31c0,4.03-3.27,7.31-7.31,7.31V2261.39z"/>
	<path class="st3" d="M1279.39,2226.37l0.01-2.2c0.03-5.3,3.74-9.56,8.3-9.53l1.89,0.01c4.56,0.03,8.23,4.35,8.2,9.64l-0.01,2.2
		c-0.03,5.3-3.74,9.56-8.3,9.53l-1.89-0.01C1283.04,2235.99,1279.37,2231.67,1279.39,2226.37z"/>
	<path class="st13" d="M1289.69,2218.03c3.47,0,6.29,3.27,6.29,7.31s-2.81,7.31-6.29,7.31V2218.03z"/>
	<path class="st3" d="M1369.93,2185.96l0.03,0l13.78,15.65l8.8,10.05c4.56,5.2,7.07,11.88,7.08,18.8l0.02,34.23l-22.52,0.01
		l-0.02-34.77c0-1.13-0.41-2.21-1.16-3.06l-8.01-9.06C1359.68,2208.46,1360.59,2194.2,1369.93,2185.96z"/>
	<polygon class="st13" points="1369.96,2185.96 1375.19,2198.33 1380.85,2198.33 	"/>
	<g>
		<g>
			<path class="st14" d="M1396.12,2160.17h27.07c2,0,3.62,1.62,3.62,3.62v14.08c0,2-1.62,3.62-3.62,3.62h-8.98h-0.76h-7.58h-1.33
				h-8.41c-2,0-3.62-1.62-3.62-3.62v-14.08C1392.5,2161.8,1394.12,2160.17,1396.12,2160.17z"/>
			<polygon class="st14" points="1395.85,2186.44 1395.85,2181.5 1403.43,2181.5 			"/>
			<path class="st8" d="M1432.89,2153.97h-27.07c-2,0-3.62,1.62-3.62,3.62v14.08c0,2,1.62,3.62,3.62,3.62h8.98h0.76h7.58h1.33h8.41
				c2,0,3.62-1.62,3.62-3.62v-14.08C1436.52,2155.59,1434.89,2153.97,1432.89,2153.97z"/>
			<path class="st9" d="M1421.39,2165.15c0-1.12-0.91-2.03-2.03-2.03s-2.03,0.91-2.03,2.03c0,1.12,0.91,2.03,2.03,2.03
				S1421.39,2166.28,1421.39,2165.15z"/>
			<circle class="st9" cx="1427.03" cy="2165.15" r="2.03"/>
			<circle class="st9" cx="1411.69" cy="2165.15" r="2.03"/>
		</g>
		<polygon class="st8" points="1433.17,2180.24 1433.17,2175.3 1425.58,2175.3 		"/>
	</g>
	<g>
		<g>
			<rect x="1194.39" y="2204.18" class="st15" width="65.9" height="42.31"/>
			<polygon class="st14" points="1194.39,2246.49 1227.34,2225.34 1260.29,2246.49 			"/>
			<polyline class="st16" points="1243.81,2217.88 1227.34,2231.57 1210.86,2217.88 			"/>
			<polygon class="st14" points="1194.39,2204.18 1227.34,2231.04 1260.28,2204.18 			"/>
		</g>
		<g>
			<path class="st15" d="M1227.68,2207.17c4.42,0,8.09,3.32,8.63,7.6c0.13,1.07,0.07,1.89-0.62,2.88c-0.64,0.82-1.66,1.4-2.75,1.59
				c-0.86,0.11-1.78-0.05-2.51-0.63c-0.12-0.1-0.24-0.21-0.34-0.33c-0.62,0.62-1.47,1-2.41,1c-1.88,0-3.42-1.54-3.42-3.42
				s1.54-3.42,3.42-3.42c0.57,0,1.11,0.14,1.58,0.39v-0.31h1.84v3.33c0,0.76,0.22,1.1,0.48,1.31c0.26,0.21,0.66,0.31,1.12,0.25
				c0.9-0.12,1.78-0.79,1.84-1.74c-0.1-3.71-3.12-6.67-6.86-6.67c-3.8,0-6.86,3.06-6.86,6.86s3.06,6.86,6.86,6.86
				c1.52,0,2.92-0.49,4.06-1.32l1.12,1.44c-1.45,1.08-3.24,1.72-5.18,1.72c-4.79,0-8.7-3.9-8.7-8.7
				C1218.99,2211.07,1222.89,2207.17,1227.68,2207.17z M1227.68,2214.28c-0.88,0-1.58,0.7-1.58,1.58c0,0.88,0.7,1.58,1.58,1.58
				c0.88,0,1.58-0.7,1.58-1.58C1229.26,2214.98,1228.57,2214.28,1227.68,2214.28z"/>
		</g>
	</g>
</g>
<script  type="text/javascript">//<![CDATA[  <-- For SVG support
	if ('WebSocket' in window) {
		(function () {
			function refreshCSS() {
				var sheets = [].slice.call(document.getElementsByTagName("link"));
				var head = document.getElementsByTagName("head")[0];
				for (var i = 0; i < sheets.length; ++i) {
					var elem = sheets[i];
					var parent = elem.parentElement || head;
					parent.removeChild(elem);
					var rel = elem.rel;
					if (elem.href && typeof rel != "string" || rel.length == 0 || rel.toLowerCase() == "stylesheet") {
						var url = elem.href.replace(/(&|\?)_cacheOverride=\d+/, '');
						elem.href = url + (url.indexOf('?') >= 0 ? '&' : '?') + '_cacheOverride=' + (new Date().valueOf());
					}
					parent.appendChild(elem);
				}
			}
			var protocol = window.location.protocol === 'http:' ? 'ws://' : 'wss://';
			var address = protocol + window.location.host + window.location.pathname + '/ws';
			var socket = new WebSocket(address);
			socket.onmessage = function (msg) {
				if (msg.data == 'reload') window.location.reload();
				else if (msg.data == 'refreshcss') refreshCSS();
			};
			if (sessionStorage && !sessionStorage.getItem('IsThisFirstTime_Log_From_LiveServer')) {
				console.log('Live reload enabled.');
				sessionStorage.setItem('IsThisFirstTime_Log_From_LiveServer', true);
			}
		})();
	}
	else {
		console.error('Upgrade your browser. This Browser is NOT supported WebSocket for Live-Reloading.');
	}
	// 
	]]>
</script>
</svg>
